;TYPE=PLATED
;Layer: PTH_Through
;EasyEDA Pro Client v2.1.27.74734765.450747, 2024-06-16 14:56:06
;Gerber Generator version 0.3
M48
METRIC,LZ,000.000
;Hole size 1 = 0.254 METRIC
T01C0.254
;Hole size 2 = 0.305 METRIC
T02C0.305
;Hole size 3 = 0.700 METRIC
T03C0.700
%
G05
G90
T01
X014486Y008345
X015136Y008218
X011430Y011049
X011938Y010541
X016809Y012220
X016301Y011720
X016301Y014720
X016809Y014220
X016809Y015220
X016301Y013720
X016809Y013220
X024235Y012086
X025016Y012086
X026616Y012086
X027397Y012086
X025816Y012086
X029937Y007493
X029937Y008509
X029927Y006812
X030660Y010966
X029057Y014827
X029072Y014151
X030938Y014640
X031249Y013945
X031192Y012314
X028945Y012786
X028935Y012075
X022694Y018902
X028060Y017393
X027380Y017393
X032551Y009416
X032551Y010414
X029072Y013462
X002584Y007874
X002577Y007184
X005209Y015220
X007495Y012220
X005209Y014220
X005209Y013220
X009673Y007561
X010430Y007561
X020595Y012697
X020595Y012027
X025816Y018902
X025035Y018902
X022246Y015986
X023780Y014297
X023770Y013601
X021463Y024130
X023234Y022867
X017037Y024151
X012882Y023614
X010668Y023876
X010750Y004029
X011600Y004029
X010750Y002678
X011600Y002678
X017945Y019953
X029013Y015488
X029079Y016576
X005207Y005969
X004318Y007366
X019939Y019431
X019939Y018669
X013898Y003937
X032639Y019558
X033147Y021590
X020911Y019585
X022987Y025781
X006223Y002159
X031654Y006722
X003175Y005715
X025307Y017397
X024499Y017397
X005461Y023368
X003951Y021850
X012065Y015113
X019237Y016968
X016129Y019177
X020537Y003298
X021172Y003298
X021172Y002663
X021172Y002028
X021642Y005259
X021138Y010101
X018852Y010101
X019939Y011303
X011430Y019976
X029972Y009271
X029748Y022352
X030383Y022352
X030075Y021837
X028321Y022352
X027940Y021844
X026543Y027305
X013290Y012954
X011420Y011735
X010287Y012446
X017911Y021411
X020701Y022733
X018669Y022733
X001270Y003810
X024130Y025781
X021971Y025654
X022606Y007874
X034163Y011811
X034163Y010922
X033655Y018288
X015875Y003302
X016510Y003302
X016510Y002667
X015875Y002667
X015875Y002032
X012446Y007620
X011811Y007620
X032766Y013970
X030607Y015621
X017272Y012700
X018415Y012700
X019050Y012700
X018669Y012192
X019431Y013208
X018796Y013208
X018161Y013208
X024638Y020320
X025273Y020320
X023241Y019558
X009144Y027305
X009779Y027305
X010414Y027305
X011049Y027305
X004826Y004318
X005461Y004318
X006096Y004318
X014605Y025654
X015240Y025654
X015875Y025781
X016510Y025781
X017145Y025781
X013970Y025654
X011176Y007620
X016256Y008890
X013462Y009779
X010668Y009779
X006985Y001360
X030734Y021844
X017348Y018914
X031747Y018383
X032288Y022358
X025903Y027401
X031368Y021846
X031017Y022354
X031651Y022355
X031947Y021837
X032923Y022357
X033560Y022359
X034197Y022363
X032109Y020078
X022277Y005259
X021971Y007874
X023599Y005262
X025423Y005262
X023599Y004627
X025423Y004627
X025423Y003992
X023599Y003992
X025527Y006604
X025908Y005969
X032893Y005842
X033528Y005842
X034163Y005842
X032893Y005207
X033528Y005207
X034163Y005207
X032896Y003939
X033531Y003939
X034166Y003939
X032896Y004574
X033531Y004574
X034166Y004574
X032896Y003304
X033531Y003304
X034166Y003304
X025795Y003432
X023255Y003432
X024511Y002118
X023876Y002118
X025146Y002118
X022912Y005259
X022165Y006365
X021642Y005894
X019304Y006223
X019304Y005588
X028321Y019812
X030041Y019868
X010668Y016129
T02
X004064Y020955
X004699Y020955
X006731Y021082
X006731Y020447
X025301Y026555
X025936Y026555
X025301Y025920
X025936Y025920
X011314Y026050
X011314Y025415
X010679Y025415
X010679Y026050
X019177Y026035
X019202Y026754
X030988Y020955
X031496Y020955
X016440Y016971
X032475Y011926
X014650Y010220
X015748Y023114
X016383Y023114
X009226Y018566
X015113Y018923
X013539Y001300
X014174Y001300
X014174Y000665
X013539Y000665
X009398Y010287
X007239Y008001
X012827Y025654
X021463Y016129
X009226Y017931
X026416Y013732
X027416Y013732
X026416Y015732
X027416Y015732
X025416Y013732
X025416Y015732
X026416Y014732
X025416Y014731
X027416Y014732
T03
X001618Y018290G85X000918Y018290
X001618Y009650G85X000918Y009650
X005948Y009650G85X004948Y009650
X005948Y018290G85X004948Y018290
M30