G04 Layer: InnerLayer1*
G04 EasyEDA Pro v2.1.27.74734765.450747, 2024-06-16 14:56:05*
G04 Gerber Generator version 0.3*
G04 Scale: 100 percent, Rotated: No, Reflected: No*
G04 Dimensions in millimeters*
G04 Leading zeros omitted, absolute positions, 3 integers and 3 decimals*
%FSLAX33Y33*%
%MOMM*%
%ADD8191C,0.203*%
%ADD10O,1.8X1.2*%
%ADD11O,2.0X1.2*%
%ADD12C,0.61*%
%ADD13C,0.508*%
G75*


G04 Copper Start*
G36*
G01X12978Y665D02*
G03X13189Y227I561J0D01*
G01X7936D01*
G03X8492Y876I-101J649D01*
G03X7835Y1533I-657J0D01*
G03X7178Y876I0J-657D01*
G03X7734Y227I657J0D01*
G01X6236D01*
G03X6792Y876I-101J649D01*
G03X6135Y1533I-657J0D01*
G03X5478Y876I0J-657D01*
G03X6034Y227I657J0D01*
G01X1530D01*
G01X1526D01*
G02X283Y1470I0J1243D01*
G01Y26466D01*
G01Y26468D01*
G01Y26469D01*
G01Y26470D01*
G02X1526Y27713I1243J0D01*
G01X1529D01*
G01X1530D01*
G01X26822D01*
G01Y23368D01*
G03X27686Y22504I864J0D01*
G01X34769D01*
G01Y2970D01*
G01Y1470D01*
G02X33526Y227I-1243J0D01*
G01X33522D01*
G01X29018D01*
G03X29574Y876I-101J649D01*
G03X28917Y1533I-657J0D01*
G03X28260Y876I0J-657D01*
G03X28816Y227I657J0D01*
G01X27318D01*
G03X27874Y876I-101J649D01*
G03X27217Y1533I-657J0D01*
G03X26560Y876I0J-657D01*
G03X27116Y227I657J0D01*
G01X14525D01*
G03X14736Y665I-350J439D01*
G03X14637Y983I-561J0D01*
G03X14736Y1300I-463J318D01*
G03X14174Y1862I-561J0D01*
G03X13857Y1763I0J-561D01*
G03X13539Y1862I-317J-463D01*
G03X12978Y1300I0J-561D01*
G03X13076Y983I561J0D01*
G03X12978Y665I463J-317D01*
G37*
%LPC*%
G36*
G01X15740Y11720D02*
G03X16301Y11159I561J0D01*
G03X16860Y11661I0J561D01*
G03X17371Y12220I-50J559D01*
G03X17064Y12720I-561J0D01*
G03X17371Y13220I-255J500D01*
G03X17064Y13720I-561J0D01*
G03X17371Y14220I-255J500D01*
G03X17064Y14720I-561J0D01*
G03X17371Y15220I-255J500D01*
G03X16809Y15781I-561J0D01*
G03X16251Y15279I0J-561D01*
G03X15740Y14720I50J-559D01*
G03X16046Y14220I561J0D01*
G03X15740Y13720I255J-500D01*
G03X16251Y13161I561J0D01*
G03X16554Y12720I558J59D01*
G03X16251Y12279I255J-500D01*
G03X15740Y11720I50J-559D01*
G37*
G36*
G01X28373Y12075D02*
G03X28935Y11513I561J0D01*
G03X29496Y12075I0J561D01*
G03X29374Y12424I-561J0D01*
G03X29507Y12786I-429J362D01*
G03X29419Y13087I-561J0D01*
G03X29583Y13462I-347J375D01*
G03X29482Y13767I-511J0D01*
G03X29634Y14151I-409J384D01*
G03X29513Y14499I-561J0D01*
G03X29618Y14827I-456J328D01*
G03X29487Y15188I-561J0D01*
G03X29574Y15488I-474J301D01*
G03X29182Y16024I-561J0D01*
G03X29640Y16576I-103J552D01*
G03X29079Y17137I-561J0D01*
G03X28518Y16576I0J-561D01*
G03X28910Y16040I561J0D01*
G03X28452Y15488I103J-552D01*
G03X28583Y15128I561J0D01*
G03X28495Y14827I474J-301D01*
G03X28617Y14479I561J0D01*
G03X28511Y14151I456J-328D01*
G03X28663Y13767I561J0D01*
G03X28562Y13462I409J-305D01*
G03X28613Y13239I511J0D01*
G03X28384Y12786I332J-453D01*
G03X28506Y12437I561J0D01*
G03X28373Y12075I429J-362D01*
G37*
G36*
G01X26216Y11693D02*
G03X26616Y11525I400J394D01*
G03X27007Y11683I0J561D01*
G03X27397Y11525I391J403D01*
G03X27958Y12086I0J561D01*
G03X27397Y12648I-561J0D01*
G03X27007Y12490I0J-561D01*
G03X26616Y12648I-391J-403D01*
G03X26216Y12480I0J-561D01*
G03X25816Y12648I-400J-394D01*
G03X25416Y12480I0J-561D01*
G03X25016Y12648I-400J-394D01*
G03X24626Y12490I0J-561D01*
G03X24235Y12648I-391J-403D01*
G03X23674Y12086I0J-561D01*
G03X24235Y11525I561J0D01*
G03X24626Y11683I0J561D01*
G03X25016Y11525I391J403D01*
G03X25416Y11693I0J561D01*
G03X25816Y11525I400J394D01*
G03X26216Y11693I0J561D01*
G37*
G36*
G01X1397Y340D02*
G03X2454Y1397I0J1057D01*
G03X1397Y2454I-1057J0D01*
G03X340Y1397I0J-1057D01*
G03X1397Y340I1057J0D01*
G37*
G36*
G01X340Y26543D02*
G03X1397Y25486I1057J0D01*
G03X2454Y26543I0J1057D01*
G03X1397Y27600I-1057J0D01*
G03X340Y26543I0J-1057D01*
G37*
G36*
G01X19939Y18108D02*
G03X20500Y18669I0J561D01*
G03X20351Y19050I-561J0D01*
G03X20467Y19241I-412J381D01*
G03X20911Y19024I443J344D01*
G03X21472Y19585I0J561D01*
G03X20911Y20146I-561J0D01*
G03X20382Y19775I0J-561D01*
G03X19939Y19992I-443J-344D01*
G03X19378Y19431I0J-561D01*
G03X19527Y19050I561J0D01*
G03X19378Y18669I412J-381D01*
G03X19939Y18108I561J0D01*
G37*
G36*
G01X5209Y12659D02*
G03X5770Y13220I0J561D01*
G03X5464Y13720I-561J0D01*
G03X5770Y14220I-255J500D01*
G03X5464Y14720I-561J0D01*
G03X5770Y15220I-255J500D01*
G03X5209Y15781I-561J0D01*
G03X4648Y15220I0J-561D01*
G03X4954Y14720I561J0D01*
G03X4648Y14220I255J-500D01*
G03X4954Y13720I561J0D01*
G03X4648Y13220I255J-500D01*
G03X5209Y12659I561J0D01*
G37*
G36*
G01X29366Y6812D02*
G03X29927Y6250I561J0D01*
G03X30489Y6812I0J561D01*
G03X30378Y7146I-561J0D01*
G03X30498Y7493I-441J347D01*
G03X30176Y8001I-561J0D01*
G03X30498Y8509I-239J508D01*
G03X29937Y9070I-561J0D01*
G03X29375Y8509I0J-561D01*
G03X29698Y8001I561J0D01*
G03X29375Y7493I239J-508D01*
G03X29486Y7158I561J0D01*
G03X29366Y6812I441J-347D01*
G37*
G36*
G01X10118Y25415D02*
G03X10679Y24854I561J0D01*
G03X10997Y24952I0J561D01*
G03X11314Y24854I318J463D01*
G03X11875Y25415I0J561D01*
G03X11777Y25732I-561J0D01*
G03X11875Y26050I-463J318D01*
G03X11314Y26611I-561J0D01*
G03X10997Y26513I0J-561D01*
G03X10679Y26611I-317J-463D01*
G03X10118Y26050I0J-561D01*
G03X10216Y25732I561J0D01*
G03X10118Y25415I463J-317D01*
G37*
G36*
G01X25619Y25457D02*
G03X25936Y25358I318J463D01*
G03X26498Y25920I0J561D01*
G03X26399Y26237I-561J0D01*
G03X26498Y26555I-463J318D01*
G03X25936Y27116I-561J0D01*
G03X25619Y27017I0J-561D01*
G03X25301Y27116I-317J-463D01*
G03X24740Y26555I0J-561D01*
G03X24838Y26237I561J0D01*
G03X24740Y25920I463J-317D01*
G03X25301Y25358I561J0D01*
G03X25619Y25457I0J561D01*
G37*
G36*
G01X11938Y9980D02*
G03X12499Y10541I0J561D01*
G03X11989Y11100I-561J0D01*
G03X11430Y11610I-559J-51D01*
G03X10869Y11049I0J-561D01*
G03X11379Y10490I561J0D01*
G03X11938Y9980I559J51D01*
G37*
G36*
G01X30688Y13945D02*
G03X31249Y13383I561J0D01*
G03X31811Y13945I0J561D01*
G03X31470Y14461I-561J0D01*
G03X31499Y14640I-532J179D01*
G03X30938Y15201I-561J0D01*
G03X30377Y14640I0J-561D01*
G03X30717Y14124I561J0D01*
G03X30688Y13945I532J-179D01*
G37*
G36*
G01X21784Y15668D02*
G03X22246Y15425I463J318D01*
G03X22808Y15986I0J561D01*
G03X22246Y16547I-561J0D01*
G03X21926Y16447I0J-561D01*
G03X21463Y16690I-463J-318D01*
G03X20902Y16129I0J-561D01*
G03X21463Y15568I561J0D01*
G03X21784Y15668I0J561D01*
G37*
G36*
G01X31989Y9416D02*
G03X32551Y8855I561J0D01*
G03X33112Y9416I0J561D01*
G03X32808Y9915I-561J0D01*
G03X33112Y10414I-257J499D01*
G03X32551Y10975I-561J0D01*
G03X31989Y10414I0J-561D01*
G03X32293Y9915I561J0D01*
G03X31989Y9416I257J-499D01*
G37*
G36*
G01X15136Y7657D02*
G03X15697Y8218I0J561D01*
G03X15136Y8779I-561J0D01*
G03X14898Y8726I0J-561D01*
G03X14486Y8906I-412J-381D01*
G03X13924Y8345I0J-561D01*
G03X14486Y7784I561J0D01*
G03X14724Y7837I0J561D01*
G03X15136Y7657I412J381D01*
G37*
G36*
G01X24903Y17007D02*
G03X25307Y16836I404J390D01*
G03X25868Y17397I0J561D01*
G03X25307Y17958I-561J0D01*
G03X24903Y17787I0J-561D01*
G03X24499Y17958I-404J-390D01*
G03X23938Y17397I0J-561D01*
G03X24499Y16836I561J0D01*
G03X24903Y17007I0J561D01*
G37*
G36*
G01X10188Y2678D02*
G03X10750Y2116I561J0D01*
G03X11207Y2352I0J561D01*
G03X11600Y2167I393J326D01*
G03X12111Y2678I0J511D01*
G03X11600Y3188I-511J0D01*
G03X11207Y3004I0J-511D01*
G03X10750Y3239I-457J-326D01*
G03X10188Y2678I0J-561D01*
G37*
G36*
G01X25816Y18340D02*
G03X26378Y18902I0J561D01*
G03X25816Y19463I-561J0D01*
G03X25426Y19305I0J-561D01*
G03X25035Y19463I-391J-403D01*
G03X24474Y18902I0J-561D01*
G03X25035Y18340I561J0D01*
G03X25426Y18498I0J561D01*
G03X25816Y18340I391J403D01*
G37*
G36*
G01X18616Y26035D02*
G03X19177Y25474I561J0D01*
G03X19738Y26035I0J561D01*
G03X19620Y26380I-561J0D01*
G03X19764Y26754I-418J375D01*
G03X19202Y27316I-561J0D01*
G03X18641Y26754I0J-561D01*
G03X18759Y26410I561J0D01*
G03X18616Y26035I418J-375D01*
G37*
G36*
G01X10430Y6999D02*
G03X10991Y7561I0J561D01*
G03X10430Y8122I-561J0D01*
G03X10051Y7975I0J-561D01*
G03X9673Y8122I-378J-415D01*
G03X9111Y7561I0J-561D01*
G03X9673Y6999I561J0D01*
G03X10051Y7146I0J561D01*
G03X10430Y6999I378J415D01*
G37*
G36*
G01X23209Y13601D02*
G03X23770Y13039I561J0D01*
G03X24332Y13601I0J561D01*
G03X24216Y13943I-561J0D01*
G03X24341Y14297I-436J354D01*
G03X23780Y14858I-561J0D01*
G03X23219Y14297I0J-561D01*
G03X23335Y13955I561J0D01*
G03X23209Y13601I436J-354D01*
G37*
G36*
G01X2577Y6622D02*
G03X3139Y7184I0J561D01*
G03X3024Y7524I-561J0D01*
G03X3146Y7874I-439J350D01*
G03X2584Y8435I-561J0D01*
G03X2023Y7874I0J-561D01*
G03X2138Y7533I561J0D01*
G03X2016Y7184I439J-350D01*
G03X2577Y6622I561J0D01*
G37*
G36*
G01X27720Y16946D02*
G03X28060Y16832I340J447D01*
G03X28621Y17393I0J561D01*
G03X28060Y17954I-561J0D01*
G03X27720Y17840I0J-561D01*
G03X27380Y17954I-340J-447D01*
G03X26819Y17393I0J-561D01*
G03X27380Y16832I561J0D01*
G03X27720Y16946I0J561D01*
G37*
G36*
G01X20595Y11466D02*
G03X21157Y12027I0J561D01*
G03X21046Y12362I-561J0D01*
G03X21157Y12697I-451J335D01*
G03X20595Y13258I-561J0D01*
G03X20034Y12697I0J-561D01*
G03X20145Y12362I561J0D01*
G03X20034Y12027I451J-335D01*
G03X20595Y11466I561J0D01*
G37*
G36*
G01X6731Y19886D02*
G03X7292Y20447I0J561D01*
G03X7194Y20765I-561J0D01*
G03X7292Y21082I-463J318D01*
G03X6731Y21643I-561J0D01*
G03X6170Y21082I0J-561D01*
G03X6268Y20765I561J0D01*
G03X6170Y20447I463J-317D01*
G03X6731Y19886I561J0D01*
G37*
G36*
G01X16066Y22651D02*
G03X16383Y22553I318J463D01*
G03X16944Y23114I0J561D01*
G03X16383Y23675I-561J0D01*
G03X16066Y23577I0J-561D01*
G03X15748Y23675I-317J-463D01*
G03X15187Y23114I0J-561D01*
G03X15748Y22553I561J0D01*
G03X16066Y22651I0J561D01*
G37*
G36*
G01X4699Y20394D02*
G03X5260Y20955I0J561D01*
G03X4699Y21516I-561J0D01*
G03X4382Y21418I0J-561D01*
G03X4064Y21516I-317J-463D01*
G03X3503Y20955I0J-561D01*
G03X4064Y20394I561J0D01*
G03X4382Y20492I0J561D01*
G03X4699Y20394I318J463D01*
G37*
G36*
G01X9226Y17369D02*
G03X9788Y17931I0J561D01*
G03X9657Y18291I-561J0D01*
G03X9737Y18566I-430J275D01*
G03X9226Y19076I-511J0D01*
G03X8716Y18566I0J-511D01*
G03X8796Y18291I511J0D01*
G03X8665Y17931I430J-360D01*
G03X9226Y17369I561J0D01*
G37*
G36*
G01X30427Y20955D02*
G03X30988Y20394I561J0D01*
G03X31242Y20454I0J561D01*
G03X31496Y20394I254J501D01*
G03X32057Y20955I0J561D01*
G03X31496Y21516I-561J0D01*
G03X31242Y21456I0J-561D01*
G03X30988Y21516I-254J-501D01*
G03X30427Y20955I0J-561D01*
G37*
G36*
G01X4918Y16203D02*
G03X5575Y16860I0J657D01*
G03X4918Y17517I-657J0D01*
G03X4261Y16860I0J-657D01*
G03X4918Y16203I657J0D01*
G37*
G36*
G01X4918Y10423D02*
G03X5575Y11080I0J657D01*
G03X4918Y11737I-657J0D01*
G03X4261Y11080I0J-657D01*
G03X4918Y10423I657J0D01*
G37*
G36*
G01X30660Y10405D02*
G03X31221Y10966I0J561D01*
G03X30660Y11527I-561J0D01*
G03X30098Y10966I0J-561D01*
G03X30660Y10405I561J0D01*
G37*
G36*
G01X16440Y16410D02*
G03X17002Y16971I0J561D01*
G03X16440Y17532I-561J0D01*
G03X15879Y16971I0J-561D01*
G03X16440Y16410I561J0D01*
G37*
G36*
G01X9398Y9726D02*
G03X9959Y10287I0J561D01*
G03X9398Y10848I-561J0D01*
G03X8837Y10287I0J-561D01*
G03X9398Y9726I561J0D01*
G37*
G36*
G01X31654Y6160D02*
G03X32215Y6722I0J561D01*
G03X31654Y7283I-561J0D01*
G03X31093Y6722I0J-561D01*
G03X31654Y6160I561J0D01*
G37*
G36*
G01X5662Y2159D02*
G03X6223Y1598I561J0D01*
G03X6784Y2159I0J561D01*
G03X6223Y2720I-561J0D01*
G03X5662Y2159I0J-561D01*
G37*
G36*
G01X7495Y11659D02*
G03X8056Y12220I0J561D01*
G03X7495Y12781I-561J0D01*
G03X6934Y12220I0J-561D01*
G03X7495Y11659I561J0D01*
G37*
G36*
G01X30631Y12314D02*
G03X31192Y11753I561J0D01*
G03X31753Y12314I0J561D01*
G03X31192Y12876I-561J0D01*
G03X30631Y12314I0J-561D01*
G37*
G36*
G01X4646Y5969D02*
G03X5207Y5408I561J0D01*
G03X5768Y5969I0J561D01*
G03X5207Y6530I-561J0D01*
G03X4646Y5969I0J-561D01*
G37*
G36*
G01X2614Y5715D02*
G03X3175Y5154I561J0D01*
G03X3736Y5715I0J561D01*
G03X3175Y6276I-561J0D01*
G03X2614Y5715I0J-561D01*
G37*
G36*
G01X10750Y3467D02*
G03X11311Y4029I0J561D01*
G03X10750Y4590I-561J0D01*
G03X10188Y4029I0J-561D01*
G03X10750Y3467I561J0D01*
G37*
G36*
G01X14650Y9659D02*
G03X15212Y10220I0J561D01*
G03X14650Y10781I-561J0D01*
G03X14089Y10220I0J-561D01*
G03X14650Y9659I561J0D01*
G37*
G36*
G01X6678Y8001D02*
G03X7239Y7440I561J0D01*
G03X7800Y8001I0J561D01*
G03X7239Y8562I-561J0D01*
G03X6678Y8001I0J-561D01*
G37*
G36*
G01X14552Y18923D02*
G03X15113Y18362I561J0D01*
G03X15674Y18923I0J561D01*
G03X15113Y19484I-561J0D01*
G03X14552Y18923I0J-561D01*
G37*
G36*
G01X32475Y11365D02*
G03X33036Y11926I0J561D01*
G03X32475Y12488I-561J0D01*
G03X31914Y11926I0J-561D01*
G03X32475Y11365I561J0D01*
G37*
G36*
G01X12321Y23614D02*
G03X12882Y23053I561J0D01*
G03X13444Y23614I0J561D01*
G03X12882Y24176I-561J0D01*
G03X12321Y23614I0J-561D01*
G37*
G36*
G01X22987Y25220D02*
G03X23548Y25781I0J561D01*
G03X22987Y26342I-561J0D01*
G03X22426Y25781I0J-561D01*
G03X22987Y25220I561J0D01*
G37*
G36*
G01X12827Y25093D02*
G03X13388Y25654I0J561D01*
G03X12827Y26215I-561J0D01*
G03X12266Y25654I0J-561D01*
G03X12827Y25093I561J0D01*
G37*
G36*
G01X21463Y23569D02*
G03X22024Y24130I0J561D01*
G03X21463Y24691I-561J0D01*
G03X20902Y24130I0J-561D01*
G03X21463Y23569I561J0D01*
G37*
G36*
G01X10668Y23315D02*
G03X11229Y23876I0J561D01*
G03X10668Y24437I-561J0D01*
G03X10107Y23876I0J-561D01*
G03X10668Y23315I561J0D01*
G37*
G36*
G01X22672Y22867D02*
G03X23234Y22306I561J0D01*
G03X23795Y22867I0J561D01*
G03X23234Y23429I-561J0D01*
G03X22672Y22867I0J-561D01*
G37*
G36*
G01X17945Y19392D02*
G03X18507Y19953I0J561D01*
G03X17945Y20515I-561J0D01*
G03X17384Y19953I0J-561D01*
G03X17945Y19392I561J0D01*
G37*
G36*
G01X16476Y24151D02*
G03X17037Y23590I561J0D01*
G03X17598Y24151I0J561D01*
G03X17037Y24713I-561J0D01*
G03X16476Y24151I0J-561D01*
G37*
G36*
G01X22694Y18340D02*
G03X23255Y18902I0J561D01*
G03X22694Y19463I-561J0D01*
G03X22132Y18902I0J-561D01*
G03X22694Y18340I561J0D01*
G37*
G36*
G01X32639Y18997D02*
G03X33200Y19558I0J561D01*
G03X32639Y20119I-561J0D01*
G03X32078Y19558I0J-561D01*
G03X32639Y18997I561J0D01*
G37*
G36*
G01X33147Y21029D02*
G03X33708Y21590I0J561D01*
G03X33147Y22151I-561J0D01*
G03X32586Y21590I0J-561D01*
G03X33147Y21029I561J0D01*
G37*
G36*
G01X13898Y3426D02*
G03X14408Y3937I0J511D01*
G03X13898Y4447I-511J0D01*
G03X13387Y3937I0J-511D01*
G03X13898Y3426I511J0D01*
G37*
G36*
G01X3807Y7366D02*
G03X4318Y6855I511J0D01*
G03X4829Y7366I0J511D01*
G03X4318Y7877I-511J0D01*
G03X3807Y7366I0J-511D01*
G37*
%LPD*%
G54D8191*
G01X12978Y665D02*
G03X13189Y227I561J0D01*
G01X7936D01*
G03X8492Y876I-101J649D01*
G03X7835Y1533I-657J0D01*
G03X7178Y876I0J-657D01*
G03X7734Y227I657J0D01*
G01X6236D01*
G03X6792Y876I-101J649D01*
G03X6135Y1533I-657J0D01*
G03X5478Y876I0J-657D01*
G03X6034Y227I657J0D01*
G01X1530D01*
G01X1526D01*
G02X283Y1470I0J1243D01*
G01Y26466D01*
G01Y26468D01*
G01Y26469D01*
G01Y26470D01*
G02X1526Y27713I1243J0D01*
G01X1529D01*
G01X1530D01*
G01X26822D01*
G01Y23368D01*
G03X27686Y22504I864J0D01*
G01X34769D01*
G01Y2970D01*
G01Y1470D01*
G02X33526Y227I-1243J0D01*
G01X33522D01*
G01X29018D01*
G03X29574Y876I-101J649D01*
G03X28917Y1533I-657J0D01*
G03X28260Y876I0J-657D01*
G03X28816Y227I657J0D01*
G01X27318D01*
G03X27874Y876I-101J649D01*
G03X27217Y1533I-657J0D01*
G03X26560Y876I0J-657D01*
G03X27116Y227I657J0D01*
G01X14525D01*
G03X14736Y665I-350J439D01*
G03X14637Y983I-561J0D01*
G03X14736Y1300I-463J318D01*
G03X14174Y1862I-561J0D01*
G03X13857Y1763I0J-561D01*
G03X13539Y1862I-317J-463D01*
G03X12978Y1300I0J-561D01*
G03X13076Y983I561J0D01*
G03X12978Y665I463J-317D01*
G01X15740Y11720D02*
G03X16301Y11159I561J0D01*
G03X16860Y11661I0J561D01*
G03X17371Y12220I-50J559D01*
G03X17064Y12720I-561J0D01*
G03X17371Y13220I-255J500D01*
G03X17064Y13720I-561J0D01*
G03X17371Y14220I-255J500D01*
G03X17064Y14720I-561J0D01*
G03X17371Y15220I-255J500D01*
G03X16809Y15781I-561J0D01*
G03X16251Y15279I0J-561D01*
G03X15740Y14720I50J-559D01*
G03X16046Y14220I561J0D01*
G03X15740Y13720I255J-500D01*
G03X16251Y13161I561J0D01*
G03X16554Y12720I558J59D01*
G03X16251Y12279I255J-500D01*
G03X15740Y11720I50J-559D01*
G01X28373Y12075D02*
G03X28935Y11513I561J0D01*
G03X29496Y12075I0J561D01*
G03X29374Y12424I-561J0D01*
G03X29507Y12786I-429J362D01*
G03X29419Y13087I-561J0D01*
G03X29583Y13462I-347J375D01*
G03X29482Y13767I-511J0D01*
G03X29634Y14151I-409J384D01*
G03X29513Y14499I-561J0D01*
G03X29618Y14827I-456J328D01*
G03X29487Y15188I-561J0D01*
G03X29574Y15488I-474J301D01*
G03X29182Y16024I-561J0D01*
G03X29640Y16576I-103J552D01*
G03X29079Y17137I-561J0D01*
G03X28518Y16576I0J-561D01*
G03X28910Y16040I561J0D01*
G03X28452Y15488I103J-552D01*
G03X28583Y15128I561J0D01*
G03X28495Y14827I474J-301D01*
G03X28617Y14479I561J0D01*
G03X28511Y14151I456J-328D01*
G03X28663Y13767I561J0D01*
G03X28562Y13462I409J-305D01*
G03X28613Y13239I511J0D01*
G03X28384Y12786I332J-453D01*
G03X28506Y12437I561J0D01*
G03X28373Y12075I429J-362D01*
G01X26216Y11693D02*
G03X26616Y11525I400J394D01*
G03X27007Y11683I0J561D01*
G03X27397Y11525I391J403D01*
G03X27958Y12086I0J561D01*
G03X27397Y12648I-561J0D01*
G03X27007Y12490I0J-561D01*
G03X26616Y12648I-391J-403D01*
G03X26216Y12480I0J-561D01*
G03X25816Y12648I-400J-394D01*
G03X25416Y12480I0J-561D01*
G03X25016Y12648I-400J-394D01*
G03X24626Y12490I0J-561D01*
G03X24235Y12648I-391J-403D01*
G03X23674Y12086I0J-561D01*
G03X24235Y11525I561J0D01*
G03X24626Y11683I0J561D01*
G03X25016Y11525I391J403D01*
G03X25416Y11693I0J561D01*
G03X25816Y11525I400J394D01*
G03X26216Y11693I0J561D01*
G01X1397Y340D02*
G03X2454Y1397I0J1057D01*
G03X1397Y2454I-1057J0D01*
G03X340Y1397I0J-1057D01*
G03X1397Y340I1057J0D01*
G01X340Y26543D02*
G03X1397Y25486I1057J0D01*
G03X2454Y26543I0J1057D01*
G03X1397Y27600I-1057J0D01*
G03X340Y26543I0J-1057D01*
G01X19939Y18108D02*
G03X20500Y18669I0J561D01*
G03X20351Y19050I-561J0D01*
G03X20467Y19241I-412J381D01*
G03X20911Y19024I443J344D01*
G03X21472Y19585I0J561D01*
G03X20911Y20146I-561J0D01*
G03X20382Y19775I0J-561D01*
G03X19939Y19992I-443J-344D01*
G03X19378Y19431I0J-561D01*
G03X19527Y19050I561J0D01*
G03X19378Y18669I412J-381D01*
G03X19939Y18108I561J0D01*
G01X5209Y12659D02*
G03X5770Y13220I0J561D01*
G03X5464Y13720I-561J0D01*
G03X5770Y14220I-255J500D01*
G03X5464Y14720I-561J0D01*
G03X5770Y15220I-255J500D01*
G03X5209Y15781I-561J0D01*
G03X4648Y15220I0J-561D01*
G03X4954Y14720I561J0D01*
G03X4648Y14220I255J-500D01*
G03X4954Y13720I561J0D01*
G03X4648Y13220I255J-500D01*
G03X5209Y12659I561J0D01*
G01X29366Y6812D02*
G03X29927Y6250I561J0D01*
G03X30489Y6812I0J561D01*
G03X30378Y7146I-561J0D01*
G03X30498Y7493I-441J347D01*
G03X30176Y8001I-561J0D01*
G03X30498Y8509I-239J508D01*
G03X29937Y9070I-561J0D01*
G03X29375Y8509I0J-561D01*
G03X29698Y8001I561J0D01*
G03X29375Y7493I239J-508D01*
G03X29486Y7158I561J0D01*
G03X29366Y6812I441J-347D01*
G01X10118Y25415D02*
G03X10679Y24854I561J0D01*
G03X10997Y24952I0J561D01*
G03X11314Y24854I318J463D01*
G03X11875Y25415I0J561D01*
G03X11777Y25732I-561J0D01*
G03X11875Y26050I-463J318D01*
G03X11314Y26611I-561J0D01*
G03X10997Y26513I0J-561D01*
G03X10679Y26611I-317J-463D01*
G03X10118Y26050I0J-561D01*
G03X10216Y25732I561J0D01*
G03X10118Y25415I463J-317D01*
G01X25619Y25457D02*
G03X25936Y25358I318J463D01*
G03X26498Y25920I0J561D01*
G03X26399Y26237I-561J0D01*
G03X26498Y26555I-463J318D01*
G03X25936Y27116I-561J0D01*
G03X25619Y27017I0J-561D01*
G03X25301Y27116I-317J-463D01*
G03X24740Y26555I0J-561D01*
G03X24838Y26237I561J0D01*
G03X24740Y25920I463J-317D01*
G03X25301Y25358I561J0D01*
G03X25619Y25457I0J561D01*
G01X11938Y9980D02*
G03X12499Y10541I0J561D01*
G03X11989Y11100I-561J0D01*
G03X11430Y11610I-559J-51D01*
G03X10869Y11049I0J-561D01*
G03X11379Y10490I561J0D01*
G03X11938Y9980I559J51D01*
G01X30688Y13945D02*
G03X31249Y13383I561J0D01*
G03X31811Y13945I0J561D01*
G03X31470Y14461I-561J0D01*
G03X31499Y14640I-532J179D01*
G03X30938Y15201I-561J0D01*
G03X30377Y14640I0J-561D01*
G03X30717Y14124I561J0D01*
G03X30688Y13945I532J-179D01*
G01X21784Y15668D02*
G03X22246Y15425I463J318D01*
G03X22808Y15986I0J561D01*
G03X22246Y16547I-561J0D01*
G03X21926Y16447I0J-561D01*
G03X21463Y16690I-463J-318D01*
G03X20902Y16129I0J-561D01*
G03X21463Y15568I561J0D01*
G03X21784Y15668I0J561D01*
G01X31989Y9416D02*
G03X32551Y8855I561J0D01*
G03X33112Y9416I0J561D01*
G03X32808Y9915I-561J0D01*
G03X33112Y10414I-257J499D01*
G03X32551Y10975I-561J0D01*
G03X31989Y10414I0J-561D01*
G03X32293Y9915I561J0D01*
G03X31989Y9416I257J-499D01*
G01X15136Y7657D02*
G03X15697Y8218I0J561D01*
G03X15136Y8779I-561J0D01*
G03X14898Y8726I0J-561D01*
G03X14486Y8906I-412J-381D01*
G03X13924Y8345I0J-561D01*
G03X14486Y7784I561J0D01*
G03X14724Y7837I0J561D01*
G03X15136Y7657I412J381D01*
G01X24903Y17007D02*
G03X25307Y16836I404J390D01*
G03X25868Y17397I0J561D01*
G03X25307Y17958I-561J0D01*
G03X24903Y17787I0J-561D01*
G03X24499Y17958I-404J-390D01*
G03X23938Y17397I0J-561D01*
G03X24499Y16836I561J0D01*
G03X24903Y17007I0J561D01*
G01X10188Y2678D02*
G03X10750Y2116I561J0D01*
G03X11207Y2352I0J561D01*
G03X11600Y2167I393J326D01*
G03X12111Y2678I0J511D01*
G03X11600Y3188I-511J0D01*
G03X11207Y3004I0J-511D01*
G03X10750Y3239I-457J-326D01*
G03X10188Y2678I0J-561D01*
G01X25816Y18340D02*
G03X26378Y18902I0J561D01*
G03X25816Y19463I-561J0D01*
G03X25426Y19305I0J-561D01*
G03X25035Y19463I-391J-403D01*
G03X24474Y18902I0J-561D01*
G03X25035Y18340I561J0D01*
G03X25426Y18498I0J561D01*
G03X25816Y18340I391J403D01*
G01X18616Y26035D02*
G03X19177Y25474I561J0D01*
G03X19738Y26035I0J561D01*
G03X19620Y26380I-561J0D01*
G03X19764Y26754I-418J375D01*
G03X19202Y27316I-561J0D01*
G03X18641Y26754I0J-561D01*
G03X18759Y26410I561J0D01*
G03X18616Y26035I418J-375D01*
G01X10430Y6999D02*
G03X10991Y7561I0J561D01*
G03X10430Y8122I-561J0D01*
G03X10051Y7975I0J-561D01*
G03X9673Y8122I-378J-415D01*
G03X9111Y7561I0J-561D01*
G03X9673Y6999I561J0D01*
G03X10051Y7146I0J561D01*
G03X10430Y6999I378J415D01*
G01X23209Y13601D02*
G03X23770Y13039I561J0D01*
G03X24332Y13601I0J561D01*
G03X24216Y13943I-561J0D01*
G03X24341Y14297I-436J354D01*
G03X23780Y14858I-561J0D01*
G03X23219Y14297I0J-561D01*
G03X23335Y13955I561J0D01*
G03X23209Y13601I436J-354D01*
G01X2577Y6622D02*
G03X3139Y7184I0J561D01*
G03X3024Y7524I-561J0D01*
G03X3146Y7874I-439J350D01*
G03X2584Y8435I-561J0D01*
G03X2023Y7874I0J-561D01*
G03X2138Y7533I561J0D01*
G03X2016Y7184I439J-350D01*
G03X2577Y6622I561J0D01*
G01X27720Y16946D02*
G03X28060Y16832I340J447D01*
G03X28621Y17393I0J561D01*
G03X28060Y17954I-561J0D01*
G03X27720Y17840I0J-561D01*
G03X27380Y17954I-340J-447D01*
G03X26819Y17393I0J-561D01*
G03X27380Y16832I561J0D01*
G03X27720Y16946I0J561D01*
G01X20595Y11466D02*
G03X21157Y12027I0J561D01*
G03X21046Y12362I-561J0D01*
G03X21157Y12697I-451J335D01*
G03X20595Y13258I-561J0D01*
G03X20034Y12697I0J-561D01*
G03X20145Y12362I561J0D01*
G03X20034Y12027I451J-335D01*
G03X20595Y11466I561J0D01*
G01X6731Y19886D02*
G03X7292Y20447I0J561D01*
G03X7194Y20765I-561J0D01*
G03X7292Y21082I-463J318D01*
G03X6731Y21643I-561J0D01*
G03X6170Y21082I0J-561D01*
G03X6268Y20765I561J0D01*
G03X6170Y20447I463J-317D01*
G03X6731Y19886I561J0D01*
G01X16066Y22651D02*
G03X16383Y22553I318J463D01*
G03X16944Y23114I0J561D01*
G03X16383Y23675I-561J0D01*
G03X16066Y23577I0J-561D01*
G03X15748Y23675I-317J-463D01*
G03X15187Y23114I0J-561D01*
G03X15748Y22553I561J0D01*
G03X16066Y22651I0J561D01*
G01X4699Y20394D02*
G03X5260Y20955I0J561D01*
G03X4699Y21516I-561J0D01*
G03X4382Y21418I0J-561D01*
G03X4064Y21516I-317J-463D01*
G03X3503Y20955I0J-561D01*
G03X4064Y20394I561J0D01*
G03X4382Y20492I0J561D01*
G03X4699Y20394I318J463D01*
G01X9226Y17369D02*
G03X9788Y17931I0J561D01*
G03X9657Y18291I-561J0D01*
G03X9737Y18566I-430J275D01*
G03X9226Y19076I-511J0D01*
G03X8716Y18566I0J-511D01*
G03X8796Y18291I511J0D01*
G03X8665Y17931I430J-360D01*
G03X9226Y17369I561J0D01*
G01X30427Y20955D02*
G03X30988Y20394I561J0D01*
G03X31242Y20454I0J561D01*
G03X31496Y20394I254J501D01*
G03X32057Y20955I0J561D01*
G03X31496Y21516I-561J0D01*
G03X31242Y21456I0J-561D01*
G03X30988Y21516I-254J-501D01*
G03X30427Y20955I0J-561D01*
G01X4918Y16203D02*
G03X5575Y16860I0J657D01*
G03X4918Y17517I-657J0D01*
G03X4261Y16860I0J-657D01*
G03X4918Y16203I657J0D01*
G01X4918Y10423D02*
G03X5575Y11080I0J657D01*
G03X4918Y11737I-657J0D01*
G03X4261Y11080I0J-657D01*
G03X4918Y10423I657J0D01*
G01X30660Y10405D02*
G03X31221Y10966I0J561D01*
G03X30660Y11527I-561J0D01*
G03X30098Y10966I0J-561D01*
G03X30660Y10405I561J0D01*
G01X16440Y16410D02*
G03X17002Y16971I0J561D01*
G03X16440Y17532I-561J0D01*
G03X15879Y16971I0J-561D01*
G03X16440Y16410I561J0D01*
G01X9398Y9726D02*
G03X9959Y10287I0J561D01*
G03X9398Y10848I-561J0D01*
G03X8837Y10287I0J-561D01*
G03X9398Y9726I561J0D01*
G01X31654Y6160D02*
G03X32215Y6722I0J561D01*
G03X31654Y7283I-561J0D01*
G03X31093Y6722I0J-561D01*
G03X31654Y6160I561J0D01*
G01X5662Y2159D02*
G03X6223Y1598I561J0D01*
G03X6784Y2159I0J561D01*
G03X6223Y2720I-561J0D01*
G03X5662Y2159I0J-561D01*
G01X7495Y11659D02*
G03X8056Y12220I0J561D01*
G03X7495Y12781I-561J0D01*
G03X6934Y12220I0J-561D01*
G03X7495Y11659I561J0D01*
G01X30631Y12314D02*
G03X31192Y11753I561J0D01*
G03X31753Y12314I0J561D01*
G03X31192Y12876I-561J0D01*
G03X30631Y12314I0J-561D01*
G01X4646Y5969D02*
G03X5207Y5408I561J0D01*
G03X5768Y5969I0J561D01*
G03X5207Y6530I-561J0D01*
G03X4646Y5969I0J-561D01*
G01X2614Y5715D02*
G03X3175Y5154I561J0D01*
G03X3736Y5715I0J561D01*
G03X3175Y6276I-561J0D01*
G03X2614Y5715I0J-561D01*
G01X10750Y3467D02*
G03X11311Y4029I0J561D01*
G03X10750Y4590I-561J0D01*
G03X10188Y4029I0J-561D01*
G03X10750Y3467I561J0D01*
G01X14650Y9659D02*
G03X15212Y10220I0J561D01*
G03X14650Y10781I-561J0D01*
G03X14089Y10220I0J-561D01*
G03X14650Y9659I561J0D01*
G01X6678Y8001D02*
G03X7239Y7440I561J0D01*
G03X7800Y8001I0J561D01*
G03X7239Y8562I-561J0D01*
G03X6678Y8001I0J-561D01*
G01X14552Y18923D02*
G03X15113Y18362I561J0D01*
G03X15674Y18923I0J561D01*
G03X15113Y19484I-561J0D01*
G03X14552Y18923I0J-561D01*
G01X32475Y11365D02*
G03X33036Y11926I0J561D01*
G03X32475Y12488I-561J0D01*
G03X31914Y11926I0J-561D01*
G03X32475Y11365I561J0D01*
G01X12321Y23614D02*
G03X12882Y23053I561J0D01*
G03X13444Y23614I0J561D01*
G03X12882Y24176I-561J0D01*
G03X12321Y23614I0J-561D01*
G01X22987Y25220D02*
G03X23548Y25781I0J561D01*
G03X22987Y26342I-561J0D01*
G03X22426Y25781I0J-561D01*
G03X22987Y25220I561J0D01*
G01X12827Y25093D02*
G03X13388Y25654I0J561D01*
G03X12827Y26215I-561J0D01*
G03X12266Y25654I0J-561D01*
G03X12827Y25093I561J0D01*
G01X21463Y23569D02*
G03X22024Y24130I0J561D01*
G03X21463Y24691I-561J0D01*
G03X20902Y24130I0J-561D01*
G03X21463Y23569I561J0D01*
G01X10668Y23315D02*
G03X11229Y23876I0J561D01*
G03X10668Y24437I-561J0D01*
G03X10107Y23876I0J-561D01*
G03X10668Y23315I561J0D01*
G01X22672Y22867D02*
G03X23234Y22306I561J0D01*
G03X23795Y22867I0J561D01*
G03X23234Y23429I-561J0D01*
G03X22672Y22867I0J-561D01*
G01X17945Y19392D02*
G03X18507Y19953I0J561D01*
G03X17945Y20515I-561J0D01*
G03X17384Y19953I0J-561D01*
G03X17945Y19392I561J0D01*
G01X16476Y24151D02*
G03X17037Y23590I561J0D01*
G03X17598Y24151I0J561D01*
G03X17037Y24713I-561J0D01*
G03X16476Y24151I0J-561D01*
G01X22694Y18340D02*
G03X23255Y18902I0J561D01*
G03X22694Y19463I-561J0D01*
G03X22132Y18902I0J-561D01*
G03X22694Y18340I561J0D01*
G01X32639Y18997D02*
G03X33200Y19558I0J561D01*
G03X32639Y20119I-561J0D01*
G03X32078Y19558I0J-561D01*
G03X32639Y18997I561J0D01*
G01X33147Y21029D02*
G03X33708Y21590I0J561D01*
G03X33147Y22151I-561J0D01*
G03X32586Y21590I0J-561D01*
G03X33147Y21029I561J0D01*
G01X13898Y3426D02*
G03X14408Y3937I0J511D01*
G03X13898Y4447I-511J0D01*
G03X13387Y3937I0J-511D01*
G03X13898Y3426I511J0D01*
G01X3807Y7366D02*
G03X4318Y6855I511J0D01*
G03X4829Y7366I0J511D01*
G03X4318Y7877I-511J0D01*
G03X3807Y7366I0J-511D01*
G04 Copper End*

G04 Pad Start*
G54D10*
G01X1268Y18290D03*
G01X1268Y9650D03*
G54D11*
G01X5448Y9650D03*
G01X5448Y18290D03*
G04 Pad End*

G04 Via Start*
G54D12*
G01X4064Y20955D03*
G01X4699Y20955D03*
G01X6731Y21082D03*
G01X6731Y20447D03*
G01X25301Y26555D03*
G01X25936Y26555D03*
G01X25301Y25920D03*
G01X25936Y25920D03*
G01X11314Y26050D03*
G01X11314Y25415D03*
G01X10679Y25415D03*
G01X10679Y26050D03*
G01X19177Y26035D03*
G01X19202Y26754D03*
G01X30988Y20955D03*
G01X31496Y20955D03*
G01X16440Y16971D03*
G54D13*
G01X14486Y8345D03*
G01X15136Y8218D03*
G01X11430Y11049D03*
G01X11938Y10541D03*
G01X16809Y12220D03*
G01X16301Y11720D03*
G01X16301Y14720D03*
G01X16809Y14220D03*
G01X16809Y15220D03*
G01X16301Y13720D03*
G01X16809Y13220D03*
G01X24235Y12086D03*
G01X25016Y12086D03*
G01X26616Y12086D03*
G01X27397Y12086D03*
G01X25816Y12086D03*
G01X29937Y7493D03*
G01X29937Y8509D03*
G01X29927Y6812D03*
G01X30660Y10966D03*
G01X29057Y14827D03*
G01X29072Y14151D03*
G01X30938Y14640D03*
G01X31249Y13945D03*
G01X31192Y12314D03*
G01X28945Y12786D03*
G01X28935Y12075D03*
G01X22694Y18902D03*
G01X28060Y17393D03*
G01X27380Y17393D03*
G01X32551Y9416D03*
G01X32551Y10414D03*
G54D12*
G01X32475Y11926D03*
G54D13*
G01X29072Y13462D03*
G01X2584Y7874D03*
G01X2577Y7184D03*
G01X5209Y15220D03*
G01X7495Y12220D03*
G01X5209Y14220D03*
G01X5209Y13220D03*
G01X9673Y7561D03*
G01X10430Y7561D03*
G01X20595Y12697D03*
G01X20595Y12027D03*
G01X25816Y18902D03*
G01X25035Y18902D03*
G01X22246Y15986D03*
G01X23780Y14297D03*
G01X23770Y13601D03*
G01X21463Y24130D03*
G01X23234Y22867D03*
G01X17037Y24151D03*
G01X12882Y23614D03*
G01X10668Y23876D03*
G01X10750Y4029D03*
G01X11600Y4029D03*
G01X10750Y2678D03*
G01X11600Y2678D03*
G54D12*
G01X14650Y10220D03*
G01X15748Y23114D03*
G01X16383Y23114D03*
G54D13*
G01X9226Y18566D03*
G01X17945Y19953D03*
G01X29013Y15488D03*
G01X29079Y16576D03*
G01X5207Y5969D03*
G01X4318Y7366D03*
G54D12*
G01X15113Y18923D03*
G01X13539Y1300D03*
G01X14174Y1300D03*
G01X14174Y665D03*
G01X13539Y665D03*
G01X9398Y10287D03*
G01X7239Y8001D03*
G01X12827Y25654D03*
G54D13*
G01X19939Y19431D03*
G01X19939Y18669D03*
G01X13898Y3937D03*
G54D12*
G01X21463Y16129D03*
G54D13*
G01X32639Y19558D03*
G01X33147Y21590D03*
G01X20911Y19585D03*
G01X22987Y25781D03*
G01X6223Y2159D03*
G01X31654Y6722D03*
G01X3175Y5715D03*
G01X25307Y17397D03*
G01X24499Y17397D03*
G01X5461Y23368D03*
G01X3951Y21850D03*
G01X12065Y15113D03*
G01X19237Y16968D03*
G01X16129Y19177D03*
G01X20537Y3298D03*
G01X21172Y3298D03*
G01X21172Y2663D03*
G01X21172Y2028D03*
G01X21642Y5259D03*
G01X21138Y10101D03*
G01X18852Y10101D03*
G01X19939Y11303D03*
G01X11430Y19976D03*
G01X29972Y9271D03*
G01X29748Y22352D03*
G01X30383Y22352D03*
G01X30075Y21837D03*
G01X28321Y22352D03*
G01X27940Y21844D03*
G01X26543Y27305D03*
G01X13290Y12954D03*
G01X11420Y11735D03*
G01X10287Y12446D03*
G01X17911Y21411D03*
G01X20701Y22733D03*
G01X18669Y22733D03*
G01X1270Y3810D03*
G01X24130Y25781D03*
G01X21971Y25654D03*
G01X22606Y7874D03*
G01X34163Y11811D03*
G01X34163Y10922D03*
G01X33655Y18288D03*
G01X15875Y3302D03*
G01X16510Y3302D03*
G01X16510Y2667D03*
G01X15875Y2667D03*
G01X15875Y2032D03*
G01X12446Y7620D03*
G01X11811Y7620D03*
G01X32766Y13970D03*
G01X30607Y15621D03*
G01X17272Y12700D03*
G01X18415Y12700D03*
G01X19050Y12700D03*
G01X18669Y12192D03*
G01X19431Y13208D03*
G01X18796Y13208D03*
G01X18161Y13208D03*
G01X24638Y20320D03*
G01X25273Y20320D03*
G01X23241Y19558D03*
G01X9144Y27305D03*
G01X9779Y27305D03*
G01X10414Y27305D03*
G01X11049Y27305D03*
G01X4826Y4318D03*
G01X5461Y4318D03*
G01X6096Y4318D03*
G01X14605Y25654D03*
G01X15240Y25654D03*
G01X15875Y25781D03*
G01X16510Y25781D03*
G01X17145Y25781D03*
G01X13970Y25654D03*
G01X11176Y7620D03*
G01X16256Y8890D03*
G01X13462Y9779D03*
G01X10668Y9779D03*
G01X6985Y1360D03*
G01X30734Y21844D03*
G01X17348Y18914D03*
G01X31747Y18383D03*
G01X32288Y22358D03*
G54D12*
G01X9226Y17931D03*
G54D13*
G01X25903Y27401D03*
G01X31368Y21846D03*
G01X31017Y22354D03*
G01X31651Y22355D03*
G01X31947Y21837D03*
G01X32923Y22357D03*
G01X33560Y22359D03*
G01X34197Y22363D03*
G01X32109Y20078D03*
G01X22277Y5259D03*
G01X21971Y7874D03*
G01X23599Y5262D03*
G01X25423Y5262D03*
G01X23599Y4627D03*
G01X25423Y4627D03*
G01X25423Y3992D03*
G01X23599Y3992D03*
G01X25527Y6604D03*
G01X25908Y5969D03*
G01X32893Y5842D03*
G01X33528Y5842D03*
G01X34163Y5842D03*
G01X32893Y5207D03*
G01X33528Y5207D03*
G01X34163Y5207D03*
G01X32896Y3939D03*
G01X33531Y3939D03*
G01X34166Y3939D03*
G01X32896Y4574D03*
G01X33531Y4574D03*
G01X34166Y4574D03*
G01X32896Y3304D03*
G01X33531Y3304D03*
G01X34166Y3304D03*
G01X25795Y3432D03*
G01X23255Y3432D03*
G01X24511Y2118D03*
G01X23876Y2118D03*
G01X25146Y2118D03*
G01X22912Y5259D03*
G01X22165Y6365D03*
G01X21642Y5894D03*
G01X19304Y6223D03*
G01X19304Y5588D03*
G01X28321Y19812D03*
G01X30041Y19868D03*
G01X10668Y16129D03*
G54D12*
G01X26416Y13732D03*
G01X27416Y13732D03*
G01X26416Y15732D03*
G01X27416Y15732D03*
G01X25416Y13732D03*
G01X25416Y15732D03*
G01X26416Y14732D03*
G01X25416Y14731D03*
G01X27416Y14732D03*
G04 Via End*

M02*
