G04 Layer: TopSolderMaskLayer*
G04 EasyEDA Pro v2.1.27.74734765.450747, 2024-06-16 14:56:05*
G04 Gerber Generator version 0.3*
G04 Scale: 100 percent, Rotated: No, Reflected: No*
G04 Dimensions in millimeters*
G04 Leading zeros omitted, absolute positions, 3 integers and 3 decimals*
%FSLAX33Y33*%
%MOMM*%
%AMRoundRect*1,1,$1,$2,$3*1,1,$1,$4,$5*1,1,$1,0-$2,0-$3*1,1,$1,0-$4,0-$5*20,1,$1,$2,$3,$4,$5,0*20,1,$1,$4,$5,0-$2,0-$3,0*20,1,$1,0-$2,0-$3,0-$4,0-$5,0*20,1,$1,0-$4,0-$5,$2,$3,0*4,1,4,$2,$3,$4,$5,0-$2,0-$3,0-$4,0-$5,$2,$3,0*%
%AMPolygonMacro1*4,1,35,0.236,-0.336,0.2,-0.351,0.2,-0.351,-0.1,-0.351,-0.1,-0.351,-0.119,-0.347,-0.136,-0.336,-0.136,-0.336,-0.236,-0.236,-0.236,-0.236,-0.247,-0.219,-0.251,-0.2,-0.251,-0.2,-0.251,0.2,-0.251,0.2,-0.247,0.219,-0.236,0.236,-0.236,0.236,-0.136,0.336,-0.136,0.336,-0.119,0.347,-0.1,0.351,-0.1,0.351,0.2,0.351,0.2,0.351,0.236,0.336,0.251,0.3,0.247,0.281,0.236,0.264,0.236,0.264,-0.028,0.0,0.236,-0.264,0.236,-0.264,0.247,-0.281,0.251,-0.3,0.236,-0.336,0*%
%AMPolygonMacro2*4,1,37,0.031,-0.347,0.014,-0.336,0.014,-0.336,-0.286,-0.036,-0.286,-0.036,-0.297,-0.019,-0.301,0.0,-0.297,0.019,-0.286,0.036,-0.286,0.036,0.014,0.336,0.014,0.336,0.031,0.347,0.05,0.351,0.05,0.351,0.15,0.351,0.15,0.351,0.169,0.347,0.186,0.336,0.186,0.336,0.286,0.236,0.286,0.236,0.297,0.219,0.301,0.2,0.301,0.2,0.301,-0.2,0.301,-0.2,0.297,-0.219,0.286,-0.236,0.286,-0.236,0.186,-0.336,0.186,-0.336,0.169,-0.347,0.15,-0.351,0.15,-0.351,0.05,-0.351,0.05,-0.351,0.031,-0.347,0*%
%ADD10O,0.9X0.38*%
%ADD11O,0.38X0.9*%
%ADD12RoundRect,0.097X1.352X1.352X1.352X-1.352*%
%ADD13RoundRect,0.254X-0.319X0.194X0.319X0.194*%
%ADD14RoundRect,0.254X0.319X-0.194X-0.319X-0.194*%
%ADD15RoundRect,0.198X-0.234X0.222X0.234X0.222*%
%ADD16RoundRect,0.2544X0.207X-0.194X-0.207X-0.194*%
%ADD17RoundRect,0.254X0.207X-0.194X-0.207X-0.194*%
%ADD18RoundRect,0.274X0.364X-0.514X-0.364X-0.514*%
%ADD19RoundRect,0.274X-0.364X0.514X0.364X0.514*%
%ADD20RoundRect,0.698X-0.302X0.352X0.302X0.352*%
%ADD21RoundRect,0.091X0.555X-0.455X-0.555X-0.455*%
%ADD22RoundRect,0.078X-0.136X0.286X0.136X0.286*%
%ADD23RoundRect,0.079X-0.136X-0.361X-0.136X0.361*%
%ADD24RoundRect,0.089X0.606X-0.306X-0.606X-0.306*%
%ADD25RoundRect,0.197X-0.218X0.488X0.218X0.488*%
%ADD26RoundRect,0.395X0.228X0.353X0.228X-0.353*%
%ADD27RoundRect,0.304X-0.524X0.249X0.524X0.249*%
%ADD28RoundRect,0.198X0.222X0.234X0.222X-0.234*%
%ADD29RoundRect,0.198X0.234X-0.222X-0.234X-0.222*%
%ADD30RoundRect,0.254X0.194X0.319X0.194X-0.319*%
%ADD31RoundRect,0.304X0.524X-0.249X-0.524X-0.249*%
%ADD32RoundRect,0.091X-0.405X0.455X0.405X0.455*%
%ADD33RoundRect,0.091X0.455X0.405X0.455X-0.405*%
%ADD34RoundRect,0.253X0.324X-0.324X-0.324X-0.324*%
%ADD35RoundRect,0.336X-0.483X0.983X0.483X0.983*%
%ADD36RoundRect,0.081X0.899X0.16X0.899X-0.16*%
%ADD37O,1.902X1.302*%
%ADD38O,2.102X1.302*%
%ADD39RoundRect,0.08X-0.51X-0.16X-0.51X0.16*%
%ADD40RoundRect,0.083X-0.408X-0.208X-0.408X0.208*%
%ADD41C,0.864*%
%ADD42RoundRect,0.198X-0.222X-0.234X-0.222X0.234*%
%ADD43RoundRect,0.254X-0.194X-0.319X-0.194X0.319*%
%ADD44RoundRect,0.085X-0.233X1.308X0.233X1.308*%
%ADD45RoundRect,0.087X-0.757X0.282X0.757X0.282*%
%ADD46RoundRect,0.088X-0.331X0.531X0.331X0.531*%
%ADD47RoundRect,0.253X0.324X-0.374X-0.324X-0.374*%
%ADD48RoundRect,0.161X-0.32X-0.42X-0.32X0.42*%
%ADD49RoundRect,0.079X-0.311X-0.136X-0.311X0.136*%
%ADD50RoundRect,0.079X0.136X-0.311X-0.136X-0.311*%
%ADD51PolygonMacro1*%
%ADD52PolygonMacro2*%
%ADD53C,1.118*%
%ADD54RoundRect,0.254X-0.207X0.194X0.207X0.194*%
%ADD55RoundRect,0.084X-0.209X-0.453X-0.209X0.453*%
%ADD56RoundRect,0.088X0.277X0.402X0.277X-0.402*%
%ADD57RoundRect,0.081X-0.157X-0.255X-0.157X0.255*%
%ADD58RoundRect,0.085X-0.225X-0.253X-0.225X0.253*%
%ADD59RoundRect,0.088X0.402X-0.277X-0.402X-0.277*%
%ADD60RoundRect,0.081X-0.255X0.157X0.255X0.157*%
%ADD61RoundRect,0.085X-0.253X0.225X0.253X0.225*%
%ADD62RoundRect,0.411X0.37X-0.695X-0.37X-0.695*%
%ADD63RoundRect,0.365X0.138X0.264X0.138X-0.264*%
%ADD64RoundRect,0.198X-0.347X0.222X0.347X0.222*%
%ADD65RoundRect,0.456X0.423X0.523X0.423X-0.523*%
%ADD66RoundRect,0.254X0.194X0.207X0.194X-0.207*%
%ADD67RoundRect,0.088X-0.402X0.277X0.402X0.277*%
%ADD68RoundRect,0.254X-0.194X-0.207X-0.194X0.207*%
%ADD69O,1.377X0.683*%
%ADD70RoundRect,0.099X-1.701X-2.151X-1.701X2.151*%
%ADD71RoundRect,0.076X0.113X0.345X0.113X-0.345*%
%ADD72RoundRect,0.076X0.345X0.113X0.345X-0.113*%
%ADD73RoundRect,0.099X2.001X2.001X2.001X-2.001*%
%ADD74O,1.794X0.466*%
%ADD75RoundRect,0.546X0.527X-0.927X-0.527X-0.927*%
G75*


G04 Pad Start*
G54D10*
G01X16610Y6511D03*
G01X16610Y6011D03*
G01X16610Y5511D03*
G01X16610Y5011D03*
G01X16610Y4511D03*
G01X16610Y4011D03*
G54D11*
G01X17361Y3261D03*
G01X17860Y3261D03*
G01X18361Y3261D03*
G01X18860Y3261D03*
G01X19361Y3261D03*
G01X19860Y3261D03*
G54D10*
G01X20610Y4011D03*
G01X20610Y4511D03*
G01X20610Y5011D03*
G01X20610Y5511D03*
G01X20610Y6011D03*
G01X20610Y6503D03*
G54D11*
G01X19860Y7261D03*
G01X19361Y7261D03*
G01X18860Y7261D03*
G01X18361Y7261D03*
G01X17860Y7261D03*
G01X17361Y7261D03*
G54D12*
G01X18610Y5248D03*
G54D13*
G01X17823Y2026D03*
G01X16733Y2026D03*
G54D14*
G01X22128Y3937D03*
G01X23219Y3937D03*
G01X19140Y2026D03*
G01X20230Y2026D03*
G54D13*
G01X22040Y8382D03*
G01X20950Y8382D03*
G54D14*
G01X13898Y4572D03*
G01X14988Y4572D03*
G54D15*
G01X24774Y22293D03*
G01X23909Y22293D03*
G01X24774Y21150D03*
G01X23909Y21150D03*
G54D14*
G01X22574Y24844D03*
G01X23664Y24844D03*
G54D17*
G01X22687Y23603D03*
G01X23552Y23603D03*
G54D18*
G01X9285Y876D03*
G54D19*
G01X4685Y876D03*
G54D20*
G01X8660Y2426D03*
G01X5310Y2426D03*
G54D21*
G01X6489Y22860D03*
G54D22*
G01X6989Y23885D03*
G01X6489Y23885D03*
G01X5989Y23885D03*
G01X5989Y21835D03*
G01X6489Y21835D03*
G01X6989Y21835D03*
G54D23*
G01X3651Y22850D03*
G01X3151Y22850D03*
G01X2651Y22850D03*
G01X2151Y22850D03*
G01X2151Y20850D03*
G01X2651Y20850D03*
G01X3151Y20850D03*
G01X3651Y20850D03*
G54D24*
G01X2902Y21851D03*
G54D25*
G01X8530Y6418D03*
G01X9480Y6418D03*
G01X10430Y6418D03*
G01X10430Y8716D03*
G01X9480Y8716D03*
G01X8530Y8716D03*
G54D15*
G01X1830Y6731D03*
G01X964Y6731D03*
G01X1830Y7874D03*
G01X964Y7874D03*
G54D26*
G01X6477Y5690D03*
G01X6477Y8035D03*
G54D27*
G01X17945Y20461D03*
G01X17945Y22361D03*
G01X15944Y21411D03*
G54D15*
G01X15419Y20447D03*
G01X14553Y20447D03*
G54D17*
G01X14548Y22352D03*
G01X15413Y22352D03*
G54D18*
G01X30367Y876D03*
G54D19*
G01X25767Y876D03*
G54D20*
G01X29742Y2426D03*
G01X26392Y2426D03*
G54D15*
G01X1830Y5588D03*
G01X964Y5588D03*
G54D13*
G01X4609Y7874D03*
G01X3519Y7874D03*
G54D28*
G01X893Y22680D03*
G01X893Y23546D03*
G54D29*
G01X4038Y19812D03*
G01X4903Y19812D03*
G54D15*
G01X2846Y19812D03*
G01X1980Y19812D03*
G54D30*
G01X4685Y22794D03*
G01X4685Y23884D03*
G54D31*
G01X3204Y6411D03*
G01X3204Y4511D03*
G01X5205Y5461D03*
G54D32*
G01X8193Y20574D03*
G01X6793Y20574D03*
G54D33*
G01X8636Y24707D03*
G01X8636Y26107D03*
G54D34*
G01X893Y19825D03*
G01X888Y21425D03*
G54D35*
G01X6788Y25781D03*
G01X4732Y25781D03*
G54D36*
G01X6352Y17320D03*
G01X6352Y17020D03*
G01X6352Y16520D03*
G01X6352Y16220D03*
G01X6352Y15720D03*
G01X6352Y15220D03*
G01X6352Y14720D03*
G01X6352Y14220D03*
G01X6352Y13720D03*
G01X6352Y13220D03*
G01X6352Y12220D03*
G01X6352Y11720D03*
G01X6352Y11420D03*
G01X6352Y10920D03*
G01X6352Y10620D03*
G01X6352Y12720D03*
G54D37*
G01X1268Y18290D03*
G01X1268Y9650D03*
G54D38*
G01X5448Y9650D03*
G01X5448Y18290D03*
G54D39*
G01X15539Y9720D03*
G01X15539Y10220D03*
G01X15539Y10720D03*
G01X15539Y11220D03*
G01X15539Y11720D03*
G01X15539Y12220D03*
G01X15539Y12720D03*
G01X15539Y13220D03*
G01X15539Y13720D03*
G01X15539Y14220D03*
G01X15539Y14720D03*
G01X15539Y15220D03*
G01X15539Y15720D03*
G01X15539Y16220D03*
G01X15539Y16720D03*
G01X15539Y17220D03*
G01X15539Y17720D03*
G01X15539Y18220D03*
G54D40*
G01X18141Y8720D03*
G01X18141Y19220D03*
G54D41*
G01X13331Y27119D03*
G01X11843Y27119D03*
G01X14884Y27119D03*
G54D42*
G01X8344Y23166D03*
G01X8344Y22300D03*
G54D28*
G01X9266Y22300D03*
G01X9266Y23166D03*
G54D43*
G01X10310Y23532D03*
G01X10310Y22442D03*
G54D13*
G01X13135Y8624D03*
G01X12045Y8624D03*
G54D30*
G01X9421Y11139D03*
G01X9421Y12229D03*
G54D13*
G01X10636Y13674D03*
G01X9546Y13674D03*
G54D14*
G01X11948Y13674D03*
G01X13038Y13674D03*
G54D44*
G01X9949Y3354D03*
G54D45*
G01X11174Y5080D03*
G01X11174Y1627D03*
G54D44*
G01X12400Y3354D03*
G54D46*
G01X10750Y4029D03*
G01X11600Y4029D03*
G01X10750Y2678D03*
G01X11600Y2678D03*
G54D14*
G01X13898Y3302D03*
G01X14988Y3302D03*
G54D47*
G01X13741Y2109D03*
G01X15141Y2109D03*
G54D48*
G01X11782Y22509D03*
G01X12882Y22509D03*
G01X12882Y24339D03*
G01X11782Y24339D03*
G54D49*
G01X10663Y10399D03*
G01X10663Y10899D03*
G01X10663Y11399D03*
G01X10663Y11899D03*
G54D50*
G01X11256Y12482D03*
G01X11756Y12482D03*
G01X12256Y12482D03*
G01X12756Y12482D03*
G54D49*
G01X13349Y11899D03*
G01X13349Y11399D03*
G01X13349Y10899D03*
G01X13349Y10399D03*
G54D50*
G01X12756Y9806D03*
G01X12256Y9806D03*
G01X11756Y9806D03*
G01X11256Y9816D03*
G54D51*
G01X9883Y26035D03*
G54D52*
G01X10253Y26036D03*
G54D53*
G01X22232Y27152D03*
G01X20454Y27152D03*
G54D14*
G01X32475Y11430D03*
G01X33565Y11430D03*
G54D54*
G01X33670Y10160D03*
G01X32805Y10160D03*
G01X33670Y7129D03*
G01X32805Y7129D03*
G01X33670Y9162D03*
G01X32805Y9162D03*
G01X33670Y8148D03*
G01X32805Y8148D03*
G54D55*
G01X13186Y7583D03*
G01X13836Y7583D03*
G01X14486Y7583D03*
G01X15136Y7583D03*
G01X13186Y5879D03*
G01X13836Y5879D03*
G01X14486Y5879D03*
G01X15136Y5879D03*
G54D17*
G01X29091Y21088D03*
G01X29957Y21088D03*
G54D56*
G01X8603Y18075D03*
G01X8603Y19165D03*
G54D57*
G01X20045Y25294D03*
G01X19245Y25294D03*
G54D58*
G01X19645Y24234D03*
G54D59*
G01X19645Y22221D03*
G01X20735Y22221D03*
G01X19645Y23249D03*
G01X20735Y23249D03*
G54D60*
G01X18070Y24619D03*
G01X18070Y25419D03*
G54D61*
G01X17010Y25019D03*
G54D30*
G01X14224Y18075D03*
G01X14224Y19165D03*
G54D62*
G01X12705Y19320D03*
G01X10155Y19320D03*
G54D14*
G01X9765Y21082D03*
G01X10855Y21082D03*
G54D13*
G01X13118Y21082D03*
G01X12028Y21082D03*
G54D53*
G01X34096Y21186D03*
G01X32699Y21170D03*
G54D63*
G01X26113Y19990D03*
G01X26113Y21080D03*
G54D13*
G01X26027Y24853D03*
G01X24937Y24853D03*
G01X26027Y23603D03*
G01X24937Y23603D03*
G54D14*
G01X26087Y22313D03*
G01X27177Y22313D03*
G54D30*
G01X27263Y19990D03*
G01X27263Y21080D03*
G54D13*
G01X31131Y20090D03*
G01X30041Y20090D03*
G54D64*
G01X31131Y19108D03*
G01X30041Y19108D03*
G54D54*
G01X33829Y19939D03*
G01X32963Y19939D03*
G54D65*
G01X33650Y15032D03*
G01X31950Y17232D03*
G01X33650Y17232D03*
G01X31950Y15032D03*
G54D14*
G01X32597Y18742D03*
G01X33687Y18742D03*
G01X32468Y13525D03*
G01X33558Y13525D03*
G01X32475Y12446D03*
G01X33565Y12446D03*
G54D43*
G01X21622Y15277D03*
G01X21622Y14187D03*
G54D66*
G01X29055Y22096D03*
G01X29055Y22961D03*
G54D54*
G01X29027Y23976D03*
G01X28162Y23976D03*
G54D67*
G01X15677Y23643D03*
G01X14587Y23643D03*
G01X15677Y24821D03*
G01X14587Y24821D03*
G54D17*
G01X20885Y21082D03*
G01X20019Y21082D03*
G01X20885Y20084D03*
G01X20019Y20084D03*
G54D68*
G01X20908Y24267D03*
G01X20908Y25133D03*
G54D54*
G01X17038Y23622D03*
G01X17904Y23622D03*
G54D13*
G01X23255Y6031D03*
G01X22165Y6031D03*
G01X23255Y7023D03*
G01X22165Y7023D03*
G54D69*
G01X30826Y5969D03*
G01X30826Y7239D03*
G01X30826Y8509D03*
G01X30826Y9779D03*
G01X24800Y5969D03*
G01X24800Y7239D03*
G01X24800Y8509D03*
G01X24800Y9779D03*
G54D70*
G01X27813Y7874D03*
G54D71*
G01X29016Y18140D03*
G01X28616Y18140D03*
G01X28216Y18140D03*
G01X27816Y18140D03*
G01X27416Y18140D03*
G01X27016Y18140D03*
G01X26616Y18140D03*
G01X26216Y18140D03*
G01X25816Y18140D03*
G01X25416Y18140D03*
G01X25016Y18140D03*
G01X24616Y18140D03*
G01X24216Y18140D03*
G01X23816Y18140D03*
G54D72*
G01X23008Y17332D03*
G01X23008Y16932D03*
G01X23008Y16532D03*
G01X23008Y16132D03*
G01X23008Y15732D03*
G01X23008Y15332D03*
G01X23008Y14932D03*
G01X23008Y14532D03*
G01X23008Y14132D03*
G01X23008Y13732D03*
G01X23008Y13332D03*
G01X23008Y12932D03*
G01X23008Y12532D03*
G01X23008Y12132D03*
G54D71*
G01X23816Y11324D03*
G01X24216Y11324D03*
G01X24616Y11324D03*
G01X25016Y11324D03*
G01X25416Y11324D03*
G01X25816Y11324D03*
G01X26216Y11324D03*
G01X26616Y11324D03*
G01X27016Y11324D03*
G01X27416Y11324D03*
G01X27816Y11324D03*
G01X28216Y11324D03*
G01X28616Y11324D03*
G01X29016Y11324D03*
G54D72*
G01X29824Y12132D03*
G01X29824Y12532D03*
G01X29824Y12932D03*
G01X29824Y13332D03*
G01X29824Y13732D03*
G01X29824Y14132D03*
G01X29824Y14532D03*
G01X29824Y14932D03*
G01X29824Y15332D03*
G01X29824Y15732D03*
G01X29824Y16132D03*
G01X29824Y16532D03*
G01X29824Y16932D03*
G01X29824Y17332D03*
G54D73*
G01X26416Y14732D03*
G54D74*
G01X9225Y17231D03*
G01X9225Y16581D03*
G01X9225Y15931D03*
G01X9225Y15281D03*
G01X13517Y17231D03*
G01X13517Y16581D03*
G01X13517Y15931D03*
G01X13517Y15281D03*
G54D75*
G01X33765Y26162D03*
G01X28465Y26162D03*
G04 Pad End*

M02*
