G04 Layer: BottomSilkscreenLayer*
G04 EasyEDA Pro v2.1.27.74734765.450747, 2024-06-16 14:56:05*
G04 Gerber Generator version 0.3*
G04 Scale: 100 percent, Rotated: No, Reflected: No*
G04 Dimensions in millimeters*
G04 Leading zeros omitted, absolute positions, 3 integers and 3 decimals*
%FSLAX33Y33*%
%MOMM*%
%ADD10C,0.203*%
%ADD11C,0.254*%
G75*


G04 Text Start*
G36*
G01X8310Y23211D02*
G01X8310Y22132D01*
G01X8394D01*
G01X8395Y22143D01*
G01X8397Y22150D01*
G01X8398Y22159D01*
G01X8399Y22175D01*
G01X8400Y22182D01*
G01X8402Y22187D01*
G01X8404Y22198D01*
G01X8406Y22211D01*
G01X8408Y22217D01*
G01X8410Y22222D01*
G01X8418Y22240D01*
G01X8424Y22254D01*
G01X8427Y22259D01*
G01X8429Y22264D01*
G01X8440Y22279D01*
G01X8450Y22295D01*
G01X8455Y22301D01*
G01X8459Y22305D01*
G01X8464Y22308D01*
G01X8469Y22314D01*
G01X8478Y22324D01*
G01X8487Y22331D01*
G01X8493Y22337D01*
G01X8498Y22344D01*
G01X8500Y22346D01*
G01X8503Y22348D01*
G01X8511Y22351D01*
G01X8518Y22356D01*
G01X8533Y22366D01*
G01X8544Y22373D01*
G01X8561Y22382D01*
G01X8575Y22388D01*
G01X8583Y22393D01*
G01X8589Y22396D01*
G01X8594Y22398D01*
G01X8615Y22406D01*
G01X8625Y22411D01*
G01X8630Y22414D01*
G01X8635Y22416D01*
G01X8640Y22418D01*
G01X8651Y22420D01*
G01X8658Y22423D01*
G01X8662Y22425D01*
G01X8667Y22428D01*
G01X8672Y22430D01*
G01X8677Y22432D01*
G01X8692Y22435D01*
G01X8805Y22472D01*
G01X8827Y22480D01*
G01X8853Y22491D01*
G01X8861Y22494D01*
G01X8870Y22499D01*
G01X8880Y22504D01*
G01X8896Y22512D01*
G01X8902Y22515D01*
G01X8905Y22517D01*
G01X8914Y22525D01*
G01X8921Y22530D01*
G01X8927Y22536D01*
G01X8935Y22546D01*
G01X8941Y22551D01*
G01X8944Y22553D01*
G01X8947Y22557D01*
G01X8950Y22561D01*
G01X8952Y22567D01*
G01X8961Y22589D01*
G01X8963Y22596D01*
G01X8964Y22604D01*
G01X8966Y22613D01*
G01Y22623D01*
G01Y22629D01*
G01Y22644D01*
G01X8965Y22652D01*
G01X8964Y22658D01*
G01X8957Y22678D01*
G01X8952Y22687D01*
G01X8950Y22691D01*
G01X8945Y22696D01*
G01X8938Y22705D01*
G01X8936Y22709D01*
G01X8932Y22712D01*
G01X8928Y22716D01*
G01X8923Y22719D01*
G01X8896Y22736D01*
G01X8869Y22747D01*
G01X8859Y22751D01*
G01X8852Y22753D01*
G01X8844Y22755D01*
G01X8817Y22758D01*
G01X8808Y22760D01*
G01X8805Y22761D01*
G01X8792Y22762D01*
G01X8763Y22763D01*
G01X8734Y22762D01*
G01X8721Y22761D01*
G01X8715Y22759D01*
G01X8702Y22757D01*
G01X8685Y22755D01*
G01X8678Y22753D01*
G01X8669Y22750D01*
G01X8656Y22745D01*
G01X8640Y22741D01*
G01X8629Y22738D01*
G01X8612Y22729D01*
G01X8596Y22723D01*
G01X8587Y22718D01*
G01X8567Y22705D01*
G01X8558Y22700D01*
G01X8544Y22689D01*
G01X8529Y22678D01*
G01X8519Y22672D01*
G01X8516Y22671D01*
G01X8513Y22673D01*
G01X8506Y22681D01*
G01X8501Y22687D01*
G01X8491Y22694D01*
G01X8486Y22700D01*
G01X8476Y22714D01*
G01X8467Y22724D01*
G01X8463Y22729D01*
G01X8458Y22734D01*
G01X8453Y22738D01*
G01X8450Y22741D01*
G01X8447Y22745D01*
G01X8442Y22753D01*
G01X8439Y22757D01*
G01X8436Y22760D01*
G01X8433Y22763D01*
G01X8430Y22766D01*
G01X8428Y22768D01*
G01X8426Y22771D01*
G01Y22775D01*
G01Y22778D01*
G01X8428Y22781D01*
G01X8430Y22784D01*
G01X8433Y22786D01*
G01X8446Y22795D01*
G01X8451Y22800D01*
G01X8463Y22809D01*
G01X8512Y22839D01*
G01X8520Y22844D01*
G01X8529Y22848D01*
G01X8543Y22854D01*
G01X8551Y22859D01*
G01X8556Y22862D01*
G01X8564Y22866D01*
G01X8578Y22870D01*
G01X8592Y22876D01*
G01X8602Y22879D01*
G01X8619Y22883D01*
G01X8635Y22888D01*
G01X8645Y22890D01*
G01X8669Y22895D01*
G01X8682Y22897D01*
G01X8701Y22899D01*
G01X8723Y22901D01*
G01X8743Y22902D01*
G01X8750Y22903D01*
G01X8753Y22904D01*
G01X8764Y22906D01*
G01X8786D01*
G01X8806D01*
G01X8817Y22905D01*
G01X8821Y22904D01*
G01X8825Y22903D01*
G01X8831Y22902D01*
G01X8859Y22901D01*
G01X8867Y22900D01*
G01X8876Y22898D01*
G01X8887Y22896D01*
G01X8908Y22893D01*
G01X8918Y22890D01*
G01X8938Y22883D01*
G01X8961Y22875D01*
G01X8980Y22867D01*
G01X9003Y22855D01*
G01X9012Y22851D01*
G01X9033Y22837D01*
G01X9046Y22827D01*
G01X9075Y22805D01*
G01X9082Y22798D01*
G01X9086Y22794D01*
G01X9088Y22790D01*
G01X9090Y22785D01*
G01X9092Y22782D01*
G01X9095Y22779D01*
G01X9101Y22774D01*
G01X9104Y22771D01*
G01X9107Y22768D01*
G01X9114Y22754D01*
G01X9121Y22743D01*
G01X9123Y22739D01*
G01X9135Y22712D01*
G01X9139Y22703D01*
G01X9141Y22697D01*
G01X9142Y22691D01*
G01X9147Y22673D01*
G01X9150Y22660D01*
G01X9151Y22652D01*
G01X9152Y22639D01*
G01X9153Y22631D01*
G01X9154Y22627D01*
G01X9155Y22621D01*
G01X9156Y22603D01*
G01X9155Y22590D01*
G01X9154Y22580D01*
G01X9152Y22572D01*
G01X9151Y22564D01*
G01Y22551D01*
G01X9149Y22544D01*
G01X9141Y22523D01*
G01X9137Y22510D01*
G01X9123Y22482D01*
G01X9118Y22471D01*
G01X9109Y22461D01*
G01X9098Y22446D01*
G01X9093Y22439D01*
G01X9087Y22433D01*
G01X9077Y22426D01*
G01X9070Y22419D01*
G01X9061Y22412D01*
G01X9035Y22394D01*
G01X9002Y22373D01*
G01X8997Y22370D01*
G01X8979Y22362D01*
G01X8970Y22358D01*
G01X8961Y22352D01*
G01X8942Y22344D01*
G01X8933Y22339D01*
G01X8928Y22336D01*
G01X8920Y22333D01*
G01X8906Y22328D01*
G01X8889Y22321D01*
G01X8874Y22315D01*
G01X8846Y22306D01*
G01X8786Y22287D01*
G01X8758Y22278D01*
G01X8736Y22270D01*
G01X8710Y22260D01*
G01X8694Y22253D01*
G01X8689Y22250D01*
G01X8677Y22244D01*
G01X8669Y22239D01*
G01X8650Y22228D01*
G01X8637Y22218D01*
G01X8626Y22209D01*
G01X8621Y22204D01*
G01X8617Y22198D01*
G01X8613Y22192D01*
G01X8601Y22174D01*
G01X8599Y22171D01*
G01X8597Y22166D01*
G01X8596Y22161D01*
G01X8592Y22145D01*
G01X8590Y22137D01*
G01X8589Y22132D01*
G01X9331D01*
G01X9332Y22143D01*
G01X9335Y22150D01*
G01X9336Y22159D01*
G01Y22175D01*
G01X9338Y22182D01*
G01X9339Y22187D01*
G01X9342Y22198D01*
G01X9344Y22211D01*
G01X9346Y22217D01*
G01X9347Y22222D01*
G01X9355Y22240D01*
G01X9361Y22254D01*
G01X9364Y22259D01*
G01X9367Y22264D01*
G01X9377Y22279D01*
G01X9388Y22295D01*
G01X9393Y22301D01*
G01X9396Y22305D01*
G01X9402Y22308D01*
G01X9407Y22314D01*
G01X9415Y22324D01*
G01X9424Y22331D01*
G01X9430Y22337D01*
G01X9435Y22344D01*
G01X9438Y22346D01*
G01X9441Y22348D01*
G01X9448Y22351D01*
G01X9456Y22356D01*
G01X9470Y22366D01*
G01X9481Y22373D01*
G01X9499Y22382D01*
G01X9512Y22388D01*
G01X9521Y22393D01*
G01X9527Y22396D01*
G01X9532Y22398D01*
G01X9553Y22406D01*
G01X9563Y22411D01*
G01X9568Y22414D01*
G01X9572Y22416D01*
G01X9577Y22418D01*
G01X9588Y22420D01*
G01X9595Y22423D01*
G01X9599Y22425D01*
G01X9605Y22428D01*
G01X9609Y22430D01*
G01X9614Y22432D01*
G01X9630Y22435D01*
G01X9742Y22472D01*
G01X9765Y22480D01*
G01X9791Y22491D01*
G01X9798Y22494D01*
G01X9807Y22499D01*
G01X9817Y22504D01*
G01X9833Y22512D01*
G01X9839Y22515D01*
G01X9843Y22517D01*
G01X9852Y22525D01*
G01X9859Y22530D01*
G01X9864Y22536D01*
G01X9872Y22546D01*
G01X9878Y22551D01*
G01X9882Y22553D01*
G01X9885Y22557D01*
G01X9887Y22561D01*
G01X9890Y22567D01*
G01X9898Y22589D01*
G01X9900Y22596D01*
G01X9902Y22604D01*
G01X9903Y22613D01*
G01Y22623D01*
G01Y22644D01*
G01Y22652D01*
G01X9901Y22658D01*
G01X9894Y22678D01*
G01X9890Y22687D01*
G01X9888Y22691D01*
G01X9883Y22696D01*
G01X9876Y22705D01*
G01X9873Y22709D01*
G01X9865Y22716D01*
G01X9860Y22719D01*
G01X9833Y22736D01*
G01X9807Y22747D01*
G01X9797Y22751D01*
G01X9790Y22753D01*
G01X9782Y22755D01*
G01X9755Y22758D01*
G01X9745Y22760D01*
G01X9742Y22761D01*
G01X9730Y22762D01*
G01X9700Y22763D01*
G01X9671Y22762D01*
G01X9659Y22761D01*
G01X9653Y22759D01*
G01X9640Y22757D01*
G01X9623Y22755D01*
G01X9615Y22753D01*
G01X9606Y22750D01*
G01X9594Y22745D01*
G01X9577Y22741D01*
G01X9567Y22738D01*
G01X9549Y22729D01*
G01X9533Y22723D01*
G01X9524Y22718D01*
G01X9504Y22705D01*
G01X9496Y22700D01*
G01X9481Y22689D01*
G01X9467Y22678D01*
G01X9457Y22672D01*
G01X9455Y22671D01*
G01X9453D01*
G01X9450Y22673D01*
G01X9444Y22681D01*
G01X9438Y22687D01*
G01X9428Y22694D01*
G01X9423Y22700D01*
G01X9414Y22714D01*
G01X9405Y22724D01*
G01X9401Y22729D01*
G01X9395Y22734D01*
G01X9390Y22738D01*
G01X9387Y22741D01*
G01X9384Y22745D01*
G01X9379Y22753D01*
G01X9377Y22757D01*
G01X9374Y22760D01*
G01X9370Y22763D01*
G01X9367Y22766D01*
G01X9365Y22768D01*
G01X9364Y22771D01*
G01X9363Y22775D01*
G01X9364Y22778D01*
G01X9365Y22781D01*
G01X9367Y22784D01*
G01X9370Y22786D01*
G01X9383Y22795D01*
G01X9389Y22800D01*
G01X9401Y22809D01*
G01X9449Y22839D01*
G01X9457Y22844D01*
G01X9466Y22848D01*
G01X9480Y22854D01*
G01X9488Y22859D01*
G01X9494Y22862D01*
G01X9502Y22866D01*
G01X9516Y22870D01*
G01X9530Y22876D01*
G01X9540Y22879D01*
G01X9556Y22883D01*
G01X9572Y22888D01*
G01X9583Y22890D01*
G01X9606Y22895D01*
G01X9619Y22897D01*
G01X9638Y22899D01*
G01X9661Y22901D01*
G01X9681Y22902D01*
G01X9687Y22903D01*
G01X9691Y22904D01*
G01X9701Y22906D01*
G01X9724D01*
G01X9744D01*
G01X9755Y22905D01*
G01X9758Y22904D01*
G01X9762Y22903D01*
G01X9768Y22902D01*
G01X9796Y22901D01*
G01X9805Y22900D01*
G01X9813Y22898D01*
G01X9825Y22896D01*
G01X9846Y22893D01*
G01X9855Y22890D01*
G01X9876Y22883D01*
G01X10301D01*
G01X10467D01*
G01Y22594D01*
G01X10465Y22304D01*
G01Y22299D01*
G01X10464Y22297D01*
G01X10463Y22288D01*
G01Y22256D01*
G01X10462Y22246D01*
G01Y22208D01*
G01X10461Y22195D01*
G01X10460Y22190D01*
G01X10459Y22181D01*
G01X10457Y22138D01*
G01X10456Y22127D01*
G01Y22123D01*
G01X10455Y22119D01*
G01X10454Y22113D01*
G01X10453Y22095D01*
G01Y22082D01*
G01X10452Y22072D01*
G01X10450Y22064D01*
G01X10449Y22058D01*
G01Y22030D01*
G01X10448Y22021D01*
G01X10445Y22014D01*
G01Y22011D01*
G01Y22008D01*
G01X10447Y22006D01*
G01X10449Y22004D01*
G01X10453Y22008D01*
G01X10456Y22012D01*
G01X10459Y22021D01*
G01X10461Y22032D01*
G01X10464Y22039D01*
G01X10466Y22043D01*
G01X10469Y22049D01*
G01X10471Y22053D01*
G01X10473Y22058D01*
G01X10475Y22069D01*
G01X10478Y22076D01*
G01X10480Y22080D01*
G01X10483Y22086D01*
G01X10485Y22090D01*
G01X10487Y22095D01*
G01X10489Y22106D01*
G01X10492Y22113D01*
G01X10494Y22117D01*
G01X10497Y22122D01*
G01X10499Y22127D01*
G01X10500Y22132D01*
G01X10503Y22143D01*
G01X10505Y22150D01*
G01X10507Y22154D01*
G01X10511Y22159D01*
G01X10514Y22169D01*
G01X10517Y22180D01*
G01X10519Y22187D01*
G01X10521Y22191D01*
G01X10525Y22197D01*
G01X10527Y22201D01*
G01X10528Y22206D01*
G01X10531Y22217D01*
G01X10533Y22224D01*
G01X10535Y22228D01*
G01X10538Y22233D01*
G01X10540Y22238D01*
G01X10542Y22243D01*
G01X10545Y22253D01*
G01X10547Y22261D01*
G01X10549Y22265D01*
G01X10552Y22270D01*
G01X10554Y22275D01*
G01X10556Y22279D01*
G01X10558Y22291D01*
G01X10561Y22298D01*
G01X10563Y22302D01*
G01X10566Y22307D01*
G01X10568Y22311D01*
G01X10570Y22316D01*
G01X10572Y22328D01*
G01X10575Y22335D01*
G01X10577Y22339D01*
G01X10580Y22344D01*
G01X10582Y22348D01*
G01X10584Y22354D01*
G01X10586Y22364D01*
G01X10589Y22371D01*
G01X10591Y22375D01*
G01X10594Y22381D01*
G01X10596Y22386D01*
G01X10597Y22391D01*
G01X10600Y22401D01*
G01X10602Y22408D01*
G01X10605Y22412D01*
G01X10608Y22418D01*
G01X10611Y22427D01*
G01X10614Y22438D01*
G01X10616Y22445D01*
G01X10618Y22450D01*
G01X10622Y22455D01*
G01X10623Y22459D01*
G01X10625Y22464D01*
G01X10628Y22475D01*
G01X10631Y22486D01*
G01X10637Y22498D01*
G01X10643Y22514D01*
G01X10651Y22536D01*
G01X10660Y22561D01*
G01X10665Y22577D01*
G01X10673Y22592D01*
G01X10676Y22601D01*
G01X10680Y22615D01*
G01X10686Y22629D01*
G01X10690Y22639D01*
G01X10694Y22652D01*
G01X10700Y22666D01*
G01X10704Y22675D01*
G01X10708Y22689D01*
G01X10714Y22703D01*
G01X10722Y22726D01*
G01X10728Y22740D01*
G01X10732Y22749D01*
G01X10736Y22763D01*
G01X10742Y22777D01*
G01X10745Y22786D01*
G01X10749Y22800D01*
G01X10755Y22814D01*
G01X10759Y22823D01*
G01X10764Y22837D01*
G01X10770Y22851D01*
G01X10773Y22860D01*
G01X10776Y22869D01*
G01X10778Y22873D01*
G01X10780Y22876D01*
G01X10783Y22878D01*
G01X10787Y22879D01*
G01X10793Y22880D01*
G01X10835Y22882D01*
G01X10906Y22883D01*
G01X11021D01*
G01Y22146D01*
G01X11206D01*
G01Y22407D01*
G01X11585D01*
G01Y22391D01*
G01X11584Y22380D01*
G01X11583Y22372D01*
G01X11581Y22365D01*
G01X11580Y22357D01*
G01X11579Y22343D01*
G01X11577Y22332D01*
G01X11576Y22324D01*
G01X11575Y22311D01*
G01X11572Y22300D01*
G01X11571Y22291D01*
G01Y22282D01*
G01X11570Y22280D01*
G01X11568Y22276D01*
G01X11564Y22273D01*
G01X11562Y22272D01*
G01X11560Y22271D01*
G01X11555D01*
G01X11531Y22270D01*
G01X11467Y22269D01*
G01X11386D01*
G01Y21968D01*
G01X11397Y21964D01*
G01X11414Y21957D01*
G01X11426Y21951D01*
G01X11442Y21946D01*
G01X11472Y21936D01*
G01X11484Y21933D01*
G01X11499Y21931D01*
G01X11509Y21929D01*
G01X11531Y21927D01*
G01X11551D01*
G01X11558Y21925D01*
G01X11563Y21924D01*
G01X11572D01*
G01X11586Y21926D01*
G01X11595Y21927D01*
G01X11611Y21928D01*
G01X11617Y21929D01*
G01X11628Y21932D01*
G01X11643Y21935D01*
G01X11650Y21938D01*
G01X11655Y21940D01*
G01X11660Y21943D01*
G01X11668Y21947D01*
G01X11677Y21949D01*
G01X11680Y21951D01*
G01X11683Y21953D01*
G01X11689Y21957D01*
G01X11693Y21960D01*
G01X11708Y21970D01*
G01X11714Y21975D01*
G01X11718Y21979D01*
G01X11721Y21984D01*
G01X11727Y21989D01*
G01X11733Y21994D01*
G01X11736Y21997D01*
G01X11739Y22001D01*
G01X11746Y22014D01*
G01X11750Y22018D01*
G01X11753Y22022D01*
G01X11758Y22029D01*
G01X11765Y22042D01*
G01X11771Y22053D01*
G01X11775Y22061D01*
G01X11780Y22075D01*
G01X11786Y22089D01*
G01X11789Y22100D01*
G01X11793Y22115D01*
G01X11798Y22138D01*
G01X11802Y22156D01*
G01X11805Y22169D01*
G01X11806Y22177D01*
G01X11807Y22190D01*
G01X11809Y22201D01*
G01X11811Y22210D01*
G01X11812Y22226D01*
G01X11813Y22233D01*
G01X11814Y22236D01*
G01X11815Y22247D01*
G01X11816Y22297D01*
G01X11817Y22309D01*
G01X11818Y22313D01*
G01X11819Y22317D01*
G01X11820Y22326D01*
G01Y22349D01*
G01Y22371D01*
G01X11819Y22383D01*
G01X11818Y22387D01*
G01X11817Y22392D01*
G01X11816Y22399D01*
G01X11815Y22441D01*
G01X11814Y22453D01*
G01X11813Y22460D01*
G01X11811Y22468D01*
G01X11810Y22481D01*
G01X11807Y22492D01*
G01X11805Y22504D01*
G01X11802Y22525D01*
G01X11799Y22534D01*
G01X11780Y22592D01*
G01X11775Y22602D01*
G01X11769Y22612D01*
G01X11762Y22628D01*
G01X11760Y22633D01*
G01X11757Y22638D01*
G01X11742Y22659D01*
G01X11732Y22672D01*
G01X11724Y22683D01*
G01X11719Y22687D01*
G01X11713Y22692D01*
G01X11708Y22696D01*
G01X11703Y22702D01*
G01X11698Y22709D01*
G01X11695Y22711D01*
G01X11692Y22713D01*
G01X11685Y22716D01*
G01X11677Y22721D01*
G01X11668Y22727D01*
G01X11663Y22730D01*
G01X11657Y22733D01*
G01X11636Y22742D01*
G01X11626Y22747D01*
G01X11616Y22750D01*
G01X11600Y22754D01*
G01X11587Y22757D01*
G01X11576Y22759D01*
G01X11569Y22761D01*
G01X11560Y22762D01*
G01X11535Y22763D01*
G01X11520D01*
G01X11497Y22762D01*
G01X11484Y22761D01*
G01X11477Y22759D01*
G01X11467Y22757D01*
G01X11453Y22755D01*
G01X11447Y22753D01*
G01X11442Y22751D01*
G01X11429Y22746D01*
G01X11414Y22740D01*
G01X11407Y22738D01*
G01X11401Y22735D01*
G01X11395Y22731D01*
G01X11381Y22721D01*
G01X11361Y22709D01*
G01X11347Y22698D01*
G01X11326Y22682D01*
G01X11324Y22681D01*
G01X11322Y22680D01*
G01X11320Y22679D01*
G01X11318D01*
G01X11316D01*
G01X11315Y22680D01*
G01X11314Y22681D01*
G01X11310Y22686D01*
G01X11304Y22691D01*
G01X11294Y22699D01*
G01X11287Y22709D01*
G01X11281Y22714D01*
G01X11272Y22722D01*
G01X11263Y22731D01*
G01X11258Y22738D01*
G01X11251Y22742D01*
G01X11249Y22745D01*
G01X11247Y22748D01*
G01X11244Y22755D01*
G01X11242Y22758D01*
G01X11233Y22766D01*
G01X11227Y22771D01*
G01X11224Y22775D01*
G01X11223Y22778D01*
G01X11222Y22781D01*
G01X11221Y22784D01*
G01X11222Y22786D01*
G01X11224Y22788D01*
G01X11226Y22791D01*
G01X11229Y22793D01*
G01X11238Y22798D01*
G01X11242Y22801D01*
G01X11245Y22804D01*
G01X11248Y22807D01*
G01X11250Y22810D01*
G01X11253Y22813D01*
G01X11256Y22815D01*
G01X11262Y22817D01*
G01X11265Y22819D01*
G01X11268Y22821D01*
G01X11277Y22829D01*
G01X11287Y22835D01*
G01X11313Y22851D01*
G01X11332Y22859D01*
G01X11341Y22864D01*
G01X11350Y22869D01*
G01X11361Y22874D01*
G01X11383Y22882D01*
G01X11400Y22887D01*
G01X11435Y22895D01*
G01X11463Y22899D01*
G01X11477Y22901D01*
G01X11496Y22902D01*
G01X11505Y22903D01*
G01X11511Y22904D01*
G01X11520Y22906D01*
G01X11535D01*
G01X11541D01*
G01X11560D01*
G01X11570Y22905D01*
G01X11573Y22904D01*
G01X11577Y22903D01*
G01X11582Y22902D01*
G01X11607Y22901D01*
G01X11615Y22900D01*
G01X11624Y22898D01*
G01X11635Y22896D01*
G01X11650Y22894D01*
G01X11657Y22892D01*
G01X11665Y22889D01*
G01X11677Y22884D01*
G01X11694Y22879D01*
G01X11705Y22876D01*
G01X11722Y22868D01*
G01X11738Y22861D01*
G01X11747Y22856D01*
G01X11757Y22851D01*
G01X11772Y22844D01*
G01X11779Y22840D01*
G01X11782Y22838D01*
G01X11790Y22832D01*
G01X11807Y22820D01*
G01X11815Y22815D01*
G01X11824Y22807D01*
G01X11830Y22802D01*
G01X11836Y22797D01*
G01X11844Y22787D01*
G01X11854Y22779D01*
G01X11859Y22773D01*
G01X11867Y22763D01*
G01X11873Y22758D01*
G01X11877Y22756D01*
G01X11880Y22752D01*
G01X11884Y22748D01*
G01X11892Y22735D01*
G01X11897Y22727D01*
G01X11905Y22718D01*
G01X11917Y22700D01*
G01X11929Y22682D01*
G01X11943Y22659D01*
G01X11948Y22651D01*
G01X11952Y22642D01*
G01X11954Y22636D01*
G01X11973Y22590D01*
G01X11976Y22581D01*
G01X11978Y22572D01*
G01X11982Y22556D01*
G01X11991Y22525D01*
G01X11994Y22513D01*
G01X11997Y22498D01*
G01X12000Y22471D01*
G01X12003Y22461D01*
G01X12004Y22457D01*
G01X12005Y22446D01*
G01X12006Y22428D01*
G01X12007Y22421D01*
G01X12008Y22416D01*
G01X12009Y22404D01*
G01X12010Y22334D01*
G01X12009Y22261D01*
G01X12008Y22250D01*
G01Y22248D01*
G01X12006Y22244D01*
G01Y22239D01*
G01X12005Y22214D01*
G01X12004Y22206D01*
G01X12002Y22198D01*
G01X12000Y22190D01*
G01Y22177D01*
G01X11997Y22166D01*
G01X11994Y22154D01*
G01X11991Y22133D01*
G01X11989Y22123D01*
G01X11982Y22101D01*
G01X11973Y22070D01*
G01X11964Y22048D01*
G01X11954Y22022D01*
G01X11951Y22014D01*
G01X11946Y22005D01*
G01X11941Y21995D01*
G01X11933Y21980D01*
G01X11930Y21973D01*
G01X11928Y21970D01*
G01X11921Y21962D01*
G01X11910Y21945D01*
G01X11904Y21937D01*
G01X11896Y21928D01*
G01X11892Y21922D01*
G01X11886Y21916D01*
G01X11876Y21908D01*
G01X11868Y21898D01*
G01X11863Y21893D01*
G01X11853Y21885D01*
G01X11848Y21879D01*
G01X11845Y21875D01*
G01X11841Y21872D01*
G01X11837Y21868D01*
G01X11818Y21856D01*
G01X11801Y21844D01*
G01X11790Y21837D01*
G01X11773Y21828D01*
G01X11767Y21826D01*
G01X11744Y21816D01*
G01X11722Y21808D01*
G01X11719Y21807D01*
G01X11689Y21798D01*
G01X11676Y21795D01*
G01X11662Y21792D01*
G01X11630Y21788D01*
G01X11627Y21787D01*
G01X11626Y21786D01*
G01X11624D01*
G01X11621Y21785D01*
G01X11600Y21784D01*
G01X11564D01*
G01X11513Y21785D01*
G01X11502Y21786D01*
G01X11496Y21787D01*
G01X11485Y21789D01*
G01X11467D01*
G01X11459Y21790D01*
G01X11453Y21792D01*
G01X11441Y21794D01*
G01X11417Y21798D01*
G01X11407Y21800D01*
G01X11384Y21807D01*
G01X11354Y21816D01*
G01X11331Y21824D01*
G01X11282Y21844D01*
G01X11274Y21848D01*
G01X11265Y21852D01*
G01X11256Y21858D01*
G01X11237Y21866D01*
G01X11229Y21870D01*
G01X11213Y21881D01*
G01X11212Y21883D01*
G01Y21886D01*
G01X11210Y21899D01*
G01X11207Y21987D01*
G01X11206Y22146D01*
G01X11021D01*
G01Y21807D01*
G01X10855D01*
G01Y22098D01*
G01X10857Y22390D01*
G01Y22395D01*
G01Y22396D01*
G01X10858Y22398D01*
G01X10859Y22406D01*
G01X10860Y22434D01*
G01Y22444D01*
G01X10861Y22479D01*
G01X10862Y22491D01*
G01X10863Y22495D01*
G01X10864Y22504D01*
G01Y22519D01*
G01X10865Y22544D01*
G01X10866Y22554D01*
G01X10867Y22558D01*
G01X10868Y22562D01*
G01Y22568D01*
G01X10869Y22588D01*
G01Y22602D01*
G01X10870Y22610D01*
G01X10871Y22617D01*
G01X10872Y22622D01*
G01X10873Y22627D01*
G01X10874Y22655D01*
G01X10875Y22664D01*
G01X10876Y22668D01*
G01X10877Y22672D01*
G01Y22679D01*
G01X10876Y22682D01*
G01X10873Y22685D01*
G01X10869Y22680D01*
G01X10866Y22673D01*
G01X10860Y22657D01*
G01X10851Y22634D01*
G01X10842Y22610D01*
G01X10833Y22584D01*
G01X10824Y22559D01*
G01X10818Y22543D01*
G01X10811Y22527D01*
G01X10808Y22518D01*
G01X10804Y22504D01*
G01X10798Y22491D01*
G01X10794Y22482D01*
G01X10790Y22467D01*
G01X10784Y22454D01*
G01X10780Y22444D01*
G01X10776Y22431D01*
G01X10770Y22417D01*
G01X10766Y22407D01*
G01X10762Y22394D01*
G01X10756Y22380D01*
G01X10752Y22370D01*
G01X10748Y22357D01*
G01X10742Y22343D01*
G01X10739Y22334D01*
G01X10735Y22319D01*
G01X10728Y22306D01*
G01X10720Y22283D01*
G01X10714Y22269D01*
G01X10711Y22260D01*
G01X10707Y22246D01*
G01X10701Y22232D01*
G01X10697Y22222D01*
G01X10693Y22209D01*
G01X10687Y22195D01*
G01X10683Y22186D01*
G01X10679Y22172D01*
G01X10673Y22158D01*
G01X10665Y22135D01*
G01X10659Y22121D01*
G01X10655Y22111D01*
G01X10653Y22100D01*
G01X10650Y22092D01*
G01X10648Y22088D01*
G01X10645Y22083D01*
G01X10643Y22078D01*
G01X10642Y22074D01*
G01X10639Y22062D01*
G01X10637Y22055D01*
G01X10634Y22051D01*
G01X10631Y22046D01*
G01X10629Y22042D01*
G01X10628Y22037D01*
G01X10625Y22025D01*
G01X10623Y22018D01*
G01X10621Y22014D01*
G01X10617Y22009D01*
G01X10616Y22005D01*
G01X10614Y21999D01*
G01X10611Y21989D01*
G01X10609Y21982D01*
G01X10607Y21978D01*
G01X10603Y21972D01*
G01X10601Y21967D01*
G01X10600Y21963D01*
G01X10597Y21952D01*
G01X10595Y21945D01*
G01X10593Y21941D01*
G01X10590Y21935D01*
G01X10588Y21930D01*
G01X10586Y21926D01*
G01X10584Y21915D01*
G01X10581Y21908D01*
G01X10579Y21903D01*
G01X10576Y21898D01*
G01X10574Y21894D01*
G01X10572Y21889D01*
G01X10570Y21878D01*
G01X10567Y21870D01*
G01X10565Y21866D01*
G01X10562Y21861D01*
G01X10560Y21857D01*
G01X10558Y21852D01*
G01X10556Y21841D01*
G01X10553Y21834D01*
G01X10551Y21830D01*
G01X10546Y21821D01*
G01X10544Y21814D01*
G01X10541Y21813D01*
G01X10535Y21811D01*
G01X10512Y21809D01*
G01X10421Y21807D01*
G01X10301D01*
G01Y22883D01*
G01X9876D01*
G01X9898Y22875D01*
G01X9917Y22867D01*
G01X9941Y22855D01*
G01X9949Y22851D01*
G01X9971Y22837D01*
G01X9984Y22827D01*
G01X10012Y22805D01*
G01X10020Y22798D01*
G01X10023Y22794D01*
G01X10025Y22790D01*
G01X10027Y22785D01*
G01X10029Y22782D01*
G01X10032Y22779D01*
G01X10039Y22774D01*
G01X10042Y22771D01*
G01X10044Y22768D01*
G01X10051Y22754D01*
G01X10058Y22743D01*
G01X10061Y22739D01*
G01X10072Y22712D01*
G01X10077Y22703D01*
G01X10079Y22697D01*
G01X10080Y22691D01*
G01X10084Y22673D01*
G01X10087Y22660D01*
G01X10088Y22652D01*
G01X10089Y22639D01*
G01X10091Y22631D01*
G01X10092Y22627D01*
G01Y22621D01*
G01X10093Y22603D01*
G01Y22590D01*
G01X10092Y22580D01*
G01X10090Y22572D01*
G01X10088Y22564D01*
G01Y22551D01*
G01X10086Y22544D01*
G01X10079Y22523D01*
G01X10075Y22510D01*
G01X10061Y22482D01*
G01X10055Y22471D01*
G01X10047Y22461D01*
G01X10036Y22446D01*
G01X10030Y22439D01*
G01X10025Y22433D01*
G01X10015Y22426D01*
G01X10008Y22419D01*
G01X9998Y22412D01*
G01X9973Y22394D01*
G01X9939Y22373D01*
G01X9935Y22370D01*
G01X9917Y22362D01*
G01X9908Y22358D01*
G01X9898Y22352D01*
G01X9880Y22344D01*
G01X9871Y22339D01*
G01X9865Y22336D01*
G01X9857Y22333D01*
G01X9844Y22328D01*
G01X9827Y22321D01*
G01X9812Y22315D01*
G01X9784Y22306D01*
G01X9724Y22287D01*
G01X9696Y22278D01*
G01X9673Y22270D01*
G01X9647Y22260D01*
G01X9631Y22253D01*
G01X9627Y22250D01*
G01X9614Y22244D01*
G01X9606Y22239D01*
G01X9587Y22228D01*
G01X9574Y22218D01*
G01X9569Y22213D01*
G01X9564Y22209D01*
G01X9559Y22204D01*
G01X9554Y22198D01*
G01X9550Y22192D01*
G01X9539Y22174D01*
G01X9537Y22171D01*
G01X9535Y22166D01*
G01X9533Y22161D01*
G01X9530Y22145D01*
G01X9528Y22137D01*
G01X9527Y22132D01*
G01X9526Y22123D01*
G01X9525Y22093D01*
G01X9526Y22073D01*
G01Y22063D01*
G01X9528Y22053D01*
G01X9529Y22048D01*
G01X9534Y22038D01*
G01X9538Y22024D01*
G01X9539Y22021D01*
G01X9541Y22017D01*
G01X9546Y22013D01*
G01X9553Y22004D01*
G01X9558Y21997D01*
G01X9568Y21989D01*
G01X9573Y21984D01*
G01X9578Y21977D01*
G01X9582Y21974D01*
G01X9586Y21971D01*
G01X9597Y21966D01*
G01X9604Y21963D01*
G01X9607Y21961D01*
G01X9611Y21957D01*
G01X9615Y21955D01*
G01X9621Y21953D01*
G01X9639Y21946D01*
G01X9652Y21940D01*
G01X9662Y21937D01*
G01X9670Y21935D01*
G01X9697Y21932D01*
G01X9706Y21930D01*
G01X9710Y21929D01*
G01X9718Y21928D01*
G01X9748Y21927D01*
G01X9758D01*
G01X9794Y21928D01*
G01X9807Y21929D01*
G01X9813Y21930D01*
G01X9821Y21931D01*
G01X9834Y21932D01*
G01X9841Y21934D01*
G01X9845Y21935D01*
G01X9856Y21937D01*
G01X9869Y21940D01*
G01X9875Y21942D01*
G01X9880Y21944D01*
G01X9894Y21950D01*
G01X9909Y21954D01*
G01X9918Y21957D01*
G01X9934Y21965D01*
G01X9949Y21971D01*
G01X9959Y21977D01*
G01X9974Y21987D01*
G01X9993Y21999D01*
G01X10008Y22010D01*
G01X10022Y22021D01*
G01X10032Y22029D01*
G01X10038Y22033D01*
G01X10040Y22035D01*
G01X10043Y22036D01*
G01X10046Y22035D01*
G01X10049Y22033D01*
G01X10052Y22031D01*
G01X10058Y22024D01*
G01X10063Y22015D01*
G01X10069Y22008D01*
G01X10076Y22003D01*
G01X10081Y21997D01*
G01X10088Y21988D01*
G01X10095Y21980D01*
G01X10102Y21971D01*
G01X10108Y21965D01*
G01X10117Y21957D01*
G01X10123Y21951D01*
G01X10130Y21942D01*
G01X10137Y21934D01*
G01X10138Y21932D01*
G01X10139Y21929D01*
G01Y21927D01*
G01Y21925D01*
G01X10138Y21923D01*
G01X10135Y21920D01*
G01X10119Y21909D01*
G01X10091Y21886D01*
G01X10082Y21879D01*
G01X10072Y21873D01*
G01X10061Y21867D01*
G01X10036Y21851D01*
G01X10026Y21846D01*
G01X10018Y21842D01*
G01X10012Y21839D01*
G01X9989Y21830D01*
G01X9973Y21823D01*
G01X9963Y21819D01*
G01X9953Y21815D01*
G01X9937Y21811D01*
G01X9906Y21802D01*
G01X9894Y21799D01*
G01X9882Y21797D01*
G01X9873Y21796D01*
G01X9841Y21791D01*
G01X9824Y21788D01*
G01X9816Y21786D01*
G01X9813D01*
G01X9802Y21785D01*
G01X9746Y21784D01*
G01X9694Y21785D01*
G01X9682Y21786D01*
G01X9680D01*
G01X9676Y21787D01*
G01X9665Y21789D01*
G01X9647D01*
G01X9640Y21790D01*
G01X9634Y21792D01*
G01X9623Y21794D01*
G01X9601Y21798D01*
G01X9592Y21800D01*
G01X9569Y21807D01*
G01X9558Y21810D01*
G01X9548Y21814D01*
G01X9534Y21820D01*
G01X9520Y21825D01*
G01X9512Y21828D01*
G01X9501Y21835D01*
G01X9484Y21844D01*
G01X9463Y21858D01*
G01X9450Y21867D01*
G01X9444Y21872D01*
G01X9433Y21882D01*
G01X9428Y21886D01*
G01X9416Y21897D01*
G01X9410Y21906D01*
G01X9405Y21913D01*
G01X9398Y21918D01*
G01X9395Y21920D01*
G01X9392Y21923D01*
G01X9390Y21926D01*
G01X9387Y21933D01*
G01X9386Y21936D01*
G01X9380Y21944D01*
G01X9375Y21952D01*
G01X9369Y21965D01*
G01X9364Y21974D01*
G01X9359Y21984D01*
G01X9354Y21994D01*
G01X9350Y22007D01*
G01X9345Y22022D01*
G01X9342Y22034D01*
G01X9339Y22046D01*
G01X9333Y22091D01*
G01X9331Y22112D01*
G01Y22132D01*
G01X8589D01*
G01X8588Y22123D01*
G01Y22093D01*
G01Y22073D01*
G01X8589Y22063D01*
G01X8590Y22053D01*
G01X8592Y22048D01*
G01X8596Y22038D01*
G01X8600Y22024D01*
G01X8602Y22021D01*
G01X8604Y22017D01*
G01X8608Y22013D01*
G01X8615Y22004D01*
G01X8620Y21997D01*
G01X8630Y21989D01*
G01X8636Y21984D01*
G01X8641Y21977D01*
G01X8645Y21974D01*
G01X8649Y21971D01*
G01X8660Y21966D01*
G01X8666Y21963D01*
G01X8670Y21961D01*
G01X8674Y21957D01*
G01X8678Y21955D01*
G01X8683Y21953D01*
G01X8702Y21946D01*
G01X8715Y21940D01*
G01X8724Y21937D01*
G01X8733Y21935D01*
G01X8759Y21932D01*
G01X8769Y21930D01*
G01X8772Y21929D01*
G01X8780Y21928D01*
G01X8810Y21927D01*
G01X8821D01*
G01X8857Y21928D01*
G01X8869Y21929D01*
G01X8875Y21930D01*
G01X8883Y21931D01*
G01X8897Y21932D01*
G01X8904Y21934D01*
G01X8908Y21935D01*
G01X8918Y21937D01*
G01X8931Y21940D01*
G01X8937Y21942D01*
G01X8943Y21944D01*
G01X8957Y21950D01*
G01X8971Y21954D01*
G01X8980Y21957D01*
G01X8997Y21965D01*
G01X9011Y21971D01*
G01X9016Y21974D01*
G01X9022Y21977D01*
G01X9036Y21987D01*
G01X9056Y21999D01*
G01X9070Y22010D01*
G01X9085Y22021D01*
G01X9095Y22029D01*
G01X9100Y22033D01*
G01X9102Y22035D01*
G01X9105Y22036D01*
G01X9108Y22035D01*
G01X9111Y22033D01*
G01X9115Y22031D01*
G01X9118Y22027D01*
G01X9121Y22024D01*
G01X9126Y22015D01*
G01X9128Y22012D01*
G01X9131Y22008D01*
G01X9138Y22003D01*
G01X9144Y21997D01*
G01X9151Y21988D01*
G01X9158Y21980D01*
G01X9165Y21971D01*
G01X9170Y21965D01*
G01X9180Y21957D01*
G01X9186Y21951D01*
G01X9192Y21942D01*
G01X9199Y21934D01*
G01X9200Y21932D01*
G01X9201Y21929D01*
G01X9202Y21927D01*
G01X9201Y21925D01*
G01X9200Y21923D01*
G01X9198Y21920D01*
G01X9182Y21909D01*
G01X9153Y21886D01*
G01X9145Y21879D01*
G01X9135Y21873D01*
G01X9124Y21867D01*
G01X9098Y21851D01*
G01X9089Y21846D01*
G01X9081Y21842D01*
G01X9075Y21839D01*
G01X9052Y21830D01*
G01X9036Y21823D01*
G01X9026Y21819D01*
G01X9015Y21815D01*
G01X9000Y21811D01*
G01X8969Y21802D01*
G01X8957Y21799D01*
G01X8944Y21797D01*
G01X8936Y21796D01*
G01X8904Y21791D01*
G01X8886Y21788D01*
G01X8878Y21786D01*
G01X8875D01*
G01X8865Y21785D01*
G01X8809Y21784D01*
G01X8756Y21785D01*
G01X8745Y21786D01*
G01X8743D01*
G01X8738Y21787D01*
G01X8728Y21789D01*
G01X8709D01*
G01X8703Y21790D01*
G01X8696Y21792D01*
G01X8685Y21794D01*
G01X8664Y21798D01*
G01X8654Y21800D01*
G01X8631Y21807D01*
G01X8620Y21810D01*
G01X8611Y21814D01*
G01X8597Y21820D01*
G01X8583Y21825D01*
G01X8575Y21828D01*
G01X8564Y21835D01*
G01X8547Y21844D01*
G01X8525Y21858D01*
G01X8512Y21867D01*
G01X8506Y21872D01*
G01X8495Y21882D01*
G01X8479Y21897D01*
G01X8472Y21906D01*
G01X8467Y21913D01*
G01X8461Y21918D01*
G01X8457Y21920D01*
G01X8455Y21923D01*
G01X8453Y21926D01*
G01X8450Y21933D01*
G01X8449Y21936D01*
G01X8447Y21938D01*
G01X8442Y21944D01*
G01X8437Y21952D01*
G01X8432Y21965D01*
G01X8427Y21974D01*
G01X8421Y21984D01*
G01X8417Y21994D01*
G01X8412Y22007D01*
G01X8407Y22022D01*
G01X8404Y22034D01*
G01X8402Y22046D01*
G01X8400Y22054D01*
G01X8396Y22091D01*
G01X8394Y22112D01*
G01Y22132D01*
G01X8310D01*
G01Y21336D01*
G01X12065D01*
G01Y23211D01*
G37*
G36*
G01X8867Y2510D02*
G01X8867Y2182D01*
G01X8923D01*
G01X9758D01*
G01Y2035D01*
G01X9435D01*
G01Y1418D01*
G01X9892D01*
G01X9893Y1459D01*
G01X9894Y1471D01*
G01X9896Y1477D01*
G01X9898Y1489D01*
G01X9900Y1504D01*
G01X9902Y1511D01*
G01X9905Y1519D01*
G01X9910Y1529D01*
G01X9915Y1545D01*
G01X9918Y1551D01*
G01X9921Y1559D01*
G01X9923Y1562D01*
G01X9930Y1570D01*
G01X9941Y1587D01*
G01X9946Y1594D01*
G01X9954Y1604D01*
G01X9959Y1610D01*
G01X9965Y1616D01*
G01X9975Y1624D01*
G01X9982Y1633D01*
G01X9985Y1636D01*
G01X9988Y1638D01*
G01X9995Y1641D01*
G01X9998Y1643D01*
G01X10000Y1645D01*
G01X10006Y1652D01*
G01X10008Y1655D01*
G01X10011Y1657D01*
G01X10018Y1659D01*
G01X10025Y1663D01*
G01X10047Y1676D01*
G01X10055Y1681D01*
G01X10064Y1686D01*
G01X10086Y1695D01*
G01X10103Y1703D01*
G01X10112Y1706D01*
G01X10135Y1716D01*
G01X10156Y1724D01*
G01X10215Y1743D01*
G01X10229Y1748D01*
G01X10246Y1752D01*
G01X10257Y1755D01*
G01X10271Y1761D01*
G01X10282Y1764D01*
G01X10288Y1765D01*
G01X10295Y1768D01*
G01X10299Y1770D01*
G01X10305Y1773D01*
G01X10309Y1775D01*
G01X10314Y1776D01*
G01X10332Y1782D01*
G01X10336Y1784D01*
G01X10342Y1787D01*
G01X10346Y1790D01*
G01X10365Y1797D01*
G01X10371Y1799D01*
G01X10377Y1802D01*
G01X10389Y1811D01*
G01X10396Y1815D01*
G01X10408Y1822D01*
G01X10413Y1825D01*
G01X10422Y1833D01*
G01X10429Y1838D01*
G01X10432Y1842D01*
G01X10435Y1845D01*
G01X10442Y1858D01*
G01X10449Y1869D01*
G01X10451Y1875D01*
G01X10456Y1887D01*
G01X10458Y1894D01*
G01X10459Y1904D01*
G01X10460Y1915D01*
G01Y1928D01*
G01Y1941D01*
G01X10459Y1949D01*
G01X10458Y1959D01*
G01X10456Y1964D01*
G01X10452Y1974D01*
G01X10449Y1981D01*
G01X10447Y1985D01*
G01X10444Y1989D01*
G01X10441Y1994D01*
G01X10437Y1999D01*
G01X10433Y2005D01*
G01X10428Y2010D01*
G01X10423Y2015D01*
G01X10405Y2027D01*
G01X10400Y2030D01*
G01X10394Y2034D01*
G01X10388Y2037D01*
G01X10369Y2044D01*
G01X10356Y2049D01*
G01X10347Y2052D01*
G01X10339Y2054D01*
G01X10315Y2057D01*
G01X10303Y2060D01*
G01X10291Y2061D01*
G01X10262Y2062D01*
G01X10232Y2061D01*
G01X10220Y2060D01*
G01X10214Y2059D01*
G01X10206Y2057D01*
G01X10193D01*
G01X10185Y2055D01*
G01X10163Y2048D01*
G01X10132Y2039D01*
G01X10119Y2035D01*
G01X10091Y2020D01*
G01X10082Y2016D01*
G01X10056Y1999D01*
G01X10047Y1994D01*
G01X10033Y1984D01*
G01X10021Y1974D01*
G01X10017Y1970D01*
G01X10015Y1968D01*
G01X10012D01*
G01X10010Y1969D01*
G01X10005Y1975D01*
G01X9999Y1981D01*
G01X9993Y1986D01*
G01X9990Y1989D01*
G01X9987Y1993D01*
G01X9982Y2002D01*
G01X9979Y2006D01*
G01X9976Y2009D01*
G01X9970Y2014D01*
G01X9964Y2019D01*
G01X9952Y2036D01*
G01X9943Y2047D01*
G01X9939Y2051D01*
G01X9933Y2056D01*
G01X9928Y2060D01*
G01X9922Y2066D01*
G01X9920Y2069D01*
G01X9919Y2073D01*
G01Y2076D01*
G01X9922Y2079D01*
G01X9932Y2086D01*
G01X9939Y2091D01*
G01X9942Y2095D01*
G01X9946Y2100D01*
G01X9948Y2103D01*
G01X9951Y2105D01*
G01X9958Y2107D01*
G01X9966Y2112D01*
G01X9981Y2122D01*
G01X9991Y2129D01*
G01X10015Y2143D01*
G01X10023Y2148D01*
G01X10032Y2152D01*
G01X10038Y2154D01*
G01X10084Y2173D01*
G01X10097Y2177D01*
G01X10112Y2182D01*
G01X10123Y2185D01*
G01X10136Y2188D01*
G01X10157Y2192D01*
G01X10171Y2195D01*
G01X10185Y2197D01*
G01X10195Y2198D01*
G01X10216Y2200D01*
G01X10236Y2201D01*
G01X10246Y2202D01*
G01X10252Y2203D01*
G01X10262Y2205D01*
G01X10284D01*
G01X10305D01*
G01X10316Y2204D01*
G01X10320Y2203D01*
G01X10324Y2202D01*
G01X10329Y2201D01*
G01X10353Y2200D01*
G01X10362Y2199D01*
G01X10369Y2197D01*
G01X10381Y2195D01*
G01X10402Y2192D01*
G01X10411Y2189D01*
G01X10432Y2182D01*
G01X10455Y2174D01*
G01X10481Y2164D01*
G01X10489Y2160D01*
G01X10498Y2155D01*
G01X10518Y2143D01*
G01X10527Y2137D01*
G01X10541Y2126D01*
G01X10556Y2115D01*
G01X10563Y2110D01*
G01X10568Y2105D01*
G01X10576Y2095D01*
G01X10583Y2090D01*
G01X10586Y2087D01*
G01X10592Y2080D01*
G01X10599Y2068D01*
G01X10602Y2063D01*
G01X10606Y2059D01*
G01X10610Y2052D01*
G01X10617Y2040D01*
G01X10624Y2028D01*
G01X10626Y2023D01*
G01X10631Y2011D01*
G01X10640Y1984D01*
G01X10642Y1977D01*
G01X10644Y1971D01*
G01X10645Y1963D01*
G01X10646Y1952D01*
G01X10648Y1939D01*
G01X10649Y1930D01*
G01X10650Y1902D01*
G01X10649Y1875D01*
G01X10648Y1865D01*
G01X10646Y1857D01*
G01X10644Y1847D01*
G01X10641Y1834D01*
G01X10640Y1828D01*
G01X10638Y1822D01*
G01X10630Y1805D01*
G01X10623Y1789D01*
G01X10618Y1780D01*
G01X10608Y1764D01*
G01X10598Y1751D01*
G01X10590Y1740D01*
G01X10586Y1736D01*
G01X10580Y1731D01*
G01X10575Y1727D01*
G01X10569Y1721D01*
G01X10561Y1712D01*
G01X10558Y1710D01*
G01X10552Y1707D01*
G01X10549Y1706D01*
G01X10546Y1704D01*
G01X10537Y1697D01*
G01X10527Y1690D01*
G01X10490Y1667D01*
G01X10482Y1662D01*
G01X10473Y1658D01*
G01X10459Y1652D01*
G01X10451Y1647D01*
G01X10445Y1644D01*
G01X10437Y1641D01*
G01X10424Y1637D01*
G01X10412Y1630D01*
G01X10405Y1627D01*
G01X10391Y1623D01*
G01X10377Y1616D01*
G01X10367Y1613D01*
G01X10350Y1609D01*
G01X10335Y1603D01*
G01X10325Y1599D01*
G01X10308Y1595D01*
G01X10299Y1591D01*
G01X10294Y1589D01*
G01X10288Y1587D01*
G01X10282Y1585D01*
G01X10269Y1583D01*
G01X10263Y1581D01*
G01X10257Y1579D01*
G01X10245Y1574D01*
G01X10229Y1568D01*
G01X10207Y1560D01*
G01X10196Y1555D01*
G01X10187Y1550D01*
G01X10177Y1545D01*
G01X10162Y1538D01*
G01X10155Y1534D01*
G01X10152Y1532D01*
G01X10143Y1524D01*
G01X10136Y1519D01*
G01X10127Y1512D01*
G01X10123Y1508D01*
G01X10117Y1501D01*
G01X10112Y1495D01*
G01X10109Y1491D01*
G01X10100Y1478D01*
G01X10095Y1469D01*
G01X10091Y1457D01*
G01X10087Y1446D01*
G01X10085Y1435D01*
G01X10084Y1427D01*
G01X10082Y1414D01*
G01Y1393D01*
G01X10081Y1388D01*
G01X10082Y1373D01*
G01Y1365D01*
G01X10083Y1359D01*
G01X10091Y1337D01*
G01X10093Y1330D01*
G01X10096Y1324D01*
G01X10099Y1319D01*
G01X10102Y1314D01*
G01X10116Y1294D01*
G01X10122Y1289D01*
G01X10132Y1282D01*
G01X10140Y1275D01*
G01X10143Y1272D01*
G01X10153Y1265D01*
G01X10162Y1260D01*
G01X10170Y1256D01*
G01X10192Y1247D01*
G01X10202Y1243D01*
G01X10212Y1239D01*
G01X10228Y1235D01*
G01X10241Y1232D01*
G01X10254Y1229D01*
G01X10264Y1228D01*
G01X10282Y1227D01*
G01X10324Y1226D01*
G01X10355Y1227D01*
G01X10367Y1228D01*
G01X10370D01*
G01X10374Y1229D01*
G01X10382Y1230D01*
G01X10395Y1231D01*
G01X10402Y1233D01*
G01X10426Y1240D01*
G01X10456Y1249D01*
G01X10478Y1257D01*
G01X10489Y1262D01*
G01X10498Y1266D01*
G01X10507Y1273D01*
G01X10523Y1279D01*
G01X10530Y1283D01*
G01X10533Y1285D01*
G01X10540Y1291D01*
G01X10558Y1303D01*
G01X10565Y1308D01*
G01X10575Y1316D01*
G01X10581Y1321D01*
G01X10587Y1327D01*
G01X10592Y1333D01*
G01X10595Y1335D01*
G01X10598D01*
G01X10601D01*
G01X10605Y1333D01*
G01X10608Y1331D01*
G01X10610Y1328D01*
G01X10615Y1322D01*
G01X10621Y1316D01*
G01X10627Y1312D01*
G01X10630Y1309D01*
G01X10632Y1306D01*
G01X10635Y1299D01*
G01X10637Y1296D01*
G01X10640Y1293D01*
G01X10646Y1288D01*
G01X10652Y1283D01*
G01X10659Y1273D01*
G01X10665Y1267D01*
G01X10669Y1265D01*
G01X10672Y1262D01*
G01X10674Y1259D01*
G01X10676Y1253D01*
G01X10678Y1250D01*
G01X10687Y1242D01*
G01X10693Y1236D01*
G01X10696Y1233D01*
G01X10697Y1230D01*
G01Y1227D01*
G01X10696Y1224D01*
G01X10690Y1219D01*
G01X10684Y1213D01*
G01X10679Y1207D01*
G01X10676Y1203D01*
G01X10673Y1201D01*
G01X10660Y1194D01*
G01X10655Y1190D01*
G01X10651Y1187D01*
G01X10648Y1184D01*
G01X10624Y1169D01*
G01X10613Y1160D01*
G01X10608Y1157D01*
G01X10602Y1155D01*
G01X10588Y1149D01*
G01X10580Y1144D01*
G01X10570Y1138D01*
G01X10559Y1134D01*
G01X10513Y1115D01*
G01X10504Y1112D01*
G01X10496Y1109D01*
G01X10480Y1106D01*
G01X10774D01*
G01X10779Y1115D01*
G01X10787Y1129D01*
G01X10795Y1140D01*
G01X10800Y1148D01*
G01X10806Y1159D01*
G01X10810Y1166D01*
G01X10820Y1181D01*
G01X10836Y1205D01*
G01X10848Y1222D01*
G01X10855Y1233D01*
G01X10869Y1256D01*
G01X10877Y1269D01*
G01X10889Y1287D01*
G01X10905Y1311D01*
G01X10915Y1325D01*
G01X10919Y1332D01*
G01X10926Y1344D01*
G01X10930Y1351D01*
G01X10940Y1366D01*
G01X10956Y1390D01*
G01X10968Y1407D01*
G01X10998Y1455D01*
G01X11007Y1468D01*
G01X11019Y1485D01*
G01X11035Y1510D01*
G01X11044Y1524D01*
G01X11049Y1531D01*
G01X11055Y1542D01*
G01X11060Y1549D01*
G01X11069Y1563D01*
G01X11071Y1568D01*
G01X11072Y1570D01*
G01Y1573D01*
G01X11070Y1576D01*
G01X11066Y1578D01*
G01X11048Y1582D01*
G01X11042Y1584D01*
G01X11025Y1592D01*
G01X11009Y1599D01*
G01X11000Y1604D01*
G01X10991Y1609D01*
G01X10975Y1618D01*
G01X10968Y1622D01*
G01X10941Y1642D01*
G01X10933Y1648D01*
G01X10925Y1656D01*
G01X10918Y1661D01*
G01X10910Y1670D01*
G01X10905Y1676D01*
G01X10898Y1681D01*
G01X10894Y1685D01*
G01X10891Y1690D01*
G01X10879Y1708D01*
G01X10870Y1721D01*
G01X10867Y1726D01*
G01X10865Y1731D01*
G01X10859Y1744D01*
G01X10854Y1753D01*
G01X10850Y1759D01*
G01X10849Y1763D01*
G01X10847Y1768D01*
G01X10843Y1784D01*
G01X10840Y1796D01*
G01X10838Y1807D01*
G01X10837Y1815D01*
G01X10832Y1852D01*
G01X10830Y1873D01*
G01Y1893D01*
G01X10831Y1903D01*
G01X10833Y1911D01*
G01X10834Y1920D01*
G01X10835Y1936D01*
G01X10836Y1943D01*
G01X10839Y1952D01*
G01X10842Y1969D01*
G01X10846Y1979D01*
G01X10852Y1993D01*
G01X10856Y2007D01*
G01X10860Y2015D01*
G01X10874Y2037D01*
G01X10879Y2045D01*
G01X10889Y2060D01*
G01X10894Y2065D01*
G01X10898Y2070D01*
G01X10904Y2075D01*
G01X10909Y2078D01*
G01X10915Y2084D01*
G01X10920Y2091D01*
G01X10923Y2094D01*
G01X10927Y2097D01*
G01X10939Y2104D01*
G01X10944Y2107D01*
G01X10948Y2111D01*
G01X10955Y2115D01*
G01X10968Y2122D01*
G01X10979Y2129D01*
G01X10983Y2131D01*
G01X10994Y2136D01*
G01X11016Y2145D01*
G01X11039Y2153D01*
G01X11053Y2157D01*
G01X11063Y2160D01*
G01X11082Y2164D01*
G01X11095Y2167D01*
G01X11106Y2169D01*
G01X11114Y2171D01*
G01X11146Y2175D01*
G01X11162Y2177D01*
G01X11183Y2178D01*
G01X11193Y2179D01*
G01X11197Y2180D01*
G01X11201D01*
G01X11379Y2182D01*
G01X11554D01*
G01Y1106D01*
G01X11370D01*
G01Y1549D01*
G01X11255D01*
G01X11248Y1533D01*
G01X11244Y1526D01*
G01X11242Y1523D01*
G01X11238Y1519D01*
G01X11234Y1512D01*
G01X11228Y1501D01*
G01X11223Y1494D01*
G01X11215Y1482D01*
G01X11211Y1476D01*
G01X11204Y1462D01*
G01X11188Y1436D01*
G01X11173Y1413D01*
G01X11151Y1376D01*
G01X11123Y1330D01*
G01X11100Y1293D01*
G01X11072Y1247D01*
G01X11049Y1210D01*
G01X11021Y1164D01*
G01X10993Y1119D01*
G01X10988Y1112D01*
G01X10987Y1110D01*
G01X10984Y1109D01*
G01X10978Y1108D01*
G01X10957Y1107D01*
G01X10878Y1106D01*
G01X10774D01*
G01X10480D01*
G01X10464Y1101D01*
G01X10453Y1099D01*
G01X10430Y1095D01*
G01X10375Y1085D01*
G01X10371D01*
G01X10359Y1084D01*
G01X10303Y1083D01*
G01X10250Y1084D01*
G01X10239Y1085D01*
G01X10237D01*
G01X10232Y1086D01*
G01X10222Y1088D01*
G01X10203D01*
G01X10197Y1089D01*
G01X10190Y1091D01*
G01X10179Y1093D01*
G01X10157Y1097D01*
G01X10148Y1099D01*
G01X10100Y1115D01*
G01X10090Y1119D01*
G01X10081Y1123D01*
G01X10072Y1129D01*
G01X10062Y1133D01*
G01X10055Y1136D01*
G01X10044Y1143D01*
G01X10030Y1150D01*
G01X10025Y1153D01*
G01X10015Y1161D01*
G01X10000Y1173D01*
G01X9993Y1178D01*
G01X9987Y1184D01*
G01X9979Y1193D01*
G01X9970Y1201D01*
G01X9964Y1207D01*
G01X9941Y1237D01*
G01X9935Y1247D01*
G01X9929Y1258D01*
G01X9922Y1269D01*
G01X9920Y1274D01*
G01X9915Y1286D01*
G01X9911Y1299D01*
G01X9905Y1312D01*
G01X9902Y1321D01*
G01X9900Y1328D01*
G01X9897Y1352D01*
G01X9894Y1362D01*
G01Y1365D01*
G01X9893Y1374D01*
G01X9892Y1418D01*
G01X9435D01*
G01Y1106D01*
G01X9250D01*
G01Y2035D01*
G01X8941D01*
G01X8938Y2046D01*
G01X8937Y2054D01*
G01X8936Y2067D01*
G01Y2075D01*
G01X8933Y2086D01*
G01X8932Y2096D01*
G01X8931Y2112D01*
G01X8930Y2118D01*
G01X8928Y2123D01*
G01X8927Y2132D01*
G01Y2145D01*
G01X8924Y2156D01*
G01X8923Y2165D01*
G01Y2182D01*
G01X8867D01*
G01Y635D01*
G01X11684D01*
G01Y2510D01*
G37*
G36*
G01X11282Y2048D02*
G01X11200Y2047D01*
G01X11189Y2046D01*
G01X11184Y2045D01*
G01X11176Y2044D01*
G01X11163Y2043D01*
G01X11155Y2041D01*
G01X11132Y2035D01*
G01X11124Y2032D01*
G01X11117Y2029D01*
G01X11110Y2026D01*
G01X11089Y2014D01*
G01X11079Y2009D01*
G01X11075Y2006D01*
G01X11072Y2003D01*
G01X11067Y1996D01*
G01X11062Y1990D01*
G01X11055Y1986D01*
G01X11053Y1983D01*
G01X11051Y1980D01*
G01X11047Y1973D01*
G01X11044Y1966D01*
G01X11040Y1959D01*
G01X11038Y1955D01*
G01X11036Y1950D01*
G01X11033Y1934D01*
G01X11029Y1922D01*
G01X11027Y1910D01*
G01X11026Y1902D01*
G01X11025Y1889D01*
G01X11024Y1864D01*
G01Y1857D01*
G01Y1835D01*
G01X11025Y1823D01*
G01X11028Y1812D01*
G01X11032Y1795D01*
G01X11035Y1785D01*
G01X11037Y1781D01*
G01X11046Y1762D01*
G01X11053Y1752D01*
G01X11061Y1741D01*
G01X11065Y1736D01*
G01X11072Y1729D01*
G01X11077Y1726D01*
G01X11086Y1721D01*
G01X11093Y1717D01*
G01X11102Y1710D01*
G01X11108Y1707D01*
G01X11114Y1704D01*
G01X11121Y1702D01*
G01X11141Y1695D01*
G01X11164Y1688D01*
G01X11172Y1686D01*
G01X11180Y1685D01*
G01X11187Y1684D01*
G01X11201Y1683D01*
G01X11212Y1682D01*
G01X11215Y1681D01*
G01X11218Y1680D01*
G01X11229Y1679D01*
G01X11294D01*
G01X11356D01*
G01X11365Y1680D01*
G01X11367Y1681D01*
G01X11368D01*
G01Y1685D01*
G01X11370Y1823D01*
G01Y2048D01*
G37*
G36*
G01X29949Y2510D02*
G01X29949Y2039D01*
G01X30055D01*
G01X30229D01*
G01X30400Y2038D01*
G01X30407Y2037D01*
G01X30408D01*
G01X30412Y2036D01*
G01X30420Y2035D01*
G01X30433Y2034D01*
G01X30445Y2031D01*
G01X30456Y2028D01*
G01X30477Y2025D01*
G01X30495Y2020D01*
G01X30511Y2017D01*
G01X30522Y2013D01*
G01X30536Y2007D01*
G01X30547Y2004D01*
G01X30553Y2003D01*
G01X30560Y2001D01*
G01X30564Y1998D01*
G01X30573Y1993D01*
G01X30592Y1985D01*
G01X30600Y1980D01*
G01X30621Y1967D01*
G01X30634Y1959D01*
G01X30664Y1938D01*
G01X30672Y1930D01*
G01X30681Y1923D01*
G01X30687Y1918D01*
G01X30692Y1912D01*
G01X30699Y1903D01*
G01X30709Y1892D01*
G01X30716Y1883D01*
G01X30723Y1875D01*
G01X30725Y1871D01*
G01X30741Y1848D01*
G01X30749Y1835D01*
G01X30755Y1825D01*
G01X30760Y1812D01*
G01X30765Y1803D01*
G01X30769Y1797D01*
G01X30771Y1792D01*
G01X30776Y1781D01*
G01X30780Y1768D01*
G01X30787Y1753D01*
G01X30790Y1742D01*
G01X30794Y1726D01*
G01X30800Y1713D01*
G01X30803Y1704D01*
G01X30804Y1697D01*
G01X30808Y1672D01*
G01X30811Y1658D01*
G01X30814Y1644D01*
G01X30819Y1598D01*
G01X30821Y1585D01*
G01X30822Y1564D01*
G01Y1544D01*
G01X30823Y1536D01*
G01X30824Y1530D01*
G01Y1527D01*
G01X30826Y1516D01*
G01Y1491D01*
G01Y1470D01*
G01X30825Y1458D01*
G01X30824Y1455D01*
G01X30823Y1450D01*
G01X30822Y1442D01*
G01X30821Y1396D01*
G01X30820Y1384D01*
G01X30819Y1381D01*
G01X30818Y1373D01*
G01X30817Y1357D01*
G01X30816Y1348D01*
G01X30814Y1340D01*
G01X30811Y1328D01*
G01X30808Y1307D01*
G01X30806Y1298D01*
G01X30799Y1275D01*
G01X30789Y1245D01*
G01X30781Y1222D01*
G01X30777Y1211D01*
G01X30772Y1202D01*
G01X30767Y1193D01*
G01X30759Y1177D01*
G01X30753Y1166D01*
G01X30745Y1155D01*
G01X30741Y1148D01*
G01X30734Y1135D01*
G01X30730Y1130D01*
G01X30722Y1121D01*
G01X30718Y1114D01*
G01X30712Y1108D01*
G01X30705Y1103D01*
G01X30703Y1100D01*
G01X30699Y1097D01*
G01X30694Y1088D01*
G01X30692Y1085D01*
G01X30690Y1084D01*
G01X30689Y1082D01*
G01X30687D01*
G01X30682Y1079D01*
G01X30679Y1077D01*
G01X30677Y1074D01*
G01X30672Y1068D01*
G01X30664Y1062D01*
G01X30652Y1055D01*
G01X30648Y1052D01*
G01X30644Y1048D01*
G01X30640Y1045D01*
G01X30630Y1039D01*
G01X30621Y1034D01*
G01X30613Y1030D01*
G01X30599Y1024D01*
G01X30590Y1020D01*
G01X30581Y1013D01*
G01X30570Y1009D01*
G01X30547Y1000D01*
G01X30534Y995D01*
G01X30519Y991D01*
G01X30507Y988D01*
G01X30495Y985D01*
G01X30473Y981D01*
G01X30460Y978D01*
G01X30449Y975D01*
G01X30441Y974D01*
G01X30419Y971D01*
G01X30886D01*
G01Y972D01*
G01X30887Y981D01*
G01X30890Y992D01*
G01X30891Y1001D01*
G01Y1017D01*
G01X30893Y1024D01*
G01X30895Y1029D01*
G01X30896Y1038D01*
G01Y1054D01*
G01X30898Y1060D01*
G01X30899Y1066D01*
G01X30900Y1075D01*
G01X30901Y1091D01*
G01X30902Y1097D01*
G01X30904Y1103D01*
G01X30905Y1112D01*
G01X30906Y1128D01*
G01X30907Y1134D01*
G01X30908Y1140D01*
G01X30909Y1149D01*
G01X30910Y1165D01*
G01X30911Y1171D01*
G01X30913Y1177D01*
G01X30914Y1185D01*
G01X30915Y1198D01*
G01X30917Y1209D01*
G01X30918Y1218D01*
G01X30919Y1234D01*
G01X30920Y1241D01*
G01X30922Y1246D01*
G01X30923Y1255D01*
G01X30924Y1271D01*
G01X30925Y1278D01*
G01X30927Y1283D01*
G01X30928Y1292D01*
G01X30929Y1308D01*
G01X30930Y1314D01*
G01X30931Y1320D01*
G01X30933Y1329D01*
G01Y1345D01*
G01X30934Y1351D01*
G01X30936Y1357D01*
G01X30937Y1366D01*
G01X30938Y1382D01*
G01X30939Y1388D01*
G01X30941Y1393D01*
G01X30942Y1402D01*
G01Y1415D01*
G01X30945Y1426D01*
G01X30946Y1436D01*
G01X30947Y1451D01*
G01X30948Y1457D01*
G01X30950Y1463D01*
G01X30951Y1472D01*
G01Y1488D01*
G01X30953Y1495D01*
G01X30954Y1500D01*
G01X30955Y1509D01*
G01X30957Y1525D01*
G01X30958Y1532D01*
G01X30959Y1537D01*
G01X30960Y1546D01*
G01X30961Y1562D01*
G01X30962Y1568D01*
G01X30964Y1574D01*
G01X30965Y1583D01*
G01X30966Y1599D01*
G01X30967Y1605D01*
G01X30968Y1611D01*
G01X30969Y1619D01*
G01X30970Y1632D01*
G01X30973Y1643D01*
G01X30974Y1653D01*
G01X30975Y1668D01*
G01X30976Y1674D01*
G01X30977Y1680D01*
G01X30979Y1690D01*
G01Y1705D01*
G01X30980Y1711D01*
G01X30982Y1717D01*
G01X30983Y1726D01*
G01X30984Y1742D01*
G01X30985Y1749D01*
G01X30986Y1754D01*
G01X30988Y1763D01*
G01X30989Y1779D01*
G01X30990Y1786D01*
G01X30992Y1791D01*
G01X30993Y1800D01*
G01Y1816D01*
G01X30995Y1822D01*
G01X30996Y1828D01*
G01X30997Y1836D01*
G01X30998Y1849D01*
G01X31001Y1860D01*
G01X31002Y1869D01*
G01Y1885D01*
G01X31004Y1892D01*
G01X31005Y1897D01*
G01X31006Y1907D01*
G01X31007Y1922D01*
G01X31008Y1928D01*
G01X31010Y1934D01*
G01X31011Y1944D01*
G01X31012Y1959D01*
G01X31013Y1965D01*
G01X31014Y1971D01*
G01X31015Y1980D01*
G01X31016Y1996D01*
G01X31017Y2003D01*
G01X31019Y2008D01*
G01X31020Y2017D01*
G01X31021Y2030D01*
G01Y2034D01*
G01X31022Y2035D01*
G01Y2036D01*
G01X31023Y2037D01*
G01X31025D01*
G01X31039Y2038D01*
G01X31133Y2039D01*
G01X31242D01*
G01X31245Y2018D01*
G01X31248Y1992D01*
G01X31251Y1972D01*
G01X31254Y1953D01*
G01X31257Y1927D01*
G01X31260Y1913D01*
G01Y1900D01*
G01X31261Y1892D01*
G01X31264Y1881D01*
G01X31265Y1872D01*
G01X31266Y1859D01*
G01X31268Y1848D01*
G01X31269Y1840D01*
G01X31270Y1827D01*
G01X31273Y1816D01*
G01X31274Y1808D01*
G01X31275Y1795D01*
G01X31278Y1784D01*
G01X31279Y1775D01*
G01X31280Y1762D01*
G01X31282Y1751D01*
G01X31284Y1742D01*
G01Y1726D01*
G01X31285Y1720D01*
G01X31287Y1715D01*
G01X31288Y1706D01*
G01X31289Y1693D01*
G01X31291Y1682D01*
G01X31293Y1674D01*
G01Y1661D01*
G01X31296Y1649D01*
G01X31297Y1642D01*
G01X31298Y1629D01*
G01X31301Y1617D01*
G01X31302Y1608D01*
G01Y1592D01*
G01X31304Y1586D01*
G01X31306Y1580D01*
G01X31307Y1572D01*
G01Y1559D01*
G01X31310Y1548D01*
G01X31311Y1540D01*
G01X31312Y1527D01*
G01X31315Y1516D01*
G01X31316Y1508D01*
G01X31317Y1495D01*
G01X31319Y1483D01*
G01X31320Y1474D01*
G01X31321Y1458D01*
G01X31322Y1452D01*
G01X31324Y1446D01*
G01X31325Y1439D01*
G01X31326Y1425D01*
G01X31328Y1414D01*
G01X31329Y1406D01*
G01X31330Y1393D01*
G01X31333Y1382D01*
G01X31334Y1374D01*
G01X31335Y1360D01*
G01X31338Y1349D01*
G01X31339Y1340D01*
G01X31340Y1324D01*
G01X31341Y1318D01*
G01X31342Y1313D01*
G01X31344Y1305D01*
G01Y1295D01*
G01X31345Y1291D01*
G01X31346Y1287D01*
G01X31348Y1284D01*
G01X31350Y1281D01*
G01X31352Y1280D01*
G01X31354Y1281D01*
G01X31355Y1284D01*
G01X31357Y1292D01*
G01X31358Y1308D01*
G01X31359Y1317D01*
G01X31361Y1324D01*
G01X31362Y1332D01*
G01X31363Y1346D01*
G01X31365Y1357D01*
G01X31366Y1366D01*
G01X31367Y1382D01*
G01X31368Y1388D01*
G01X31370Y1394D01*
G01X31371Y1403D01*
G01X31372Y1419D01*
G01X31373Y1425D01*
G01X31375Y1431D01*
G01X31376Y1439D01*
G01X31377Y1452D01*
G01X31379Y1463D01*
G01X31380Y1472D01*
G01X31381Y1488D01*
G01X31382Y1495D01*
G01X31384Y1500D01*
G01X31385Y1508D01*
G01X31386Y1521D01*
G01X31388Y1532D01*
G01X31390Y1542D01*
G01Y1558D01*
G01X31391Y1564D01*
G01X31393Y1569D01*
G01X31394Y1577D01*
G01X31395Y1591D01*
G01X31398Y1602D01*
G01X31399Y1611D01*
G01Y1627D01*
G01X31401Y1633D01*
G01X31403Y1638D01*
G01X31404Y1646D01*
G01Y1660D01*
G01X31407Y1671D01*
G01X31408Y1680D01*
G01X31409Y1696D01*
G01X31410Y1702D01*
G01X31412Y1708D01*
G01X31413Y1716D01*
G01X31414Y1729D01*
G01X31416Y1740D01*
G01X31417Y1750D01*
G01X31418Y1765D01*
G01X31419Y1771D01*
G01X31421Y1777D01*
G01X31422Y1785D01*
G01X31423Y1798D01*
G01X31425Y1809D01*
G01X31426Y1819D01*
G01X31427Y1834D01*
G01X31428Y1841D01*
G01X31430Y1846D01*
G01X31431Y1854D01*
G01X31432Y1867D01*
G01X31435Y1879D01*
G01X31436Y1888D01*
G01X31437Y1904D01*
G01X31438Y1910D01*
G01X31439Y1916D01*
G01X31441Y1924D01*
G01Y1937D01*
G01X31444Y1948D01*
G01X31445Y1957D01*
G01X31446Y1973D01*
G01X31447Y1979D01*
G01X31449Y1985D01*
G01X31450Y1993D01*
G01Y2006D01*
G01X31453Y2017D01*
G01X31454Y2025D01*
G01Y2029D01*
G01X31456Y2032D01*
G01X31461Y2034D01*
G01X31470Y2036D01*
G01X31497Y2038D01*
G01X31563Y2039D01*
G01X31935D01*
G01X32096D01*
G01Y1730D01*
G01X32094Y1419D01*
G01Y1414D01*
G01Y1413D01*
G01X32093Y1411D01*
G01X32092Y1400D01*
G01X32091Y1344D01*
G01X32090Y1334D01*
G01X32089Y1330D01*
G01X32088Y1325D01*
G01Y1318D01*
G01X32087Y1304D01*
G01Y1279D01*
G01X32086Y1268D01*
G01X32085Y1265D01*
G01X32084Y1261D01*
G01X32083Y1256D01*
G01X32082Y1228D01*
G01X32081Y1219D01*
G01X32079Y1211D01*
G01Y1205D01*
G01X32078Y1189D01*
G01X32079Y1178D01*
G01Y1176D01*
G01X32080Y1173D01*
G01X32081Y1172D01*
G01Y1171D01*
G01X32083D01*
G01X32085D01*
G01X32087Y1173D01*
G01X32088Y1176D01*
G01X32092Y1189D01*
G01X32098Y1203D01*
G01X32102Y1212D01*
G01X32106Y1226D01*
G01X32112Y1240D01*
G01X32116Y1249D01*
G01X32120Y1263D01*
G01X32126Y1277D01*
G01X32134Y1300D01*
G01X32140Y1314D01*
G01X32144Y1323D01*
G01X32148Y1337D01*
G01X32154Y1351D01*
G01X32157Y1360D01*
G01X32161Y1374D01*
G01X32168Y1388D01*
G01X32171Y1397D01*
G01X32176Y1411D01*
G01X32182Y1425D01*
G01X32185Y1434D01*
G01X32189Y1448D01*
G01X32196Y1462D01*
G01X32199Y1471D01*
G01X32203Y1485D01*
G01X32209Y1499D01*
G01X32213Y1508D01*
G01X32217Y1521D01*
G01X32223Y1536D01*
G01X32231Y1559D01*
G01X32237Y1573D01*
G01X32241Y1583D01*
G01X32243Y1594D01*
G01X32246Y1601D01*
G01X32248Y1605D01*
G01X32251Y1611D01*
G01X32253Y1615D01*
G01X32254Y1620D01*
G01X32257Y1631D01*
G01X32260Y1638D01*
G01X32262Y1642D01*
G01X32265Y1648D01*
G01X32267Y1652D01*
G01X32268Y1657D01*
G01X32271Y1668D01*
G01X32273Y1675D01*
G01X32275Y1679D01*
G01X32279Y1685D01*
G01X32280Y1689D01*
G01X32282Y1694D01*
G01X32287Y1712D01*
G01X32289Y1716D01*
G01X32293Y1722D01*
G01X32295Y1726D01*
G01X32296Y1731D01*
G01X32299Y1742D01*
G01X32301Y1749D01*
G01X32303Y1753D01*
G01X32306Y1759D01*
G01X32308Y1763D01*
G01X32310Y1768D01*
G01X32312Y1779D01*
G01X32315Y1786D01*
G01X32317Y1790D01*
G01X32320Y1796D01*
G01X32322Y1800D01*
G01X32324Y1805D01*
G01X32326Y1816D01*
G01X32329Y1823D01*
G01X32331Y1827D01*
G01X32334Y1832D01*
G01X32336Y1837D01*
G01X32338Y1842D01*
G01X32340Y1853D01*
G01X32343Y1860D01*
G01X32345Y1864D01*
G01X32348Y1869D01*
G01X32350Y1874D01*
G01X32351Y1879D01*
G01X32354Y1890D01*
G01X32357Y1897D01*
G01X32359Y1901D01*
G01X32362Y1907D01*
G01X32364Y1911D01*
G01X32365Y1916D01*
G01X32368Y1927D01*
G01X32370Y1934D01*
G01X32372Y1938D01*
G01X32376Y1944D01*
G01X32377Y1948D01*
G01X32379Y1953D01*
G01X32381Y1963D01*
G01X32384Y1971D01*
G01X32386Y1975D01*
G01X32390Y1980D01*
G01X32392Y1985D01*
G01X32393Y1989D01*
G01X32396Y2001D01*
G01X32398Y2008D01*
G01X32400Y2012D01*
G01X32403Y2017D01*
G01X32407Y2025D01*
G01X32408Y2029D01*
G01X32410Y2032D01*
G01X32416Y2034D01*
G01X32426Y2036D01*
G01X32457Y2038D01*
G01X32530Y2039D01*
G01X32651D01*
G01Y963D01*
G01X32489D01*
G01Y1291D01*
G01X32491Y1621D01*
G01Y1625D01*
G01Y1626D01*
G01X32492Y1628D01*
G01X32493Y1638D01*
G01X32494Y1685D01*
G01X32495Y1696D01*
G01X32496Y1699D01*
G01X32497Y1704D01*
G01X32498Y1710D01*
G01Y1730D01*
G01Y1744D01*
G01X32499Y1752D01*
G01X32500Y1759D01*
G01X32501Y1764D01*
G01X32502Y1770D01*
G01X32503Y1787D01*
G01Y1801D01*
G01X32504Y1811D01*
G01X32506Y1819D01*
G01X32507Y1827D01*
G01Y1831D01*
G01Y1835D01*
G01X32506Y1837D01*
G01X32505Y1838D01*
G01X32503D01*
G01X32500Y1836D01*
G01X32498Y1833D01*
G01X32496Y1828D01*
G01X32486Y1799D01*
G01X32476Y1774D01*
G01X32470Y1758D01*
G01X32464Y1743D01*
G01X32460Y1734D01*
G01X32456Y1720D01*
G01X32450Y1706D01*
G01X32446Y1697D01*
G01X32442Y1684D01*
G01X32436Y1669D01*
G01X32432Y1660D01*
G01X32428Y1646D01*
G01X32422Y1633D01*
G01X32419Y1623D01*
G01X32414Y1609D01*
G01X32408Y1596D01*
G01X32405Y1586D01*
G01X32401Y1572D01*
G01X32394Y1559D01*
G01X32387Y1536D01*
G01X32380Y1521D01*
G01X32377Y1512D01*
G01X32373Y1499D01*
G01X32367Y1485D01*
G01X32363Y1476D01*
G01X32359Y1462D01*
G01X32353Y1448D01*
G01X32349Y1439D01*
G01X32345Y1425D01*
G01X32339Y1411D01*
G01X32331Y1388D01*
G01X32325Y1374D01*
G01X32322Y1364D01*
G01X32317Y1351D01*
G01X32311Y1337D01*
G01X32308Y1328D01*
G01X32304Y1314D01*
G01X32298Y1300D01*
G01X32294Y1291D01*
G01X32290Y1277D01*
G01X32283Y1263D01*
G01X32280Y1254D01*
G01X32276Y1240D01*
G01X32270Y1226D01*
G01X32266Y1217D01*
G01X32262Y1203D01*
G01X32256Y1189D01*
G01X32252Y1180D01*
G01X32248Y1166D01*
G01X32242Y1152D01*
G01X32234Y1129D01*
G01X32228Y1115D01*
G01X32224Y1106D01*
G01X32220Y1092D01*
G01X32214Y1078D01*
G01X32211Y1069D01*
G01X32207Y1055D01*
G01X32201Y1041D01*
G01X32197Y1031D01*
G01X32195Y1020D01*
G01X32192Y1012D01*
G01X32190Y1008D01*
G01X32186Y1003D01*
G01X32185Y999D01*
G01X32183Y994D01*
G01X32180Y983D01*
G01X32178Y978D01*
G01X32176Y973D01*
G01X32173Y970D01*
G01X32169Y968D01*
G01X32162Y967D01*
G01X32139Y965D01*
G01X32050Y963D01*
G01X31935D01*
G01Y2039D01*
G01X31563D01*
G01X31629Y2038D01*
G01X31649Y2036D01*
G01X31662Y2035D01*
G01X31667Y2033D01*
G01X31670Y2031D01*
G01X31671D01*
G01Y2030D01*
G01X31672Y2025D01*
G01X31673Y2017D01*
G01X31675Y2010D01*
G01X31676Y2001D01*
G01X31677Y1985D01*
G01X31678Y1978D01*
G01X31679Y1973D01*
G01X31680Y1965D01*
G01X31681Y1952D01*
G01X31684Y1941D01*
G01X31685Y1932D01*
G01X31686Y1919D01*
G01X31689Y1909D01*
G01X31690Y1900D01*
G01X31691Y1887D01*
G01X31693Y1876D01*
G01X31695Y1866D01*
G01Y1851D01*
G01X31696Y1845D01*
G01X31698Y1839D01*
G01X31699Y1831D01*
G01X31700Y1818D01*
G01X31703Y1807D01*
G01X31704Y1799D01*
G01Y1786D01*
G01X31707Y1774D01*
G01X31708Y1766D01*
G01X31709Y1753D01*
G01X31712Y1742D01*
G01X31713Y1734D01*
G01Y1721D01*
G01X31716Y1709D01*
G01X31717Y1700D01*
G01X31719Y1685D01*
G01X31720Y1678D01*
G01X31721Y1673D01*
G01X31722Y1665D01*
G01X31723Y1652D01*
G01X31726Y1640D01*
G01X31727Y1632D01*
G01X31728Y1620D01*
G01X31730Y1608D01*
G01X31731Y1600D01*
G01X31732Y1587D01*
G01X31735Y1576D01*
G01X31736Y1567D01*
G01X31737Y1550D01*
G01X31738Y1544D01*
G01X31739Y1539D01*
G01X31741Y1531D01*
G01Y1517D01*
G01X31744Y1507D01*
G01X31745Y1499D01*
G01X31746Y1485D01*
G01X31748Y1474D01*
G01X31750Y1466D01*
G01X31751Y1453D01*
G01X31754Y1442D01*
G01X31755Y1434D01*
G01Y1421D01*
G01X31758Y1409D01*
G01X31759Y1400D01*
G01X31760Y1384D01*
G01X31761Y1378D01*
G01X31763Y1373D01*
G01X31764Y1364D01*
G01Y1351D01*
G01X31767Y1340D01*
G01X31768Y1332D01*
G01X31769Y1319D01*
G01X31772Y1308D01*
G01X31773Y1300D01*
G01X31774Y1287D01*
G01X31776Y1276D01*
G01X31777Y1266D01*
G01X31778Y1250D01*
G01X31779Y1244D01*
G01X31781Y1239D01*
G01X31782Y1230D01*
G01X31783Y1218D01*
G01X31786Y1207D01*
G01X31787Y1198D01*
G01X31788Y1185D01*
G01X31790Y1174D01*
G01X31792Y1166D01*
G01Y1153D01*
G01X31795Y1141D01*
G01X31796Y1134D01*
G01X31797Y1121D01*
G01X31799Y1109D01*
G01X31801Y1100D01*
G01Y1084D01*
G01X31802Y1078D01*
G01X31804Y1072D01*
G01X31805Y1064D01*
G01X31806Y1051D01*
G01X31809Y1040D01*
G01X31810Y1032D01*
G01Y1019D01*
G01X31814Y1008D01*
G01X31815Y1000D01*
G01Y987D01*
G01X31817Y979D01*
G01X31818Y976D01*
G01Y970D01*
G01X31817Y968D01*
G01X31815Y966D01*
G01X31811D01*
G01X31796Y964D01*
G01X31736Y963D01*
G01X31658D01*
G01X31656Y974D01*
G01X31654Y983D01*
G01X31653Y992D01*
G01X31652Y1008D01*
G01X31651Y1014D01*
G01X31650Y1020D01*
G01X31648Y1030D01*
G01Y1049D01*
G01X31647Y1056D01*
G01X31645Y1061D01*
G01X31644Y1072D01*
G01X31643Y1091D01*
G01X31642Y1097D01*
G01X31640Y1103D01*
G01X31639Y1114D01*
G01Y1132D01*
G01X31637Y1139D01*
G01X31636Y1145D01*
G01X31635Y1155D01*
G01X31634Y1173D01*
G01X31633Y1181D01*
G01X31631Y1186D01*
G01X31630Y1196D01*
G01Y1215D01*
G01X31628Y1222D01*
G01X31627Y1228D01*
G01X31626Y1238D01*
G01X31625Y1257D01*
G01X31624Y1263D01*
G01X31622Y1269D01*
G01X31621Y1280D01*
G01X31620Y1298D01*
G01X31619Y1305D01*
G01X31617Y1311D01*
G01X31616Y1321D01*
G01X31615Y1340D01*
G01X31614Y1347D01*
G01X31613Y1352D01*
G01X31612Y1363D01*
G01X31611Y1381D01*
G01X31610Y1388D01*
G01X31608Y1394D01*
G01X31607Y1404D01*
G01X31606Y1423D01*
G01X31605Y1430D01*
G01X31604Y1436D01*
G01X31602Y1446D01*
G01Y1465D01*
G01X31601Y1471D01*
G01X31599Y1477D01*
G01X31598Y1487D01*
G01X31597Y1506D01*
G01X31596Y1513D01*
G01X31594Y1518D01*
G01X31593Y1529D01*
G01Y1548D01*
G01X31591Y1554D01*
G01X31589Y1560D01*
G01X31588Y1571D01*
G01Y1589D01*
G01X31586Y1596D01*
G01X31585Y1602D01*
G01X31584Y1611D01*
G01X31583Y1627D01*
G01X31582Y1633D01*
G01X31580Y1639D01*
G01X31579Y1649D01*
G01Y1668D01*
G01X31577Y1674D01*
G01X31576Y1680D01*
G01X31575Y1691D01*
G01X31574Y1709D01*
G01X31573Y1716D01*
G01X31571Y1722D01*
G01X31570Y1732D01*
G01X31569Y1751D01*
G01X31568Y1758D01*
G01X31567Y1763D01*
G01X31566Y1774D01*
G01X31565Y1792D01*
G01X31564Y1799D01*
G01X31562Y1805D01*
G01X31561Y1816D01*
G01Y1828D01*
G01X31560Y1832D01*
G01X31559Y1833D01*
G01X31557Y1834D01*
G01X31556Y1833D01*
G01X31554Y1832D01*
G01X31552Y1829D01*
G01Y1825D01*
G01X31551Y1814D01*
G01X31550Y1805D01*
G01X31548Y1797D01*
G01X31547Y1789D01*
G01X31546Y1776D01*
G01X31543Y1765D01*
G01X31542Y1756D01*
G01Y1740D01*
G01X31540Y1734D01*
G01X31539Y1728D01*
G01X31538Y1720D01*
G01X31537Y1707D01*
G01X31534Y1696D01*
G01X31533Y1688D01*
G01Y1675D01*
G01X31530Y1664D01*
G01X31529Y1656D01*
G01X31528Y1642D01*
G01X31525Y1631D01*
G01X31524Y1623D01*
G01X31523Y1610D01*
G01X31520Y1599D01*
G01X31519Y1590D01*
G01X31518Y1574D01*
G01X31517Y1567D01*
G01X31516Y1562D01*
G01X31515Y1554D01*
G01X31514Y1541D01*
G01X31511Y1530D01*
G01X31510Y1521D01*
G01X31509Y1508D01*
G01X31507Y1497D01*
G01X31505Y1489D01*
G01Y1476D01*
G01X31502Y1465D01*
G01X31501Y1455D01*
G01X31500Y1440D01*
G01X31499Y1434D01*
G01X31498Y1428D01*
G01X31496Y1420D01*
G01X31495Y1407D01*
G01X31492Y1395D01*
G01X31491Y1388D01*
G01Y1375D01*
G01X31488Y1363D01*
G01X31487Y1355D01*
G01X31486Y1342D01*
G01X31483Y1331D01*
G01X31482Y1323D01*
G01Y1310D01*
G01X31479Y1298D01*
G01X31478Y1289D01*
G01X31477Y1274D01*
G01X31476Y1267D01*
G01X31474Y1262D01*
G01X31473Y1254D01*
G01X31472Y1241D01*
G01X31470Y1229D01*
G01X31469Y1221D01*
G01X31468Y1208D01*
G01X31465Y1197D01*
G01X31464Y1189D01*
G01X31463Y1176D01*
G01X31460Y1165D01*
G01X31459Y1155D01*
G01X31458Y1139D01*
G01X31457Y1133D01*
G01X31456Y1128D01*
G01X31454Y1120D01*
G01Y1106D01*
G01X31452Y1099D01*
G01X31451Y1096D01*
G01X31449Y1093D01*
G01X31446Y1091D01*
G01X31443Y1090D01*
G01X31440Y1089D01*
G01X31426D01*
G01X31348Y1088D01*
G01X31260D01*
G01X31258Y1108D01*
G01X31255Y1134D01*
G01X31251Y1155D01*
G01X31249Y1173D01*
G01X31246Y1199D01*
G01X31242Y1219D01*
G01X31239Y1237D01*
G01X31236Y1263D01*
G01X31235Y1270D01*
G01X31230Y1298D01*
G01X31212Y1427D01*
G01X31205Y1469D01*
G01X31203Y1487D01*
G01X31199Y1513D01*
G01X31196Y1533D01*
G01X31194Y1552D01*
G01X31190Y1578D01*
G01X31187Y1598D01*
G01X31184Y1616D01*
G01X31182Y1634D01*
G01X31180Y1643D01*
G01X31179Y1647D01*
G01X31177Y1656D01*
G01Y1669D01*
G01X31174Y1680D01*
G01X31173Y1688D01*
G01X31172Y1701D01*
G01X31169Y1712D01*
G01X31168Y1721D01*
G01X31167Y1733D01*
G01X31165Y1744D01*
G01X31164Y1753D01*
G01X31163Y1766D01*
G01X31160Y1777D01*
G01X31159Y1785D01*
G01X31158Y1798D01*
G01X31157Y1806D01*
G01X31152Y1820D01*
G01X31150Y1823D01*
G01X31148Y1820D01*
G01X31146Y1816D01*
G01X31144Y1804D01*
G01X31143Y1796D01*
G01X31141Y1782D01*
G01X31140Y1763D01*
G01X31139Y1754D01*
G01X31137Y1746D01*
G01X31136Y1740D01*
G01X31135Y1712D01*
G01X31134Y1704D01*
G01X31133Y1699D01*
G01X31132Y1695D01*
G01Y1690D01*
G01X31131Y1662D01*
G01X31130Y1653D01*
G01X31129Y1648D01*
G01X31128Y1644D01*
G01X31127Y1639D01*
G01X31126Y1615D01*
G01X31125Y1606D01*
G01X31124Y1603D01*
G01X31123Y1598D01*
G01Y1593D01*
G01X31122Y1565D01*
G01X31121Y1556D01*
G01X31119Y1548D01*
G01X31118Y1542D01*
G01X31117Y1518D01*
G01X31116Y1510D01*
G01X31115Y1506D01*
G01X31114Y1501D01*
G01X31113Y1496D01*
G01X31112Y1468D01*
G01X31111Y1459D01*
G01X31110Y1455D01*
G01X31109Y1450D01*
G01Y1445D01*
G01X31108Y1417D01*
G01X31107Y1408D01*
G01X31105Y1400D01*
G01X31104Y1394D01*
G01X31103Y1370D01*
G01X31102Y1362D01*
G01X31101Y1358D01*
G01X31100Y1353D01*
G01X31099Y1348D01*
G01Y1320D01*
G01X31098Y1311D01*
G01X31097Y1307D01*
G01X31096Y1303D01*
G01X31095Y1297D01*
G01X31094Y1269D01*
G01X31093Y1260D01*
G01X31091Y1252D01*
G01X31090Y1247D01*
G01X31089Y1222D01*
G01X31088Y1214D01*
G01X31086Y1206D01*
G01Y1200D01*
G01X31085Y1172D01*
G01X31084Y1163D01*
G01X31081Y1155D01*
G01Y1150D01*
G01X31080Y1125D01*
G01X31079Y1117D01*
G01X31077Y1109D01*
G01X31076Y1103D01*
G01X31075Y1075D01*
G01X31074Y1066D01*
G01X31072Y1058D01*
G01Y1053D01*
G01X31071Y1025D01*
G01X31070Y1015D01*
G01X31068Y1007D01*
G01X31067Y1002D01*
G01X31066Y981D01*
G01X31065Y975D01*
G01X31063Y971D01*
G01X31061Y969D01*
G01X31060Y968D01*
G01X31057Y966D01*
G01X31052D01*
G01X31034Y964D01*
G01X30970Y963D01*
G01X30926Y964D01*
G01X30909Y965D01*
G01X30900Y966D01*
G01X30893Y968D01*
G01X30888Y969D01*
G01Y970D01*
G01X30887D01*
G01Y971D01*
G01X30886D01*
G01X30419D01*
G01X30408Y970D01*
G01X30393Y968D01*
G01X30372Y967D01*
G01X30362Y966D01*
G01X30358Y965D01*
G01X30354D01*
G01X30268Y963D01*
G01X30203D01*
G01X30055D01*
G01Y2039D01*
G01X29949D01*
G01Y635D01*
G01X32766D01*
G01Y2510D01*
G37*
G36*
G01X30293Y1905D02*
G01X30254Y1904D01*
G01X30245Y1903D01*
G01X30243D01*
G01X30242D01*
G01Y1902D01*
G01Y1901D01*
G01X30240Y1712D01*
G01Y1501D01*
G01Y1101D01*
G01X30311D01*
G01X30377Y1102D01*
G01X30388Y1103D01*
G01X30394Y1105D01*
G01X30402Y1106D01*
G01X30415D01*
G01X30422Y1108D01*
G01X30445Y1115D01*
G01X30464Y1121D01*
G01X30473Y1125D01*
G01X30481Y1128D01*
G01X30490Y1133D01*
G01X30510Y1146D01*
G01X30516Y1149D01*
G01X30522Y1154D01*
G01X30525Y1157D01*
G01X30529Y1162D01*
G01X30534Y1168D01*
G01X30544Y1176D01*
G01X30549Y1182D01*
G01X30556Y1191D01*
G01X30561Y1196D01*
G01X30564Y1200D01*
G01X30570Y1210D01*
G01X30575Y1219D01*
G01X30579Y1227D01*
G01X30585Y1241D01*
G01X30590Y1250D01*
G01X30593Y1255D01*
G01X30595Y1260D01*
G01X30600Y1273D01*
G01X30610Y1303D01*
G01X30613Y1315D01*
G01X30615Y1326D01*
G01X30619Y1349D01*
G01X30622Y1361D01*
G01X30623Y1370D01*
G01X30624Y1383D01*
G01X30625Y1390D01*
G01X30626Y1394D01*
G01X30627Y1400D01*
G01X30628Y1427D01*
G01X30629Y1437D01*
G01X30630Y1441D01*
G01X30631Y1443D01*
G01Y1452D01*
G01X30632Y1501D01*
G01X30631Y1548D01*
G01Y1559D01*
G01X30630Y1561D01*
G01X30629Y1565D01*
G01X30628Y1571D01*
G01Y1589D01*
G01X30627Y1602D01*
G01X30626Y1612D01*
G01X30624Y1620D01*
G01X30623Y1628D01*
G01Y1641D01*
G01X30621Y1648D01*
G01X30620Y1653D01*
G01X30617Y1663D01*
G01X30614Y1681D01*
G01X30604Y1711D01*
G01X30597Y1733D01*
G01X30586Y1760D01*
G01X30582Y1769D01*
G01X30579Y1773D01*
G01X30574Y1779D01*
G01X30570Y1785D01*
G01X30565Y1794D01*
G01X30562Y1799D01*
G01X30554Y1811D01*
G01X30550Y1816D01*
G01X30545Y1820D01*
G01X30539Y1825D01*
G01X30534Y1829D01*
G01X30529Y1835D01*
G01X30524Y1842D01*
G01X30516Y1849D01*
G01X30496Y1861D01*
G01X30485Y1869D01*
G01X30479Y1872D01*
G01X30474Y1875D01*
G01X30468Y1877D01*
G01X30446Y1885D01*
G01X30430Y1891D01*
G01X30395Y1898D01*
G01X30381Y1900D01*
G01X30362Y1902D01*
G01X30346Y1904D01*
G37*
G36*
G01X32078Y1166D02*
G01X32075Y1164D01*
G01X32076Y1159D01*
G01X32078Y1156D01*
G01X32080Y1159D01*
G01X32081Y1162D01*
G01Y1164D01*
G01X32080Y1166D01*
G37*
G36*
G01X6347Y20627D02*
G01X6347Y19722D01*
G01X6435D01*
G01Y19847D01*
G01X6731D01*
G01Y20142D01*
G01X6861D01*
G01Y19847D01*
G01X7156D01*
G01Y19722D01*
G01X6861D01*
G01Y19426D01*
G01X6731D01*
G01Y19722D01*
G01X6435D01*
G01X6347D01*
G01Y18923D01*
G01X7239D01*
G01Y20627D01*
G37*
G36*
G01X6350Y24310D02*
G01X6350Y23655D01*
G01X6396D01*
G01X6807D01*
G01X6904D01*
G01X7315D01*
G01Y23525D01*
G01X6904D01*
G01Y23655D01*
G01X6807D01*
G01Y23525D01*
G01X6396D01*
G01Y23655D01*
G01X6350D01*
G01Y22606D01*
G01X7366D01*
G01Y24310D01*
G37*
G36*
G01X27612Y27175D02*
G01X27612Y26117D01*
G01X27695D01*
G01Y26138D01*
G01X27696Y26149D01*
G01X27698Y26156D01*
G01X27701Y26168D01*
G01X27703Y26183D01*
G01X27705Y26192D01*
G01X27707Y26197D01*
G01X27712Y26206D01*
G01X27717Y26219D01*
G01X27720Y26227D01*
G01X27727Y26238D01*
G01X27734Y26251D01*
G01X27737Y26256D01*
G01X27745Y26268D01*
G01X27757Y26282D01*
G01X27762Y26290D01*
G01X27768Y26295D01*
G01X27777Y26303D01*
G01X27783Y26309D01*
G01X27785Y26312D01*
G01X27788Y26315D01*
G01X27791Y26317D01*
G01X27797Y26319D01*
G01X27800Y26321D01*
G01X27803Y26323D01*
G01X27812Y26331D01*
G01X27822Y26337D01*
G01X27848Y26353D01*
G01X27867Y26361D01*
G01X27875Y26366D01*
G01X27885Y26371D01*
G01X27896Y26376D01*
G01X27918Y26384D01*
G01X27949Y26395D01*
G01X27962Y26399D01*
G01X27985Y26404D01*
G01X28013Y26413D01*
G01X28024Y26416D01*
G01X28034Y26419D01*
G01X28053Y26422D01*
G01X28066Y26426D01*
G01X28076Y26428D01*
G01X28095Y26431D01*
G01X28112Y26436D01*
G01X28138Y26442D01*
G01X28150Y26445D01*
G01X28165Y26450D01*
G01X28186Y26454D01*
G01X28192Y26455D01*
G01X28198Y26457D01*
G01X28208Y26461D01*
G01X28213Y26463D01*
G01X28219Y26465D01*
G01X28233Y26467D01*
G01X28239Y26469D01*
G01X28244Y26471D01*
G01X28258Y26477D01*
G01X28272Y26481D01*
G01X28281Y26485D01*
G01X28298Y26493D01*
G01X28312Y26499D01*
G01X28318Y26502D01*
G01X28324Y26506D01*
G01X28330Y26510D01*
G01X28335Y26515D01*
G01X28341Y26520D01*
G01X28346Y26525D01*
G01X28350Y26531D01*
G01X28362Y26546D01*
G01X28367Y26553D01*
G01X28369Y26558D01*
G01X28374Y26570D01*
G01X28377Y26581D01*
G01X28379Y26592D01*
G01X28380Y26600D01*
G01X28382Y26615D01*
G01Y26630D01*
G01X28381Y26638D01*
G01X28377Y26653D01*
G01X28375Y26662D01*
G01X28371Y26671D01*
G01X28364Y26682D01*
G01X28357Y26694D01*
G01X28355Y26698D01*
G01X28351Y26701D01*
G01X28345Y26707D01*
G01X28339Y26712D01*
G01X28332Y26722D01*
G01X28325Y26727D01*
G01X28304Y26742D01*
G01X28299Y26745D01*
G01X28294Y26748D01*
G01X28272Y26757D01*
G01X28260Y26762D01*
G01X28253Y26764D01*
G01X28228Y26769D01*
G01X28215Y26772D01*
G01X28207Y26773D01*
G01X28194Y26774D01*
G01X28186Y26776D01*
G01X28184D01*
G01X28175Y26777D01*
G01X28126Y26778D01*
G01X28080Y26777D01*
G01X28069Y26776D01*
G01X28067D01*
G01X28062Y26774D01*
G01X28051Y26772D01*
G01X28029Y26769D01*
G01X28020Y26767D01*
G01X28002Y26759D01*
G01X27979Y26750D01*
G01X27969Y26746D01*
G01X27965Y26743D01*
G01X27960Y26739D01*
G01X27951Y26731D01*
G01X27938Y26722D01*
G01X27927Y26713D01*
G01X27923Y26709D01*
G01X27920Y26705D01*
G01X27919Y26704D01*
G01X27918Y26698D01*
G01X27916Y26695D01*
G01X27914Y26692D01*
G01X27906Y26684D01*
G01X27900Y26674D01*
G01X27895Y26665D01*
G01X27891Y26657D01*
G01X27889Y26651D01*
G01X27881Y26629D01*
G01X27878Y26618D01*
G01X27875Y26610D01*
G01X27873Y26596D01*
G01X27870Y26570D01*
G01X27840D01*
G01X27819D01*
G01X27807Y26571D01*
G01X27803Y26572D01*
G01X27799Y26573D01*
G01X27792Y26574D01*
G01X27773D01*
G01X27758Y26575D01*
G01X27751Y26576D01*
G01X27744Y26577D01*
G01X27737Y26579D01*
G01X27732Y26582D01*
G01X27730Y26583D01*
G01X27728Y26586D01*
G01X27727Y26590D01*
G01Y26595D01*
G01X27728Y26606D01*
G01X27729Y26612D01*
G01X27731Y26618D01*
G01X27733Y26631D01*
G01X27735Y26648D01*
G01X27737Y26655D01*
G01X27740Y26664D01*
G01X27745Y26677D01*
G01X27748Y26688D01*
G01X27749Y26693D01*
G01X27752Y26700D01*
G01X27754Y26705D01*
G01X27759Y26714D01*
G01X27766Y26730D01*
G01X27770Y26737D01*
G01X27772Y26740D01*
G01X27778Y26747D01*
G01X27790Y26765D01*
G01X27795Y26772D01*
G01X27803Y26781D01*
G01X27808Y26788D01*
G01X27814Y26794D01*
G01X27824Y26801D01*
G01X27831Y26808D01*
G01X27840Y26815D01*
G01X27849Y26822D01*
G01X27855Y26826D01*
G01X27858Y26829D01*
G01X27868Y26836D01*
G01X27891Y26849D01*
G01X27900Y26854D01*
G01X27909Y26858D01*
G01X27914Y26861D01*
G01X27937Y26870D01*
G01X27959Y26878D01*
G01X27973Y26882D01*
G01X27983Y26885D01*
G01X28002Y26888D01*
G01X28015Y26892D01*
G01X28027Y26895D01*
G01X28034Y26896D01*
G01X28066Y26900D01*
G01X28074Y26901D01*
G01X28106Y26902D01*
G01X28147Y26903D01*
G01X28206Y26902D01*
G01X28217Y26901D01*
G01X28223Y26899D01*
G01X28236Y26897D01*
G01X28260Y26894D01*
G01X28270Y26891D01*
G01X28293Y26884D01*
G01X28323Y26875D01*
G01X28336Y26870D01*
G01X28358Y26860D01*
G01X28372Y26854D01*
G01X28378Y26850D01*
G01X28381Y26848D01*
G01X28389Y26842D01*
G01X28408Y26830D01*
G01X28422Y26819D01*
G01X28427Y26815D01*
G01X28432Y26811D01*
G01X28437Y26805D01*
G01X28441Y26800D01*
G01X28446Y26794D01*
G01X28453Y26789D01*
G01X28457Y26785D01*
G01X28460Y26781D01*
G01X28472Y26762D01*
G01X28481Y26750D01*
G01X28484Y26745D01*
G01X28487Y26740D01*
G01X28493Y26726D01*
G01X28497Y26717D01*
G01X28501Y26712D01*
G01X28503Y26707D01*
G01X28507Y26695D01*
G01X28510Y26684D01*
G01X28513Y26674D01*
G01X28517Y26655D01*
G01X28519Y26646D01*
G01X28520Y26644D01*
G01X28521Y26636D01*
G01Y26608D01*
G01Y26598D01*
G01Y26586D01*
G01X28697D01*
G01Y26600D01*
G01X28698Y26610D01*
G01X28700Y26618D01*
G01X28701Y26626D01*
G01X28702Y26639D01*
G01X28706Y26654D01*
G01X28710Y26671D01*
G01X28713Y26681D01*
G01X28719Y26693D01*
G01X28724Y26709D01*
G01X28728Y26718D01*
G01X28732Y26727D01*
G01X28751Y26756D01*
G01X28761Y26771D01*
G01X28780Y26794D01*
G01X28787Y26802D01*
G01X28790Y26805D01*
G01X28794Y26807D01*
G01X28800Y26809D01*
G01X28803Y26811D01*
G01X28805Y26814D01*
G01X28810Y26820D01*
G01X28813Y26823D01*
G01X28816Y26825D01*
G01X28823Y26827D01*
G01X28830Y26831D01*
G01X28841Y26838D01*
G01X28859Y26846D01*
G01X28868Y26850D01*
G01X28874Y26854D01*
G01X28878Y26856D01*
G01X28883Y26857D01*
G01X28899Y26861D01*
G01X28930Y26870D01*
G01X28941Y26873D01*
G01X28947Y26874D01*
G01X28960Y26875D01*
G01X28968Y26876D01*
G01X28975Y26878D01*
G01X28984Y26879D01*
G01X29001Y26880D01*
G01X29009Y26882D01*
G01X29010D01*
G01X29037Y26883D01*
G01X29274Y26884D01*
G01X29533D01*
G01Y26154D01*
G01X29740D01*
G01Y26353D01*
G01X29840D01*
G01X29935Y26352D01*
G01X29945Y26351D01*
G01X29946Y26350D01*
G01X29950D01*
G01X29983Y26349D01*
G01X30080Y26348D01*
G01X30207D01*
G01Y26223D01*
G01X29884D01*
G01Y26122D01*
G01X29885Y26052D01*
G01X29886Y26035D01*
G01X29888Y26025D01*
G01X29889Y26021D01*
G01Y26020D01*
G01X29890Y26019D01*
G01Y26018D01*
G01X29894Y26017D01*
G01X29897Y26015D01*
G01X29900Y26012D01*
G01X29904Y26006D01*
G01X29907Y26003D01*
G01X29911Y26001D01*
G01X29917Y25998D01*
G01X29925Y25994D01*
G01X29935Y25987D01*
G01X29939Y25984D01*
G01X29945Y25981D01*
G01X29959Y25976D01*
G01X29967Y25971D01*
G01X29977Y25965D01*
G01X29996Y25957D01*
G01X30005Y25952D01*
G01X30010Y25949D01*
G01X30018Y25946D01*
G01X30031Y25942D01*
G01X30046Y25935D01*
G01X30056Y25932D01*
G01X30072Y25928D01*
G01X30088Y25923D01*
G01X30121Y25917D01*
G01X30149Y25912D01*
G01X30159Y25911D01*
G01X30204Y25910D01*
G01X30216D01*
G01X30260Y25911D01*
G01X30272Y25912D01*
G01X30278Y25913D01*
G01X30290Y25916D01*
G01X30311Y25919D01*
G01X30320Y25921D01*
G01X30341Y25928D01*
G01X30364Y25936D01*
G01X30390Y25947D01*
G01X30397Y25950D01*
G01X30406Y25955D01*
G01X30416Y25960D01*
G01X30432Y25967D01*
G01X30438Y25971D01*
G01X30441Y25973D01*
G01X30451Y25981D01*
G01X30460Y25988D01*
G01X30468Y25995D01*
G01X30477Y26002D01*
G01X30484Y26007D01*
G01X30491Y26017D01*
G01X30497Y26023D01*
G01X30503Y26028D01*
G01X30506Y26031D01*
G01X30509Y26034D01*
G01X30517Y26047D01*
G01X30520Y26052D01*
G01X30524Y26055D01*
G01X30526Y26059D01*
G01X30533Y26069D01*
G01X30549Y26095D01*
G01X30557Y26114D01*
G01X30561Y26122D01*
G01X30565Y26128D01*
G01X30567Y26133D01*
G01X30568Y26137D01*
G01X30571Y26148D01*
G01X30574Y26159D01*
G01X30579Y26169D01*
G01X30581Y26174D01*
G01X30582Y26180D01*
G01X30586Y26199D01*
G01X30589Y26212D01*
G01X30591Y26223D01*
G01X30593Y26231D01*
G01X30597Y26263D01*
G01X30599Y26275D01*
G01Y26288D01*
G01X30600Y26310D01*
G01X30601Y26319D01*
G01X30603Y26327D01*
G01Y26333D01*
G01X30604Y26350D01*
G01Y26364D01*
G01X30603Y26374D01*
G01X30602Y26378D01*
G01X30601Y26382D01*
G01X30600Y26389D01*
G01X30599Y26406D01*
G01Y26420D01*
G01X30598Y26430D01*
G01X30596Y26438D01*
G01X30594Y26451D01*
G01X30590Y26475D01*
G01X30588Y26485D01*
G01X30581Y26507D01*
G01X30572Y26538D01*
G01X30564Y26560D01*
G01X30553Y26586D01*
G01X30549Y26596D01*
G01X30547Y26599D01*
G01X30542Y26605D01*
G01X30537Y26612D01*
G01X30531Y26623D01*
G01X30527Y26630D01*
G01X30509Y26654D01*
G01X30503Y26660D01*
G01X30497Y26665D01*
G01X30495Y26667D01*
G01X30493Y26671D01*
G01X30490Y26677D01*
G01X30488Y26680D01*
G01X30485Y26683D01*
G01X30469Y26695D01*
G01X30442Y26716D01*
G01X30433Y26722D01*
G01X30422Y26729D01*
G01X30404Y26739D01*
G01X30382Y26748D01*
G01X30370Y26754D01*
G01X30355Y26759D01*
G01X30325Y26769D01*
G01X30312Y26772D01*
G01X30298Y26774D01*
G01X30251Y26780D01*
G01X30242Y26781D01*
G01X30215Y26782D01*
G01X30198D01*
G01X30168D01*
G01X30156Y26781D01*
G01X30150Y26779D01*
G01X30142Y26778D01*
G01X30129Y26777D01*
G01X30121Y26776D01*
G01X30098Y26769D01*
G01X30069Y26759D01*
G01X30059Y26756D01*
G01X30050Y26751D01*
G01X30040Y26746D01*
G01X30024Y26739D01*
G01X30018Y26736D01*
G01X30013Y26732D01*
G01X29992Y26718D01*
G01X29986Y26713D01*
G01X29978Y26703D01*
G01X29973Y26697D01*
G01X29963Y26689D01*
G01X29958Y26683D01*
G01X29939Y26657D01*
G01X29932Y26646D01*
G01X29927Y26637D01*
G01X29923Y26629D01*
G01X29921Y26623D01*
G01X29902Y26577D01*
G01X29895Y26561D01*
G01X29893Y26556D01*
G01X29892Y26554D01*
G01X29890Y26552D01*
G01X29888Y26551D01*
G01X29886Y26550D01*
G01X29880Y26549D01*
G01X29872D01*
G01X29864Y26551D01*
G01X29858Y26552D01*
G01X29849Y26555D01*
G01X29839Y26559D01*
G01X29832Y26561D01*
G01X29814Y26564D01*
G01X29807Y26566D01*
G01X29798Y26569D01*
G01X29791Y26572D01*
G01X29786Y26574D01*
G01X29779Y26576D01*
G01X29773Y26577D01*
G01X29759Y26579D01*
G01X29761Y26593D01*
G01X29763Y26600D01*
G01X29764Y26606D01*
G01X29766Y26611D01*
G01X29770Y26621D01*
G01X29774Y26631D01*
G01X29776Y26643D01*
G01X29779Y26650D01*
G01X29781Y26654D01*
G01X29785Y26659D01*
G01X29788Y26667D01*
G01X29792Y26680D01*
G01X29796Y26688D01*
G01X29801Y26696D01*
G01X29807Y26712D01*
G01X29811Y26718D01*
G01X29814Y26721D01*
G01X29820Y26729D01*
G01X29831Y26747D01*
G01X29842Y26761D01*
G01X29847Y26767D01*
G01X29851Y26772D01*
G01X29857Y26777D01*
G01X29862Y26780D01*
G01X29867Y26786D01*
G01X29875Y26796D01*
G01X29882Y26801D01*
G01X29894Y26811D01*
G01X29900Y26815D01*
G01X29912Y26823D01*
G01X29946Y26845D01*
G01X29952Y26848D01*
G01X29958Y26851D01*
G01X29965Y26854D01*
G01X29981Y26860D01*
G01X29990Y26865D01*
G01X29996Y26868D01*
G01X30000Y26870D01*
G01X30005Y26871D01*
G01X30016Y26874D01*
G01X30027Y26877D01*
G01X30040Y26882D01*
G01X30046Y26884D01*
G01X30071Y26888D01*
G01X30084Y26892D01*
G01X30095Y26895D01*
G01X30103Y26896D01*
G01X30136Y26900D01*
G01X30143Y26901D01*
G01X30176Y26902D01*
G01X30218Y26903D01*
G01X30279Y26902D01*
G01X30291Y26901D01*
G01X30296Y26899D01*
G01X30305Y26898D01*
G01X30322D01*
G01X30328Y26896D01*
G01X30333Y26895D01*
G01X30345Y26892D01*
G01X30360Y26889D01*
G01X30367Y26888D01*
G01X30375Y26885D01*
G01X30383Y26882D01*
G01X30388Y26880D01*
G01X30394Y26878D01*
G01X30408Y26876D01*
G01X30413Y26874D01*
G01X30419Y26872D01*
G01X30432Y26867D01*
G01X30447Y26861D01*
G01X30457Y26857D01*
G01X30466Y26853D01*
G01X30476Y26847D01*
G01X30494Y26839D01*
G01X30503Y26835D01*
G01X30523Y26822D01*
G01X30532Y26816D01*
G01X30547Y26806D01*
G01X30561Y26794D01*
G01X30568Y26789D01*
G01X30574Y26783D01*
G01X30579Y26777D01*
G01X30586Y26770D01*
G01X30598Y26759D01*
G01X30603Y26754D01*
G01X30606Y26749D01*
G01X30613Y26743D01*
G01X30619Y26738D01*
G01X30623Y26735D01*
G01X30626Y26730D01*
G01X30634Y26717D01*
G01X30640Y26710D01*
G01X30644Y26706D01*
G01X30646Y26702D01*
G01X30653Y26692D01*
G01X30669Y26666D01*
G01X30677Y26648D01*
G01X30682Y26639D01*
G01X30687Y26629D01*
G01X30695Y26611D01*
G01X30700Y26602D01*
G01X30704Y26596D01*
G01X30707Y26587D01*
G01X30709Y26577D01*
G01X30849D01*
G01X30851Y26580D01*
G01X30863Y26582D01*
G01X30914Y26584D01*
G01X30983D01*
G01X30997Y26542D01*
G01X31001Y26530D01*
G01X31008Y26515D01*
G01X31016Y26492D01*
G01X31022Y26477D01*
G01X31026Y26467D01*
G01X31028Y26456D01*
G01X31031Y26449D01*
G01X31033Y26445D01*
G01X31036Y26439D01*
G01X31038Y26435D01*
G01X31039Y26430D01*
G01X31042Y26419D01*
G01X31044Y26412D01*
G01X31046Y26408D01*
G01X31049Y26402D01*
G01X31052Y26398D01*
G01X31053Y26393D01*
G01X31056Y26382D01*
G01X31059Y26372D01*
G01X31065Y26359D01*
G01X31071Y26344D01*
G01X31080Y26316D01*
G01X31085Y26303D01*
G01X31091Y26288D01*
G01X31095Y26279D01*
G01X31099Y26265D01*
G01X31105Y26251D01*
G01X31108Y26241D01*
G01X31111Y26230D01*
G01X31113Y26222D01*
G01X31116Y26218D01*
G01X31119Y26213D01*
G01X31121Y26209D01*
G01X31123Y26204D01*
G01X31125Y26193D01*
G01X31128Y26186D01*
G01X31130Y26182D01*
G01X31133Y26176D01*
G01X31135Y26172D01*
G01X31136Y26167D01*
G01X31139Y26156D01*
G01X31142Y26145D01*
G01X31148Y26133D01*
G01X31154Y26117D01*
G01X31182Y26034D01*
G01X31186Y26021D01*
G01X31191Y25998D01*
G01X31193Y25990D01*
G01X31200Y25972D01*
G01X31204Y25960D01*
G01X31212Y25975D01*
G01X31213Y25980D01*
G01X31215Y25986D01*
G01X31219Y26005D01*
G01X31255Y26117D01*
G01X31260Y26130D01*
G01X31267Y26145D01*
G01X31270Y26156D01*
G01X31273Y26167D01*
G01X31276Y26174D01*
G01X31278Y26178D01*
G01X31281Y26183D01*
G01X31283Y26188D01*
G01X31284Y26193D01*
G01X31287Y26204D01*
G01X31290Y26214D01*
G01X31296Y26228D01*
G01X31300Y26242D01*
G01X31304Y26251D01*
G01X31309Y26261D01*
G01X31312Y26271D01*
G01X31314Y26282D01*
G01X31317Y26290D01*
G01X31319Y26294D01*
G01X31322Y26299D01*
G01X31324Y26303D01*
G01X31326Y26308D01*
G01X31328Y26319D01*
G01X31332Y26330D01*
G01X31338Y26344D01*
G01X31342Y26358D01*
G01X31346Y26367D01*
G01X31350Y26376D01*
G01X31353Y26387D01*
G01X31356Y26398D01*
G01X31358Y26405D01*
G01X31360Y26409D01*
G01X31364Y26414D01*
G01X31365Y26419D01*
G01X31367Y26424D01*
G01X31370Y26435D01*
G01X31373Y26445D01*
G01X31379Y26458D01*
G01X31385Y26473D01*
G01X31394Y26501D01*
G01X31402Y26523D01*
G01X31411Y26548D01*
G01X31417Y26564D01*
G01X31422Y26574D01*
G01X31424Y26577D01*
G01X31428Y26579D01*
G01X31435Y26580D01*
G01X31443Y26582D01*
G01X31466Y26583D01*
G01X31498Y26584D01*
G01X31569D01*
G01X31566Y26567D01*
G01X31563Y26556D01*
G01X31556Y26544D01*
G01X31551Y26528D01*
G01X31546Y26516D01*
G01X31540Y26501D01*
G01X31536Y26492D01*
G01X31532Y26477D01*
G01X31525Y26464D01*
G01X31518Y26441D01*
G01X31512Y26427D01*
G01X31508Y26418D01*
G01X31504Y26404D01*
G01X31497Y26387D01*
G01X31491Y26371D01*
G01X31483Y26349D01*
G01X31474Y26324D01*
G01X31468Y26308D01*
G01X31461Y26293D01*
G01X31457Y26284D01*
G01X31453Y26270D01*
G01X31446Y26253D01*
G01X31440Y26238D01*
G01X31432Y26215D01*
G01X31423Y26190D01*
G01X31417Y26174D01*
G01X31409Y26156D01*
G01X31403Y26141D01*
G01X31395Y26118D01*
G01X31386Y26093D01*
G01X31380Y26077D01*
G01X31373Y26062D01*
G01X31365Y26039D01*
G01X31652D01*
G01X31653Y26051D01*
G01X31654Y26060D01*
G01X31656Y26068D01*
G01X31658Y26079D01*
G01X31661Y26092D01*
G01X31662Y26098D01*
G01X31666Y26108D01*
G01X31676Y26126D01*
G01X31681Y26137D01*
G01X31690Y26147D01*
G01X31701Y26162D01*
G01X31706Y26169D01*
G01X31709Y26172D01*
G01X31713Y26175D01*
G01X31725Y26182D01*
G01X31730Y26185D01*
G01X31734Y26189D01*
G01X31737Y26192D01*
G01X31747Y26198D01*
G01X31756Y26203D01*
G01X31765Y26207D01*
G01X31786Y26217D01*
G01X31796Y26221D01*
G01X31806Y26224D01*
G01X31823Y26229D01*
G01X31837Y26235D01*
G01X31848Y26239D01*
G01X31864Y26243D01*
G01X31874Y26247D01*
G01X31879Y26249D01*
G01X31885Y26251D01*
G01X31891Y26252D01*
G01X31910Y26256D01*
G01X31939Y26265D01*
G01X31949Y26268D01*
G01X31960Y26271D01*
G01X31979Y26274D01*
G01X32008Y26284D01*
G01X32021Y26288D01*
G01X32044Y26293D01*
G01X32073Y26302D01*
G01X32095Y26310D01*
G01X32104Y26314D01*
G01X32110Y26317D01*
G01X32115Y26321D01*
G01X32121Y26325D01*
G01X32126Y26330D01*
G01X32131Y26334D01*
G01X32136Y26340D01*
G01X32147Y26355D01*
G01X32151Y26363D01*
G01X32152Y26368D01*
G01X32153Y26374D01*
G01X32154Y26380D01*
G01X32155Y26387D01*
G01X32156Y26401D01*
G01X32155Y26412D01*
G01X32154Y26418D01*
G01X32152Y26423D01*
G01X32151Y26425D01*
G01X32142Y26438D01*
G01X32139Y26442D01*
G01X32136Y26446D01*
G01X32131Y26450D01*
G01X32126Y26455D01*
G01X32111Y26466D01*
G01X32104Y26471D01*
G01X32100Y26473D01*
G01X32089Y26477D01*
G01X32083Y26480D01*
G01X32077Y26482D01*
G01X32071Y26483D01*
G01X32051Y26487D01*
G01X32043Y26489D01*
G01X32041Y26490D01*
G01X32032Y26491D01*
G01X31987Y26492D01*
G01X31946Y26491D01*
G01X31934Y26490D01*
G01X31932Y26489D01*
G01X31911Y26482D01*
G01X31898Y26477D01*
G01X31883Y26470D01*
G01X31878Y26467D01*
G01X31867Y26459D01*
G01X31862Y26455D01*
G01X31857Y26451D01*
G01X31852Y26445D01*
G01X31836Y26422D01*
G01X31830Y26412D01*
G01X31828Y26406D01*
G01X31825Y26397D01*
G01X31822Y26389D01*
G01X31820Y26378D01*
G01X31818Y26374D01*
G01X31817Y26372D01*
G01X31815Y26371D01*
G01X31814Y26370D01*
G01X31812Y26369D01*
G01X31804Y26367D01*
G01X31793D01*
G01X31783D01*
G01X31777Y26369D01*
G01X31771Y26370D01*
G01X31763Y26371D01*
G01X31750Y26372D01*
G01X31739Y26375D01*
G01X31731Y26376D01*
G01X31717Y26377D01*
G01X31707Y26379D01*
G01X31699Y26380D01*
G01X31694D01*
G01X31690Y26381D01*
G01X31687Y26383D01*
G01X31685Y26387D01*
G01Y26392D01*
G01Y26403D01*
G01X31687Y26409D01*
G01X31703Y26459D01*
G01X31707Y26469D01*
G01X31711Y26478D01*
G01X31724Y26498D01*
G01X31728Y26504D01*
G01X31733Y26510D01*
G01X31736Y26514D01*
G01X31741Y26517D01*
G01X31747Y26523D01*
G01X31755Y26532D01*
G01X31761Y26538D01*
G01X31775Y26547D01*
G01X31793Y26558D01*
G01X31802Y26563D01*
G01X31810Y26567D01*
G01X31817Y26570D01*
G01X31838Y26578D01*
G01X31869Y26589D01*
G01X31877Y26591D01*
G01X31885Y26593D01*
G01X31899Y26595D01*
G01X31922Y26598D01*
G01X31931Y26600D01*
G01X31934D01*
G01X31945Y26601D01*
G01X31999Y26602D01*
G01X32051Y26601D01*
G01X32063Y26600D01*
G01X32065D01*
G01X32070Y26599D01*
G01X32081Y26596D01*
G01X32096Y26594D01*
G01X32104Y26593D01*
G01X32112Y26590D01*
G01X32124Y26585D01*
G01X32141Y26580D01*
G01X32151Y26577D01*
G01X32156Y26574D01*
G01X32181Y26562D01*
G01X32188Y26557D01*
G01X32212Y26540D01*
G01X32218Y26534D01*
G01X32225Y26524D01*
G01X32232Y26519D01*
G01X32236Y26517D01*
G01X32239Y26513D01*
G01X32242Y26508D01*
G01X32254Y26490D01*
G01X32263Y26477D01*
G01X32266Y26472D01*
G01X32269Y26466D01*
G01X32276Y26446D01*
G01X32282Y26434D01*
G01X32283Y26429D01*
G01X32284Y26424D01*
G01X32285Y26418D01*
G01X32286Y26405D01*
G01X32287Y26399D01*
G01X32288Y26393D01*
G01X32289Y26387D01*
G01X32290Y26369D01*
G01X32289Y26356D01*
G01X32288Y26346D01*
G01X32286Y26338D01*
G01X32284Y26327D01*
G01X32281Y26314D01*
G01X32279Y26306D01*
G01X32277Y26302D01*
G01X32271Y26292D01*
G01X32265Y26276D01*
G01X32261Y26270D01*
G01X32259Y26267D01*
G01X32250Y26257D01*
G01X32246Y26250D01*
G01X32240Y26245D01*
G01X32231Y26237D01*
G01X32225Y26231D01*
G01X32222Y26227D01*
G01X32219Y26223D01*
G01X32214Y26220D01*
G01X32209Y26217D01*
G01X32182Y26201D01*
G01X32156Y26189D01*
G01X32144Y26183D01*
G01X32128Y26177D01*
G01X32101Y26168D01*
G01X32087Y26164D01*
G01X32070Y26160D01*
G01X32059Y26156D01*
G01X32046Y26151D01*
G01X32040Y26149D01*
G01X32021Y26146D01*
G01X32015Y26145D01*
G01X32006Y26142D01*
G01X31995Y26138D01*
G01X31989Y26136D01*
G01X31964Y26132D01*
G01X31955Y26129D01*
G01X31932Y26122D01*
G01X31899Y26113D01*
G01X31869Y26104D01*
G01X31857Y26099D01*
G01X31838Y26090D01*
G01X31827Y26083D01*
G01X31821Y26077D01*
G01X31814Y26067D01*
G01X31809Y26062D01*
G01X31807Y26059D01*
G01X31803Y26051D01*
G01X31798Y26040D01*
G01X31796Y26034D01*
G01X31795Y26027D01*
G01X31793Y26020D01*
G01Y26014D01*
G01X31792Y26006D01*
G01X31793Y26001D01*
G01X31796Y25992D01*
G01X31799Y25976D01*
G01X31801Y25970D01*
G01X31804Y25965D01*
G01X31821Y25941D01*
G01X31827Y25935D01*
G01X31847Y25921D01*
G01X31851Y25918D01*
G01X31856Y25915D01*
G01X31867Y25910D01*
G01X31889Y25901D01*
G01X31900Y25898D01*
G01X31908Y25896D01*
G01X31922Y25894D01*
G01X31927Y25893D01*
G01X31946Y25892D01*
G01X31987Y25891D01*
G01X32019Y25892D01*
G01X32030Y25893D01*
G01X32033D01*
G01X32057Y25900D01*
G01X32068Y25904D01*
G01X32076Y25907D01*
G01X32087Y25914D01*
G01X32101Y25922D01*
G01X32106Y25925D01*
G01X32117Y25933D01*
G01X32122Y25937D01*
G01X32126Y25942D01*
G01X32132Y25947D01*
G01X32148Y25970D01*
G01X32151Y25975D01*
G01X32153Y25980D01*
G01X32163Y26002D01*
G01X32167Y26012D01*
G01X32169Y26018D01*
G01X32171Y26026D01*
G01X32172Y26034D01*
G01X32174Y26053D01*
G01X32190D01*
G01X32201Y26052D01*
G01X32210Y26051D01*
G01X32218Y26049D01*
G01X32232Y26047D01*
G01X32241Y26046D01*
G01X32267Y26043D01*
G01X32299Y26037D01*
G01X32302Y26036D01*
G01X32305Y26035D01*
G01X32307Y26033D01*
G01X32309Y26032D01*
G01X32311Y26028D01*
G01Y26023D01*
G01X32307Y26007D01*
G01X32304Y25995D01*
G01X32295Y25965D01*
G01X32290Y25952D01*
G01X32276Y25923D01*
G01X32272Y25917D01*
G01X32268Y25910D01*
G01X32253Y25889D01*
G01X32243Y25876D01*
G01X32235Y25865D01*
G01X32231Y25861D01*
G01X32224Y25856D01*
G01X32210Y25845D01*
G01X32196Y25834D01*
G01X32186Y25828D01*
G01X32175Y25822D01*
G01X32164Y25815D01*
G01X32159Y25812D01*
G01X32147Y25808D01*
G01X32119Y25799D01*
G01X32424D01*
G01X32428Y25810D01*
G01X32432Y25819D01*
G01X32436Y25827D01*
G01X32440Y25832D01*
G01X32441Y25837D01*
G01X32443Y25842D01*
G01X32447Y25858D01*
G01X32452Y25874D01*
G01X32454Y25884D01*
G01X32458Y25912D01*
G01X32460Y25925D01*
G01X32461Y25947D01*
G01Y25972D01*
G01X32462Y25983D01*
G01X32463Y25986D01*
G01Y25987D01*
G01X32464Y26001D01*
G01X32465Y26193D01*
G01X32467Y26394D01*
G01Y26401D01*
G01X32469Y26405D01*
G01X32470Y26414D01*
G01Y26430D01*
G01X32472Y26437D01*
G01X32479Y26459D01*
G01X32484Y26472D01*
G01X32489Y26482D01*
G01X32495Y26495D01*
G01X32500Y26503D01*
G01X32505Y26511D01*
G01X32510Y26518D01*
G01X32519Y26527D01*
G01X32523Y26534D01*
G01X32526Y26536D01*
G01X32529Y26538D01*
G01X32535Y26541D01*
G01X32541Y26545D01*
G01X32550Y26552D01*
G01X32560Y26558D01*
G01X32568Y26563D01*
G01X32578Y26567D01*
G01X32583Y26570D01*
G01X32606Y26579D01*
G01X32619Y26584D01*
G01X32634Y26589D01*
G01X32647Y26592D01*
G01X32661Y26594D01*
G01X32688Y26598D01*
G01X32697Y26600D01*
G01X32698D01*
G01X32701D01*
G01X32713Y26601D01*
G01X32777Y26602D01*
G01X32843Y26601D01*
G01X32854Y26600D01*
G01X32859Y26599D01*
G01X32867Y26598D01*
G01X32880Y26597D01*
G01X32888Y26595D01*
G01X32902Y26592D01*
G01X32915Y26590D01*
G01X32921Y26588D01*
G01X32927Y26586D01*
G01X32937Y26582D01*
G01X32947Y26578D01*
G01X32958Y26576D01*
G01X32965Y26573D01*
G01X32969Y26571D01*
G01X32979Y26565D01*
G01X32995Y26558D01*
G01X33000Y26556D01*
G01X33005Y26553D01*
G01X33020Y26542D01*
G01X33036Y26532D01*
G01X33043Y26527D01*
G01X33046Y26523D01*
G01X33049Y26518D01*
G01X33056Y26513D01*
G01X33062Y26507D01*
G01X33065Y26504D01*
G01X33068Y26500D01*
G01X33075Y26488D01*
G01X33078Y26484D01*
G01X33082Y26480D01*
G01X33087Y26473D01*
G01X33093Y26460D01*
G01X33100Y26449D01*
G01X33104Y26440D01*
G01X33108Y26427D01*
G01X33114Y26413D01*
G01X33118Y26402D01*
G01X33121Y26387D01*
G01X33128Y26365D01*
G01Y26362D01*
G01X33126Y26359D01*
G01X33121Y26358D01*
G01X33114D01*
G01X33103Y26357D01*
G01X33095Y26356D01*
G01X33087Y26354D01*
G01X33078Y26353D01*
G01X33062D01*
G01X33056Y26351D01*
G01X33050Y26349D01*
G01X33042Y26348D01*
G01X33029D01*
G01X33018Y26345D01*
G01X33010Y26344D01*
G01X33006D01*
G01X33001Y26345D01*
G01X32998Y26348D01*
G01X32995Y26353D01*
G01X32992Y26360D01*
G01X32986Y26378D01*
G01X32982Y26388D01*
G01X32979Y26396D01*
G01X32974Y26404D01*
G01X32969Y26413D01*
G01X32960Y26430D01*
G01X32956Y26435D01*
G01X32948Y26444D01*
G01X32943Y26451D01*
G01X32940Y26454D01*
G01X32937Y26456D01*
G01X32931Y26458D01*
G01X32928Y26460D01*
G01X32925Y26462D01*
G01X32920Y26466D01*
G01X32912Y26471D01*
G01X32906Y26473D01*
G01X32884Y26481D01*
G01X32874Y26484D01*
G01X32868Y26486D01*
G01X32860Y26487D01*
G01X32849Y26488D01*
G01X32839Y26490D01*
G01X32831Y26491D01*
G01X32786Y26492D01*
G01X32745Y26491D01*
G01X32733Y26490D01*
G01X32717Y26486D01*
G01X32704Y26483D01*
G01X32697Y26482D01*
G01X32692Y26480D01*
G01X32668Y26468D01*
G01X32659Y26463D01*
G01X32648Y26455D01*
G01X32643Y26450D01*
G01X32638Y26446D01*
G01X32633Y26440D01*
G01X32622Y26425D01*
G01X32618Y26417D01*
G01X32613Y26406D01*
G01X32611Y26400D01*
G01X32609Y26393D01*
G01X32608Y26386D01*
G01X32606Y26378D01*
G01X32605Y26369D01*
G01X32604Y26345D01*
G01Y26298D01*
G01X32618Y26295D01*
G01X32630Y26293D01*
G01X32661Y26284D01*
G01X32674Y26280D01*
G01X32687Y26278D01*
G01X32712Y26274D01*
G01X32726Y26271D01*
G01X32740Y26269D01*
G01X32767Y26265D01*
G01X32776Y26263D01*
G01X32781Y26262D01*
G01X32789Y26261D01*
G01X32802Y26260D01*
G01X32813Y26258D01*
G01X32822Y26256D01*
G01X32838Y26255D01*
G01X32845Y26254D01*
G01X32850Y26252D01*
G01X32859Y26251D01*
G01X32875D01*
G01X32887Y26248D01*
G01X32902Y26246D01*
G01X32928Y26242D01*
G01X32938Y26240D01*
G01X32947Y26238D01*
G01X32963Y26234D01*
G01X32973Y26231D01*
G01X32987Y26224D01*
G01X33001Y26220D01*
G01X33010Y26216D01*
G01X33015Y26214D01*
G01X33027Y26208D01*
G01X33036Y26203D01*
G01X33059Y26189D01*
G01X33064Y26185D01*
G01X33070Y26180D01*
G01X33074Y26177D01*
G01X33077Y26172D01*
G01X33083Y26166D01*
G01X33093Y26158D01*
G01X33098Y26152D01*
G01X33107Y26139D01*
G01X33116Y26128D01*
G01X33120Y26122D01*
G01X33123Y26116D01*
G01X33129Y26103D01*
G01X33134Y26094D01*
G01X33137Y26088D01*
G01X33139Y26083D01*
G01X33140Y26078D01*
G01X33144Y26059D01*
G01X33148Y26047D01*
G01X33150Y26035D01*
G01X33151Y26027D01*
G01X33153Y26015D01*
G01Y26003D01*
G01X33154Y25995D01*
G01X33153Y25984D01*
G01X33152Y25976D01*
G01X33150Y25968D01*
G01X33148Y25956D01*
G01X33145Y25941D01*
G01X33143Y25934D01*
G01X33141Y25926D01*
G01X33134Y25911D01*
G01X33128Y25897D01*
G01X33125Y25891D01*
G01X33122Y25888D01*
G01X33114Y25879D01*
G01X33102Y25862D01*
G01X33098Y25857D01*
G01X33093Y25851D01*
G01X33088Y25846D01*
G01X33083Y25842D01*
G01X33069Y25833D01*
G01X33062Y25828D01*
G01X33059Y25824D01*
G01X33051Y25820D01*
G01X33038Y25812D01*
G01X33028Y25806D01*
G01X33019Y25802D01*
G01X33006Y25799D01*
G01X33287D01*
G01Y25923D01*
G01X33957D01*
G01Y26298D01*
G01X33352D01*
G01Y26422D01*
G01X33957D01*
G01Y26759D01*
G01X33311D01*
G01Y26884D01*
G01X34105D01*
G01Y25799D01*
G01X33287D01*
G01X33006D01*
G01X33002Y25798D01*
G01X32952Y25783D01*
G01X32950Y25782D01*
G01X32940Y25781D01*
G01X32883Y25780D01*
G01X32827Y25781D01*
G01X32816Y25782D01*
G01X32810Y25784D01*
G01X32799Y25786D01*
G01X32777Y25790D01*
G01X32768Y25792D01*
G01X32747Y25799D01*
G01X32724Y25807D01*
G01X32714Y25811D01*
G01X32705Y25816D01*
G01X32695Y25822D01*
G01X32679Y25829D01*
G01X32674Y25832D01*
G01X32668Y25835D01*
G01X32654Y25845D01*
G01X32635Y25857D01*
G01X32628Y25862D01*
G01X32619Y25870D01*
G01X32609Y25878D01*
G01X32604Y25882D01*
G01X32601Y25884D01*
G01X32599Y25885D01*
G01X32597D01*
G01X32595Y25884D01*
G01X32592Y25882D01*
G01X32591Y25878D01*
G01X32589Y25871D01*
G01X32586Y25855D01*
G01X32585Y25847D01*
G01X32582Y25838D01*
G01X32577Y25827D01*
G01X32574Y25817D01*
G01X32572Y25813D01*
G01X32570Y25809D01*
G01X32568Y25806D01*
G01X32565Y25803D01*
G01X32562Y25802D01*
G01X32557Y25801D01*
G01X32542Y25800D01*
G01X32491Y25799D01*
G01X32424D01*
G01X32119D01*
G01X32105Y25794D01*
G01X32098Y25792D01*
G01X32090Y25790D01*
G01X32077Y25788D01*
G01X32061Y25786D01*
G01X32054Y25784D01*
G01X32053Y25783D01*
G01X32052D01*
G01X32050Y25782D01*
G01X32047D01*
G01X32022Y25780D01*
G01X31978D01*
G01X31912Y25782D01*
G01X31901D01*
G01X31895Y25784D01*
G01X31884Y25786D01*
G01X31863Y25790D01*
G01X31854Y25792D01*
G01X31833Y25799D01*
G01X31820Y25803D01*
G01X31797Y25814D01*
G01X31783Y25820D01*
G01X31773Y25826D01*
G01X31752Y25840D01*
G01X31739Y25850D01*
G01X31728Y25859D01*
G01X31724Y25863D01*
G01X31719Y25868D01*
G01X31712Y25877D01*
G01X31705Y25885D01*
G01X31703Y25888D01*
G01X31696Y25898D01*
G01X31680Y25925D01*
G01X31669Y25951D01*
G01X31663Y25964D01*
G01X31662Y25970D01*
G01X31660Y25981D01*
G01X31654Y26015D01*
G01X31653Y26026D01*
G01X31652Y26039D01*
G01X31365D01*
G01X31358Y26022D01*
G01X31352Y26007D01*
G01X31344Y25984D01*
G01X31335Y25959D01*
G01X31329Y25943D01*
G01X31322Y25928D01*
G01X31319Y25919D01*
G01X31315Y25905D01*
G01X31308Y25888D01*
G01X31301Y25872D01*
G01X31293Y25850D01*
G01X31284Y25825D01*
G01X31276Y25801D01*
G01X31275Y25797D01*
G01Y25788D01*
G01X31276Y25783D01*
G01X31279Y25772D01*
G01X31283Y25762D01*
G01X31287Y25753D01*
G01X31291Y25739D01*
G01X31295Y25730D01*
G01X31299Y25720D01*
G01X31302Y25710D01*
G01X31305Y25699D01*
G01X31308Y25692D01*
G01X31310Y25688D01*
G01X31315Y25677D01*
G01X31323Y25662D01*
G01X31326Y25656D01*
G01X31329Y25650D01*
G01X31334Y25644D01*
G01X31339Y25639D01*
G01X31344Y25634D01*
G01X31349Y25629D01*
G01X31355Y25626D01*
G01X31377Y25612D01*
G01X31382Y25609D01*
G01X31389Y25607D01*
G01X31400Y25604D01*
G01X31411Y25602D01*
G01X31423Y25601D01*
G01X31445Y25600D01*
G01X31468Y25601D01*
G01X31480Y25602D01*
G01X31488Y25604D01*
G01X31498Y25606D01*
G01X31518Y25609D01*
G01X31516Y25598D01*
G01X31515Y25589D01*
G01X31514Y25577D01*
G01X31513Y25569D01*
G01X31511Y25557D01*
G01X31510Y25548D01*
G01X31509Y25532D01*
G01X31508Y25526D01*
G01X31506Y25520D01*
G01X31505Y25510D01*
G01Y25500D01*
G01X31504Y25497D01*
G01X31503Y25494D01*
G01X31500Y25490D01*
G01X31497Y25489D01*
G01X31494Y25488D01*
G01X31484Y25486D01*
G01X31478Y25484D01*
G01X31473Y25482D01*
G01X31465Y25479D01*
G01X31456Y25477D01*
G01X31443Y25476D01*
G01X31415D01*
G01X31379D01*
G01X31366Y25477D01*
G01X31364Y25478D01*
G01X31343Y25485D01*
G01X31330Y25489D01*
G01X31313Y25498D01*
G01X31306Y25502D01*
G01X31282Y25519D01*
G01X31276Y25525D01*
G01X31268Y25535D01*
G01X31259Y25543D01*
G01X31257Y25545D01*
G01X31255Y25548D01*
G01X31252Y25555D01*
G01X31250Y25558D01*
G01X31248Y25561D01*
G01X31244Y25566D01*
G01X31239Y25573D01*
G01X31232Y25586D01*
G01X31225Y25597D01*
G01X31223Y25601D01*
G01X31215Y25620D01*
G01X31211Y25629D01*
G01X31204Y25638D01*
G01X31200Y25649D01*
G01X31191Y25672D01*
G01X31184Y25688D01*
G01X31178Y25700D01*
G01X31172Y25715D01*
G01X31168Y25728D01*
G01X31161Y25743D01*
G01X31157Y25753D01*
G01X31153Y25766D01*
G01X31147Y25780D01*
G01X31143Y25790D01*
G01X31139Y25803D01*
G01X31133Y25817D01*
G01X31130Y25827D01*
G01X31126Y25840D01*
G01X31119Y25854D01*
G01X31116Y25863D01*
G01X31111Y25878D01*
G01X31105Y25891D01*
G01X31102Y25902D01*
G01X31099Y25913D01*
G01X31097Y25920D01*
G01X31095Y25924D01*
G01X31092Y25929D01*
G01X31090Y25934D01*
G01X31088Y25939D01*
G01X31086Y25950D01*
G01X31083Y25957D01*
G01X31081Y25961D01*
G01X31078Y25966D01*
G01X31076Y25971D01*
G01X31074Y25976D01*
G01X31072Y25987D01*
G01X31069Y25994D01*
G01X31067Y25998D01*
G01X31064Y26004D01*
G01X31062Y26008D01*
G01X31060Y26013D01*
G01X31058Y26024D01*
G01X31055Y26031D01*
G01X31053Y26035D01*
G01X31050Y26041D01*
G01X31048Y26045D01*
G01X31046Y26050D01*
G01X31044Y26060D01*
G01X31041Y26068D01*
G01X31039Y26072D01*
G01X31036Y26077D01*
G01X31034Y26082D01*
G01X31033Y26087D01*
G01X31030Y26097D01*
G01X31028Y26105D01*
G01X31026Y26109D01*
G01X31022Y26114D01*
G01X31019Y26123D01*
G01X31016Y26135D01*
G01X31014Y26142D01*
G01X31012Y26146D01*
G01X31008Y26151D01*
G01X31006Y26155D01*
G01X31005Y26160D01*
G01X31002Y26172D01*
G01X31000Y26179D01*
G01X30998Y26183D01*
G01X30995Y26188D01*
G01X30993Y26192D01*
G01X30991Y26198D01*
G01X30989Y26208D01*
G01X30986Y26215D01*
G01X30984Y26219D01*
G01X30981Y26225D01*
G01X30979Y26230D01*
G01X30977Y26234D01*
G01X30975Y26245D01*
G01X30972Y26252D01*
G01X30970Y26256D01*
G01X30967Y26262D01*
G01X30965Y26266D01*
G01X30964Y26271D01*
G01X30961Y26282D01*
G01X30958Y26293D01*
G01X30952Y26305D01*
G01X30946Y26320D01*
G01X30938Y26343D01*
G01X30929Y26368D01*
G01X30923Y26384D01*
G01X30916Y26399D01*
G01X30908Y26422D01*
G01X30902Y26436D01*
G01X30899Y26445D01*
G01X30895Y26459D01*
G01X30888Y26473D01*
G01X30885Y26482D01*
G01X30881Y26496D01*
G01X30875Y26510D01*
G01X30871Y26519D01*
G01X30867Y26533D01*
G01X30860Y26547D01*
G01X30857Y26556D01*
G01X30853Y26569D01*
G01X30849Y26577D01*
G01X30709D01*
G01X30710Y26576D01*
G01X30712Y26569D01*
G01X30714Y26565D01*
G01X30717Y26559D01*
G01X30719Y26555D01*
G01X30721Y26549D01*
G01X30723Y26536D01*
G01X30725Y26530D01*
G01X30727Y26524D01*
G01X30731Y26514D01*
G01X30733Y26507D01*
G01X30735Y26500D01*
G01X30738Y26476D01*
G01X30742Y26462D01*
G01X30744Y26448D01*
G01X30745Y26438D01*
G01X30749Y26412D01*
G01X30750Y26402D01*
G01X30751Y26380D01*
G01X30752Y26328D01*
G01X30751Y26267D01*
G01X30750Y26255D01*
G01X30749Y26250D01*
G01X30748Y26241D01*
G01X30747Y26225D01*
G01X30746Y26218D01*
G01X30744Y26213D01*
G01X30742Y26201D01*
G01X30738Y26180D01*
G01X30736Y26171D01*
G01X30720Y26122D01*
G01X30712Y26100D01*
G01X30701Y26074D01*
G01X30698Y26065D01*
G01X30693Y26057D01*
G01X30687Y26047D01*
G01X30680Y26031D01*
G01X30677Y26025D01*
G01X30675Y26022D01*
G01X30671Y26018D01*
G01X30666Y26011D01*
G01X30662Y26002D01*
G01X30658Y25997D01*
G01X30650Y25986D01*
G01X30639Y25971D01*
G01X30634Y25964D01*
G01X30628Y25958D01*
G01X30622Y25953D01*
G01X30619Y25951D01*
G01X30617Y25948D01*
G01X30614Y25941D01*
G01X30612Y25938D01*
G01X30610Y25935D01*
G01X30603Y25930D01*
G01X30597Y25924D01*
G01X30592Y25918D01*
G01X30590Y25916D01*
G01X30587Y25914D01*
G01X30580Y25911D01*
G01X30577Y25909D01*
G01X30574Y25906D01*
G01X30569Y25899D01*
G01X30566Y25896D01*
G01X30562Y25894D01*
G01X30553Y25889D01*
G01X30548Y25885D01*
G01X30537Y25878D01*
G01X30529Y25871D01*
G01X30519Y25865D01*
G01X30508Y25859D01*
G01X30497Y25852D01*
G01X30492Y25850D01*
G01X30474Y25841D01*
G01X30465Y25837D01*
G01X30459Y25833D01*
G01X30455Y25831D01*
G01X30442Y25827D01*
G01X30430Y25822D01*
G01X30414Y25815D01*
G01X30404Y25811D01*
G01X30388Y25807D01*
G01X30375Y25802D01*
G01X30366Y25799D01*
G01X30359Y25798D01*
G01X30335Y25794D01*
G01X30320Y25791D01*
G01X30309Y25789D01*
G01X30288Y25785D01*
G01X30279Y25783D01*
G01X30276Y25782D01*
G01X30264Y25781D01*
G01X30196Y25780D01*
G01X30125Y25782D01*
G01X30114D01*
G01X30113Y25783D01*
G01X30109Y25784D01*
G01X30101Y25785D01*
G01X30087Y25786D01*
G01X30076Y25789D01*
G01X30064Y25791D01*
G01X30043Y25794D01*
G01X30034Y25796D01*
G01X29958Y25822D01*
G01X29945Y25827D01*
G01X29922Y25837D01*
G01X29906Y25844D01*
G01X29897Y25849D01*
G01X29887Y25854D01*
G01X29871Y25861D01*
G01X29866Y25864D01*
G01X29861Y25867D01*
G01X29849Y25875D01*
G01X29842Y25880D01*
G01X29831Y25886D01*
G01X29824Y25890D01*
G01X29809Y25900D01*
G01X29790Y25913D01*
G01X29775Y25923D01*
G01X29761Y25935D01*
G01X29754Y25940D01*
G01X29747Y25946D01*
G01X29745Y25949D01*
G01X29744Y25951D01*
G01Y25954D01*
G01X29743Y25964D01*
G01X29741Y26087D01*
G01X29740Y26154D01*
G01X29533D01*
G01Y25799D01*
G01X29385D01*
G01Y26242D01*
G01X29219D01*
G01X29054Y26244D01*
G01X29046D01*
G01X29045D01*
G01X29041Y26245D01*
G01X29035Y26246D01*
G01X29018Y26247D01*
G01X29004D01*
G01X28995Y26248D01*
G01X28986Y26250D01*
G01X28973Y26252D01*
G01X28949Y26256D01*
G01X28931Y26261D01*
G01X28915Y26264D01*
G01X28905Y26268D01*
G01X28891Y26274D01*
G01X28877Y26278D01*
G01X28868Y26281D01*
G01X28863Y26284D01*
G01X28838Y26297D01*
G01X28831Y26301D01*
G01X28807Y26318D01*
G01X28801Y26324D01*
G01X28793Y26334D01*
G01X28784Y26341D01*
G01X28778Y26347D01*
G01X28766Y26364D01*
G01X28755Y26377D01*
G01X28749Y26388D01*
G01X28743Y26399D01*
G01X28736Y26410D01*
G01X28734Y26414D01*
G01X28729Y26425D01*
G01X28720Y26447D01*
G01X28715Y26460D01*
G01X28711Y26475D01*
G01X28708Y26488D01*
G01X28705Y26500D01*
G01X28704Y26507D01*
G01X28699Y26545D01*
G01X28697Y26565D01*
G01Y26586D01*
G01X28521D01*
G01Y26563D01*
G01X28520Y26552D01*
G01X28517Y26541D01*
G01X28513Y26525D01*
G01X28510Y26518D01*
G01X28508Y26514D01*
G01X28505Y26508D01*
G01X28502Y26501D01*
G01X28499Y26492D01*
G01X28496Y26485D01*
G01X28485Y26468D01*
G01X28474Y26452D01*
G01X28469Y26445D01*
G01X28465Y26442D01*
G01X28460Y26438D01*
G01X28455Y26432D01*
G01X28447Y26423D01*
G01X28437Y26415D01*
G01X28431Y26409D01*
G01X28427Y26403D01*
G01X28424Y26400D01*
G01X28421Y26398D01*
G01X28414Y26396D01*
G01X28411Y26394D01*
G01X28408Y26392D01*
G01X28403Y26388D01*
G01X28396Y26383D01*
G01X28383Y26376D01*
G01X28372Y26369D01*
G01X28368Y26367D01*
G01X28341Y26355D01*
G01X28329Y26349D01*
G01X28313Y26344D01*
G01X28258Y26325D01*
G01X28248Y26322D01*
G01X28237Y26319D01*
G01X28224Y26317D01*
G01X28218Y26315D01*
G01X28212Y26313D01*
G01X28200Y26308D01*
G01X28193Y26307D01*
G01X28168Y26302D01*
G01X28159Y26300D01*
G01X28136Y26293D01*
G01X28123Y26290D01*
G01X28112Y26287D01*
G01X28096Y26285D01*
G01X28089Y26283D01*
G01X28080Y26280D01*
G01X28070Y26276D01*
G01X28064Y26274D01*
G01X28039Y26270D01*
G01X28029Y26268D01*
G01X27953Y26242D01*
G01X27944Y26239D01*
G01X27934Y26234D01*
G01X27925Y26228D01*
G01X27912Y26221D01*
G01X27906Y26218D01*
G01X27896Y26210D01*
G01X27890Y26205D01*
G01X27886Y26201D01*
G01X27881Y26196D01*
G01X27877Y26190D01*
G01X27871Y26184D01*
G01X27865Y26179D01*
G01X27862Y26176D01*
G01X27859Y26171D01*
G01X27853Y26158D01*
G01X27848Y26149D01*
G01X27846Y26146D01*
G01X27844Y26140D01*
G01X27842Y26134D01*
G01X27840Y26120D01*
G01X27838Y26101D01*
G01Y26076D01*
G01Y26065D01*
G01X27839Y26054D01*
G01X27841Y26048D01*
G01X27844Y26039D01*
G01X27848Y26030D01*
G01X27851Y26020D01*
G01X27854Y26014D01*
G01X27870Y25990D01*
G01X27875Y25984D01*
G01X27885Y25977D01*
G01X27891Y25970D01*
G01X27898Y25961D01*
G01X27901Y25960D01*
G01X27909Y25957D01*
G01X27917Y25952D01*
G01X27926Y25946D01*
G01X27931Y25943D01*
G01X27936Y25940D01*
G01X27942Y25937D01*
G01X27978Y25923D01*
G01X27993Y25919D01*
G01X28005Y25916D01*
G01X28017Y25913D01*
G01X28025Y25912D01*
G01X28057Y25907D01*
G01X28067Y25906D01*
G01X28097Y25905D01*
G01X28117D01*
G01X28153D01*
G01X28166Y25907D01*
G01X28172Y25909D01*
G01X28185Y25911D01*
G01X28209Y25914D01*
G01X28219Y25917D01*
G01X28240Y25923D01*
G01X28262Y25931D01*
G01X28274Y25936D01*
G01X28282Y25941D01*
G01X28297Y25949D01*
G01X28305Y25953D01*
G01X28316Y25958D01*
G01X28321Y25961D01*
G01X28325Y25964D01*
G01X28328Y25967D01*
G01X28330Y25970D01*
G01X28333Y25973D01*
G01X28336Y25975D01*
G01X28342Y25978D01*
G01X28345Y25980D01*
G01X28348Y25983D01*
G01X28353Y25989D01*
G01X28359Y25995D01*
G01X28365Y26000D01*
G01X28368Y26003D01*
G01X28371Y26007D01*
G01X28378Y26019D01*
G01X28381Y26024D01*
G01X28385Y26028D01*
G01X28390Y26036D01*
G01X28396Y26049D01*
G01X28400Y26058D01*
G01X28403Y26063D01*
G01X28405Y26068D01*
G01X28407Y26073D01*
G01X28410Y26088D01*
G01X28420Y26120D01*
G01X28423Y26131D01*
G01X28424Y26137D01*
G01X28425Y26145D01*
G01X28426Y26149D01*
G01X28431Y26152D01*
G01X28439Y26154D01*
G01X28450D01*
G01X28468D01*
G01X28479Y26153D01*
G01X28482Y26152D01*
G01X28487Y26151D01*
G01X28493Y26150D01*
G01X28510D01*
G01X28524Y26149D01*
G01X28533Y26148D01*
G01X28541Y26146D01*
G01X28549Y26145D01*
G01X28554D01*
G01X28558Y26144D01*
G01X28561Y26139D01*
G01X28562Y26131D01*
G01X28563Y26120D01*
G01X28562Y26101D01*
G01X28561Y26091D01*
G01X28559Y26084D01*
G01X28557Y26073D01*
G01X28555Y26060D01*
G01X28553Y26054D01*
G01X28547Y26039D01*
G01X28544Y26028D01*
G01X28541Y26017D01*
G01X28538Y26010D01*
G01X28536Y26006D01*
G01X28531Y25996D01*
G01X28523Y25978D01*
G01X28518Y25969D01*
G01X28500Y25941D01*
G01X28495Y25934D01*
G01X28487Y25924D01*
G01X28482Y25918D01*
G01X28476Y25912D01*
G01X28466Y25904D01*
G01X28459Y25895D01*
G01X28453Y25889D01*
G01X28443Y25882D01*
G01X28438Y25875D01*
G01X28436Y25872D01*
G01X28433Y25869D01*
G01X28430Y25867D01*
G01X28423Y25864D01*
G01X28415Y25860D01*
G01X28401Y25850D01*
G01X28390Y25842D01*
G01X28372Y25833D01*
G01X28359Y25828D01*
G01X28350Y25823D01*
G01X28344Y25820D01*
G01X28340Y25818D01*
G01X28335Y25816D01*
G01X28324Y25814D01*
G01X28314Y25810D01*
G01X28304Y25806D01*
G01X28299Y25804D01*
G01X28293Y25802D01*
G01X28274Y25799D01*
G01X28261Y25795D01*
G01X28249Y25793D01*
G01X28228Y25790D01*
G01X28211Y25785D01*
G01X28201Y25783D01*
G01X28197Y25782D01*
G01X28172Y25781D01*
G01X28108Y25780D01*
G01X28033Y25782D01*
G01X28022Y25783D01*
G01X28017Y25784D01*
G01X28009Y25785D01*
G01X27995Y25786D01*
G01X27980Y25790D01*
G01X27959Y25794D01*
G01X27930Y25803D01*
G01X27908Y25811D01*
G01X27882Y25822D01*
G01X27876Y25824D01*
G01X27866Y25830D01*
G01X27854Y25838D01*
G01X27847Y25842D01*
G01X27838Y25848D01*
G01X27833Y25851D01*
G01X27822Y25859D01*
G01X27807Y25870D01*
G01X27800Y25875D01*
G01X27794Y25881D01*
G01X27787Y25891D01*
G01X27777Y25898D01*
G01X27771Y25904D01*
G01X27757Y25923D01*
G01X27750Y25933D01*
G01X27729Y25966D01*
G01X27727Y25971D01*
G01X27723Y25981D01*
G01X27713Y26005D01*
G01X27708Y26017D01*
G01X27704Y26032D01*
G01X27701Y26045D01*
G01X27698Y26059D01*
G01X27697Y26069D01*
G01X27696Y26088D01*
G01X27695Y26117D01*
G01X27612D01*
G01Y25461D01*
G01X34220D01*
G01Y27175D01*
G37*
G36*
G01X29200Y26759D02*
G01X29016Y26758D01*
G01X29009Y26757D01*
G01X29005Y26756D01*
G01X28997Y26755D01*
G01X28984Y26754D01*
G01X28976Y26752D01*
G01X28958Y26746D01*
G01X28949Y26742D01*
G01X28940Y26737D01*
G01X28935Y26734D01*
G01X28916Y26722D01*
G01X28910Y26717D01*
G01X28902Y26708D01*
G01X28897Y26702D01*
G01X28890Y26697D01*
G01X28887Y26694D01*
G01X28885Y26691D01*
G01X28883Y26684D01*
G01X28879Y26678D01*
G01X28872Y26666D01*
G01X28861Y26640D01*
G01X28856Y26630D01*
G01X28855Y26625D01*
G01X28854Y26621D01*
G01Y26612D01*
G01X28852Y26603D01*
G01X28851Y26598D01*
G01X28850Y26587D01*
G01X28849Y26561D01*
G01X28850Y26537D01*
G01X28851Y26525D01*
G01X28854Y26514D01*
G01X28857Y26497D01*
G01X28861Y26487D01*
G01X28863Y26482D01*
G01X28872Y26464D01*
G01X28878Y26454D01*
G01X28886Y26443D01*
G01X28890Y26438D01*
G01X28895Y26433D01*
G01X28901Y26428D01*
G01X28906Y26425D01*
G01X28911Y26419D01*
G01X28916Y26412D01*
G01X28920Y26409D01*
G01X28923Y26407D01*
G01X28932Y26405D01*
G01X28940Y26401D01*
G01X28952Y26395D01*
G01X28963Y26390D01*
G01X28968Y26388D01*
G01X28974Y26386D01*
G01X28981Y26385D01*
G01X29000Y26380D01*
G01X29012Y26377D01*
G01X29024Y26375D01*
G01X29032Y26374D01*
G01X29044Y26372D01*
G01X29056D01*
G01X29075Y26371D01*
G01X29083Y26370D01*
G01X29087Y26369D01*
G01X29091D01*
G01X29149Y26367D01*
G01X29237D01*
G01X29374Y26368D01*
G01X29381Y26369D01*
G01X29382D01*
G01X29383D01*
G01Y26373D01*
G01X29385Y26565D01*
G01Y26759D01*
G37*
G36*
G01X32604Y26191D02*
G01X32604Y26136D01*
G01Y26087D01*
G01X32605Y26076D01*
G01X32606Y26074D01*
G01X32608Y26070D01*
G01X32610Y26058D01*
G01X32612Y26043D01*
G01X32614Y26036D01*
G01X32617Y26027D01*
G01X32623Y26013D01*
G01X32629Y25998D01*
G01X32632Y25993D01*
G01X32635Y25988D01*
G01X32650Y25967D01*
G01X32655Y25961D01*
G01X32665Y25953D01*
G01X32670Y25948D01*
G01X32676Y25941D01*
G01X32683Y25935D01*
G01X32694Y25929D01*
G01X32701Y25924D01*
G01X32710Y25918D01*
G01X32715Y25915D01*
G01X32726Y25910D01*
G01X32749Y25900D01*
G01X32762Y25896D01*
G01X32777Y25891D01*
G01X32788Y25888D01*
G01X32794Y25887D01*
G01X32807Y25886D01*
G01X32815Y25885D01*
G01X32821Y25884D01*
G01X32831Y25883D01*
G01X32853Y25882D01*
G01X32871D01*
G01X32879Y25883D01*
G01X32881Y25884D01*
G01X32882D01*
G01X32883D01*
G01X32885Y25885D01*
G01X32888Y25886D01*
G01X32900Y25887D01*
G01X32905D01*
G01X32911Y25888D01*
G01X32915Y25890D01*
G01X32927Y25895D01*
G01X32939Y25899D01*
G01X32944Y25901D01*
G01X32951Y25905D01*
G01X32957Y25910D01*
G01X32963Y25914D01*
G01X32967Y25918D01*
G01X32972Y25924D01*
G01X32976Y25929D01*
G01X32981Y25935D01*
G01X32988Y25940D01*
G01X32991Y25943D01*
G01X32993Y25947D01*
G01X32999Y25965D01*
G01X33002Y25973D01*
G01X33004Y25980D01*
G01X33005Y25989D01*
G01X33006Y26002D01*
G01Y26009D01*
G01X33005Y26026D01*
G01X33004Y26039D01*
G01X33002Y26046D01*
G01X32997Y26057D01*
G01X32994Y26064D01*
G01X32993Y26068D01*
G01X32990Y26073D01*
G01X32986Y26077D01*
G01X32982Y26083D01*
G01X32978Y26088D01*
G01X32974Y26092D01*
G01X32968Y26097D01*
G01X32952Y26108D01*
G01X32944Y26113D01*
G01X32934Y26117D01*
G01X32912Y26125D01*
G01X32898Y26130D01*
G01X32886Y26133D01*
G01X32865Y26136D01*
G01X32851Y26139D01*
G01X32837Y26142D01*
G01X32828Y26143D01*
G01X32802Y26146D01*
G01X32795Y26147D01*
G01X32740Y26157D01*
G01X32717Y26161D01*
G01X32701Y26165D01*
G01X32689Y26168D01*
G01X32674Y26172D01*
G01X32653Y26176D01*
G01X32647Y26178D01*
G01X32641Y26180D01*
G01X32631Y26184D01*
G01X32621Y26188D01*
G37*
G36*
G01X29320Y25141D02*
G01X29320Y24359D01*
G01X29437D01*
G01Y24743D01*
G01X29434Y25113D01*
G01X29433Y25126D01*
G01X29432Y25127D01*
G01X29422Y25131D01*
G01X29417Y25132D01*
G01X29405D01*
G01X29398Y25133D01*
G01X29394Y25134D01*
G01X29389Y25135D01*
G01X29377D01*
G01X29370Y25136D01*
G01X29366Y25137D01*
G01X29362Y25138D01*
G01X29349D01*
G01X29343Y25139D01*
G01X29338Y25140D01*
G01X29331Y25141D01*
G37*
G36*
G01X28695Y25141D02*
G01X28695Y24359D01*
G01X28812D01*
G01Y24743D01*
G01X28809Y25113D01*
G01X28808Y25126D01*
G01X28807Y25127D01*
G01X28797Y25131D01*
G01X28792Y25132D01*
G01X28780D01*
G01X28773Y25133D01*
G01X28769Y25134D01*
G01X28764Y25135D01*
G01X28752D01*
G01X28745Y25136D01*
G01X28737Y25138D01*
G01X28724D01*
G01X28717Y25139D01*
G01X28712Y25140D01*
G01X28706Y25141D01*
G37*
G36*
G01X27947Y25129D02*
G01X27947Y24821D01*
G01X27946Y24525D01*
G01X27945Y24499D01*
G01Y24493D01*
G01X27943Y24487D01*
G01X27942Y24482D01*
G01X27941Y24477D01*
G01X27939Y24474D01*
G01X27935Y24467D01*
G01X27933Y24464D01*
G01X27929Y24459D01*
G01X27924Y24454D01*
G01X27922Y24452D01*
G01X27918Y24450D01*
G01X27909Y24446D01*
G01X27897Y24441D01*
G01X27894Y24440D01*
G01X27891Y24439D01*
G01X27888D01*
G01X27880Y24438D01*
G01X27871Y24437D01*
G01X27864D01*
G01X27862Y24438D01*
G01X27859D01*
G01X27854Y24439D01*
G01X27837D01*
G01X27834Y24440D01*
G01X27825Y24442D01*
G01X27808Y24445D01*
G01X27804Y24446D01*
G01X27801Y24448D01*
G01X27792Y24451D01*
G01X27785Y24453D01*
G01X27782Y24454D01*
G01X27778Y24453D01*
G01X27776Y24452D01*
G01X27774Y24450D01*
G01X27773Y24449D01*
G01X27770Y24442D01*
G01X27768Y24436D01*
G01X27764Y24426D01*
G01X27761Y24418D01*
G01X27758Y24410D01*
G01X27757Y24403D01*
G01X27756Y24400D01*
G01X27754Y24397D01*
G01X27752Y24393D01*
G01X27751Y24391D01*
G01X27749Y24386D01*
G01X27748Y24380D01*
G01Y24377D01*
G01Y24376D01*
G01X27749Y24374D01*
G01X27750Y24373D01*
G01X27752Y24372D01*
G01X27756Y24370D01*
G01X27769Y24365D01*
G01X27784Y24359D01*
G01X27803Y24353D01*
G01X27816Y24350D01*
G01X27823Y24349D01*
G01X27826Y24348D01*
G01X27830Y24347D01*
G01X27841D01*
G01X27847Y24346D01*
G01X27851Y24345D01*
G01X27860Y24344D01*
G01X27885D01*
G01X27914D01*
G01X27920Y24345D01*
G01X27922D01*
G01X27925Y24346D01*
G01X27938Y24350D01*
G01X27951Y24353D01*
G01X27955Y24354D01*
G01X27959Y24355D01*
G01X27965Y24358D01*
G01X27980Y24364D01*
G01X27986Y24367D01*
G01X27991Y24370D01*
G01X27998Y24374D01*
G01X28000Y24376D01*
G01X28004Y24379D01*
G01X28010Y24384D01*
G01X28014Y24387D01*
G01X28019Y24394D01*
G01X28023Y24398D01*
G01X28026Y24400D01*
G01X28029Y24402D01*
G01X28032Y24406D01*
G01X28034Y24410D01*
G01X28043Y24424D01*
G01X28046Y24429D01*
G01X28051Y24440D01*
G01X28055Y24450D01*
G01X28057Y24456D01*
G01X28058Y24460D01*
G01X28060Y24470D01*
G01X28061Y24478D01*
G01X28062Y24481D01*
G01Y24484D01*
G01X28064Y24764D01*
G01Y25043D01*
G01X28230D01*
G01Y25129D01*
G37*
G36*
G01X29826Y25092D02*
G01X29810Y25091D01*
G01X29808Y25090D01*
G01X29801Y25089D01*
G01X29793Y25087D01*
G01X29787Y25086D01*
G01X29779D01*
G01X29775Y25085D01*
G01X29772Y25084D01*
G01X29756Y25078D01*
G01X29751Y25077D01*
G01X29745Y25076D01*
G01X29741D01*
G01X29738Y25075D01*
G01X29735Y25074D01*
G01X29727Y25070D01*
G01X29721Y25067D01*
G01X29710Y25062D01*
G01X29702Y25058D01*
G01X29699Y25057D01*
G01X29694Y25054D01*
G01X29691Y25050D01*
G01X29689Y25049D01*
G01X29686Y25048D01*
G01X29680Y25046D01*
G01X29678Y25045D01*
G01X29676Y25043D01*
G01X29674Y25041D01*
G01X29672Y25039D01*
G01X29670Y25037D01*
G01X29668Y25035D01*
G01X29662Y25032D01*
G01X29659Y25030D01*
G01X29657Y25028D01*
G01X29654Y25024D01*
G01X29650Y25021D01*
G01X29644Y25017D01*
G01X29642Y25015D01*
G01X29641Y25011D01*
G01X29638Y25007D01*
G01X29634Y25005D01*
G01X29631Y25001D01*
G01X29628Y24999D01*
G01X29625Y24995D01*
G01X29617Y24985D01*
G01X29614Y24979D01*
G01X29604Y24963D01*
G01X29601Y24956D01*
G01X29599Y24952D01*
G01X29596Y24948D01*
G01X29594Y24946D01*
G01X29593Y24944D01*
G01X29592Y24938D01*
G01X29590Y24935D01*
G01X29588Y24931D01*
G01X29584Y24923D01*
G01X29581Y24916D01*
G01X29578Y24908D01*
G01X29575Y24901D01*
G01X29573Y24899D01*
G01X29572Y24893D01*
G01X29570Y24884D01*
G01X29569Y24880D01*
G01X29568Y24877D01*
G01X29566Y24873D01*
G01X29564Y24867D01*
G01X29562Y24859D01*
G01X29558Y24844D01*
G01X29557Y24837D01*
G01X29555Y24831D01*
G01X29554Y24826D01*
G01Y24816D01*
G01X29553Y24810D01*
G01X29552Y24804D01*
G01X29551Y24797D01*
G01X29548Y24789D01*
G01Y24783D01*
G01X29547Y24764D01*
G01Y24760D01*
G01X29546Y24757D01*
G01X29545Y24752D01*
G01X29544Y24740D01*
G01Y24732D01*
G01X29543Y24730D01*
G01Y24729D01*
G01X29542Y24724D01*
G01Y24644D01*
G01Y24582D01*
G01X29543Y24560D01*
G01Y24558D01*
G01Y24557D01*
G01X29544Y24552D01*
G01X29545Y24539D01*
G01Y24533D01*
G01X29546Y24530D01*
G01X29547Y24528D01*
G01Y24520D01*
G01X29548Y24492D01*
G01Y24482D01*
G01X29549Y24477D01*
G01X29551Y24471D01*
G01X29553Y24464D01*
G01Y24460D01*
G01X29554Y24447D01*
G01X29555Y24440D01*
G01X29557Y24431D01*
G01X29560Y24414D01*
G01X29561Y24406D01*
G01X29563Y24398D01*
G01X29569Y24376D01*
G01X29572Y24366D01*
G01X29575Y24358D01*
G01X29578Y24352D01*
G01X29581Y24344D01*
G01X29588Y24332D01*
G01X29591Y24326D01*
G01X29596Y24318D01*
G01X29600Y24309D01*
G01X29601Y24307D01*
G01X29603Y24305D01*
G01X29607Y24302D01*
G01X29611Y24298D01*
G01X29616Y24292D01*
G01X29620Y24288D01*
G01X29632Y24281D01*
G01X29638Y24277D01*
G01X29646Y24273D01*
G01X29652Y24270D01*
G01X29659Y24268D01*
G01X29672Y24265D01*
G01X29691Y24262D01*
G01X29696D01*
G01X29703D01*
G01X29705D01*
G01X29707Y24263D01*
G01X29711Y24264D01*
G01X29724Y24266D01*
G01X29731Y24268D01*
G01X29746Y24273D01*
G01X29750Y24274D01*
G01X29755Y24277D01*
G01X29757Y24279D01*
G01X29761Y24282D01*
G01X29766Y24286D01*
G01X29769Y24289D01*
G01X29776Y24297D01*
G01X29781Y24302D01*
G01X29786Y24305D01*
G01X29788Y24308D01*
G01X29789Y24310D01*
G01X29794Y24319D01*
G01X29800Y24328D01*
G01X29802Y24335D01*
G01X29804Y24337D01*
G01X29805Y24339D01*
G01X29807Y24341D01*
G01X29808Y24344D01*
G01X29809Y24346D01*
G01X29812Y24355D01*
G01X29814Y24362D01*
G01X29817Y24368D01*
G01X29818Y24371D01*
G01X29819Y24374D01*
G01Y24379D01*
G01X29820Y24385D01*
G01Y24389D01*
G01X29822Y24393D01*
G01X29823Y24397D01*
G01X29825Y24400D01*
G01X29826Y24402D01*
G01X29828Y24404D01*
G01X29830D01*
G01X29831Y24403D01*
G01X29832Y24402D01*
G01Y24401D01*
G01X29837Y24391D01*
G01X29840Y24386D01*
G01X29847Y24376D01*
G01X29851Y24370D01*
G01X29856Y24365D01*
G01X29860Y24359D01*
G01X29864Y24355D01*
G01X29870Y24349D01*
G01X29875Y24343D01*
G01X29880Y24339D01*
G01X29884Y24336D01*
G01X29890Y24331D01*
G01X29892Y24329D01*
G01X29897Y24327D01*
G01X29906Y24323D01*
G01X29914Y24319D01*
G01X29921Y24316D01*
G01X29928Y24314D01*
G01X29947Y24311D01*
G01X29951D01*
G01X29959Y24309D01*
G01X29964Y24308D01*
G01X29969D01*
G01X29973D01*
G01X29985Y24312D01*
G01X29989D01*
G01X29999Y24313D01*
G01X30006D01*
G01X30011Y24314D01*
G01X30022Y24317D01*
G01X30028Y24321D01*
G01X30042Y24327D01*
G01X30048Y24330D01*
G01X30050Y24332D01*
G01X30055Y24336D01*
G01X30064Y24341D01*
G01X30067Y24344D01*
G01X30069Y24346D01*
G01X30073Y24350D01*
G01X30077Y24355D01*
G01X30080Y24357D01*
G01X30082Y24359D01*
G01X30086Y24363D01*
G01X30088Y24367D01*
G01X30097Y24382D01*
G01X30101Y24388D01*
G01X30105Y24396D01*
G01X30108Y24403D01*
G01X30111Y24411D01*
G01X30115Y24422D01*
G01X30118Y24428D01*
G01X30119Y24431D01*
G01X30120Y24435D01*
G01Y24438D01*
G01Y24442D01*
G01X30121Y24445D01*
G01X30122Y24449D01*
G01X30124Y24453D01*
G01X30125Y24457D01*
G01X30126Y24463D01*
G01X30127Y24473D01*
G01X30128Y24480D01*
G01X30129Y24484D01*
G01X30130Y24486D01*
G01Y24488D01*
G01X30131Y24494D01*
G01X30132Y24503D01*
G01X30133Y24549D01*
G01X30132Y24593D01*
G01X30131Y24605D01*
G01X30130Y24609D01*
G01X30129Y24612D01*
G01Y24613D01*
G01X30128Y24617D01*
G01X30127Y24624D01*
G01X30126Y24630D01*
G01Y24638D01*
G01X30125Y24643D01*
G01X30124Y24646D01*
G01X30123Y24648D01*
G01X30121Y24651D01*
G01X30120Y24657D01*
G01X30117Y24673D01*
G01X30116Y24677D01*
G01X30114Y24681D01*
G01X30102Y24712D01*
G01X30100Y24716D01*
G01X30097Y24721D01*
G01X30094Y24727D01*
G01X30086Y24740D01*
G01X30085Y24742D01*
G01X30074Y24755D01*
G01X30067Y24765D01*
G01X30064Y24769D01*
G01X30061Y24772D01*
G01X30054Y24778D01*
G01X30048Y24781D01*
G01X30045Y24783D01*
G01X30044Y24785D01*
G01X30040Y24789D01*
G01X30039Y24791D01*
G01X30036Y24793D01*
G01X30023Y24800D01*
G01X30017Y24803D01*
G01X30012Y24805D01*
G01X30003Y24808D01*
G01X29998Y24810D01*
G01X29993Y24813D01*
G01X29991Y24814D01*
G01X29988Y24815D01*
G01X29982D01*
G01X29979Y24816D01*
G01X29976D01*
G01X29972Y24818D01*
G01X29970Y24819D01*
G01X29963Y24820D01*
G01X29954D01*
G01X29928Y24821D01*
G01X29892Y24820D01*
G01X29884D01*
G01X29882Y24819D01*
G01X29875Y24818D01*
G01X29867Y24816D01*
G01X29860Y24815D01*
G01X29851D01*
G01X29848Y24814D01*
G01X29844Y24813D01*
G01X29840Y24811D01*
G01X29838Y24810D01*
G01X29833Y24808D01*
G01X29826Y24806D01*
G01X29820Y24805D01*
G01X29814Y24803D01*
G01X29799Y24796D01*
G01X29792Y24793D01*
G01X29785Y24789D01*
G01X29779Y24786D01*
G01X29772Y24784D01*
G01X29763Y24781D01*
G01Y24615D01*
G01Y24598D01*
G01X29865D01*
G01Y24678D01*
G01X29867Y24721D01*
G01X29868Y24728D01*
G01X29869Y24730D01*
G01X29872Y24731D01*
G01X29881Y24736D01*
G01X29884Y24737D01*
G01X29887Y24738D01*
G01X29898Y24739D01*
G01X29903Y24740D01*
G01X29909Y24741D01*
G01X29916D01*
G01X29925D01*
G01X29928Y24740D01*
G01X29933Y24739D01*
G01X29939Y24738D01*
G01X29948D01*
G01X29953Y24736D01*
G01X29966Y24731D01*
G01X29970Y24730D01*
G01X29974Y24728D01*
G01X29977Y24726D01*
G01X29980Y24722D01*
G01X29984Y24718D01*
G01X29988Y24715D01*
G01X29990Y24713D01*
G01X29993Y24709D01*
G01X29996Y24706D01*
G01X29999Y24700D01*
G01X30003Y24692D01*
G01X30006Y24685D01*
G01X30009Y24677D01*
G01X30013Y24663D01*
G01X30015Y24650D01*
G01X30016Y24644D01*
G01X30018Y24639D01*
G01Y24632D01*
G01X30019Y24615D01*
G01Y24605D01*
G01X30020Y24599D01*
G01Y24597D01*
G01X30021Y24596D01*
G01Y24589D01*
G01X30022Y24556D01*
G01X30021Y24523D01*
G01Y24516D01*
G01X30020Y24515D01*
G01Y24512D01*
G01X30019Y24506D01*
G01X30018Y24489D01*
G01X30017Y24474D01*
G01X30015Y24459D01*
G01X30013Y24451D01*
G01X30010Y24440D01*
G01X30008Y24433D01*
G01X30005Y24427D01*
G01X29999Y24416D01*
G01X29996Y24412D01*
G01X29992Y24406D01*
G01X29987Y24402D01*
G01X29982Y24398D01*
G01X29977Y24395D01*
G01X29974Y24394D01*
G01X29968Y24393D01*
G01X29961D01*
G01X29959Y24392D01*
G01X29956Y24391D01*
G01X29954D01*
G01X29952D01*
G01X29947Y24392D01*
G01X29941Y24393D01*
G01X29933D01*
G01X29930Y24394D01*
G01X29926Y24395D01*
G01X29920Y24398D01*
G01X29908Y24402D01*
G01X29905Y24403D01*
G01X29903Y24405D01*
G01X29896Y24413D01*
G01X29892Y24417D01*
G01X29890Y24419D01*
G01X29888Y24421D01*
G01X29885Y24427D01*
G01X29882Y24431D01*
G01X29876Y24439D01*
G01X29875Y24442D01*
G01X29873Y24446D01*
G01X29871Y24454D01*
G01X29869Y24460D01*
G01X29868Y24462D01*
G01Y24463D01*
G01X29867Y24464D01*
G01Y24467D01*
G01X29866Y24477D01*
G01X29865Y24598D01*
G01X29763D01*
G01X29762Y24443D01*
G01Y24438D01*
G01X29759Y24425D01*
G01X29758Y24420D01*
G01X29757Y24413D01*
G01Y24406D01*
G01X29756Y24401D01*
G01X29755Y24397D01*
G01X29754Y24392D01*
G01X29753Y24386D01*
G01X29748Y24377D01*
G01X29746Y24373D01*
G01X29741Y24366D01*
G01X29738Y24362D01*
G01X29735Y24359D01*
G01X29729Y24354D01*
G01X29726Y24353D01*
G01X29715Y24350D01*
G01X29708Y24348D01*
G01X29705Y24347D01*
G01X29702D01*
G01X29697Y24348D01*
G01X29693Y24349D01*
G01X29690Y24350D01*
G01X29681Y24355D01*
G01X29678Y24357D01*
G01X29673Y24362D01*
G01X29671Y24365D01*
G01X29664Y24379D01*
G01X29663Y24382D01*
G01X29662Y24389D01*
G01Y24393D01*
G01X29661Y24396D01*
G01X29660Y24399D01*
G01X29658Y24404D01*
G01X29657Y24407D01*
G01X29656Y24413D01*
G01X29655Y24422D01*
G01X29654Y24431D01*
G01X29651Y24444D01*
G01X29650Y24449D01*
G01Y24456D01*
G01X29649Y24484D01*
G01Y24514D01*
G01X29648Y24519D01*
G01Y24521D01*
G01X29647Y24522D01*
G01Y24528D01*
G01X29646Y24613D01*
G01Y24667D01*
G01X29647Y24703D01*
G01X29648Y24706D01*
G01Y24708D01*
G01X29649Y24715D01*
G01Y24728D01*
G01Y24733D01*
G01X29650Y24749D01*
G01X29651Y24758D01*
G01Y24763D01*
G01X29653Y24771D01*
G01X29655Y24776D01*
G01Y24781D01*
G01X29656Y24789D01*
G01Y24799D01*
G01X29657Y24803D01*
G01Y24807D01*
G01X29659Y24814D01*
G01X29660Y24820D01*
G01X29662Y24826D01*
G01X29664Y24844D01*
G01X29665Y24850D01*
G01X29666Y24855D01*
G01X29669Y24862D01*
G01X29675Y24879D01*
G01X29680Y24894D01*
G01X29682Y24899D01*
G01X29686Y24907D01*
G01X29693Y24921D01*
G01X29698Y24928D01*
G01X29704Y24937D01*
G01X29707Y24940D01*
G01X29708Y24943D01*
G01X29710Y24948D01*
G01X29711Y24949D01*
G01X29713Y24951D01*
G01X29720Y24954D01*
G01X29722Y24956D01*
G01X29723Y24958D01*
G01X29727Y24962D01*
G01X29731Y24966D01*
G01X29737Y24970D01*
G01X29742Y24975D01*
G01X29752Y24981D01*
G01X29763Y24987D01*
G01X29773Y24991D01*
G01X29778Y24994D01*
G01X29785Y24996D01*
G01X29793Y24998D01*
G01X29808Y25001D01*
G01X29815Y25003D01*
G01X29822Y25004D01*
G01X29830Y25005D01*
G01X29857Y25006D01*
G01X29887Y25005D01*
G01X29892Y25004D01*
G01X29894D01*
G01X29900Y25003D01*
G01X29911Y25001D01*
G01X29917Y25000D01*
G01X29931Y24998D01*
G01X29935Y24997D01*
G01X29950Y24994D01*
G01X29967Y24988D01*
G01X29979Y24985D01*
G01X29984Y24982D01*
G01X29991Y24978D01*
G01X30000Y24976D01*
G01X30002Y24974D01*
G01X30005Y24973D01*
G01X30007Y24971D01*
G01X30010Y24970D01*
G01X30014Y24967D01*
G01X30021Y24964D01*
G01X30032Y24958D01*
G01X30040Y24953D01*
G01X30048Y24947D01*
G01X30055Y24942D01*
G01X30065Y24936D01*
G01X30070Y24933D01*
G01X30077Y24927D01*
G01X30085Y24919D01*
G01X30088Y24917D01*
G01X30091Y24915D01*
G01X30094Y24914D01*
G01X30096Y24915D01*
G01X30099Y24917D01*
G01X30104Y24919D01*
G01X30108Y24923D01*
G01X30110Y24926D01*
G01X30113Y24932D01*
G01X30115Y24934D01*
G01X30117Y24936D01*
G01X30119Y24938D01*
G01X30123Y24941D01*
G01X30126Y24946D01*
G01X30131Y24952D01*
G01X30136Y24957D01*
G01X30141Y24963D01*
G01X30144Y24967D01*
G01X30148Y24970D01*
G01X30150Y24972D01*
G01Y24976D01*
G01X30149Y24978D01*
G01X30147Y24980D01*
G01X30146Y24981D01*
G01X30141Y24983D01*
G01X30139Y24985D01*
G01X30138Y24986D01*
G01X30134Y24991D01*
G01X30130Y24995D01*
G01X30126Y24998D01*
G01X30119Y25003D01*
G01X30115Y25007D01*
G01X30103Y25014D01*
G01X30101Y25016D01*
G01X30097Y25020D01*
G01X30095Y25021D01*
G01X30092Y25022D01*
G01X30087Y25024D01*
G01X30084Y25025D01*
G01X30082Y25027D01*
G01X30080Y25029D01*
G01X30079Y25031D01*
G01X30076Y25033D01*
G01X30073Y25035D01*
G01X30066Y25038D01*
G01X30060Y25041D01*
G01X30058Y25043D01*
G01X30056Y25045D01*
G01X30052Y25047D01*
G01X30043Y25051D01*
G01X30031Y25057D01*
G01X30020Y25061D01*
G01X30005Y25067D01*
G01X29993Y25072D01*
G01X29956Y25083D01*
G01X29948Y25084D01*
G01X29931Y25087D01*
G01X29924Y25089D01*
G01X29918Y25091D01*
G01X29910D01*
G01X29865Y25092D01*
G37*
G36*
G01X30507Y25089D02*
G01X30505Y25088D01*
G01X30502Y25087D01*
G01X30492Y25083D01*
G01X30484Y25079D01*
G01X30473Y25076D01*
G01X30461Y25070D01*
G01X30453Y25067D01*
G01X30442Y25063D01*
G01X30431Y25058D01*
G01X30422Y25055D01*
G01X30413Y25052D01*
G01X30418Y25039D01*
G01X30425Y25024D01*
G01X30428Y25015D01*
G01X30430Y25010D01*
G01X30434Y25002D01*
G01X30437Y24994D01*
G01X30439Y24988D01*
G01X30441Y24984D01*
G01X30444Y24978D01*
G01X30446Y24972D01*
G01X30451Y24962D01*
G01X30455Y24953D01*
G01X30459Y24943D01*
G01X30471Y24912D01*
G01X30473Y24906D01*
G01X30480Y24892D01*
G01X30483Y24883D01*
G01X30485Y24877D01*
G01X30490Y24870D01*
G01X30492Y24861D01*
G01X30500Y24846D01*
G01X30502Y24840D01*
G01X30506Y24829D01*
G01X30510Y24821D01*
G01X30515Y24810D01*
G01X30527Y24779D01*
G01X30529Y24774D01*
G01X30535Y24759D01*
G01X30538Y24750D01*
G01X30540Y24745D01*
G01X30545Y24738D01*
G01X30548Y24729D01*
G01X30550Y24723D01*
G01X30552Y24720D01*
G01X30555Y24713D01*
G01X30558Y24707D01*
G01X30561Y24697D01*
G01X30565Y24688D01*
G01X30570Y24678D01*
G01X30582Y24647D01*
G01X30585Y24642D01*
G01X30590Y24630D01*
G01X30592Y24624D01*
G01X30594Y24615D01*
G01X30419D01*
G01Y24627D01*
G01Y24637D01*
G01X30418Y24645D01*
G01X30417Y24649D01*
G01X30416Y24654D01*
G01Y24664D01*
G01X30415Y24677D01*
G01Y24681D01*
G01X30414Y24686D01*
G01X30413Y24693D01*
G01Y24710D01*
G01X30412Y24719D01*
G01Y24724D01*
G01X30411Y24727D01*
G01Y24729D01*
G01X30410Y24736D01*
G01Y24753D01*
G01X30409Y24762D01*
G01X30408Y24769D01*
G01Y24771D01*
G01X30407Y24775D01*
G01Y24780D01*
G01Y24806D01*
G01X30305D01*
G01Y24615D01*
G01X30222D01*
G01Y24522D01*
G01X30305D01*
G01Y24359D01*
G01X30419D01*
G01Y24522D01*
G01X30718D01*
G01Y24562D01*
G01X30717Y24598D01*
G01X30716Y24605D01*
G01Y24607D01*
G01X30715Y24610D01*
G01X30712Y24621D01*
G01X30710Y24626D01*
G01X30706Y24633D01*
G01X30703Y24642D01*
G01X30700Y24648D01*
G01X30696Y24655D01*
G01X30694Y24664D01*
G01X30691Y24669D01*
G01X30687Y24677D01*
G01X30684Y24685D01*
G01X30682Y24691D01*
G01X30678Y24698D01*
G01X30675Y24707D01*
G01X30673Y24712D01*
G01X30671Y24716D01*
G01X30667Y24722D01*
G01X30665Y24728D01*
G01X30661Y24739D01*
G01X30658Y24747D01*
G01X30653Y24758D01*
G01X30647Y24773D01*
G01X30645Y24779D01*
G01X30639Y24790D01*
G01X30634Y24801D01*
G01X30628Y24816D01*
G01X30626Y24822D01*
G01X30621Y24834D01*
G01X30616Y24844D01*
G01X30604Y24875D01*
G01X30601Y24880D01*
G01X30596Y24892D01*
G01X30591Y24903D01*
G01X30585Y24918D01*
G01X30583Y24923D01*
G01X30578Y24935D01*
G01X30573Y24946D01*
G01X30567Y24961D01*
G01X30564Y24967D01*
G01X30558Y24981D01*
G01X30555Y24990D01*
G01X30553Y24996D01*
G01X30549Y25003D01*
G01X30546Y25012D01*
G01X30544Y25017D01*
G01X30539Y25025D01*
G01X30537Y25033D01*
G01X30534Y25039D01*
G01X30532Y25042D01*
G01X30529Y25048D01*
G01X30524Y25063D01*
G01X30522Y25066D01*
G01X30520Y25070D01*
G01X30517Y25077D01*
G01X30515Y25085D01*
G01X30514Y25087D01*
G01X30512Y25088D01*
G01X30510Y25089D01*
G37*
G36*
G01X33362Y25076D02*
G01X33325Y25076D01*
G01X33310Y25075D01*
G01X33304Y25074D01*
G01X33302Y25073D01*
G01X33301Y25072D01*
G01Y25069D01*
G01Y25067D01*
G01X33302Y25064D01*
G01X33307Y25055D01*
G01X33309Y25043D01*
G01X33312Y25037D01*
G01X33315Y25030D01*
G01X33316Y25027D01*
G01X33317Y25023D01*
G01X33319Y25013D01*
G01X33320Y25009D01*
G01X33321Y25006D01*
G01X33322Y25003D01*
G01X33325Y24996D01*
G01X33328Y24985D01*
G01X33330Y24978D01*
G01X33333Y24972D01*
G01X33334Y24968D01*
G01X33335Y24964D01*
G01X33337Y24955D01*
G01X33338Y24951D01*
G01X33340Y24947D01*
G01X33341Y24944D01*
G01X33344Y24938D01*
G01X33346Y24927D01*
G01X33349Y24919D01*
G01X33351Y24913D01*
G01X33353Y24909D01*
G01X33354Y24905D01*
G01X33355Y24897D01*
G01X33356Y24893D01*
G01X33358Y24889D01*
G01X33361Y24882D01*
G01X33363Y24876D01*
G01X33366Y24865D01*
G01X33370Y24855D01*
G01X33372Y24848D01*
G01X33375Y24836D01*
G01X33378Y24827D01*
G01X33396Y24771D01*
G01X33398Y24760D01*
G01X33401Y24753D01*
G01X33405Y24744D01*
G01X33408Y24732D01*
G01X33410Y24725D01*
G01X33413Y24719D01*
G01X33414Y24716D01*
G01X33415Y24712D01*
G01X33417Y24703D01*
G01X33418Y24698D01*
G01X33419Y24695D01*
G01X33421Y24692D01*
G01X33423Y24685D01*
G01X33426Y24674D01*
G01X33428Y24667D01*
G01X33431Y24661D01*
G01X33432Y24657D01*
G01X33434Y24653D01*
G01X33436Y24644D01*
G01X33437Y24640D01*
G01X33438Y24636D01*
G01X33439Y24633D01*
G01X33442Y24627D01*
G01X33445Y24616D01*
G01X33447Y24609D01*
G01X33450Y24602D01*
G01X33451Y24598D01*
G01X33452Y24594D01*
G01X33454Y24586D01*
G01X33455Y24582D01*
G01X33458Y24575D01*
G01X33460Y24568D01*
G01X33466Y24550D01*
G01X33469Y24544D01*
G01X33470Y24540D01*
G01X33471Y24536D01*
G01X33473Y24527D01*
G01X33474Y24523D01*
G01X33475Y24520D01*
G01X33478Y24513D01*
G01X33480Y24506D01*
G01X33483Y24495D01*
G01X33487Y24485D01*
G01X33489Y24478D01*
G01X33492Y24466D01*
G01X33494Y24458D01*
G01X33513Y24401D01*
G01X33515Y24395D01*
G01X33517Y24387D01*
G01X33521Y24377D01*
G01X33523Y24371D01*
G01X33525Y24359D01*
G01X33596D01*
G01X33640Y24360D01*
G01X33658Y24362D01*
G01X33664Y24363D01*
G01X33667Y24364D01*
G01X33669Y24365D01*
G01X33671Y24371D01*
G01X33675Y24381D01*
G01X33676Y24385D01*
G01X33677Y24389D01*
G01X33679Y24397D01*
G01X33681Y24405D01*
G01X33682Y24408D01*
G01X33685Y24415D01*
G01X33688Y24426D01*
G01X33690Y24433D01*
G01X33693Y24439D01*
G01X33695Y24443D01*
G01X33696Y24447D01*
G01X33697Y24456D01*
G01X33698Y24460D01*
G01X33700Y24464D01*
G01X33702Y24470D01*
G01X33705Y24477D01*
G01X33707Y24488D01*
G01X33712Y24498D01*
G01X33714Y24505D01*
G01X33717Y24517D01*
G01X33720Y24525D01*
G01X33738Y24582D01*
G01X33740Y24592D01*
G01X33743Y24599D01*
G01X33747Y24609D01*
G01X33749Y24620D01*
G01X33755Y24633D01*
G01X33756Y24637D01*
G01X33757Y24641D01*
G01X33759Y24650D01*
G01X33760Y24654D01*
G01X33761Y24658D01*
G01X33763Y24661D01*
G01X33765Y24667D01*
G01X33768Y24679D01*
G01X33770Y24685D01*
G01X33773Y24692D01*
G01X33774Y24695D01*
G01X33775Y24699D01*
G01X33777Y24709D01*
G01X33778Y24713D01*
G01X33779Y24716D01*
G01X33781Y24719D01*
G01X33784Y24726D01*
G01X33787Y24737D01*
G01X33789Y24744D01*
G01X33792Y24750D01*
G01X33793Y24754D01*
G01X33794Y24758D01*
G01X33796Y24767D01*
G01X33797Y24771D01*
G01X33798Y24775D01*
G01X33799Y24778D01*
G01X33802Y24784D01*
G01X33805Y24795D01*
G01X33807Y24803D01*
G01X33810Y24809D01*
G01X33811Y24812D01*
G01X33812Y24816D01*
G01X33814Y24825D01*
G01X33816Y24830D01*
G01X33817Y24833D01*
G01X33820Y24840D01*
G01X33822Y24846D01*
G01X33825Y24857D01*
G01X33829Y24867D01*
G01X33831Y24874D01*
G01X33834Y24886D01*
G01X33836Y24895D01*
G01X33855Y24951D01*
G01X33857Y24962D01*
G01X33860Y24969D01*
G01X33864Y24978D01*
G01X33866Y24990D01*
G01X33869Y24996D01*
G01X33872Y25003D01*
G01X33873Y25006D01*
G01X33874Y25010D01*
G01X33876Y25020D01*
G01X33877Y25024D01*
G01X33878Y25027D01*
G01X33880Y25030D01*
G01X33882Y25037D01*
G01X33885Y25048D01*
G01X33887Y25055D01*
G01X33890Y25061D01*
G01X33891Y25064D01*
G01X33892Y25067D01*
G01Y25071D01*
G01X33891D01*
G01X33890Y25072D01*
G01X33889Y25073D01*
G01X33886D01*
G01X33877Y25075D01*
G01X33865Y25076D01*
G01X33829D01*
G01X33790D01*
G01X33773Y25075D01*
G01X33768Y25074D01*
G01X33764Y25073D01*
G01X33763Y25072D01*
G01X33762Y25071D01*
G01X33761Y25068D01*
G01X33759Y25063D01*
G01X33756Y25052D01*
G01X33754Y25043D01*
G01X33747Y25024D01*
G01X33744Y25008D01*
G01X33741Y25000D01*
G01X33735Y24980D01*
G01X33732Y24969D01*
G01X33729Y24955D01*
G01X33698Y24847D01*
G01X33692Y24826D01*
G01X33689Y24811D01*
G01X33685Y24803D01*
G01X33679Y24783D01*
G01X33677Y24771D01*
G01X33675Y24762D01*
G01X33672Y24756D01*
G01X33670Y24748D01*
G01X33668Y24740D01*
G01X33666Y24732D01*
G01X33664Y24725D01*
G01X33658Y24706D01*
G01X33654Y24691D01*
G01X33652Y24682D01*
G01X33645Y24663D01*
G01X33643Y24650D01*
G01X33642Y24646D01*
G01X33641Y24643D01*
G01X33638Y24636D01*
G01X33637Y24632D01*
G01X33636Y24628D01*
G01X33634Y24619D01*
G01X33632Y24613D01*
G01X33630Y24605D01*
G01X33624Y24586D01*
G01X33620Y24571D01*
G01X33618Y24562D01*
G01X33612Y24543D01*
G01X33608Y24528D01*
G01X33606Y24519D01*
G01X33600Y24500D01*
G01X33598Y24492D01*
G01X33596Y24485D01*
G01X33593Y24484D01*
G01Y24485D01*
G01X33592D01*
G01X33589Y24489D01*
G01X33587Y24496D01*
G01X33525Y24712D01*
G01X33519Y24732D01*
G01X33516Y24747D01*
G01X33513Y24756D01*
G01X33507Y24776D01*
G01X33504Y24790D01*
G01X33501Y24800D01*
G01X33494Y24819D01*
G01X33491Y24834D01*
G01X33488Y24843D01*
G01X33482Y24862D01*
G01X33479Y24877D01*
G01X33476Y24885D01*
G01X33470Y24905D01*
G01X33467Y24920D01*
G01X33464Y24929D01*
G01X33458Y24948D01*
G01X33454Y24963D01*
G01X33452Y24972D01*
G01X33445Y24991D01*
G01X33442Y25006D01*
G01X33439Y25015D01*
G01X33433Y25035D01*
G01X33430Y25047D01*
G01X33429Y25051D01*
G01X33428Y25055D01*
G01X33426Y25060D01*
G01X33425Y25063D01*
G01X33424Y25069D01*
G01Y25071D01*
G01X33423D01*
G01Y25072D01*
G01X33420Y25073D01*
G01X33415Y25074D01*
G01X33410Y25075D01*
G01X33397Y25076D01*
G37*
G36*
G01X31623Y25076D02*
G01X31623Y24449D01*
G01X31481D01*
G01Y24359D01*
G01X31915D01*
G01Y24449D01*
G01X31740D01*
G01Y24701D01*
G01X31742Y24937D01*
G01X31743Y24948D01*
G01X31744Y24951D01*
G01Y24952D01*
G01X31745Y24951D01*
G01X31752Y24949D01*
G01X31757Y24946D01*
G01X31772Y24936D01*
G01X31797Y24921D01*
G01X31812Y24912D01*
G01X31837Y24897D01*
G01X31867Y24878D01*
G01X31875Y24873D01*
G01X31886Y24866D01*
G01X31891Y24864D01*
G01X31894Y24863D01*
G01X31897Y24862D01*
G01X31899Y24863D01*
G01X31901Y24864D01*
G01X31903Y24866D01*
G01X31921Y24895D01*
G01X31929Y24909D01*
G01X31934Y24916D01*
G01X31937Y24921D01*
G01X31943Y24931D01*
G01X31946Y24935D01*
G01X31947Y24937D01*
G01Y24938D01*
G01Y24940D01*
G01X31945Y24943D01*
G01X31944Y24944D01*
G01X31937Y24948D01*
G01X31932Y24952D01*
G01X31901Y24970D01*
G01X31877Y24985D01*
G01X31861Y24995D01*
G01X31837Y25010D01*
G01X31822Y25020D01*
G01X31797Y25035D01*
G01X31751Y25063D01*
G01X31736Y25072D01*
G01X31735D01*
G01X31734Y25073D01*
G01X31729Y25074D01*
G01X31723Y25075D01*
G01X31711Y25076D01*
G01X31677D01*
G37*
G36*
G01X32973Y24922D02*
G01X32955Y24922D01*
G01X32942Y24921D01*
G01X32917Y24918D01*
G01X32912Y24917D01*
G01X32905Y24916D01*
G01X32897Y24913D01*
G01X32886Y24911D01*
G01X32879Y24909D01*
G01X32870Y24905D01*
G01X32860Y24902D01*
G01X32853Y24899D01*
G01X32850Y24897D01*
G01X32834Y24887D01*
G01X32828Y24883D01*
G01X32820Y24877D01*
G01X32813Y24870D01*
G01X32809Y24867D01*
G01X32799Y24859D01*
G01X32796Y24857D01*
G01X32795Y24855D01*
G01X32793Y24851D01*
G01X32792Y24849D01*
G01X32790Y24847D01*
G01X32786Y24844D01*
G01X32782Y24840D01*
G01X32771Y24824D01*
G01X32768Y24819D01*
G01X32762Y24809D01*
G01X32758Y24803D01*
G01X32755Y24797D01*
G01X32753Y24792D01*
G01X32747Y24776D01*
G01X32744Y24770D01*
G01X32741Y24758D01*
G01X32736Y24743D01*
G01X32734Y24736D01*
G01X32732Y24720D01*
G01X32730Y24711D01*
G01X32729Y24706D01*
G01X32728Y24700D01*
G01Y24681D01*
G01X32727Y24678D01*
G01X32726Y24675D01*
G01Y24673D01*
G01X32842D01*
G01Y24694D01*
G01X32844Y24709D01*
G01Y24715D01*
G01X32846Y24724D01*
G01X32848Y24733D01*
G01X32850Y24745D01*
G01X32852Y24749D01*
G01X32853Y24753D01*
G01X32856Y24759D01*
G01X32864Y24777D01*
G01X32874Y24795D01*
G01X32877Y24799D01*
G01X32879Y24802D01*
G01X32881Y24804D01*
G01X32883Y24806D01*
G01X32888Y24809D01*
G01X32891Y24813D01*
G01X32893Y24815D01*
G01X32896Y24817D01*
G01X32899Y24819D01*
G01X32909Y24824D01*
G01X32915Y24828D01*
G01X32918Y24829D01*
G01X32923Y24831D01*
G01X32934Y24833D01*
G01X32941Y24835D01*
G01X32948Y24836D01*
G01X32969D01*
G01X32976D01*
G01X32982Y24835D01*
G01X32988Y24833D01*
G01X33008Y24827D01*
G01X33016Y24824D01*
G01X33019Y24822D01*
G01X33025Y24819D01*
G01X33034Y24815D01*
G01X33036Y24814D01*
G01X33037Y24812D01*
G01X33044Y24804D01*
G01X33048Y24802D01*
G01X33051Y24798D01*
G01X33055Y24795D01*
G01X33058Y24792D01*
G01X33063Y24784D01*
G01X33065Y24781D01*
G01X33070Y24772D01*
G01X33074Y24764D01*
G01X33077Y24759D01*
G01X33079Y24750D01*
G01X33084Y24741D01*
G01X33085Y24737D01*
G01X33086Y24733D01*
G01X33088Y24724D01*
G01X33089Y24717D01*
G01X33090Y24715D01*
G01X33091Y24710D01*
G01X33092Y24701D01*
G01Y24695D01*
G01X33094Y24688D01*
G01X33095Y24682D01*
G01X33094Y24678D01*
G01X33093Y24675D01*
G01X33092D01*
G01X33088Y24674D01*
G01X32967Y24673D01*
G01X32842D01*
G01X32726D01*
G01X32725Y24665D01*
G01Y24653D01*
G01Y24649D01*
G01Y24640D01*
G01X32726Y24633D01*
G01X32727Y24631D01*
G01Y24627D01*
G01X32728Y24622D01*
G01Y24596D01*
G01X32911D01*
G01X32992D01*
G01X33082Y24594D01*
G01X33091Y24593D01*
G01X33093Y24592D01*
G01Y24590D01*
G01X33092Y24586D01*
G01X33091Y24576D01*
G01Y24569D01*
G01X33088Y24560D01*
G01X33086Y24544D01*
G01X33085Y24539D01*
G01X33083Y24533D01*
G01X33079Y24525D01*
G01X33077Y24516D01*
G01X33074Y24511D01*
G01X33065Y24496D01*
G01X33061Y24490D01*
G01X33059Y24487D01*
G01X33055Y24482D01*
G01X33050Y24476D01*
G01X33047Y24473D01*
G01X33044Y24470D01*
G01X33041Y24467D01*
G01X33031Y24460D01*
G01X33025Y24456D01*
G01X33012Y24448D01*
G01X33009Y24446D01*
G01X33004Y24444D01*
G01X32997Y24443D01*
G01X32983Y24438D01*
G01X32980Y24437D01*
G01X32977Y24436D01*
G01X32971D01*
G01X32966Y24435D01*
G01X32963Y24434D01*
G01X32958Y24433D01*
G01X32945D01*
G01X32930Y24435D01*
G01X32917Y24436D01*
G01X32908Y24438D01*
G01X32885Y24442D01*
G01X32874Y24446D01*
G01X32859Y24452D01*
G01X32844Y24458D01*
G01X32840Y24459D01*
G01X32834Y24462D01*
G01X32828Y24465D01*
G01X32811Y24476D01*
G01X32805Y24479D01*
G01X32802Y24481D01*
G01X32800D01*
G01X32797Y24480D01*
G01X32794Y24475D01*
G01X32789Y24469D01*
G01X32785Y24464D01*
G01X32777Y24452D01*
G01X32771Y24444D01*
G01X32769Y24440D01*
G01X32762Y24431D01*
G01X32757Y24426D01*
G01X32754Y24422D01*
G01X32753Y24420D01*
G01Y24418D01*
G01Y24411D01*
G01X32754Y24409D01*
G01X32755Y24407D01*
G01X32757Y24405D01*
G01X32771Y24395D01*
G01X32776Y24393D01*
G01X32786Y24387D01*
G01X32796Y24380D01*
G01X32805Y24376D01*
G01X32816Y24371D01*
G01X32821Y24369D01*
G01X32833Y24364D01*
G01X32840Y24362D01*
G01X32851Y24359D01*
G01X32859Y24356D01*
G01X32865Y24354D01*
G01X32869Y24353D01*
G01X32895Y24347D01*
G01X32904D01*
G01X32909Y24346D01*
G01X32913Y24345D01*
G01X32921Y24344D01*
G01X32950D01*
G01X32982D01*
G01X32989Y24345D01*
G01X32992D01*
G01X32998Y24347D01*
G01X33010Y24350D01*
G01X33026Y24353D01*
G01X33031Y24354D01*
G01X33036Y24355D01*
G01X33042Y24358D01*
G01X33049Y24360D01*
G01X33057Y24362D01*
G01X33063Y24364D01*
G01X33066Y24366D01*
G01X33072Y24369D01*
G01X33085Y24374D01*
G01X33102Y24386D01*
G01X33109Y24390D01*
G01X33111Y24392D01*
G01X33114Y24394D01*
G01X33119Y24398D01*
G01X33127Y24403D01*
G01X33130Y24405D01*
G01X33133Y24408D01*
G01X33134Y24410D01*
G01X33138Y24414D01*
G01X33144Y24419D01*
G01X33148Y24423D01*
G01X33152Y24428D01*
G01X33157Y24434D01*
G01X33161Y24439D01*
G01X33168Y24451D01*
G01X33175Y24461D01*
G01X33179Y24468D01*
G01X33184Y24478D01*
G01X33188Y24485D01*
G01X33191Y24491D01*
G01X33193Y24498D01*
G01X33205Y24536D01*
G01X33207Y24548D01*
G01X33209Y24555D01*
G01X33210Y24558D01*
G01X33211Y24563D01*
G01X33212Y24571D01*
G01X33213Y24577D01*
G01Y24580D01*
G01X33214Y24581D01*
G01Y24589D01*
G01X33215Y24622D01*
G01X33214Y24664D01*
G01X33213Y24675D01*
G01X33212Y24687D01*
G01X33210Y24696D01*
G01X33207Y24712D01*
G01X33205Y24719D01*
G01X33202Y24730D01*
G01X33200Y24742D01*
G01X33199Y24746D01*
G01X33197Y24750D01*
G01X33193Y24759D01*
G01X33191Y24769D01*
G01X33188Y24774D01*
G01X33186Y24778D01*
G01X33183Y24783D01*
G01X33177Y24795D01*
G01X33167Y24813D01*
G01X33163Y24820D01*
G01X33161Y24822D01*
G01X33158Y24825D01*
G01X33155Y24830D01*
G01X33149Y24838D01*
G01X33147Y24841D01*
G01X33144Y24844D01*
G01X33140Y24847D01*
G01X33136Y24851D01*
G01X33131Y24857D01*
G01X33125Y24863D01*
G01X33121Y24867D01*
G01X33118Y24870D01*
G01X33116Y24872D01*
G01X33112Y24876D01*
G01X33101Y24882D01*
G01X33092Y24889D01*
G01X33087Y24893D01*
G01X33082Y24895D01*
G01X33067Y24903D01*
G01X33051Y24908D01*
G01X33042Y24912D01*
G01X33035Y24914D01*
G01X33025Y24916D01*
G01X33016Y24918D01*
G01X33010Y24919D01*
G01X33000Y24920D01*
G01X32992Y24921D01*
G01X32985Y24922D01*
G37*
G36*
G01X32179Y24922D02*
G01X32167Y24922D01*
G01X32163Y24921D01*
G01X32159Y24920D01*
G01X32155D01*
G01X32144Y24919D01*
G01X32138Y24918D01*
G01X32129Y24916D01*
G01X32112Y24913D01*
G01X32102Y24910D01*
G01X32097Y24909D01*
G01X32094Y24907D01*
G01X32092Y24905D01*
G01Y24903D01*
G01X32093Y24900D01*
G01Y24894D01*
G01X32094Y24875D01*
G01X32095Y24872D01*
G01Y24869D01*
G01X32096Y24866D01*
G01X32097Y24861D01*
G01Y24844D01*
G01X32098Y24841D01*
G01Y24838D01*
G01X32099Y24835D01*
G01X32100Y24830D01*
G01X32101Y24813D01*
G01Y24810D01*
G01X32102Y24805D01*
G01X32103Y24799D01*
G01X32104Y24782D01*
G01X32105Y24776D01*
G01Y24774D01*
G01X32106Y24768D01*
G01X32107Y24749D01*
G01Y24745D01*
G01X32108Y24740D01*
G01X32109Y24733D01*
G01X32110Y24720D01*
G01Y24716D01*
G01X32112Y24704D01*
G01X32196D01*
G01Y24818D01*
G01X32206Y24816D01*
G01X32212Y24815D01*
G01X32220Y24814D01*
G01X32228Y24812D01*
G01X32238Y24809D01*
G01X32246Y24806D01*
G01X32250Y24804D01*
G01X32255Y24801D01*
G01X32258Y24799D01*
G01X32260Y24797D01*
G01X32274Y24790D01*
G01X32277Y24788D01*
G01X32280Y24783D01*
G01X32282Y24782D01*
G01X32284Y24780D01*
G01X32287Y24779D01*
G01X32289Y24778D01*
G01X32293Y24775D01*
G01X32296Y24769D01*
G01X32300Y24764D01*
G01X32304Y24761D01*
G01X32308Y24757D01*
G01X32319Y24741D01*
G01X32322Y24736D01*
G01X32328Y24726D01*
G01X32332Y24719D01*
G01X32335Y24714D01*
G01X32337Y24707D01*
G01X32341Y24701D01*
G01X32344Y24695D01*
G01X32347Y24688D01*
G01X32352Y24673D01*
G01X32357Y24663D01*
G01X32359Y24657D01*
G01Y24656D01*
G01X32360Y24652D01*
G01X32361Y24642D01*
G01X32362Y24546D01*
G01Y24439D01*
G01X32251D01*
G01Y24359D01*
G01X32562D01*
G01Y24439D01*
G01X32478D01*
G01Y24824D01*
G01X32562D01*
G01Y24907D01*
G01X32390D01*
G01X32388Y24900D01*
G01X32387Y24893D01*
G01X32384Y24886D01*
G01X32383Y24880D01*
G01X32381Y24863D01*
G01X32379Y24853D01*
G01X32378Y24850D01*
G01X32377Y24843D01*
G01X32375Y24825D01*
G01X32373Y24816D01*
G01X32372Y24811D01*
G01X32371Y24805D01*
G01Y24798D01*
G01X32370Y24795D01*
G01X32369Y24793D01*
G01X32368Y24792D01*
G01X32366Y24791D01*
G01X32365Y24792D01*
G01X32363Y24794D01*
G01X32359Y24802D01*
G01X32352Y24812D01*
G01X32348Y24821D01*
G01X32340Y24833D01*
G01X32337Y24839D01*
G01X32335Y24843D01*
G01X32333Y24845D01*
G01X32330Y24849D01*
G01X32325Y24852D01*
G01X32322Y24856D01*
G01X32317Y24863D01*
G01X32312Y24868D01*
G01X32308Y24874D01*
G01X32306Y24876D01*
G01X32300Y24879D01*
G01X32296Y24882D01*
G01X32293Y24885D01*
G01X32291Y24887D01*
G01X32287Y24891D01*
G01X32283Y24894D01*
G01X32269Y24903D01*
G01X32263Y24905D01*
G01X32254Y24908D01*
G01X32245Y24912D01*
G01X32240Y24914D01*
G01X32231Y24916D01*
G01X32224Y24917D01*
G01X32220Y24918D01*
G01X32216Y24919D01*
G01X32206D01*
G01X32200Y24920D01*
G01X32194Y24921D01*
G01X32187Y24922D01*
G37*
G36*
G01X29024Y24907D02*
G01X28966Y24907D01*
G01X28958Y24906D01*
G01X28957D01*
G01X28958Y24904D01*
G01X28959Y24903D01*
G01X28964Y24899D01*
G01X28966Y24897D01*
G01X28967Y24895D01*
G01X28971Y24889D01*
G01X28972Y24886D01*
G01X28974Y24884D01*
G01X28977Y24882D01*
G01X28981Y24879D01*
G01X28986Y24873D01*
G01X28990Y24869D01*
G01X28994Y24866D01*
G01X28997Y24862D01*
G01X29000Y24855D01*
G01X29002Y24853D01*
G01X29004Y24852D01*
G01X29008Y24848D01*
G01X29013Y24842D01*
G01X29017Y24838D01*
G01X29022Y24835D01*
G01X29024Y24833D01*
G01X29026Y24830D01*
G01X29029Y24824D01*
G01X29031Y24822D01*
G01X29033Y24820D01*
G01X29035Y24818D01*
G01X29039Y24814D01*
G01X29044Y24808D01*
G01X29048Y24804D01*
G01X29053Y24801D01*
G01X29055Y24799D01*
G01X29056Y24797D01*
G01X29058Y24792D01*
G01X29059Y24790D01*
G01X29063Y24787D01*
G01X29067Y24784D01*
G01X29072Y24777D01*
G01X29076Y24773D01*
G01X29080Y24770D01*
G01X29082Y24768D01*
G01X29084Y24766D01*
G01X29088Y24759D01*
G01X29089Y24757D01*
G01X29091Y24755D01*
G01X29094Y24753D01*
G01X29098Y24750D01*
G01X29103Y24743D01*
G01X29111Y24736D01*
G01X29113Y24735D01*
G01X29114Y24732D01*
G01X29116Y24728D01*
G01X29119Y24724D01*
G01X29121Y24722D01*
G01X29126Y24719D01*
G01X29131Y24713D01*
G01X29134Y24709D01*
G01X29139Y24706D01*
G01X29143Y24700D01*
G01X29146Y24695D01*
G01X29148Y24692D01*
G01X29150Y24690D01*
G01X29152Y24689D01*
G01X29156Y24685D01*
G01X29161Y24679D01*
G01X29165Y24675D01*
G01X29169Y24672D01*
G01X29171Y24669D01*
G01X29173Y24665D01*
G01X29174Y24663D01*
G01Y24661D01*
G01X29173Y24659D01*
G01X29171Y24656D01*
G01X29169Y24654D01*
G01X29168Y24652D01*
G01X29166Y24648D01*
G01X29165Y24646D01*
G01X29163Y24644D01*
G01X29159Y24641D01*
G01X29158Y24639D01*
G01X29156Y24637D01*
G01X29154Y24632D01*
G01X29153Y24630D01*
G01X29151Y24629D01*
G01X29147Y24625D01*
G01X29145Y24624D01*
G01X29144Y24622D01*
G01X29142Y24617D01*
G01X29139Y24613D01*
G01X29134Y24610D01*
G01X29131Y24606D01*
G01X29130Y24602D01*
G01X29127Y24598D01*
G01X29124Y24596D01*
G01X29120Y24592D01*
G01X29118Y24590D01*
G01X29115Y24584D01*
G01X29113Y24582D01*
G01X29111Y24580D01*
G01X29107Y24576D01*
G01X29105Y24575D01*
G01X29104Y24572D01*
G01X29102Y24568D01*
G01X29099Y24564D01*
G01X29095Y24561D01*
G01X29093Y24559D01*
G01X29090Y24553D01*
G01X29087Y24549D01*
G01X29082Y24546D01*
G01X29079Y24541D01*
G01X29077Y24537D01*
G01X29076Y24535D01*
G01X29074Y24533D01*
G01X29070Y24530D01*
G01X29068Y24528D01*
G01X29067Y24526D01*
G01X29065Y24522D01*
G01X29064Y24520D01*
G01X29062Y24518D01*
G01X29058Y24515D01*
G01X29056Y24513D01*
G01X29054Y24510D01*
G01X29050Y24504D01*
G01X29048Y24501D01*
G01X29046Y24499D01*
G01X29042Y24496D01*
G01X29040Y24494D01*
G01X29039Y24492D01*
G01X29037Y24488D01*
G01X29036Y24486D01*
G01X29034Y24484D01*
G01X29030Y24481D01*
G01X29028Y24479D01*
G01X29027Y24477D01*
G01X29025Y24472D01*
G01X29022Y24468D01*
G01X29017Y24465D01*
G01X29014Y24461D01*
G01X29011Y24455D01*
G01X29009Y24453D01*
G01X29007Y24452D01*
G01X29003Y24448D01*
G01X29001Y24445D01*
G01X28998Y24439D01*
G01X28996Y24437D01*
G01X28994Y24435D01*
G01X28990Y24431D01*
G01X28988Y24430D01*
G01X28987Y24428D01*
G01X28985Y24423D01*
G01X28982Y24419D01*
G01X28977Y24416D01*
G01X28974Y24412D01*
G01X28973Y24408D01*
G01X28971Y24406D01*
G01X28969Y24404D01*
G01X28965Y24401D01*
G01X28962Y24397D01*
G01X28960Y24392D01*
G01X28959Y24390D01*
G01X28957Y24389D01*
G01X28953Y24385D01*
G01X28951Y24383D01*
G01X28950Y24381D01*
G01X28948Y24377D01*
G01X28946Y24375D01*
G01X28945Y24373D01*
G01X28941Y24370D01*
G01X28939Y24368D01*
G01X28938Y24366D01*
G01X28937Y24364D01*
G01Y24363D01*
G01X28938Y24362D01*
G01X28940D01*
G01X28946Y24361D01*
G01X28958Y24360D01*
G01X29006Y24359D01*
G01X29049Y24360D01*
G01X29068Y24362D01*
G01X29075Y24363D01*
G01X29079Y24364D01*
G01X29081Y24365D01*
G01X29092Y24379D01*
G01X29120Y24413D01*
G01X29127Y24425D01*
G01X29134Y24432D01*
G01X29143Y24444D01*
G01X29148Y24449D01*
G01X29152Y24456D01*
G01X29160Y24465D01*
G01X29187Y24500D01*
G01X29195Y24510D01*
G01X29201Y24518D01*
G01X29211Y24530D01*
G01X29215Y24535D01*
G01X29220Y24542D01*
G01X29227Y24552D01*
G01X29255Y24586D01*
G01X29263Y24597D01*
G01X29269Y24604D01*
G01X29278Y24616D01*
G01X29283Y24621D01*
G01X29288Y24628D01*
G01X29295Y24637D01*
G01X29300Y24645D01*
G01X29302Y24648D01*
G01X29309Y24655D01*
G01Y24658D01*
G01X29307Y24661D01*
G01X29304Y24665D01*
G01X29300Y24672D01*
G01X29295Y24677D01*
G01X29290Y24683D01*
G01X29287Y24687D01*
G01X29283Y24689D01*
G01X29281Y24691D01*
G01X29278Y24696D01*
G01X29273Y24703D01*
G01X29270Y24706D01*
G01X29268Y24708D01*
G01X29266Y24710D01*
G01X29262Y24714D01*
G01X29258Y24718D01*
G01X29254Y24724D01*
G01X29249Y24729D01*
G01X29245Y24736D01*
G01X29240Y24739D01*
G01X29237Y24742D01*
G01X29235Y24744D01*
G01X29231Y24748D01*
G01X29227Y24755D01*
G01X29224Y24758D01*
G01X29222Y24760D01*
G01X29220Y24762D01*
G01X29216Y24766D01*
G01X29212Y24770D01*
G01X29207Y24776D01*
G01X29203Y24781D01*
G01X29198Y24788D01*
G01X29194Y24791D01*
G01X29191Y24794D01*
G01X29189Y24796D01*
G01X29185Y24801D01*
G01X29181Y24808D01*
G01X29178Y24811D01*
G01X29176Y24813D01*
G01X29173Y24815D01*
G01X29169Y24818D01*
G01X29166Y24822D01*
G01X29161Y24829D01*
G01X29157Y24834D01*
G01X29152Y24840D01*
G01X29148Y24844D01*
G01X29143Y24847D01*
G01X29142Y24849D01*
G01X29140Y24852D01*
G01X29136Y24858D01*
G01X29135Y24860D01*
G01X29133Y24863D01*
G01X29129Y24865D01*
G01X29126Y24868D01*
G01X29123Y24871D01*
G01X29117Y24878D01*
G01X29110Y24887D01*
G01X29107Y24891D01*
G01X29101Y24897D01*
G01X29097Y24900D01*
G01X29095Y24903D01*
G01X29094D01*
G01X29093Y24904D01*
G01X29091D01*
G01X29084Y24905D01*
G01X29071Y24906D01*
G37*
G36*
G01X28399Y24907D02*
G01X28341Y24907D01*
G01X28333Y24906D01*
G01X28332D01*
G01Y24905D01*
G01X28333Y24904D01*
G01X28334Y24903D01*
G01X28338Y24899D01*
G01X28340Y24897D01*
G01X28342Y24895D01*
G01X28345Y24889D01*
G01X28347Y24886D01*
G01X28351Y24882D01*
G01X28356Y24879D01*
G01X28361Y24873D01*
G01X28365Y24869D01*
G01X28369Y24866D01*
G01X28372Y24862D01*
G01X28375Y24855D01*
G01X28377Y24853D01*
G01X28379Y24852D01*
G01X28383Y24848D01*
G01X28389Y24842D01*
G01X28397Y24835D01*
G01X28399Y24833D01*
G01X28401Y24830D01*
G01X28404Y24824D01*
G01X28406Y24822D01*
G01X28410Y24818D01*
G01X28414Y24814D01*
G01X28420Y24808D01*
G01X28423Y24804D01*
G01X28428Y24801D01*
G01X28431Y24797D01*
G01X28433Y24792D01*
G01X28434Y24790D01*
G01X28436Y24789D01*
G01X28438Y24787D01*
G01X28442Y24784D01*
G01X28447Y24777D01*
G01X28451Y24773D01*
G01X28456Y24770D01*
G01X28458Y24768D01*
G01X28459Y24766D01*
G01X28463Y24759D01*
G01X28464Y24757D01*
G01X28466Y24755D01*
G01X28469Y24753D01*
G01X28473Y24750D01*
G01X28478Y24743D01*
G01X28482Y24740D01*
G01X28486Y24736D01*
G01X28488Y24735D01*
G01X28489Y24732D01*
G01X28491Y24728D01*
G01X28492Y24726D01*
G01X28494Y24724D01*
G01X28496Y24722D01*
G01X28500Y24719D01*
G01X28505Y24713D01*
G01X28509Y24709D01*
G01X28514Y24706D01*
G01X28516Y24703D01*
G01X28518Y24700D01*
G01X28521Y24695D01*
G01X28523Y24692D01*
G01X28525Y24690D01*
G01X28527Y24689D01*
G01X28531Y24685D01*
G01X28536Y24679D01*
G01X28540Y24675D01*
G01X28545Y24672D01*
G01X28547Y24669D01*
G01X28549Y24665D01*
G01Y24663D01*
G01Y24661D01*
G01Y24659D01*
G01X28546Y24656D01*
G01X28544Y24652D01*
G01X28541Y24648D01*
G01X28540Y24646D01*
G01X28538Y24644D01*
G01X28534Y24641D01*
G01X28532Y24639D01*
G01X28531Y24637D01*
G01X28529Y24632D01*
G01X28528Y24630D01*
G01X28526Y24629D01*
G01X28522Y24625D01*
G01X28520Y24624D01*
G01X28519Y24622D01*
G01X28517Y24617D01*
G01X28514Y24613D01*
G01X28509Y24610D01*
G01X28506Y24606D01*
G01X28503Y24600D01*
G01X28501Y24598D01*
G01X28499Y24596D01*
G01X28495Y24592D01*
G01X28493Y24590D01*
G01X28490Y24584D01*
G01X28488Y24582D01*
G01X28486Y24580D01*
G01X28482Y24576D01*
G01X28480Y24575D01*
G01X28479Y24572D01*
G01X28477Y24568D01*
G01X28474Y24564D01*
G01X28469Y24561D01*
G01X28466Y24557D01*
G01X28465Y24553D01*
G01X28463Y24551D01*
G01X28461Y24549D01*
G01X28457Y24546D01*
G01X28454Y24541D01*
G01X28452Y24537D01*
G01X28451Y24535D01*
G01X28449Y24533D01*
G01X28445Y24530D01*
G01X28443Y24528D01*
G01X28442Y24526D01*
G01X28440Y24522D01*
G01X28437Y24518D01*
G01X28435Y24516D01*
G01X28432Y24515D01*
G01X28431Y24513D01*
G01X28429Y24510D01*
G01X28425Y24504D01*
G01X28424Y24501D01*
G01X28422Y24499D01*
G01X28417Y24496D01*
G01X28414Y24492D01*
G01X28412Y24488D01*
G01X28411Y24486D01*
G01X28409Y24484D01*
G01X28405Y24481D01*
G01X28403Y24479D01*
G01X28402Y24477D01*
G01X28400Y24472D01*
G01X28399Y24470D01*
G01X28397Y24468D01*
G01X28393Y24465D01*
G01X28391Y24463D01*
G01X28388Y24457D01*
G01X28385Y24453D01*
G01X28382Y24452D01*
G01X28380Y24450D01*
G01X28378Y24448D01*
G01X28376Y24445D01*
G01X28373Y24439D01*
G01X28371Y24437D01*
G01X28369Y24435D01*
G01X28365Y24431D01*
G01X28363Y24430D01*
G01X28362Y24428D01*
G01X28360Y24423D01*
G01X28359Y24421D01*
G01X28357Y24419D01*
G01X28352Y24416D01*
G01X28349Y24412D01*
G01X28346Y24406D01*
G01X28344Y24404D01*
G01X28340Y24401D01*
G01X28338Y24399D01*
G01X28337Y24397D01*
G01X28335Y24392D01*
G01X28334Y24390D01*
G01X28332Y24389D01*
G01X28328Y24385D01*
G01X28326Y24383D01*
G01X28325Y24381D01*
G01X28323Y24377D01*
G01X28322Y24375D01*
G01X28320Y24373D01*
G01X28315Y24370D01*
G01X28314Y24368D01*
G01X28312Y24366D01*
G01X28311Y24364D01*
G01Y24363D01*
G01X28312D01*
G01X28313Y24362D01*
G01X28315D01*
G01X28322Y24361D01*
G01X28333Y24360D01*
G01X28381Y24359D01*
G01X28425Y24360D01*
G01X28443Y24362D01*
G01X28450Y24363D01*
G01X28454Y24364D01*
G01X28456Y24365D01*
G01X28467Y24379D01*
G01X28495Y24413D01*
G01X28502Y24425D01*
G01X28508Y24432D01*
G01X28518Y24444D01*
G01X28523Y24449D01*
G01X28527Y24456D01*
G01X28535Y24465D01*
G01X28562Y24500D01*
G01X28570Y24510D01*
G01X28577Y24518D01*
G01X28586Y24530D01*
G01X28590Y24535D01*
G01X28595Y24542D01*
G01X28602Y24552D01*
G01X28630Y24586D01*
G01X28638Y24597D01*
G01X28644Y24604D01*
G01X28653Y24616D01*
G01X28658Y24621D01*
G01X28662Y24628D01*
G01X28668Y24634D01*
G01X28670Y24637D01*
G01X28675Y24645D01*
G01X28677Y24648D01*
G01X28679Y24650D01*
G01X28681Y24652D01*
G01X28684Y24655D01*
G01Y24658D01*
G01X28682Y24661D01*
G01X28680Y24665D01*
G01X28675Y24672D01*
G01X28670Y24677D01*
G01X28665Y24683D01*
G01X28662Y24687D01*
G01X28658Y24689D01*
G01X28656Y24691D01*
G01X28653Y24696D01*
G01X28648Y24703D01*
G01X28646Y24706D01*
G01X28643Y24708D01*
G01X28641Y24710D01*
G01X28637Y24714D01*
G01X28633Y24718D01*
G01X28629Y24724D01*
G01X28624Y24729D01*
G01X28619Y24736D01*
G01X28616Y24739D01*
G01X28612Y24742D01*
G01X28610Y24744D01*
G01X28606Y24748D01*
G01X28602Y24755D01*
G01X28599Y24758D01*
G01X28597Y24760D01*
G01X28595Y24762D01*
G01X28591Y24766D01*
G01X28587Y24770D01*
G01X28583Y24776D01*
G01X28578Y24781D01*
G01X28573Y24788D01*
G01X28569Y24791D01*
G01X28566Y24794D01*
G01X28564Y24796D01*
G01X28560Y24801D01*
G01X28556Y24808D01*
G01X28553Y24811D01*
G01X28551Y24813D01*
G01X28549Y24815D01*
G01X28545Y24818D01*
G01X28541Y24822D01*
G01X28536Y24829D01*
G01X28532Y24834D01*
G01X28527Y24840D01*
G01X28523Y24844D01*
G01X28519Y24847D01*
G01X28517Y24849D01*
G01X28515Y24852D01*
G01X28512Y24858D01*
G01X28510Y24860D01*
G01X28508Y24863D01*
G01X28504Y24865D01*
G01X28500Y24868D01*
G01X28498Y24871D01*
G01X28492Y24878D01*
G01X28486Y24887D01*
G01X28482Y24891D01*
G01X28475Y24897D01*
G01X28472Y24900D01*
G01X28470Y24903D01*
G01X28469D01*
G01X28468Y24904D01*
G01X28466D01*
G01X28459Y24905D01*
G01X28446Y24906D01*
G37*
G36*
G01X31100Y24544D02*
G01X31085Y24544D01*
G01X31076Y24542D01*
G01X31066Y24540D01*
G01X31062Y24539D01*
G01X31058Y24538D01*
G01X31054Y24536D01*
G01X31048Y24533D01*
G01X31042Y24530D01*
G01X31036Y24526D01*
G01X31034Y24524D01*
G01X31030Y24521D01*
G01X31024Y24516D01*
G01X31019Y24513D01*
G01X31016Y24508D01*
G01X31006Y24495D01*
G01X31004Y24491D01*
G01X31003Y24488D01*
G01X31001Y24484D01*
G01X30996Y24471D01*
G01Y24469D01*
G01X30995Y24462D01*
G01Y24450D01*
G01Y24438D01*
G01X30996Y24430D01*
G01X30998Y24417D01*
G01X31001Y24408D01*
G01X31003Y24404D01*
G01X31004Y24400D01*
G01X31006Y24396D01*
G01X31009Y24393D01*
G01X31018Y24380D01*
G01X31022Y24376D01*
G01X31026Y24371D01*
G01X31029Y24369D01*
G01X31034Y24364D01*
G01X31036Y24362D01*
G01X31048Y24355D01*
G01X31053Y24353D01*
G01X31056Y24350D01*
G01X31065Y24347D01*
G01X31075Y24345D01*
G01X31083Y24344D01*
G01X31096D01*
G01X31111D01*
G01X31116D01*
G01X31118Y24345D01*
G01X31121Y24347D01*
G01X31130Y24350D01*
G01X31138Y24353D01*
G01X31141Y24355D01*
G01X31149Y24359D01*
G01X31158Y24364D01*
G01X31160Y24366D01*
G01X31162Y24368D01*
G01X31166Y24372D01*
G01X31169Y24376D01*
G01X31173Y24378D01*
G01X31175Y24380D01*
G01X31179Y24385D01*
G01X31181Y24389D01*
G01X31184Y24394D01*
G01X31189Y24402D01*
G01X31190Y24405D01*
G01X31192Y24412D01*
G01X31195Y24423D01*
G01X31197Y24431D01*
G01X31198Y24437D01*
G01Y24444D01*
G01X31197Y24451D01*
G01X31196Y24456D01*
G01X31195Y24461D01*
G01Y24467D01*
G01X31194Y24470D01*
G01X31193Y24473D01*
G01X31190Y24480D01*
G01X31184Y24494D01*
G01X31181Y24499D01*
G01X31178Y24502D01*
G01X31173Y24508D01*
G01X31169Y24514D01*
G01X31163Y24520D01*
G01X31159Y24524D01*
G01X31156Y24525D01*
G01X31150Y24530D01*
G01X31147Y24533D01*
G01X31145Y24534D01*
G01X31142Y24535D01*
G01X31133Y24538D01*
G01X31126Y24541D01*
G01X31125Y24542D01*
G01X31120Y24543D01*
G01X31112Y24544D01*
G01X31104D01*
G37*
G54D10*
G01X2357Y6937D02*
G01X2357Y7384D01*
G01X2134Y7160D02*
G01X2581Y7160D01*
G01X4420Y7160D02*
G01X4867Y7160D01*
G04 Text End*

G04 PolygonModel Start*
G54D11*
G01X762Y3933D02*
G01X762Y3724D01*
G01X762Y3724D02*
G01X5334Y3724D01*
G01X5334Y3724D02*
G01X6350Y4740D01*
G01X762Y7433D02*
G01X762Y5095D01*
G01X762Y8804D02*
G01X762Y8595D01*
G01X6349Y8595D02*
G01X6349Y8804D01*
G01X6349Y8804D02*
G01X762Y8804D01*
G01X6350Y4740D02*
G01X6350Y7433D01*
G01X917Y23591D02*
G01X917Y19590D01*
G01X6114Y19590D02*
G01X6114Y20560D01*
G01X6114Y22623D02*
G01X6114Y23591D01*
G01X6114Y23591D02*
G01X3278Y23591D01*
G01X1255Y23591D02*
G01X917Y23591D01*
G01X6114Y19590D02*
G01X3282Y19590D01*
G01X1251Y19590D02*
G01X917Y19590D01*
G01X27443Y8382D02*
G01X27418Y8382D01*
G01X29104Y19558D02*
G01X29235Y19558D01*
G01X29235Y19558D02*
G01X29235Y8382D01*
G01X29235Y8382D02*
G01X29104Y8382D01*
G01X27428Y19558D02*
G01X27443Y19558D01*
G01X23252Y18161D02*
G01X23252Y9652D01*
G01X27418Y8382D02*
G01X24894Y8382D01*
G01X24894Y19558D02*
G01X27428Y19558D01*
G01X23780Y380D02*
G01X23241Y380D01*
G01X23241Y380D02*
G01X23241Y446D01*
G01X25781Y446D02*
G01X25781Y380D01*
G01X25781Y380D02*
G01X25242Y380D01*
G01X23241Y3109D02*
G01X23241Y3175D01*
G01X23241Y3175D02*
G01X23780Y3175D01*
G01X25242Y3175D02*
G01X25781Y3175D01*
G01X25781Y3175D02*
G01X25781Y3109D01*
G01X23780Y380D02*
G01X25242Y380D01*
G01X18878Y19354D02*
G01X19428Y19904D01*
G01X19428Y19904D02*
G01X18878Y20454D01*
G01X18878Y20454D02*
G01X18878Y19354D01*
G01X8428Y20954D02*
G01X20528Y20954D01*
G01X20528Y4954D02*
G01X8428Y4954D01*
G01X20528Y10985D02*
G01X20528Y12723D01*
G01X8428Y10985D02*
G01X8428Y12723D01*
G36*
G01X19428Y19904D02*
G01X19428Y19904D01*
G01X18878Y19354D01*
G01Y20454D01*
G01X19428Y19904D01*
G37*
G04 PolygonModel End*

G04 Rect Start*
G01X34289Y25615D02*
G01X34289Y26956D01*
G03X34086Y27159I-203J0D01*
G01X27716D01*
G03X27513Y26956I0J-203D01*
G01Y25615D01*
G03X27716Y25412I203J0D01*
G01X34086D01*
G03X34289Y25615I0J203D01*
G36*
G01X19725Y9704D02*
G01X19725Y8804D01*
G01X21625D01*
G01Y9704D01*
G01X19725D01*
G37*
G36*
G01X19720Y10804D02*
G01X19720Y9904D01*
G01X21620D01*
G01Y10804D01*
G01X19720D01*
G37*
G36*
G01X19727Y13804D02*
G01X19727Y12904D01*
G01X21627D01*
G01Y13804D01*
G01X19727D01*
G37*
G36*
G01X19740Y17104D02*
G01X19740Y16204D01*
G01X21640D01*
G01Y17104D01*
G01X19740D01*
G37*
G36*
G01X19740Y16004D02*
G01X19740Y15104D01*
G01X21640D01*
G01Y16004D01*
G01X19740D01*
G37*
G36*
G01X19738Y14914D02*
G01X19738Y14014D01*
G01X21638D01*
G01Y14914D01*
G01X19738D01*
G37*
G36*
G01X19748Y19304D02*
G01X19748Y18404D01*
G01X21648D01*
G01Y19304D01*
G01X19748D01*
G37*
G36*
G01X19741Y20404D02*
G01X19741Y19504D01*
G01X21641D01*
G01Y20404D01*
G01X19741D01*
G37*
G36*
G01X7318Y18204D02*
G01X7318Y17304D01*
G01X9218D01*
G01Y18204D01*
G01X7318D01*
G37*
G36*
G01X7334Y13804D02*
G01X7334Y12904D01*
G01X9234D01*
G01Y13804D01*
G01X7334D01*
G37*
G36*
G01X7314Y7504D02*
G01X7314Y6604D01*
G01X9214D01*
G01Y7504D01*
G01X7314D01*
G37*
G36*
G01X7318Y8594D02*
G01X7318Y7694D01*
G01X9218D01*
G01Y8594D01*
G01X7318D01*
G37*
G36*
G01X7307Y9704D02*
G01X7307Y8804D01*
G01X9207D01*
G01Y9704D01*
G01X7307D01*
G37*
G36*
G01X7320Y10804D02*
G01X7320Y9904D01*
G01X9220D01*
G01Y10804D01*
G01X7320D01*
G37*
G36*
G01X7318Y14924D02*
G01X7318Y14024D01*
G01X9218D01*
G01Y14924D01*
G01X7318D01*
G37*
G04 Rect End*

G04 Circle Start*
G01X23943Y1777D02*
G03X25079Y1777I568J0D01*
G03X23943I-568J0D01*
G04 Circle End*

M02*
