G04 Layer: BottomLayer*
G04 EasyEDA Pro v2.1.27.74734765.450747, 2024-06-16 14:56:05*
G04 Gerber Generator version 0.3*
G04 Scale: 100 percent, Rotated: No, Reflected: No*
G04 Dimensions in millimeters*
G04 Leading zeros omitted, absolute positions, 3 integers and 3 decimals*
%FSLAX33Y33*%
%MOMM*%
%AMRoundRect*1,1,$1,$2,$3*1,1,$1,$4,$5*1,1,$1,0-$2,0-$3*1,1,$1,0-$4,0-$5*20,1,$1,$2,$3,$4,$5,0*20,1,$1,$4,$5,0-$2,0-$3,0*20,1,$1,0-$2,0-$3,0-$4,0-$5,0*20,1,$1,0-$4,0-$5,$2,$3,0*4,1,4,$2,$3,$4,$5,0-$2,0-$3,0-$4,0-$5,$2,$3,0*%
%ADD8191C,0.203*%
%ADD10RoundRect,0.14X-0.78X0.28X0.78X0.28*%
%ADD11O,1.8X1.2*%
%ADD12O,2.0X1.2*%
%ADD13RoundRect,0.18X-0.685X-0.21X-0.685X0.21*%
%ADD14RoundRect,0.39X-0.705X-0.455X-0.705X0.455*%
%ADD15RoundRect,0.3917X0.555X0.455X0.555X-0.455*%
%ADD16RoundRect,0.39X0.555X0.455X0.555X-0.455*%
%ADD17RoundRect,0.36X0.42X0.47X0.42X-0.47*%
%ADD18R,1.0X0.5*%
%ADD19R,1.0X1.05*%
%ADD20R,1.05X2.2*%
%ADD21R,1.8X0.8*%
%ADD22C,0.61*%
%ADD23C,0.508*%
%ADD24C,0.635*%
%ADD25C,0.152*%
%ADD26C,0.305*%
%ADD27C,0.254*%
%ADD28C,0.351*%
G75*


G04 Copper Start*
G36*
G01X5478Y876D02*
G03X6034Y227I657J0D01*
G01X1530D01*
G01X1526D01*
G02X283Y1470I0J1243D01*
G01Y7471D01*
G03X476Y7407I193J263D01*
G01X787D01*
G02X847Y7253I-166J-154D01*
G03X967Y6964I409J0D01*
G01X1595Y6336D01*
G03X1884Y6216I289J289D01*
G01X2922D01*
G03X2614Y5715I253J-501D01*
G03X2754Y5344I561J0D01*
G01Y5343D01*
G03X2782Y5315I421J372D01*
G01X2791Y5304D01*
G01Y2730D01*
G03X2904Y2459I384J0D01*
G01X3983Y1380D01*
G03X4254Y1267I271J271D01*
G01X5607D01*
G03X5478Y876I528J-391D01*
G37*
%LPC*%
G36*
G01X1397Y340D02*
G03X2454Y1397I0J1057D01*
G03X1397Y2454I-1057J0D01*
G03X340Y1397I0J-1057D01*
G03X1397Y340I1057J0D01*
G37*
%LPD*%
G36*
G01X7936Y227D02*
G03X8492Y876I-101J649D01*
G03X7960Y1521I-657J0D01*
G01X11916D01*
G03X12187Y1634I0J384D01*
G01X12844Y2291D01*
G03X12957Y2562I-271J271D01*
G01Y3778D01*
G01X13367Y4188D01*
G01X13454D01*
G03X13387Y3937I444J-252D01*
G03X13898Y3426I511J0D01*
G03X14408Y3937I0J511D01*
G03X14342Y4188I-511J0D01*
G01X16983D01*
G03X17254Y4301I0J384D01*
G01X18432Y5479D01*
G03X18545Y5750I-271J271D01*
G01Y7378D01*
G01X20380Y9213D01*
G01X24280D01*
G01X24635Y8858D01*
G01Y7906D01*
G03X24748Y7635I384J0D01*
G01X26007Y6375D01*
G03X26279Y6263I271J271D01*
G01X28892D01*
G01X29351Y5804D01*
G03X29622Y5692I271J271D01*
G01X31690D01*
G03X31961Y5804I0J384D01*
G01X32408Y6251D01*
G03X32520Y6522I-271J271D01*
G01Y7975D01*
G01X33418Y8873D01*
G03X33531Y9144I-271J271D01*
G01Y12065D01*
G03X33418Y12336I-384J0D01*
G01X32579Y13175D01*
G01Y14159D01*
G03X32467Y14431I-384J0D01*
G01X31753Y15145D01*
G01Y16764D01*
G03X31640Y17035I-384J0D01*
G01X31132Y17543D01*
G03X30861Y17656I-271J-271D01*
G01X30832D01*
G01Y18070D01*
G03X30525Y18377I-307J0D01*
G01X29947D01*
G01X30149Y18580D01*
G01X32823D01*
G03X33094Y18692I0J384D01*
G01X33414Y19011D01*
G03X33526Y19283I-271J271D01*
G01Y19865D01*
G03X33531Y19924I-379J59D01*
G01Y21179D01*
G01X33543Y21192D01*
G01X33554Y21203D01*
G01X33557Y21207D01*
G01X33568Y21218D01*
G01Y21219D01*
G03X33708Y21590I-421J371D01*
G03X33147Y22151I-561J0D01*
G03X32586Y21590I0J-561D01*
G03X32726Y21219I561J0D01*
G01Y21218D01*
G03X32754Y21190I421J372D01*
G01X32763Y21179D01*
G01Y20105D01*
G03X32639Y20119I-124J-547D01*
G03X32093Y19688I0J-561D01*
G01X29917D01*
G03X29645Y19575I0J-384D01*
G01X28282Y18211D01*
G03X28235Y18155I271J-271D01*
G01X27488Y18901D01*
G01X27478Y18916D01*
G01X27467Y18937D01*
G01X27455Y18963D01*
G01X27445Y18990D01*
G01X27438Y19014D01*
G01X27435Y19031D01*
G01Y21971D01*
G03X27322Y22242I-384J0D01*
G01X26426Y23138D01*
G03X26155Y23251I-271J-271D01*
G01X23644D01*
G01X23632Y23264D01*
G01X23621Y23274D01*
G01X23617Y23278D01*
G01X23606Y23288D01*
G01X23605Y23289D01*
G03X23234Y23429I-371J-421D01*
G03X23077Y23406I0J-561D01*
G01Y23661D01*
G03X22965Y23933I-384J0D01*
G01X21988Y24909D01*
G03X21717Y25022I-271J-271D01*
G01X13156D01*
G03X12885Y24909I0J-384D01*
G01X12616Y24641D01*
G01X12284D01*
G01X12740Y25097D01*
G01X12786Y25093D01*
G01X12805D01*
G01X12809D01*
G01X12815D01*
G01X12827D01*
G03X13388Y25654I0J561D01*
G03X12827Y26215I-561J0D01*
G03X12266Y25654I0J-561D01*
G01Y25642D01*
G01Y25636D01*
G01Y25632D01*
G01Y25613D01*
G01X12270Y25567D01*
G01X11673Y24971D01*
G01X11657D01*
G03X11875Y25415I-343J444D01*
G03X11777Y25732I-561J0D01*
G03X11875Y26050I-463J318D01*
G03X11314Y26611I-561J0D01*
G03X10997Y26513I0J-561D01*
G03X10679Y26611I-317J-463D01*
G03X10118Y26050I0J-561D01*
G03X10216Y25732I561J0D01*
G03X10118Y25415I463J-317D01*
G03X10336Y24971I561J0D01*
G01X8509D01*
G03X8274Y24873I0J-333D01*
G01X7131Y23730D01*
G03X7033Y23495I235J-235D01*
G01Y21728D01*
G01X6929Y21623D01*
G03X6837Y21646I-128J-322D01*
G03X6731Y21656I-106J-564D01*
G03X6636Y21648I0J-574D01*
G01X6256D01*
G03X6115Y21666I-141J-557D01*
G01X4836D01*
G03X4464Y21529I0J-574D01*
G01X4064D01*
G03X3490Y20955I0J-574D01*
G03X4064Y20381I574J0D01*
G01X4699D01*
G03X5071Y20517I0J574D01*
G01X6115D01*
G03X6157Y20519I0J574D01*
G01Y20447D01*
G03X6731Y19873I574J0D01*
G03X7305Y20447I0J574D01*
G01Y21056D01*
G01X7310Y21062D01*
G01X7320Y21073D01*
G01X7324Y21078D01*
G01X7601Y21355D01*
G03X7699Y21590I-235J235D01*
G01Y23357D01*
G01X8647Y24305D01*
G01X10306D01*
G03X10107Y23876I362J-429D01*
G03X10668Y23315I561J0D01*
G03X11228Y23840I0J561D01*
G01Y23842D01*
G03X11229Y23873I-560J34D01*
G01X12384D01*
G03X12321Y23614I498J-259D01*
G03X12882Y23053I561J0D01*
G03X13443Y23578I0J561D01*
G01Y23580D01*
G03X13444Y23614I-560J34D01*
G03X13440Y23679I-561J0D01*
G01X13439Y23692D01*
G01X13494Y23746D01*
G01X15944D01*
G01X16095Y23596D01*
G03X16066Y23577I288J-482D01*
G03X15748Y23675I-317J-463D01*
G03X15187Y23114I0J-561D01*
G03X15748Y22553I561J0D01*
G03X16066Y22651I0J561D01*
G03X16383Y22553I318J463D01*
G03X16944Y23114I0J561D01*
G03X16932Y23231I-561J0D01*
G01X20423D01*
G01X21333Y22320D01*
G01Y20008D01*
G01X21307Y19982D01*
G03X20911Y20146I-397J-397D01*
G03X20382Y19775I0J-561D01*
G03X19939Y19992I-443J-344D01*
G03X19379Y19467I0J-561D01*
G01Y19465D01*
G03X19378Y19431I560J-34D01*
G01Y19426D01*
G01X19377Y19412D01*
G01X18637Y18672D01*
G01X15615D01*
G03X15674Y18923I-502J251D01*
G03X15113Y19484I-561J0D01*
G03X14552Y18923I0J-561D01*
G03X14611Y18672I561J0D01*
G01X13208D01*
G03X12937Y18559I0J-384D01*
G01X11415Y17037D01*
G01X9485D01*
G01Y17054D01*
G03X9471Y17147I-307J0D01*
G01X9758D01*
G03X10014Y17403I0J257D01*
G01Y19535D01*
G03X9758Y19791I-257J0D01*
G01X7596D01*
G03X7340Y19535I0J-257D01*
G01Y19508D01*
G03X7122Y19254I38J-254D01*
G01Y18454D01*
G03X7340Y18200I257J0D01*
G01Y17403D01*
G03X7344Y17359I257J0D01*
G03X7071Y17054I35J-305D01*
G01Y16254D01*
G03X7110Y16104I307J0D01*
G03X7071Y15954I268J-150D01*
G01Y15154D01*
G03X7378Y14847I307J0D01*
G01X9178D01*
G03X9485Y15154I0J307D01*
G01Y15171D01*
G01X10982D01*
G03X11253Y15283I0J384D01*
G01X13536Y17565D01*
G01X19219D01*
G03X19471Y17659I0J384D01*
G01Y17354D01*
G03X19778Y17047I307J0D01*
G01X21578D01*
G03X21863Y17239I0J307D01*
G01Y16523D01*
G03X21463Y16690I-400J-394D01*
G03X20902Y16129I0J-561D01*
G03X21463Y15568I561J0D01*
G03X21784Y15668I0J561D01*
G03X22246Y15425I463J318D01*
G03X22808Y15986I0J561D01*
G03X22668Y16357I-561J0D01*
G01X22667Y16358D01*
G03X22640Y16386I-421J-372D01*
G01X22630Y16397D01*
G01Y17341D01*
G01X22914Y17057D01*
G01Y14074D01*
G03X23026Y13802I384J0D01*
G01X23209Y13620D01*
G01Y13602D01*
G01Y13601D01*
G01Y13587D01*
G01Y13581D01*
G01X23210Y13566D01*
G01Y13565D01*
G03X23218Y13502I560J36D01*
G01X22665D01*
G03X22394Y13389I0J-384D01*
G01X21145Y12141D01*
G03X21046Y12362I-550J-114D01*
G03X21157Y12697I-451J335D01*
G03X20595Y13258I-561J0D01*
G03X20072Y12898I0J-561D01*
G01X19674D01*
G03X19403Y12786I0J-384D01*
G01X16467Y9850D01*
G03X16355Y9579I271J-271D01*
G01Y7118D01*
G01X15945Y6708D01*
G01X12876D01*
G03X12347Y7155I-529J-89D01*
G03X12061Y7072I0J-536D01*
G03X11740Y7179I-321J-429D01*
G03X11211Y6734I0J-536D01*
G01X10616D01*
G01X10587Y6763D01*
G01Y6846D01*
G01X10701Y6959D01*
G03X10802Y7141I-271J271D01*
G01X10820Y7157D01*
G01X10821Y7158D01*
G03X10850Y7189I-391J403D01*
G01X10851Y7190D01*
G03X10991Y7561I-421J371D01*
G03X10430Y8122I-561J0D01*
G03X10051Y7975I0J-561D01*
G03X9673Y8122I-378J-415D01*
G03X9111Y7561I0J-561D01*
G03X9251Y7190I561J0D01*
G01X9252Y7189D01*
G03X9282Y7158I421J372D01*
G01X9283Y7157D01*
G01X9300Y7141D01*
G03X9402Y6959I373J90D01*
G01X9515Y6846D01*
G01Y6478D01*
G03X9628Y6207I384J0D01*
G01X10086Y5749D01*
G03X10357Y5636I271J271D01*
G01X10682D01*
G01X9996Y4950D01*
G03X9883Y4679I271J-271D01*
G01Y3160D01*
G03X9996Y2889I384J0D01*
G01X10188Y2697D01*
G01Y2679D01*
G01Y2678D01*
G01Y2664D01*
G01X10189Y2659D01*
G01Y2644D01*
G01Y2642D01*
G03X10205Y2543I560J36D01*
G01X6633D01*
G03X6223Y2720I-410J-384D01*
G03X5662Y2159I0J-561D01*
G03X5676Y2035I561J0D01*
G01X4413D01*
G01X3559Y2889D01*
G01Y5304D01*
G01X3571Y5317D01*
G01X3582Y5328D01*
G01X3585Y5332D01*
G01X3596Y5343D01*
G01Y5344D01*
G03X3736Y5715I-421J371D01*
G03X3428Y6216I-561J0D01*
G01X3577D01*
G03X3866Y6336I0J409D01*
G01X4362Y6832D01*
G01X4391Y6861D01*
G03X4747Y7090I-73J505D01*
G01Y6315D01*
G01Y6291D01*
G03X4646Y5969I460J-322D01*
G03X5207Y5408I561J0D01*
G03X5768Y5969I0J561D01*
G03X5667Y6291I-561J0D01*
G01Y6315D01*
G01Y7170D01*
G02X6068Y7356I540J-638D01*
G01X6636D01*
G03X6948Y7521I0J377D01*
G03X7239Y7440I291J480D01*
G03X7800Y8001I0J561D01*
G03X7239Y8562I-561J0D01*
G03X6960Y8488I0J-561D01*
G03X6636Y8671I-324J-194D01*
G01X5076D01*
G03X4699Y8294I0J-377D01*
G01Y7734D01*
G03X4700Y7705I377J0D01*
G03X4318Y7877I-382J-339D01*
G03X3813Y7439I0J-511D01*
G01X3784Y7410D01*
G01X3407Y7034D01*
G01X3118D01*
G03X3139Y7184I-541J150D01*
G03X3024Y7524I-561J0D01*
G03X3146Y7874I-439J350D01*
G03X2584Y8435I-561J0D01*
G03X2350Y8384I0J-561D01*
G03X2036Y8620I-314J-90D01*
G01X476D01*
G03X283Y8557I0J-327D01*
G01Y26466D01*
G01Y26468D01*
G01Y26469D01*
G01Y26470D01*
G02X1526Y27713I1243J0D01*
G01X1529D01*
G01X1530D01*
G01X26822D01*
G01Y23368D01*
G03X27686Y22504I864J0D01*
G01X34769D01*
G01Y2970D01*
G01Y1470D01*
G02X33526Y227I-1243J0D01*
G01X33522D01*
G01X29018D01*
G03X29574Y876I-101J649D01*
G03X28917Y1533I-657J0D01*
G03X28260Y876I0J-657D01*
G03X28816Y227I657J0D01*
G01X27318D01*
G03X27874Y876I-101J649D01*
G03X27217Y1533I-657J0D01*
G03X26560Y876I0J-657D01*
G03X27116Y227I657J0D01*
G01X14525D01*
G03X14736Y665I-350J439D01*
G03X14637Y983I-561J0D01*
G03X14736Y1300I-463J318D01*
G03X14174Y1862I-561J0D01*
G03X13857Y1763I0J-561D01*
G03X13539Y1862I-317J-463D01*
G03X12978Y1300I0J-561D01*
G03X13076Y983I561J0D01*
G03X12978Y665I463J-317D01*
G03X13189Y227I561J0D01*
G01X7936D01*
G37*
%LPC*%
G36*
G01X15136Y7657D02*
G03X15697Y8218I0J561D01*
G03X15557Y8589I-561J0D01*
G01Y8590D01*
G03X15527Y8621I-421J-372D01*
G01X15526Y8622D01*
G01X15509Y8638D01*
G03X15407Y8819I-373J-90D01*
G01X15128Y9099D01*
G03X14857Y9211I-271J-271D01*
G01X12523D01*
G01X12322Y9413D01*
G01Y10130D01*
G01X12334Y10143D01*
G01X12345Y10154D01*
G01X12348Y10158D01*
G01X12359Y10169D01*
G01Y10170D01*
G03X12499Y10541I-421J371D01*
G03X12363Y10908I-561J0D01*
G01X12447Y10992D01*
G01X15761D01*
G01X15801Y10952D01*
G03X16072Y10840I271J271D01*
G01X16567D01*
G03X16839Y10952I0J384D01*
G01X17081Y11194D01*
G03X17193Y11465I-271J271D01*
G01Y11810D01*
G01X17206Y11822D01*
G01X17216Y11833D01*
G01X17220Y11837D01*
G01X17230Y11848D01*
G01X17231Y11849D01*
G03X17371Y12220I-421J371D01*
G03X17064Y12720I-561J0D01*
G03X17371Y13220I-255J500D01*
G03X17064Y13720I-561J0D01*
G03X17371Y14220I-255J500D01*
G03X17064Y14720I-561J0D01*
G03X17371Y15220I-255J500D01*
G03X16809Y15781I-561J0D01*
G03X16251Y15279I0J-561D01*
G03X15740Y14720I50J-559D01*
G03X16046Y14220I561J0D01*
G03X15740Y13720I255J-500D01*
G03X16251Y13161I561J0D01*
G03X16554Y12720I558J59D01*
G03X16251Y12279I255J-500D01*
G03X15931Y12141I50J-559D01*
G01X15930Y12140D01*
G03X15901Y12113I372J-421D01*
G01X15891Y12103D01*
G01X12101D01*
G03X11830Y11991I0J-384D01*
G01X11449Y11611D01*
G01X11431D01*
G01X11430D01*
G01X11416Y11610D01*
G01X11411D01*
G01X11396Y11609D01*
G01X11394D01*
G03X10869Y11049I36J-560D01*
G03X11009Y10678I561J0D01*
G01Y10677D01*
G03X11037Y10649I421J372D01*
G01X11046Y10638D01*
G01Y9017D01*
G03X11159Y8746I384J0D01*
G01X11831Y8074D01*
G03X12102Y7961I271J271D01*
G01X14075D01*
G01X14088Y7949D01*
G01X14099Y7938D01*
G01X14103Y7935D01*
G01X14114Y7924D01*
G01X14115Y7923D01*
G03X14486Y7784I371J421D01*
G03X14724Y7837I0J561D01*
G03X15136Y7657I412J381D01*
G37*
G36*
G01X25011Y2470D02*
G03X25318Y2778I0J307D01*
G01Y3828D01*
G03X25011Y4135I-307J0D01*
G01X24994D01*
G01Y6223D01*
G03X23680Y7537I-1314J0D01*
G01X21874D01*
G03X21578Y7761I-296J-83D01*
G01X19778D01*
G03X19471Y7454I0J-307D01*
G01Y6654D01*
G03X19778Y6347I307J0D01*
G01X21578D01*
G03X21874Y6571I0J307D01*
G01X23680D01*
G02X24028Y6223I0J-348D01*
G01Y4135D01*
G01X24011D01*
G03X23704Y3828I0J-307D01*
G01Y2778D01*
G03X24011Y2470I307J0D01*
G01X25011D01*
G37*
G36*
G01X1059Y22935D02*
G03X1562Y22433I502J0D01*
G01X2972D01*
G03X3474Y22935I0J502D01*
G01Y23845D01*
G03X2972Y24347I-502J0D01*
G01X1562D01*
G03X1059Y23845I0J-502D01*
G01Y22935D01*
G37*
G36*
G01X2972Y18833D02*
G03X3474Y19335I0J502D01*
G01Y20245D01*
G03X2972Y20747I-502J0D01*
G01X1562D01*
G03X1059Y20245I0J-502D01*
G01Y19335D01*
G03X1562Y18833I502J0D01*
G01X2972D01*
G37*
G36*
G01X340Y26543D02*
G03X1397Y25486I1057J0D01*
G03X2454Y26543I0J1057D01*
G03X1397Y27600I-1057J0D01*
G03X340Y26543I0J-1057D01*
G37*
G36*
G01X5209Y12659D02*
G03X5770Y13220I0J561D01*
G03X5464Y13720I-561J0D01*
G03X5770Y14220I-255J500D01*
G03X5464Y14720I-561J0D01*
G03X5770Y15220I-255J500D01*
G03X5209Y15781I-561J0D01*
G03X4648Y15220I0J-561D01*
G03X4954Y14720I561J0D01*
G03X4648Y14220I255J-500D01*
G03X4954Y13720I561J0D01*
G03X4648Y13220I255J-500D01*
G03X5209Y12659I561J0D01*
G37*
G36*
G01X24740Y25920D02*
G03X25301Y25358I561J0D01*
G03X25619Y25457I0J561D01*
G03X25936Y25358I318J463D01*
G03X26498Y25920I0J561D01*
G03X26399Y26237I-561J0D01*
G03X26498Y26555I-463J318D01*
G03X25936Y27116I-561J0D01*
G03X25619Y27017I0J-561D01*
G03X25301Y27116I-317J-463D01*
G03X24740Y26555I0J-561D01*
G03X24838Y26237I561J0D01*
G03X24740Y25920I463J-317D01*
G37*
G36*
G01X19177Y25474D02*
G03X19738Y26035I0J561D01*
G03X19620Y26380I-561J0D01*
G03X19764Y26754I-418J375D01*
G03X19202Y27316I-561J0D01*
G03X18641Y26754I0J-561D01*
G03X18759Y26410I561J0D01*
G03X18616Y26035I418J-375D01*
G03X19177Y25474I561J0D01*
G37*
G36*
G01X31496Y20394D02*
G03X32057Y20955I0J561D01*
G03X31496Y21516I-561J0D01*
G03X31242Y21456I0J-561D01*
G03X30988Y21516I-254J-501D01*
G03X30427Y20955I0J-561D01*
G03X30988Y20394I561J0D01*
G03X31242Y20454I0J561D01*
G03X31496Y20394I254J501D01*
G37*
G36*
G01X4261Y11080D02*
G03X4918Y10423I657J0D01*
G03X5575Y11080I0J657D01*
G03X4918Y11737I-657J0D01*
G03X4261Y11080I0J-657D01*
G37*
G36*
G01X4261Y16860D02*
G03X4918Y16203I657J0D01*
G03X5575Y16860I0J657D01*
G03X4918Y17517I-657J0D01*
G03X4261Y16860I0J-657D01*
G37*
G36*
G01X16440Y16410D02*
G03X17002Y16971I0J561D01*
G03X16440Y17532I-561J0D01*
G03X15879Y16971I0J-561D01*
G03X16440Y16410I561J0D01*
G37*
G36*
G01X8837Y10287D02*
G03X9398Y9726I561J0D01*
G03X9959Y10287I0J561D01*
G03X9398Y10848I-561J0D01*
G03X8837Y10287I0J-561D01*
G37*
G36*
G01X6934Y12220D02*
G03X7495Y11659I561J0D01*
G03X8056Y12220I0J561D01*
G03X7495Y12781I-561J0D01*
G03X6934Y12220I0J-561D01*
G37*
G36*
G01X14089Y10220D02*
G03X14650Y9659I561J0D01*
G03X15212Y10220I0J561D01*
G03X14650Y10781I-561J0D01*
G03X14089Y10220I0J-561D01*
G37*
G36*
G01X22426Y25781D02*
G03X22987Y25220I561J0D01*
G03X23548Y25781I0J561D01*
G03X22987Y26342I-561J0D01*
G03X22426Y25781I0J-561D01*
G37*
G36*
G01X17945Y19392D02*
G03X18507Y19953I0J561D01*
G03X17945Y20515I-561J0D01*
G03X17384Y19953I0J-561D01*
G03X17945Y19392I561J0D01*
G37*
%LPD*%
G36*
G01X7178Y876D02*
G03X7734Y227I657J0D01*
G01X6236D01*
G03X6792Y876I-101J649D01*
G03X6629Y1309I-657J0D01*
G03X6727Y1380I-174J342D01*
G01X6868Y1521D01*
G01X7710D01*
G03X7178Y876I125J-645D01*
G37*
G36*
G01X9656Y19433D02*
G01X9656Y17505D01*
G01X7698D01*
G01Y19298D01*
G01X9178D01*
G03X9404Y19433I0J257D01*
G01X9656D01*
G37*
G36*
G01X11156Y16270D02*
G01X10823Y15938D01*
G01X9485D01*
G01Y15954D01*
G03X9446Y16104I-307J0D01*
G03X9485Y16254I-268J150D01*
G01Y16270D01*
G01X11156D01*
G37*
G36*
G01X11600Y3188D02*
G03X11207Y3004I0J-511D01*
G03X10786Y3238I-457J-326D01*
G01X10784D01*
G03X10750Y3239I-34J-560D01*
G01X10745D01*
G01X10730D01*
G01X10651Y3319D01*
G01Y3476D01*
G03X10750Y3467I99J553D01*
G03X11311Y4029I0J561D01*
G03X11171Y4399I-561J0D01*
G01X11170Y4400D01*
G03X11143Y4429I-421J-372D01*
G01X11133Y4439D01*
G01Y4495D01*
G01X11462Y4823D01*
G01X12558D01*
G01X12048Y4313D01*
G03X11935Y4042I271J-271D01*
G01Y3063D01*
G03X11600Y3188I-335J-385D01*
G37*
G36*
G01X17427Y8423D02*
G01X17427Y9294D01*
G01X19941Y11808D01*
G01X20078D01*
G03X20224Y11607I517J219D01*
G01X20225Y11606D01*
G03X20482Y11477I371J421D01*
G01X17427Y8423D01*
G37*
G36*
G01X25000Y9578D02*
G01X24710Y9868D01*
G03X24439Y9980I-271J-271D01*
G01X20788D01*
G01X22997Y12189D01*
G01X23683D01*
G03X23674Y12086I552J-103D01*
G03X24199Y11526I561J0D01*
G01X24201D01*
G03X24235Y11525I34J560D01*
G01X24240D01*
G01X24254D01*
G01X25000Y10779D01*
G01Y9578D01*
G37*
G36*
G01X25855Y17275D02*
G03X25868Y17397I-548J123D01*
G03X25307Y17958I-561J0D01*
G03X24903Y17787I0J-561D01*
G03X24499Y17958I-404J-390D01*
G03X23949Y17507I0J-561D01*
G01X23014Y18441D01*
G03X23255Y18902I-321J461D01*
G03X23115Y19272I-561J0D01*
G01X23114Y19273D01*
G03X23087Y19302I-421J-372D01*
G01X23077Y19312D01*
G01Y22328D01*
G03X23234Y22306I157J539D01*
G03X23605Y22446I0J561D01*
G01X23606Y22447D01*
G03X23634Y22474I-372J421D01*
G01X23645Y22484D01*
G01X25996D01*
G01X26667Y21812D01*
G01Y18796D01*
G01Y17920D01*
G01X26022Y17275D01*
G01X25855D01*
G37*
%LPC*%
G36*
G01X24474Y18902D02*
G03X25035Y18340I561J0D01*
G03X25426Y18498I0J561D01*
G03X25816Y18340I391J403D01*
G03X26378Y18902I0J561D01*
G03X25816Y19463I-561J0D01*
G03X25426Y19305I0J-561D01*
G03X25035Y19463I-391J-403D01*
G03X24474Y18902I0J-561D01*
G37*
%LPD*%
G36*
G01X27868Y14207D02*
G01X27868Y12391D01*
G03X27397Y12648I-471J-305D01*
G03X27007Y12490I0J-561D01*
G03X26616Y12648I-391J-403D01*
G03X26216Y12480I0J-561D01*
G03X25816Y12648I-400J-394D01*
G03X25416Y12480I0J-561D01*
G03X25016Y12648I-400J-394D01*
G03X24773Y12593I0J-561D01*
G01X25093Y12912D01*
G03X25205Y13183I-271J271D01*
G01Y16190D01*
G01X25522Y16507D01*
G01X26181D01*
G03X26452Y16620I0J384D01*
G01X26913Y17081D01*
G03X27336Y16834I467J312D01*
G01X27339Y16833D01*
G01X27340D01*
G01X27343Y16832D01*
G01X27609Y16566D01*
G01Y14626D01*
G03X27721Y14355I384J0D01*
G01X27868Y14207D01*
G37*
G36*
G01X30960Y10492D02*
G01X30960Y7989D01*
G03X30878Y8110I-353J-150D01*
G01X30498Y8490D01*
G01Y8508D01*
G01Y8509D01*
G01Y8523D01*
G01Y8528D01*
G01X30497Y8543D01*
G01Y8545D01*
G03X29937Y9070I-560J-36D01*
G03X29375Y8509I0J-561D01*
G03X29486Y8175I561J0D01*
G01X26816D01*
G01X26553Y8438D01*
G01Y11110D01*
G01X26714Y10949D01*
G03X26985Y10837I271J271D01*
G01X29248D01*
G03X29458Y10670I277J134D01*
G03X29217Y10370I67J-300D01*
G01Y9870D01*
G03X29525Y9563I307J0D01*
G01X30525D01*
G03X30832Y9870I0J307D01*
G01Y10370D01*
G03X30826Y10430I-307J0D01*
G03X30960Y10492I-166J536D01*
G37*
G36*
G01X30667Y15334D02*
G03X30555Y15076I271J-271D01*
G03X30525Y15077I-30J-306D01*
G01X29559D01*
G03X29487Y15188I-502J-250D01*
G03X29574Y15488I-474J301D01*
G03X29182Y16024I-561J0D01*
G03X29465Y16168I-103J552D01*
G03X29525Y16163I59J302D01*
G01X30525D01*
G03X30707Y16222I0J307D01*
G01Y15374D01*
G01X30667Y15334D01*
G37*
G54D8191*
G01X5478Y876D02*
G03X6034Y227I657J0D01*
G01X1530D01*
G01X1526D01*
G02X283Y1470I0J1243D01*
G01Y7471D01*
G03X476Y7407I193J263D01*
G01X787D01*
G02X847Y7253I-166J-154D01*
G03X967Y6964I409J0D01*
G01X1595Y6336D01*
G03X1884Y6216I289J289D01*
G01X2922D01*
G03X2614Y5715I253J-501D01*
G03X2754Y5344I561J0D01*
G01Y5343D01*
G03X2782Y5315I421J372D01*
G01X2791Y5304D01*
G01Y2730D01*
G03X2904Y2459I384J0D01*
G01X3983Y1380D01*
G03X4254Y1267I271J271D01*
G01X5607D01*
G03X5478Y876I528J-391D01*
G01X1397Y340D02*
G03X2454Y1397I0J1057D01*
G03X1397Y2454I-1057J0D01*
G03X340Y1397I0J-1057D01*
G03X1397Y340I1057J0D01*
G01X7936Y227D02*
G03X8492Y876I-101J649D01*
G03X7960Y1521I-657J0D01*
G01X11916D01*
G03X12187Y1634I0J384D01*
G01X12844Y2291D01*
G03X12957Y2562I-271J271D01*
G01Y3778D01*
G01X13367Y4188D01*
G01X13454D01*
G03X13387Y3937I444J-252D01*
G03X13898Y3426I511J0D01*
G03X14408Y3937I0J511D01*
G03X14342Y4188I-511J0D01*
G01X16983D01*
G03X17254Y4301I0J384D01*
G01X18432Y5479D01*
G03X18545Y5750I-271J271D01*
G01Y7378D01*
G01X20380Y9213D01*
G01X24280D01*
G01X24635Y8858D01*
G01Y7906D01*
G03X24748Y7635I384J0D01*
G01X26007Y6375D01*
G03X26279Y6263I271J271D01*
G01X28892D01*
G01X29351Y5804D01*
G03X29622Y5692I271J271D01*
G01X31690D01*
G03X31961Y5804I0J384D01*
G01X32408Y6251D01*
G03X32520Y6522I-271J271D01*
G01Y7975D01*
G01X33418Y8873D01*
G03X33531Y9144I-271J271D01*
G01Y12065D01*
G03X33418Y12336I-384J0D01*
G01X32579Y13175D01*
G01Y14159D01*
G03X32467Y14431I-384J0D01*
G01X31753Y15145D01*
G01Y16764D01*
G03X31640Y17035I-384J0D01*
G01X31132Y17543D01*
G03X30861Y17656I-271J-271D01*
G01X30832D01*
G01Y18070D01*
G03X30525Y18377I-307J0D01*
G01X29947D01*
G01X30149Y18580D01*
G01X32823D01*
G03X33094Y18692I0J384D01*
G01X33414Y19011D01*
G03X33526Y19283I-271J271D01*
G01Y19865D01*
G03X33531Y19924I-379J59D01*
G01Y21179D01*
G01X33543Y21192D01*
G01X33554Y21203D01*
G01X33557Y21207D01*
G01X33568Y21218D01*
G01Y21219D01*
G03X33708Y21590I-421J371D01*
G03X33147Y22151I-561J0D01*
G03X32586Y21590I0J-561D01*
G03X32726Y21219I561J0D01*
G01Y21218D01*
G03X32754Y21190I421J372D01*
G01X32763Y21179D01*
G01Y20105D01*
G03X32639Y20119I-124J-547D01*
G03X32093Y19688I0J-561D01*
G01X29917D01*
G03X29645Y19575I0J-384D01*
G01X28282Y18211D01*
G03X28235Y18155I271J-271D01*
G01X27488Y18901D01*
G01X27478Y18916D01*
G01X27467Y18937D01*
G01X27455Y18963D01*
G01X27445Y18990D01*
G01X27438Y19014D01*
G01X27435Y19031D01*
G01Y21971D01*
G03X27322Y22242I-384J0D01*
G01X26426Y23138D01*
G03X26155Y23251I-271J-271D01*
G01X23644D01*
G01X23632Y23264D01*
G01X23621Y23274D01*
G01X23617Y23278D01*
G01X23606Y23288D01*
G01X23605Y23289D01*
G03X23234Y23429I-371J-421D01*
G03X23077Y23406I0J-561D01*
G01Y23661D01*
G03X22965Y23933I-384J0D01*
G01X21988Y24909D01*
G03X21717Y25022I-271J-271D01*
G01X13156D01*
G03X12885Y24909I0J-384D01*
G01X12616Y24641D01*
G01X12284D01*
G01X12740Y25097D01*
G01X12786Y25093D01*
G01X12805D01*
G01X12809D01*
G01X12815D01*
G01X12827D01*
G03X13388Y25654I0J561D01*
G03X12827Y26215I-561J0D01*
G03X12266Y25654I0J-561D01*
G01Y25642D01*
G01Y25636D01*
G01Y25632D01*
G01Y25613D01*
G01X12270Y25567D01*
G01X11673Y24971D01*
G01X11657D01*
G03X11875Y25415I-343J444D01*
G03X11777Y25732I-561J0D01*
G03X11875Y26050I-463J318D01*
G03X11314Y26611I-561J0D01*
G03X10997Y26513I0J-561D01*
G03X10679Y26611I-317J-463D01*
G03X10118Y26050I0J-561D01*
G03X10216Y25732I561J0D01*
G03X10118Y25415I463J-317D01*
G03X10336Y24971I561J0D01*
G01X8509D01*
G03X8274Y24873I0J-333D01*
G01X7131Y23730D01*
G03X7033Y23495I235J-235D01*
G01Y21728D01*
G01X6929Y21623D01*
G03X6837Y21646I-128J-322D01*
G03X6731Y21656I-106J-564D01*
G03X6636Y21648I0J-574D01*
G01X6256D01*
G03X6115Y21666I-141J-557D01*
G01X4836D01*
G03X4464Y21529I0J-574D01*
G01X4064D01*
G03X3490Y20955I0J-574D01*
G03X4064Y20381I574J0D01*
G01X4699D01*
G03X5071Y20517I0J574D01*
G01X6115D01*
G03X6157Y20519I0J574D01*
G01Y20447D01*
G03X6731Y19873I574J0D01*
G03X7305Y20447I0J574D01*
G01Y21056D01*
G01X7310Y21062D01*
G01X7320Y21073D01*
G01X7324Y21078D01*
G01X7601Y21355D01*
G03X7699Y21590I-235J235D01*
G01Y23357D01*
G01X8647Y24305D01*
G01X10306D01*
G03X10107Y23876I362J-429D01*
G03X10668Y23315I561J0D01*
G03X11228Y23840I0J561D01*
G01Y23842D01*
G03X11229Y23873I-560J34D01*
G01X12384D01*
G03X12321Y23614I498J-259D01*
G03X12882Y23053I561J0D01*
G03X13443Y23578I0J561D01*
G01Y23580D01*
G03X13444Y23614I-560J34D01*
G03X13440Y23679I-561J0D01*
G01X13439Y23692D01*
G01X13494Y23746D01*
G01X15944D01*
G01X16095Y23596D01*
G03X16066Y23577I288J-482D01*
G03X15748Y23675I-317J-463D01*
G03X15187Y23114I0J-561D01*
G03X15748Y22553I561J0D01*
G03X16066Y22651I0J561D01*
G03X16383Y22553I318J463D01*
G03X16944Y23114I0J561D01*
G03X16932Y23231I-561J0D01*
G01X20423D01*
G01X21333Y22320D01*
G01Y20008D01*
G01X21307Y19982D01*
G03X20911Y20146I-397J-397D01*
G03X20382Y19775I0J-561D01*
G03X19939Y19992I-443J-344D01*
G03X19379Y19467I0J-561D01*
G01Y19465D01*
G03X19378Y19431I560J-34D01*
G01Y19426D01*
G01X19377Y19412D01*
G01X18637Y18672D01*
G01X15615D01*
G03X15674Y18923I-502J251D01*
G03X15113Y19484I-561J0D01*
G03X14552Y18923I0J-561D01*
G03X14611Y18672I561J0D01*
G01X13208D01*
G03X12937Y18559I0J-384D01*
G01X11415Y17037D01*
G01X9485D01*
G01Y17054D01*
G03X9471Y17147I-307J0D01*
G01X9758D01*
G03X10014Y17403I0J257D01*
G01Y19535D01*
G03X9758Y19791I-257J0D01*
G01X7596D01*
G03X7340Y19535I0J-257D01*
G01Y19508D01*
G03X7122Y19254I38J-254D01*
G01Y18454D01*
G03X7340Y18200I257J0D01*
G01Y17403D01*
G03X7344Y17359I257J0D01*
G03X7071Y17054I35J-305D01*
G01Y16254D01*
G03X7110Y16104I307J0D01*
G03X7071Y15954I268J-150D01*
G01Y15154D01*
G03X7378Y14847I307J0D01*
G01X9178D01*
G03X9485Y15154I0J307D01*
G01Y15171D01*
G01X10982D01*
G03X11253Y15283I0J384D01*
G01X13536Y17565D01*
G01X19219D01*
G03X19471Y17659I0J384D01*
G01Y17354D01*
G03X19778Y17047I307J0D01*
G01X21578D01*
G03X21863Y17239I0J307D01*
G01Y16523D01*
G03X21463Y16690I-400J-394D01*
G03X20902Y16129I0J-561D01*
G03X21463Y15568I561J0D01*
G03X21784Y15668I0J561D01*
G03X22246Y15425I463J318D01*
G03X22808Y15986I0J561D01*
G03X22668Y16357I-561J0D01*
G01X22667Y16358D01*
G03X22640Y16386I-421J-372D01*
G01X22630Y16397D01*
G01Y17341D01*
G01X22914Y17057D01*
G01Y14074D01*
G03X23026Y13802I384J0D01*
G01X23209Y13620D01*
G01Y13602D01*
G01Y13601D01*
G01Y13587D01*
G01Y13581D01*
G01X23210Y13566D01*
G01Y13565D01*
G03X23218Y13502I560J36D01*
G01X22665D01*
G03X22394Y13389I0J-384D01*
G01X21145Y12141D01*
G03X21046Y12362I-550J-114D01*
G03X21157Y12697I-451J335D01*
G03X20595Y13258I-561J0D01*
G03X20072Y12898I0J-561D01*
G01X19674D01*
G03X19403Y12786I0J-384D01*
G01X16467Y9850D01*
G03X16355Y9579I271J-271D01*
G01Y7118D01*
G01X15945Y6708D01*
G01X12876D01*
G03X12347Y7155I-529J-89D01*
G03X12061Y7072I0J-536D01*
G03X11740Y7179I-321J-429D01*
G03X11211Y6734I0J-536D01*
G01X10616D01*
G01X10587Y6763D01*
G01Y6846D01*
G01X10701Y6959D01*
G03X10802Y7141I-271J271D01*
G01X10820Y7157D01*
G01X10821Y7158D01*
G03X10850Y7189I-391J403D01*
G01X10851Y7190D01*
G03X10991Y7561I-421J371D01*
G03X10430Y8122I-561J0D01*
G03X10051Y7975I0J-561D01*
G03X9673Y8122I-378J-415D01*
G03X9111Y7561I0J-561D01*
G03X9251Y7190I561J0D01*
G01X9252Y7189D01*
G03X9282Y7158I421J372D01*
G01X9283Y7157D01*
G01X9300Y7141D01*
G03X9402Y6959I373J90D01*
G01X9515Y6846D01*
G01Y6478D01*
G03X9628Y6207I384J0D01*
G01X10086Y5749D01*
G03X10357Y5636I271J271D01*
G01X10682D01*
G01X9996Y4950D01*
G03X9883Y4679I271J-271D01*
G01Y3160D01*
G03X9996Y2889I384J0D01*
G01X10188Y2697D01*
G01Y2679D01*
G01Y2678D01*
G01Y2664D01*
G01X10189Y2659D01*
G01Y2644D01*
G01Y2642D01*
G03X10205Y2543I560J36D01*
G01X6633D01*
G03X6223Y2720I-410J-384D01*
G03X5662Y2159I0J-561D01*
G03X5676Y2035I561J0D01*
G01X4413D01*
G01X3559Y2889D01*
G01Y5304D01*
G01X3571Y5317D01*
G01X3582Y5328D01*
G01X3585Y5332D01*
G01X3596Y5343D01*
G01Y5344D01*
G03X3736Y5715I-421J371D01*
G03X3428Y6216I-561J0D01*
G01X3577D01*
G03X3866Y6336I0J409D01*
G01X4362Y6832D01*
G01X4391Y6861D01*
G03X4747Y7090I-73J505D01*
G01Y6315D01*
G01Y6291D01*
G03X4646Y5969I460J-322D01*
G03X5207Y5408I561J0D01*
G03X5768Y5969I0J561D01*
G03X5667Y6291I-561J0D01*
G01Y6315D01*
G01Y7170D01*
G02X6068Y7356I540J-638D01*
G01X6636D01*
G03X6948Y7521I0J377D01*
G03X7239Y7440I291J480D01*
G03X7800Y8001I0J561D01*
G03X7239Y8562I-561J0D01*
G03X6960Y8488I0J-561D01*
G03X6636Y8671I-324J-194D01*
G01X5076D01*
G03X4699Y8294I0J-377D01*
G01Y7734D01*
G03X4700Y7705I377J0D01*
G03X4318Y7877I-382J-339D01*
G03X3813Y7439I0J-511D01*
G01X3784Y7410D01*
G01X3407Y7034D01*
G01X3118D01*
G03X3139Y7184I-541J150D01*
G03X3024Y7524I-561J0D01*
G03X3146Y7874I-439J350D01*
G03X2584Y8435I-561J0D01*
G03X2350Y8384I0J-561D01*
G03X2036Y8620I-314J-90D01*
G01X476D01*
G03X283Y8557I0J-327D01*
G01Y26466D01*
G01Y26468D01*
G01Y26469D01*
G01Y26470D01*
G02X1526Y27713I1243J0D01*
G01X1529D01*
G01X1530D01*
G01X26822D01*
G01Y23368D01*
G03X27686Y22504I864J0D01*
G01X34769D01*
G01Y2970D01*
G01Y1470D01*
G02X33526Y227I-1243J0D01*
G01X33522D01*
G01X29018D01*
G03X29574Y876I-101J649D01*
G03X28917Y1533I-657J0D01*
G03X28260Y876I0J-657D01*
G03X28816Y227I657J0D01*
G01X27318D01*
G03X27874Y876I-101J649D01*
G03X27217Y1533I-657J0D01*
G03X26560Y876I0J-657D01*
G03X27116Y227I657J0D01*
G01X14525D01*
G03X14736Y665I-350J439D01*
G03X14637Y983I-561J0D01*
G03X14736Y1300I-463J318D01*
G03X14174Y1862I-561J0D01*
G03X13857Y1763I0J-561D01*
G03X13539Y1862I-317J-463D01*
G03X12978Y1300I0J-561D01*
G03X13076Y983I561J0D01*
G03X12978Y665I463J-317D01*
G03X13189Y227I561J0D01*
G01X7936D01*
G01X15136Y7657D02*
G03X15697Y8218I0J561D01*
G03X15557Y8589I-561J0D01*
G01Y8590D01*
G03X15527Y8621I-421J-372D01*
G01X15526Y8622D01*
G01X15509Y8638D01*
G03X15407Y8819I-373J-90D01*
G01X15128Y9099D01*
G03X14857Y9211I-271J-271D01*
G01X12523D01*
G01X12322Y9413D01*
G01Y10130D01*
G01X12334Y10143D01*
G01X12345Y10154D01*
G01X12348Y10158D01*
G01X12359Y10169D01*
G01Y10170D01*
G03X12499Y10541I-421J371D01*
G03X12363Y10908I-561J0D01*
G01X12447Y10992D01*
G01X15761D01*
G01X15801Y10952D01*
G03X16072Y10840I271J271D01*
G01X16567D01*
G03X16839Y10952I0J384D01*
G01X17081Y11194D01*
G03X17193Y11465I-271J271D01*
G01Y11810D01*
G01X17206Y11822D01*
G01X17216Y11833D01*
G01X17220Y11837D01*
G01X17230Y11848D01*
G01X17231Y11849D01*
G03X17371Y12220I-421J371D01*
G03X17064Y12720I-561J0D01*
G03X17371Y13220I-255J500D01*
G03X17064Y13720I-561J0D01*
G03X17371Y14220I-255J500D01*
G03X17064Y14720I-561J0D01*
G03X17371Y15220I-255J500D01*
G03X16809Y15781I-561J0D01*
G03X16251Y15279I0J-561D01*
G03X15740Y14720I50J-559D01*
G03X16046Y14220I561J0D01*
G03X15740Y13720I255J-500D01*
G03X16251Y13161I561J0D01*
G03X16554Y12720I558J59D01*
G03X16251Y12279I255J-500D01*
G03X15931Y12141I50J-559D01*
G01X15930Y12140D01*
G03X15901Y12113I372J-421D01*
G01X15891Y12103D01*
G01X12101D01*
G03X11830Y11991I0J-384D01*
G01X11449Y11611D01*
G01X11431D01*
G01X11430D01*
G01X11416Y11610D01*
G01X11411D01*
G01X11396Y11609D01*
G01X11394D01*
G03X10869Y11049I36J-560D01*
G03X11009Y10678I561J0D01*
G01Y10677D01*
G03X11037Y10649I421J372D01*
G01X11046Y10638D01*
G01Y9017D01*
G03X11159Y8746I384J0D01*
G01X11831Y8074D01*
G03X12102Y7961I271J271D01*
G01X14075D01*
G01X14088Y7949D01*
G01X14099Y7938D01*
G01X14103Y7935D01*
G01X14114Y7924D01*
G01X14115Y7923D01*
G03X14486Y7784I371J421D01*
G03X14724Y7837I0J561D01*
G03X15136Y7657I412J381D01*
G01X25011Y2470D02*
G03X25318Y2778I0J307D01*
G01Y3828D01*
G03X25011Y4135I-307J0D01*
G01X24994D01*
G01Y6223D01*
G03X23680Y7537I-1314J0D01*
G01X21874D01*
G03X21578Y7761I-296J-83D01*
G01X19778D01*
G03X19471Y7454I0J-307D01*
G01Y6654D01*
G03X19778Y6347I307J0D01*
G01X21578D01*
G03X21874Y6571I0J307D01*
G01X23680D01*
G02X24028Y6223I0J-348D01*
G01Y4135D01*
G01X24011D01*
G03X23704Y3828I0J-307D01*
G01Y2778D01*
G03X24011Y2470I307J0D01*
G01X25011D01*
G01X1059Y22935D02*
G03X1562Y22433I502J0D01*
G01X2972D01*
G03X3474Y22935I0J502D01*
G01Y23845D01*
G03X2972Y24347I-502J0D01*
G01X1562D01*
G03X1059Y23845I0J-502D01*
G01Y22935D01*
G01X2972Y18833D02*
G03X3474Y19335I0J502D01*
G01Y20245D01*
G03X2972Y20747I-502J0D01*
G01X1562D01*
G03X1059Y20245I0J-502D01*
G01Y19335D01*
G03X1562Y18833I502J0D01*
G01X2972D01*
G01X340Y26543D02*
G03X1397Y25486I1057J0D01*
G03X2454Y26543I0J1057D01*
G03X1397Y27600I-1057J0D01*
G03X340Y26543I0J-1057D01*
G01X5209Y12659D02*
G03X5770Y13220I0J561D01*
G03X5464Y13720I-561J0D01*
G03X5770Y14220I-255J500D01*
G03X5464Y14720I-561J0D01*
G03X5770Y15220I-255J500D01*
G03X5209Y15781I-561J0D01*
G03X4648Y15220I0J-561D01*
G03X4954Y14720I561J0D01*
G03X4648Y14220I255J-500D01*
G03X4954Y13720I561J0D01*
G03X4648Y13220I255J-500D01*
G03X5209Y12659I561J0D01*
G01X24740Y25920D02*
G03X25301Y25358I561J0D01*
G03X25619Y25457I0J561D01*
G03X25936Y25358I318J463D01*
G03X26498Y25920I0J561D01*
G03X26399Y26237I-561J0D01*
G03X26498Y26555I-463J318D01*
G03X25936Y27116I-561J0D01*
G03X25619Y27017I0J-561D01*
G03X25301Y27116I-317J-463D01*
G03X24740Y26555I0J-561D01*
G03X24838Y26237I561J0D01*
G03X24740Y25920I463J-317D01*
G01X19177Y25474D02*
G03X19738Y26035I0J561D01*
G03X19620Y26380I-561J0D01*
G03X19764Y26754I-418J375D01*
G03X19202Y27316I-561J0D01*
G03X18641Y26754I0J-561D01*
G03X18759Y26410I561J0D01*
G03X18616Y26035I418J-375D01*
G03X19177Y25474I561J0D01*
G01X31496Y20394D02*
G03X32057Y20955I0J561D01*
G03X31496Y21516I-561J0D01*
G03X31242Y21456I0J-561D01*
G03X30988Y21516I-254J-501D01*
G03X30427Y20955I0J-561D01*
G03X30988Y20394I561J0D01*
G03X31242Y20454I0J561D01*
G03X31496Y20394I254J501D01*
G01X4261Y11080D02*
G03X4918Y10423I657J0D01*
G03X5575Y11080I0J657D01*
G03X4918Y11737I-657J0D01*
G03X4261Y11080I0J-657D01*
G01X4261Y16860D02*
G03X4918Y16203I657J0D01*
G03X5575Y16860I0J657D01*
G03X4918Y17517I-657J0D01*
G03X4261Y16860I0J-657D01*
G01X16440Y16410D02*
G03X17002Y16971I0J561D01*
G03X16440Y17532I-561J0D01*
G03X15879Y16971I0J-561D01*
G03X16440Y16410I561J0D01*
G01X8837Y10287D02*
G03X9398Y9726I561J0D01*
G03X9959Y10287I0J561D01*
G03X9398Y10848I-561J0D01*
G03X8837Y10287I0J-561D01*
G01X6934Y12220D02*
G03X7495Y11659I561J0D01*
G03X8056Y12220I0J561D01*
G03X7495Y12781I-561J0D01*
G03X6934Y12220I0J-561D01*
G01X14089Y10220D02*
G03X14650Y9659I561J0D01*
G03X15212Y10220I0J561D01*
G03X14650Y10781I-561J0D01*
G03X14089Y10220I0J-561D01*
G01X22426Y25781D02*
G03X22987Y25220I561J0D01*
G03X23548Y25781I0J561D01*
G03X22987Y26342I-561J0D01*
G03X22426Y25781I0J-561D01*
G01X17945Y19392D02*
G03X18507Y19953I0J561D01*
G03X17945Y20515I-561J0D01*
G03X17384Y19953I0J-561D01*
G03X17945Y19392I561J0D01*
G01X7178Y876D02*
G03X7734Y227I657J0D01*
G01X6236D01*
G03X6792Y876I-101J649D01*
G03X6629Y1309I-657J0D01*
G03X6727Y1380I-174J342D01*
G01X6868Y1521D01*
G01X7710D01*
G03X7178Y876I125J-645D01*
G01X9656Y19433D02*
G01X9656Y17505D01*
G01X7698D01*
G01Y19298D01*
G01X9178D01*
G03X9404Y19433I0J257D01*
G01X9656D01*
G01X11156Y16270D02*
G01X10823Y15938D01*
G01X9485D01*
G01Y15954D01*
G03X9446Y16104I-307J0D01*
G03X9485Y16254I-268J150D01*
G01Y16270D01*
G01X11156D01*
G01X11600Y3188D02*
G03X11207Y3004I0J-511D01*
G03X10786Y3238I-457J-326D01*
G01X10784D01*
G03X10750Y3239I-34J-560D01*
G01X10745D01*
G01X10730D01*
G01X10651Y3319D01*
G01Y3476D01*
G03X10750Y3467I99J553D01*
G03X11311Y4029I0J561D01*
G03X11171Y4399I-561J0D01*
G01X11170Y4400D01*
G03X11143Y4429I-421J-372D01*
G01X11133Y4439D01*
G01Y4495D01*
G01X11462Y4823D01*
G01X12558D01*
G01X12048Y4313D01*
G03X11935Y4042I271J-271D01*
G01Y3063D01*
G03X11600Y3188I-335J-385D01*
G01X17427Y8423D02*
G01X17427Y9294D01*
G01X19941Y11808D01*
G01X20078D01*
G03X20224Y11607I517J219D01*
G01X20225Y11606D01*
G03X20482Y11477I371J421D01*
G01X17427Y8423D01*
G01X25000Y9578D02*
G01X24710Y9868D01*
G03X24439Y9980I-271J-271D01*
G01X20788D01*
G01X22997Y12189D01*
G01X23683D01*
G03X23674Y12086I552J-103D01*
G03X24199Y11526I561J0D01*
G01X24201D01*
G03X24235Y11525I34J560D01*
G01X24240D01*
G01X24254D01*
G01X25000Y10779D01*
G01Y9578D01*
G01X25855Y17275D02*
G03X25868Y17397I-548J123D01*
G03X25307Y17958I-561J0D01*
G03X24903Y17787I0J-561D01*
G03X24499Y17958I-404J-390D01*
G03X23949Y17507I0J-561D01*
G01X23014Y18441D01*
G03X23255Y18902I-321J461D01*
G03X23115Y19272I-561J0D01*
G01X23114Y19273D01*
G03X23087Y19302I-421J-372D01*
G01X23077Y19312D01*
G01Y22328D01*
G03X23234Y22306I157J539D01*
G03X23605Y22446I0J561D01*
G01X23606Y22447D01*
G03X23634Y22474I-372J421D01*
G01X23645Y22484D01*
G01X25996D01*
G01X26667Y21812D01*
G01Y18796D01*
G01Y17920D01*
G01X26022Y17275D01*
G01X25855D01*
G01X24474Y18902D02*
G03X25035Y18340I561J0D01*
G03X25426Y18498I0J561D01*
G03X25816Y18340I391J403D01*
G03X26378Y18902I0J561D01*
G03X25816Y19463I-561J0D01*
G03X25426Y19305I0J-561D01*
G03X25035Y19463I-391J-403D01*
G03X24474Y18902I0J-561D01*
G01X27868Y14207D02*
G01X27868Y12391D01*
G03X27397Y12648I-471J-305D01*
G03X27007Y12490I0J-561D01*
G03X26616Y12648I-391J-403D01*
G03X26216Y12480I0J-561D01*
G03X25816Y12648I-400J-394D01*
G03X25416Y12480I0J-561D01*
G03X25016Y12648I-400J-394D01*
G03X24773Y12593I0J-561D01*
G01X25093Y12912D01*
G03X25205Y13183I-271J271D01*
G01Y16190D01*
G01X25522Y16507D01*
G01X26181D01*
G03X26452Y16620I0J384D01*
G01X26913Y17081D01*
G03X27336Y16834I467J312D01*
G01X27339Y16833D01*
G01X27340D01*
G01X27343Y16832D01*
G01X27609Y16566D01*
G01Y14626D01*
G03X27721Y14355I384J0D01*
G01X27868Y14207D01*
G01X30960Y10492D02*
G01X30960Y7989D01*
G03X30878Y8110I-353J-150D01*
G01X30498Y8490D01*
G01Y8508D01*
G01Y8509D01*
G01Y8523D01*
G01Y8528D01*
G01X30497Y8543D01*
G01Y8545D01*
G03X29937Y9070I-560J-36D01*
G03X29375Y8509I0J-561D01*
G03X29486Y8175I561J0D01*
G01X26816D01*
G01X26553Y8438D01*
G01Y11110D01*
G01X26714Y10949D01*
G03X26985Y10837I271J271D01*
G01X29248D01*
G03X29458Y10670I277J134D01*
G03X29217Y10370I67J-300D01*
G01Y9870D01*
G03X29525Y9563I307J0D01*
G01X30525D01*
G03X30832Y9870I0J307D01*
G01Y10370D01*
G03X30826Y10430I-307J0D01*
G03X30960Y10492I-166J536D01*
G01X30667Y15334D02*
G03X30555Y15076I271J-271D01*
G03X30525Y15077I-30J-306D01*
G01X29559D01*
G03X29487Y15188I-502J-250D01*
G03X29574Y15488I-474J301D01*
G03X29182Y16024I-561J0D01*
G03X29465Y16168I-103J552D01*
G03X29525Y16163I59J302D01*
G01X30525D01*
G03X30707Y16222I0J307D01*
G01Y15374D01*
G01X30667Y15334D01*
G04 Copper End*

G04 Tear Start*
G36*
G01X5099Y7473D02*
G01X5398Y7340D01*
G02X6045Y7664I808J-808D01*
G01X5011Y7708D01*
G02X5099Y7473I-9J-138D01*
G37*
G36*
G01X1104Y7253D02*
G01X1408Y7253D01*
G02X1637Y7664I483J0D01*
G01X875D01*
G02X1104Y7253I-255J-411D01*
G37*
G36*
G01X6565Y18959D02*
G01X6357Y19110D01*
G01X6334Y19088D01*
G01X6297Y19057D01*
G01X6255Y19026D01*
G01X6210Y18998D01*
G01X6163Y18971D01*
G01X6113Y18947D01*
G01X6063Y18927D01*
G01X6013Y18910D01*
G01X5980Y18902D01*
G01X5947Y18895D01*
G01X5914Y18891D01*
G01X5883Y18890D01*
G01X5868D01*
G01X6400Y18524D01*
G01X6395Y18539D01*
G01X6390Y18554D01*
G01X6386Y18569D01*
G01X6383Y18584D01*
G01X6381Y18599D01*
G01X6380Y18613D01*
G01Y18628D01*
G01Y18642D01*
G01X6382Y18657D01*
G01X6384Y18671D01*
G01X6390Y18700D01*
G01X6400Y18728D01*
G01X6411Y18755D01*
G01X6425Y18783D01*
G01X6441Y18809D01*
G01X6469Y18849D01*
G01X6499Y18887D01*
G01X6543Y18935D01*
G01X6565Y18959D01*
G37*
G36*
G01X30606Y10934D02*
G01X30686Y11069D01*
G02X30525Y11253I1322J1322D01*
G01X30408Y10970D01*
G02X30606Y10934I73J-162D01*
G37*
G36*
G01X29296Y11296D02*
G01X29296Y11144D01*
G02X29525Y11030I0J-286D01*
G01Y11411D01*
G02X29296Y11296I-229J171D01*
G37*
G36*
G01X30652Y14108D02*
G01X30686Y14289D01*
G02X30525Y14613I404J404D01*
G01X30328Y14270D01*
G02X30652Y14108I-81J-566D01*
G37*
G36*
G01X30753Y16644D02*
G01X30753Y16796D01*
G02X30525Y16910I0J286D01*
G01Y16529D01*
G02X30753Y16644I229J-171D01*
G37*
G36*
G01X9407Y15478D02*
G01X9407Y15630D01*
G02X9178Y15745I0J286D01*
G01Y15364D01*
G02X9407Y15478I229J-171D01*
G37*
G36*
G01X9407Y16578D02*
G01X9407Y16730D01*
G02X9178Y16844I0J286D01*
G01Y16463D01*
G02X9407Y16578I229J-171D01*
G37*
G36*
G01X6316Y21168D02*
G01X6316Y21015D01*
G01X6338Y21014D01*
G01X6357Y21012D01*
G01X6373Y21007D01*
G01X6388Y21001D01*
G01X6401Y20994D01*
G01X6413Y20985D01*
G01X6424Y20976D01*
G01X6434Y20965D01*
G01X6464Y20927D01*
G01X6486Y20898D01*
G01X6513Y20869D01*
G01X6529Y20853D01*
G01Y21311D01*
G01X6501Y21284D01*
G01X6455Y21234D01*
G01X6433Y21212D01*
G01X6422Y21203D01*
G01X6410Y21194D01*
G01X6397Y21186D01*
G01X6384Y21180D01*
G01X6369Y21175D01*
G01X6353Y21171D01*
G01X6335Y21169D01*
G01X6316Y21168D01*
G37*
G36*
G01X7142Y21258D02*
G01X7034Y21366D01*
G01X7021Y21355D01*
G01X7005Y21348D01*
G01X6988Y21344D01*
G01X6969Y21342D01*
G01X6949Y21343D01*
G01X6928Y21345D01*
G01X6883Y21354D01*
G01X6792Y21376D01*
G01X6749Y21384D01*
G01X6730Y21386D01*
G01X6712D01*
G01X7035Y21063D01*
G01X7037Y21076D01*
G01X7039Y21090D01*
G01X7042Y21103D01*
G01X7047Y21116D01*
G01X7052Y21130D01*
G01X7064Y21156D01*
G01X7079Y21181D01*
G01X7096Y21205D01*
G01X7114Y21227D01*
G01X7132Y21248D01*
G01X7142Y21258D01*
G37*
G36*
G01X14140Y8421D02*
G01X14140Y8269D01*
G01X14155Y8268D01*
G01X14170Y8266D01*
G01X14183Y8263D01*
G01X14195Y8259D01*
G01X14206Y8254D01*
G01X14217Y8248D01*
G01X14227Y8241D01*
G01X14237Y8233D01*
G01X14256Y8216D01*
G01X14306Y8165D01*
G01X14318Y8154D01*
G01Y8535D01*
G01X14285Y8504D01*
G01X14246Y8465D01*
G01X14237Y8457D01*
G01X14227Y8449D01*
G01X14217Y8442D01*
G01X14206Y8436D01*
G01X14195Y8431D01*
G01X14183Y8427D01*
G01X14170Y8424D01*
G01X14155Y8422D01*
G01X14140Y8421D01*
G37*
G36*
G01X15212Y8548D02*
G01X15060Y8548D01*
G01X15059Y8533D01*
G01X15057Y8519D01*
G01X15054Y8507D01*
G01X15050Y8495D01*
G01X15045Y8485D01*
G01X15039Y8476D01*
G01X15032Y8467D01*
G01X15024Y8459D01*
G01X15007Y8443D01*
G01X14967Y8408D01*
G01X14945Y8386D01*
G01X15326D01*
G01X15305Y8408D01*
G01X15265Y8443D01*
G01X15248Y8459D01*
G01X15240Y8467D01*
G01X15233Y8476D01*
G01X15227Y8485D01*
G01X15222Y8495D01*
G01X15218Y8507D01*
G01X15215Y8519D01*
G01X15213Y8533D01*
G01X15212Y8548D01*
G37*
G36*
G01X11354Y10703D02*
G01X11506Y10703D01*
G01X11507Y10719D01*
G01X11509Y10733D01*
G01X11512Y10746D01*
G01X11516Y10758D01*
G01X11521Y10770D01*
G01X11527Y10780D01*
G01X11534Y10790D01*
G01X11542Y10800D01*
G01X11559Y10819D01*
G01X11610Y10869D01*
G01X11621Y10881D01*
G01X11240D01*
G01X11271Y10848D01*
G01X11310Y10810D01*
G01X11318Y10800D01*
G01X11326Y10790D01*
G01X11333Y10780D01*
G01X11339Y10770D01*
G01X11344Y10758D01*
G01X11348Y10746D01*
G01X11351Y10733D01*
G01X11353Y10719D01*
G01X11354Y10703D01*
G37*
G36*
G01X11728Y11240D02*
G01X11621Y11347D01*
G01X11609Y11337D01*
G01X11598Y11328D01*
G01X11586Y11321D01*
G01X11575Y11315D01*
G01X11563Y11311D01*
G01X11551Y11308D01*
G01X11539Y11306D01*
G01X11527Y11304D01*
G01X11501Y11303D01*
G01X11430D01*
G01X11414D01*
G01X11684Y11033D01*
G01Y11079D01*
G01Y11133D01*
G01X11685Y11146D01*
G01X11687Y11158D01*
G01X11689Y11170D01*
G01X11692Y11182D01*
G01X11696Y11194D01*
G01X11702Y11205D01*
G01X11709Y11217D01*
G01X11718Y11228D01*
G01X11728Y11240D01*
G37*
G36*
G01X11862Y10195D02*
G01X12014Y10195D01*
G01X12015Y10211D01*
G01X12017Y10225D01*
G01X12020Y10238D01*
G01X12024Y10250D01*
G01X12029Y10262D01*
G01X12035Y10272D01*
G01X12042Y10282D01*
G01X12050Y10292D01*
G01X12067Y10311D01*
G01X12118Y10361D01*
G01X12129Y10373D01*
G01X11748D01*
G01X11779Y10340D01*
G01X11818Y10302D01*
G01X11826Y10292D01*
G01X11834Y10282D01*
G01X11841Y10272D01*
G01X11847Y10262D01*
G01X11852Y10250D01*
G01X11856Y10238D01*
G01X11859Y10225D01*
G01X11861Y10211D01*
G01X11862Y10195D01*
G37*
G36*
G01X12014Y10887D02*
G01X11862Y10887D01*
G01X11861Y10871D01*
G01X11859Y10857D01*
G01X11856Y10844D01*
G01X11852Y10832D01*
G01X11847Y10820D01*
G01X11841Y10810D01*
G01X11834Y10800D01*
G01X11826Y10790D01*
G01X11809Y10771D01*
G01X11758Y10721D01*
G01X11748Y10709D01*
G01X12129D01*
G01X12097Y10742D01*
G01X12058Y10780D01*
G01X12050Y10790D01*
G01X12042Y10800D01*
G01X12035Y10810D01*
G01X12029Y10820D01*
G01X12024Y10832D01*
G01X12020Y10844D01*
G01X12017Y10857D01*
G01X12015Y10871D01*
G01X12014Y10887D01*
G37*
G36*
G01X16733Y11874D02*
G01X16886Y11874D01*
G01Y11890D01*
G01X16888Y11904D01*
G01X16891Y11917D01*
G01X16895Y11929D01*
G01X16901Y11941D01*
G01X16907Y11951D01*
G01X16914Y11962D01*
G01X16921Y11971D01*
G01X16939Y11990D01*
G01X16989Y12040D01*
G01X17000Y12052D01*
G01X16619D01*
G01X16651Y12019D01*
G01X16689Y11981D01*
G01X16697Y11971D01*
G01X16705Y11962D01*
G01X16712Y11951D01*
G01X16718Y11941D01*
G01X16723Y11929D01*
G01X16727Y11917D01*
G01X16731Y11904D01*
G01X16732Y11890D01*
G01X16733Y11874D01*
G37*
G36*
G01X15956Y11796D02*
G01X15956Y11644D01*
G01X15971Y11643D01*
G01X15985Y11641D01*
G01X15998Y11638D01*
G01X16011Y11634D01*
G01X16022Y11629D01*
G01X16033Y11623D01*
G01X16043Y11616D01*
G01X16053Y11608D01*
G01X16071Y11591D01*
G01X16122Y11540D01*
G01X16133Y11529D01*
G01Y11910D01*
G01X16100Y11879D01*
G01X16062Y11840D01*
G01X16053Y11832D01*
G01X16043Y11824D01*
G01X16033Y11817D01*
G01X16022Y11811D01*
G01X16011Y11806D01*
G01X15998Y11802D01*
G01X15985Y11799D01*
G01X15971Y11797D01*
G01X15956Y11796D01*
G37*
G36*
G01X24426Y11788D02*
G01X24533Y11896D01*
G01X24523Y11907D01*
G01X24514Y11919D01*
G01X24507Y11930D01*
G01X24501Y11942D01*
G01X24497Y11953D01*
G01X24494Y11965D01*
G01X24492Y11977D01*
G01X24490Y11990D01*
G01X24489Y12015D01*
G01Y12087D01*
G01Y12102D01*
G01X24219Y11833D01*
G01X24265Y11832D01*
G01X24319D01*
G01X24332Y11831D01*
G01X24344Y11830D01*
G01X24356Y11828D01*
G01X24368Y11824D01*
G01X24380Y11820D01*
G01X24391Y11814D01*
G01X24403Y11807D01*
G01X24414Y11799D01*
G01X24426Y11788D01*
G37*
G36*
G01X25207Y11788D02*
G01X25314Y11896D01*
G01X25304Y11907D01*
G01X25295Y11919D01*
G01X25288Y11930D01*
G01X25282Y11942D01*
G01X25278Y11953D01*
G01X25275Y11965D01*
G01X25273Y11977D01*
G01X25271Y11990D01*
G01X25270Y12015D01*
G01Y12086D01*
G01Y12102D01*
G01X25000Y11833D01*
G01X25046Y11832D01*
G01X25100D01*
G01X25113Y11831D01*
G01X25125Y11830D01*
G01X25137Y11828D01*
G01X25149Y11824D01*
G01X25161Y11820D01*
G01X25172Y11814D01*
G01X25184Y11807D01*
G01X25195Y11799D01*
G01X25207Y11788D01*
G37*
G36*
G01X26540Y11741D02*
G01X26692Y11741D01*
G01X26693Y11756D01*
G01X26695Y11770D01*
G01X26698Y11784D01*
G01X26702Y11796D01*
G01X26707Y11807D01*
G01X26713Y11818D01*
G01X26720Y11828D01*
G01X26728Y11838D01*
G01X26745Y11856D01*
G01X26796Y11907D01*
G01X26807Y11918D01*
G01X26426D01*
G01X26457Y11885D01*
G01X26496Y11847D01*
G01X26504Y11838D01*
G01X26512Y11828D01*
G01X26519Y11818D01*
G01X26525Y11807D01*
G01X26530Y11796D01*
G01X26534Y11784D01*
G01X26537Y11770D01*
G01X26539Y11756D01*
G01X26540Y11741D01*
G37*
G36*
G01X26007Y11788D02*
G01X26115Y11896D01*
G01X26104Y11907D01*
G01X26095Y11919D01*
G01X26088Y11930D01*
G01X26083Y11942D01*
G01X26078Y11953D01*
G01X26075Y11965D01*
G01X26073Y11977D01*
G01X26071Y11990D01*
G01X26070Y12015D01*
G01Y12087D01*
G01Y12102D01*
G01X25800Y11833D01*
G01X25846Y11832D01*
G01X25900D01*
G01X25913Y11831D01*
G01X25925Y11830D01*
G01X25937Y11828D01*
G01X25949Y11824D01*
G01X25961Y11820D01*
G01X25972Y11814D01*
G01X25984Y11807D01*
G01X25995Y11799D01*
G01X26007Y11788D01*
G37*
G36*
G01X29746Y7791D02*
G01X29638Y7684D01*
G01X29649Y7672D01*
G01X29658Y7661D01*
G01X29665Y7649D01*
G01X29670Y7638D01*
G01X29675Y7626D01*
G01X29678Y7614D01*
G01X29680Y7602D01*
G01X29682Y7590D01*
G01X29683Y7564D01*
G01X29682Y7493D01*
G01X29683Y7477D01*
G01X29953Y7747D01*
G01X29907D01*
G01X29853D01*
G01X29840Y7748D01*
G01X29828Y7750D01*
G01X29816Y7752D01*
G01X29804Y7755D01*
G01X29792Y7759D01*
G01X29780Y7765D01*
G01X29769Y7772D01*
G01X29757Y7781D01*
G01X29746Y7791D01*
G37*
G36*
G01X30127Y8211D02*
G01X30235Y8318D01*
G01X30225Y8330D01*
G01X30216Y8341D01*
G01X30209Y8353D01*
G01X30203Y8364D01*
G01X30199Y8376D01*
G01X30195Y8388D01*
G01X30193Y8400D01*
G01X30192Y8412D01*
G01X30191Y8438D01*
G01Y8509D01*
G01X30190Y8525D01*
G01X29921Y8255D01*
G01X29967D01*
G01X30021D01*
G01X30033Y8254D01*
G01X30046Y8252D01*
G01X30058Y8250D01*
G01X30070Y8247D01*
G01X30081Y8243D01*
G01X30093Y8237D01*
G01X30104Y8230D01*
G01X30116Y8221D01*
G01X30127Y8211D01*
G37*
G36*
G01X29737Y7110D02*
G01X29629Y7002D01*
G01X29639Y6991D01*
G01X29648Y6979D01*
G01X29655Y6968D01*
G01X29661Y6956D01*
G01X29665Y6945D01*
G01X29669Y6933D01*
G01X29671Y6921D01*
G01X29672Y6909D01*
G01X29673Y6883D01*
G01Y6812D01*
G01X29674Y6796D01*
G01X29943Y7065D01*
G01X29897Y7066D01*
G01X29843D01*
G01X29831Y7067D01*
G01X29818Y7068D01*
G01X29806Y7070D01*
G01X29794Y7074D01*
G01X29783Y7078D01*
G01X29771Y7084D01*
G01X29760Y7091D01*
G01X29748Y7100D01*
G01X29737Y7110D01*
G37*
G36*
G01X30481Y11274D02*
G01X30373Y11166D01*
G01X30385Y11153D01*
G01X30394Y11141D01*
G01X30401Y11129D01*
G01X30407Y11117D01*
G01X30410Y11105D01*
G01X30412Y11093D01*
G01X30413Y11081D01*
G01Y11069D01*
G01X30411Y11043D01*
G01X30407Y11000D01*
G01X30405Y10968D01*
G01X30406Y10950D01*
G01X30675Y11220D01*
G01X30608Y11224D01*
G01X30582Y11227D01*
G01X30558Y11231D01*
G01X30546Y11235D01*
G01X30535Y11239D01*
G01X30523Y11244D01*
G01X30512Y11250D01*
G01X30501Y11257D01*
G01X30491Y11265D01*
G01X30481Y11274D01*
G37*
G36*
G01X28727Y14903D02*
G01X28727Y14751D01*
G01X28742Y14750D01*
G01X28756Y14748D01*
G01X28768Y14745D01*
G01X28779Y14741D01*
G01X28789Y14736D01*
G01X28799Y14730D01*
G01X28807Y14723D01*
G01X28816Y14715D01*
G01X28832Y14698D01*
G01X28867Y14658D01*
G01X28889Y14636D01*
G01Y15017D01*
G01X28867Y14996D01*
G01X28832Y14956D01*
G01X28816Y14939D01*
G01X28807Y14931D01*
G01X28799Y14924D01*
G01X28789Y14918D01*
G01X28779Y14913D01*
G01X28768Y14909D01*
G01X28756Y14906D01*
G01X28742Y14904D01*
G01X28727Y14903D01*
G37*
G36*
G01X28774Y14342D02*
G01X28666Y14234D01*
G01X28684Y14221D01*
G01X28706Y14210D01*
G01X28756Y14190D01*
G01X28779Y14180D01*
G01X28799Y14168D01*
G01X28813Y14154D01*
G01X28819Y14135D01*
G01X29088Y14404D01*
G01X29069D01*
G01X29049Y14401D01*
G01X29028Y14395D01*
G01X28985Y14378D01*
G01X28899Y14340D01*
G01X28878Y14332D01*
G01X28858Y14326D01*
G01X28839Y14322D01*
G01X28821Y14321D01*
G01X28804Y14324D01*
G01X28788Y14331D01*
G01X28774Y14342D01*
G37*
G36*
G01X31237Y14564D02*
G01X31237Y14716D01*
G01X31222Y14717D01*
G01X31209Y14719D01*
G01X31198Y14722D01*
G01X31189Y14726D01*
G01X31181Y14731D01*
G01X31174Y14737D01*
G01X31168Y14744D01*
G01X31163Y14752D01*
G01X31148Y14779D01*
G01X31135Y14799D01*
G01X31127Y14809D01*
G01X31117Y14820D01*
G01X31106Y14830D01*
G01Y14449D01*
G01X31117Y14460D01*
G01X31127Y14471D01*
G01X31135Y14481D01*
G01X31148Y14501D01*
G01X31163Y14528D01*
G01X31168Y14536D01*
G01X31174Y14543D01*
G01X31181Y14549D01*
G01X31189Y14554D01*
G01X31198Y14558D01*
G01X31209Y14561D01*
G01X31222Y14563D01*
G01X31237Y14564D01*
G37*
G36*
G01X31014Y14986D02*
G01X30862Y14986D01*
G01X30861Y14970D01*
G01X30859Y14956D01*
G01X30856Y14943D01*
G01X30852Y14931D01*
G01X30847Y14919D01*
G01X30841Y14909D01*
G01X30834Y14898D01*
G01X30826Y14889D01*
G01X30809Y14870D01*
G01X30758Y14820D01*
G01X30747Y14808D01*
G01X31128D01*
G01X31097Y14841D01*
G01X31058Y14879D01*
G01X31050Y14889D01*
G01X31042Y14898D01*
G01X31035Y14909D01*
G01X31029Y14919D01*
G01X31024Y14931D01*
G01X31020Y14943D01*
G01X31017Y14956D01*
G01X31015Y14970D01*
G01X31014Y14986D01*
G37*
G36*
G01X31449Y13655D02*
G01X31557Y13763D01*
G01X31547Y13774D01*
G01X31539Y13784D01*
G01X31532Y13795D01*
G01X31526Y13806D01*
G01X31521Y13818D01*
G01X31517Y13829D01*
G01X31514Y13841D01*
G01X31509Y13866D01*
G01X31506Y13892D01*
G01X31503Y13961D01*
G01X31233Y13691D01*
G01X31267D01*
G01X31326Y13695D01*
G01X31352Y13697D01*
G01X31364Y13696D01*
G01X31376Y13695D01*
G01X31388Y13693D01*
G01X31400Y13689D01*
G01X31412Y13683D01*
G01X31424Y13676D01*
G01X31436Y13667D01*
G01X31449Y13655D01*
G37*
G36*
G01X31109Y12720D02*
G01X31001Y12613D01*
G01X31012Y12598D01*
G01X31019Y12583D01*
G01X31021Y12566D01*
G01Y12548D01*
G01X31017Y12528D01*
G01X31011Y12508D01*
G01X30994Y12466D01*
G01X30956Y12380D01*
G01X30948Y12359D01*
G01X30942Y12338D01*
G01X30939Y12318D01*
G01X30938Y12298D01*
G01X31208Y12568D01*
G01X31189Y12574D01*
G01X31175Y12588D01*
G01X31163Y12607D01*
G01X31152Y12631D01*
G01X31133Y12681D01*
G01X31122Y12703D01*
G01X31109Y12720D01*
G37*
G36*
G01X22770Y19247D02*
G01X22617Y19247D01*
G01Y19232D01*
G01X22615Y19218D01*
G01X22612Y19204D01*
G01X22608Y19192D01*
G01X22602Y19181D01*
G01X22596Y19170D01*
G01X22589Y19160D01*
G01X22582Y19150D01*
G01X22564Y19131D01*
G01X22514Y19081D01*
G01X22503Y19070D01*
G01X22884D01*
G01X22852Y19103D01*
G01X22814Y19141D01*
G01X22806Y19150D01*
G01X22798Y19160D01*
G01X22791Y19170D01*
G01X22785Y19181D01*
G01X22780Y19192D01*
G01X22776Y19204D01*
G01X22772Y19218D01*
G01X22771Y19232D01*
G01X22770Y19247D01*
G37*
G36*
G01X28136Y17739D02*
G01X27984Y17739D01*
G01X27983Y17723D01*
G01X27981Y17709D01*
G01X27978Y17696D01*
G01X27974Y17684D01*
G01X27969Y17672D01*
G01X27963Y17662D01*
G01X27956Y17652D01*
G01X27948Y17642D01*
G01X27931Y17623D01*
G01X27880Y17573D01*
G01X27870Y17561D01*
G01X28251D01*
G01X28219Y17594D01*
G01X28180Y17632D01*
G01X28172Y17642D01*
G01X28164Y17652D01*
G01X28157Y17662D01*
G01X28151Y17672D01*
G01X28146Y17684D01*
G01X28142Y17696D01*
G01X28139Y17709D01*
G01X28137Y17723D01*
G01X28136Y17739D01*
G37*
G36*
G01X27543Y17067D02*
G01X27651Y17175D01*
G01X27637Y17190D01*
G01X27627Y17204D01*
G01X27619Y17217D01*
G01X27614Y17230D01*
G01X27612Y17242D01*
G01X27611Y17254D01*
G01X27612Y17267D01*
G01X27614Y17279D01*
G01X27624Y17320D01*
G01X27631Y17351D01*
G01X27633Y17369D01*
G01X27634Y17388D01*
G01X27633Y17409D01*
G01X27364Y17140D01*
G01X27386Y17137D01*
G01X27410Y17132D01*
G01X27435Y17126D01*
G01X27460Y17117D01*
G01X27484Y17107D01*
G01X27506Y17095D01*
G01X27526Y17081D01*
G01X27543Y17067D01*
G37*
G36*
G01X32360Y9715D02*
G01X32252Y9607D01*
G01X32263Y9595D01*
G01X32272Y9584D01*
G01X32279Y9572D01*
G01X32284Y9561D01*
G01X32289Y9549D01*
G01X32292Y9537D01*
G01X32294Y9525D01*
G01X32296Y9513D01*
G01X32297Y9487D01*
G01X32296Y9416D01*
G01X32297Y9400D01*
G01X32567Y9670D01*
G01X32521Y9671D01*
G01X32466Y9670D01*
G01X32454Y9671D01*
G01X32442Y9673D01*
G01X32429Y9675D01*
G01X32418Y9678D01*
G01X32406Y9683D01*
G01X32394Y9688D01*
G01X32383Y9695D01*
G01X32371Y9704D01*
G01X32360Y9715D01*
G37*
G36*
G01X32360Y10712D02*
G01X32252Y10605D01*
G01X32263Y10593D01*
G01X32272Y10582D01*
G01X32279Y10570D01*
G01X32284Y10559D01*
G01X32289Y10547D01*
G01X32292Y10535D01*
G01X32294Y10523D01*
G01X32296Y10511D01*
G01X32297Y10485D01*
G01X32296Y10414D01*
G01X32297Y10398D01*
G01X32567Y10668D01*
G01X32521D01*
G01X32466D01*
G01X32454Y10669D01*
G01X32442Y10671D01*
G01X32429Y10673D01*
G01X32418Y10676D01*
G01X32406Y10680D01*
G01X32394Y10686D01*
G01X32383Y10693D01*
G01X32371Y10702D01*
G01X32360Y10712D01*
G37*
G36*
G01X29209Y13110D02*
G01X29425Y13325D01*
G01X29373Y13377D01*
G01X29359Y13394D01*
G01X29346Y13413D01*
G01X29336Y13432D01*
G01X29329Y13454D01*
G01X29326Y13478D01*
G01X29056Y13208D01*
G01X29080Y13205D01*
G01X29102Y13198D01*
G01X29122Y13188D01*
G01X29140Y13175D01*
G01X29158Y13161D01*
G01X29209Y13110D01*
G37*
G36*
G01X9597Y7231D02*
G01X9749Y7231D01*
G01X9750Y7246D01*
G01X9752Y7260D01*
G01X9755Y7272D01*
G01X9759Y7283D01*
G01X9764Y7293D01*
G01X9770Y7303D01*
G01X9777Y7312D01*
G01X9785Y7320D01*
G01X9802Y7336D01*
G01X9842Y7371D01*
G01X9863Y7393D01*
G01X9482D01*
G01X9504Y7371D01*
G01X9544Y7336D01*
G01X9561Y7320D01*
G01X9569Y7312D01*
G01X9575Y7303D01*
G01X9582Y7293D01*
G01X9587Y7283D01*
G01X9591Y7272D01*
G01X9594Y7260D01*
G01X9596Y7246D01*
G01X9597Y7231D01*
G37*
G36*
G01X10353Y7231D02*
G01X10506Y7231D01*
G01X10507Y7246D01*
G01X10508Y7260D01*
G01X10512Y7272D01*
G01X10516Y7283D01*
G01X10521Y7293D01*
G01X10527Y7303D01*
G01X10534Y7312D01*
G01X10542Y7320D01*
G01X10559Y7336D01*
G01X10599Y7371D01*
G01X10620Y7393D01*
G01X10239D01*
G01X10260Y7371D01*
G01X10300Y7336D01*
G01X10318Y7320D01*
G01X10325Y7312D01*
G01X10332Y7303D01*
G01X10338Y7293D01*
G01X10344Y7283D01*
G01X10348Y7272D01*
G01X10351Y7260D01*
G01X10353Y7246D01*
G01Y7231D01*
G37*
G36*
G01X20360Y12569D02*
G01X20467Y12461D01*
G01X20480Y12469D01*
G01X20497Y12471D01*
G01X20515Y12468D01*
G01X20535Y12463D01*
G01X20575Y12449D01*
G01X20594Y12445D01*
G01X20611Y12443D01*
G01X20342Y12713D01*
G01X20343Y12695D01*
G01X20348Y12676D01*
G01X20361Y12636D01*
G01X20367Y12616D01*
G01X20369Y12598D01*
G01X20367Y12582D01*
G01X20360Y12569D01*
G37*
G36*
G01X20250Y12268D02*
G01X20250Y12116D01*
G01X20268Y12113D01*
G01X20284Y12107D01*
G01X20298Y12096D01*
G01X20311Y12082D01*
G01X20322Y12065D01*
G01X20331Y12046D01*
G01X20348Y12002D01*
G01X20381Y11910D01*
G01X20391Y11888D01*
G01X20401Y11869D01*
G01X20414Y11851D01*
G01X20427Y11837D01*
G01Y12218D01*
G01X20410Y12209D01*
G01X20389D01*
G01X20367Y12217D01*
G01X20320Y12242D01*
G01X20296Y12255D01*
G01X20272Y12264D01*
G01X20250Y12268D01*
G37*
G36*
G01X22323Y16332D02*
G01X22170Y16332D01*
G01Y16316D01*
G01X22168Y16302D01*
G01X22165Y16289D01*
G01X22160Y16277D01*
G01X22155Y16265D01*
G01X22149Y16255D01*
G01X22142Y16244D01*
G01X22135Y16235D01*
G01X22117Y16216D01*
G01X22067Y16166D01*
G01X22056Y16154D01*
G01X22437D01*
G01X22405Y16187D01*
G01X22367Y16225D01*
G01X22358Y16235D01*
G01X22351Y16244D01*
G01X22344Y16255D01*
G01X22338Y16265D01*
G01X22332Y16277D01*
G01X22328Y16289D01*
G01X22325Y16302D01*
G01X22323Y16316D01*
G01Y16332D01*
G37*
G36*
G01X23856Y14643D02*
G01X23704Y14643D01*
G01X23703Y14627D01*
G01X23701Y14613D01*
G01X23698Y14600D01*
G01X23694Y14587D01*
G01X23689Y14576D01*
G01X23683Y14565D01*
G01X23676Y14555D01*
G01X23668Y14546D01*
G01X23651Y14527D01*
G01X23600Y14477D01*
G01X23590Y14465D01*
G01X23971D01*
G01X23939Y14498D01*
G01X23900Y14536D01*
G01X23892Y14546D01*
G01X23884Y14555D01*
G01X23877Y14565D01*
G01X23871Y14576D01*
G01X23866Y14587D01*
G01X23862Y14600D01*
G01X23859Y14613D01*
G01X23857Y14627D01*
G01X23856Y14643D01*
G37*
G36*
G01X23580Y13899D02*
G01X23472Y13791D01*
G01X23483Y13780D01*
G01X23491Y13768D01*
G01X23498Y13757D01*
G01X23504Y13745D01*
G01X23508Y13734D01*
G01X23512Y13722D01*
G01X23514Y13710D01*
G01X23515Y13697D01*
G01X23516Y13672D01*
G01Y13601D01*
G01X23517Y13585D01*
G01X23786Y13854D01*
G01X23741Y13855D01*
G01X23686D01*
G01X23674Y13856D01*
G01X23661Y13857D01*
G01X23649Y13859D01*
G01X23637Y13863D01*
G01X23626Y13867D01*
G01X23614Y13873D01*
G01X23603Y13880D01*
G01X23591Y13889D01*
G01X23580Y13899D01*
G37*
G36*
G01X21654Y23832D02*
G01X21761Y23939D01*
G01X21751Y23951D01*
G01X21742Y23962D01*
G01X21735Y23974D01*
G01X21729Y23985D01*
G01X21725Y23997D01*
G01X21722Y24009D01*
G01X21720Y24021D01*
G01X21718Y24033D01*
G01X21717Y24059D01*
G01Y24130D01*
G01Y24146D01*
G01X21447Y23876D01*
G01X21493D01*
G01X21547D01*
G01X21560Y23875D01*
G01X21572Y23873D01*
G01X21584Y23871D01*
G01X21596Y23868D01*
G01X21608Y23864D01*
G01X21619Y23858D01*
G01X21631Y23851D01*
G01X21642Y23842D01*
G01X21654Y23832D01*
G37*
G36*
G01X23580Y22791D02*
G01X23580Y22943D01*
G01X23564Y22944D01*
G01X23550Y22946D01*
G01X23537Y22949D01*
G01X23525Y22953D01*
G01X23513Y22958D01*
G01X23503Y22964D01*
G01X23492Y22971D01*
G01X23483Y22979D01*
G01X23464Y22996D01*
G01X23414Y23047D01*
G01X23402Y23058D01*
G01Y22677D01*
G01X23435Y22708D01*
G01X23473Y22747D01*
G01X23483Y22755D01*
G01X23492Y22763D01*
G01X23503Y22770D01*
G01X23513Y22776D01*
G01X23525Y22781D01*
G01X23537Y22785D01*
G01X23550Y22788D01*
G01X23564Y22790D01*
G01X23580Y22791D01*
G37*
G36*
G01X17383Y24075D02*
G01X17383Y24227D01*
G01X17367Y24228D01*
G01X17353Y24230D01*
G01X17340Y24233D01*
G01X17328Y24237D01*
G01X17316Y24242D01*
G01X17306Y24249D01*
G01X17296Y24255D01*
G01X17286Y24263D01*
G01X17267Y24280D01*
G01X17217Y24331D01*
G01X17205Y24342D01*
G01Y23961D01*
G01X17238Y23992D01*
G01X17276Y24031D01*
G01X17286Y24039D01*
G01X17296Y24047D01*
G01X17306Y24054D01*
G01X17316Y24060D01*
G01X17328Y24065D01*
G01X17340Y24069D01*
G01X17353Y24072D01*
G01X17367Y24074D01*
G01X17383Y24075D01*
G37*
G36*
G01X13149Y23837D02*
G01X13042Y23944D01*
G01X13025Y23930D01*
G01X13006Y23917D01*
G01X12984Y23905D01*
G01X12960Y23893D01*
G01X12935Y23884D01*
G01X12911Y23876D01*
G01X12888Y23871D01*
G01X12866Y23868D01*
G01X13136Y23598D01*
G01Y23611D01*
G01X13135Y23639D01*
G01X13128Y23724D01*
G01X13127Y23758D01*
G01X13128Y23775D01*
G01X13130Y23790D01*
G01X13133Y23804D01*
G01X13137Y23817D01*
G01X13142Y23828D01*
G01X13149Y23837D01*
G37*
G36*
G01X10966Y24067D02*
G01X10859Y24174D01*
G01X10847Y24164D01*
G01X10836Y24155D01*
G01X10824Y24148D01*
G01X10813Y24142D01*
G01X10801Y24138D01*
G01X10789Y24135D01*
G01X10777Y24133D01*
G01X10765Y24131D01*
G01X10739Y24130D01*
G01X10668D01*
G01X10652D01*
G01X10922Y23860D01*
G01Y23906D01*
G01Y23960D01*
G01X10923Y23973D01*
G01X10925Y23985D01*
G01X10927Y23997D01*
G01X10930Y24009D01*
G01X10934Y24021D01*
G01X10940Y24032D01*
G01X10947Y24044D01*
G01X10956Y24055D01*
G01X10966Y24067D01*
G37*
G36*
G01X10826Y4374D02*
G01X10673Y4374D01*
G01Y4359D01*
G01X10671Y4345D01*
G01X10668Y4331D01*
G01X10664Y4319D01*
G01X10658Y4308D01*
G01X10652Y4297D01*
G01X10645Y4287D01*
G01X10638Y4277D01*
G01X10620Y4259D01*
G01X10570Y4208D01*
G01X10559Y4197D01*
G01X10940D01*
G01X10908Y4230D01*
G01X10870Y4268D01*
G01X10861Y4277D01*
G01X10854Y4287D01*
G01X10847Y4297D01*
G01X10841Y4308D01*
G01X10836Y4319D01*
G01X10831Y4331D01*
G01X10828Y4345D01*
G01X10826Y4359D01*
G01Y4374D01*
G37*
G36*
G01X10559Y2976D02*
G01X10451Y2868D01*
G01X10462Y2857D01*
G01X10470Y2846D01*
G01X10478Y2834D01*
G01X10483Y2823D01*
G01X10488Y2811D01*
G01X10491Y2799D01*
G01X10493Y2787D01*
G01X10495Y2775D01*
G01X10496Y2749D01*
G01X10495Y2678D01*
G01X10496Y2662D01*
G01X10765Y2931D01*
G01X10720Y2932D01*
G01X10665D01*
G01X10653Y2933D01*
G01X10640Y2934D01*
G01X10628Y2937D01*
G01X10617Y2940D01*
G01X10605Y2944D01*
G01X10593Y2950D01*
G01X10582Y2957D01*
G01X10570Y2966D01*
G01X10559Y2976D01*
G37*
G36*
G01X29155Y16887D02*
G01X29003Y16887D01*
G01X29002Y16872D01*
G01X29000Y16859D01*
G01X28997Y16847D01*
G01X28993Y16837D01*
G01X28988Y16828D01*
G01X28982Y16821D01*
G01X28975Y16814D01*
G01X28967Y16807D01*
G01X28940Y16788D01*
G01X28920Y16774D01*
G01X28910Y16765D01*
G01X28899Y16755D01*
G01X28888Y16744D01*
G01X29269D01*
G01X29259Y16755D01*
G01X29248Y16765D01*
G01X29227Y16781D01*
G01X29199Y16801D01*
G01X29191Y16807D01*
G01X29183Y16814D01*
G01X29176Y16821D01*
G01X29170Y16828D01*
G01X29165Y16837D01*
G01X29161Y16847D01*
G01X29158Y16859D01*
G01X29156Y16872D01*
G01X29155Y16887D01*
G37*
G36*
G01X5359Y6315D02*
G01X5055Y6315D01*
G01X5054Y6242D01*
G01X5052Y6220D01*
G01X5048Y6198D01*
G01X5041Y6177D01*
G01X5031Y6156D01*
G01X5017Y6137D01*
G01X5398D01*
G01X5383Y6156D01*
G01X5373Y6177D01*
G01X5366Y6198D01*
G01X5362Y6220D01*
G01X5360Y6242D01*
G01X5359Y6315D01*
G37*
G36*
G01X3966Y7229D02*
G01X4181Y7014D01*
G01X4233Y7065D01*
G01X4250Y7079D01*
G01X4269Y7092D01*
G01X4288Y7102D01*
G01X4310Y7109D01*
G01X4334Y7112D01*
G01X4064Y7382D01*
G01X4061Y7358D01*
G01X4054Y7336D01*
G01X4044Y7317D01*
G01X4031Y7298D01*
G01X4017Y7281D01*
G01X3966Y7229D01*
G37*
G36*
G01X12480Y25414D02*
G01X12587Y25307D01*
G01X12603Y25321D01*
G01X12617Y25332D01*
G01X12632Y25340D01*
G01X12646Y25347D01*
G01X12660Y25351D01*
G01X12675Y25354D01*
G01X12689Y25356D01*
G01X12704D01*
G01X12735Y25354D01*
G01X12805Y25349D01*
G01X12846Y25350D01*
G01X12523Y25673D01*
G01X12522Y25632D01*
G01X12527Y25562D01*
G01X12529Y25531D01*
G01Y25516D01*
G01X12527Y25502D01*
G01X12524Y25487D01*
G01X12520Y25473D01*
G01X12513Y25459D01*
G01X12505Y25444D01*
G01X12494Y25430D01*
G01X12480Y25414D01*
G37*
G36*
G01X19641Y19240D02*
G01X19748Y19133D01*
G01X19760Y19143D01*
G01X19771Y19152D01*
G01X19783Y19159D01*
G01X19794Y19165D01*
G01X19806Y19169D01*
G01X19818Y19172D01*
G01X19830Y19174D01*
G01X19842Y19176D01*
G01X19868Y19177D01*
G01X19939D01*
G01X19955D01*
G01X19685Y19447D01*
G01Y19401D01*
G01Y19347D01*
G01X19684Y19334D01*
G01X19682Y19322D01*
G01X19680Y19310D01*
G01X19677Y19298D01*
G01X19673Y19286D01*
G01X19667Y19275D01*
G01X19660Y19263D01*
G01X19651Y19252D01*
G01X19641Y19240D01*
G37*
G36*
G01X19641Y18478D02*
G01X19748Y18371D01*
G01X19760Y18381D01*
G01X19771Y18390D01*
G01X19783Y18397D01*
G01X19794Y18403D01*
G01X19806Y18407D01*
G01X19818Y18410D01*
G01X19830Y18412D01*
G01X19842Y18414D01*
G01X19868Y18415D01*
G01X19939D01*
G01X19955D01*
G01X19685Y18685D01*
G01Y18639D01*
G01Y18585D01*
G01X19684Y18572D01*
G01X19682Y18560D01*
G01X19680Y18548D01*
G01X19677Y18536D01*
G01X19673Y18524D01*
G01X19667Y18513D01*
G01X19660Y18501D01*
G01X19651Y18490D01*
G01X19641Y18478D01*
G37*
G36*
G01X32341Y19367D02*
G01X32448Y19260D01*
G01X32460Y19270D01*
G01X32471Y19279D01*
G01X32483Y19286D01*
G01X32494Y19292D01*
G01X32506Y19296D01*
G01X32518Y19299D01*
G01X32530Y19301D01*
G01X32542Y19303D01*
G01X32568Y19304D01*
G01X32639D01*
G01X32655D01*
G01X32385Y19574D01*
G01Y19528D01*
G01Y19474D01*
G01X32384Y19461D01*
G01X32382Y19449D01*
G01X32380Y19437D01*
G01X32377Y19425D01*
G01X32373Y19413D01*
G01X32367Y19402D01*
G01X32360Y19390D01*
G01X32351Y19379D01*
G01X32341Y19367D01*
G37*
G36*
G01X33071Y21244D02*
G01X33223Y21244D01*
G01X33224Y21260D01*
G01X33226Y21274D01*
G01X33229Y21287D01*
G01X33233Y21299D01*
G01X33238Y21311D01*
G01X33244Y21321D01*
G01X33251Y21331D01*
G01X33259Y21341D01*
G01X33276Y21360D01*
G01X33327Y21410D01*
G01X33338Y21422D01*
G01X32957D01*
G01X32988Y21389D01*
G01X33027Y21351D01*
G01X33035Y21341D01*
G01X33043Y21331D01*
G01X33050Y21321D01*
G01X33056Y21311D01*
G01X33061Y21299D01*
G01X33065Y21287D01*
G01X33068Y21274D01*
G01X33070Y21260D01*
G01X33071Y21244D01*
G37*
G36*
G01X31463Y7020D02*
G01X31356Y6912D01*
G01X31366Y6901D01*
G01X31375Y6889D01*
G01X31382Y6878D01*
G01X31388Y6866D01*
G01X31392Y6855D01*
G01X31395Y6843D01*
G01X31398Y6831D01*
G01X31399Y6818D01*
G01X31400Y6793D01*
G01Y6722D01*
G01X31401Y6706D01*
G01X31670Y6975D01*
G01X31624Y6976D01*
G01X31570D01*
G01X31557Y6977D01*
G01X31545Y6978D01*
G01X31533Y6980D01*
G01X31521Y6984D01*
G01X31509Y6988D01*
G01X31498Y6994D01*
G01X31486Y7001D01*
G01X31475Y7010D01*
G01X31463Y7020D01*
G37*
G36*
G01X3099Y5369D02*
G01X3251Y5369D01*
G01X3252Y5385D01*
G01X3254Y5399D01*
G01X3257Y5412D01*
G01X3261Y5424D01*
G01X3266Y5436D01*
G01X3272Y5446D01*
G01X3279Y5456D01*
G01X3287Y5466D01*
G01X3304Y5485D01*
G01X3355Y5535D01*
G01X3366Y5547D01*
G01X2985D01*
G01X3016Y5514D01*
G01X3055Y5476D01*
G01X3063Y5466D01*
G01X3071Y5456D01*
G01X3078Y5446D01*
G01X3084Y5436D01*
G01X3089Y5424D01*
G01X3093Y5412D01*
G01X3096Y5399D01*
G01X3098Y5385D01*
G01X3099Y5369D01*
G37*
G36*
G01X25054Y17161D02*
G01X25162Y17053D01*
G01X25197Y17085D01*
G01X25216Y17100D01*
G01X25236Y17113D01*
G01X25256Y17125D01*
G01X25278Y17134D01*
G01X25300Y17140D01*
G01X25323Y17144D01*
G01X25053Y17413D01*
G01Y17400D01*
G01X25056Y17369D01*
G01X25070Y17280D01*
G01X25074Y17244D01*
G01Y17227D01*
G01X25073Y17211D01*
G01X25071Y17196D01*
G01X25068Y17183D01*
G01X25062Y17171D01*
G01X25054Y17161D01*
G37*
G36*
G01X24423Y17051D02*
G01X24575Y17051D01*
G01X24576Y17067D01*
G01X24578Y17081D01*
G01X24581Y17094D01*
G01X24585Y17106D01*
G01X24590Y17118D01*
G01X24596Y17128D01*
G01X24603Y17139D01*
G01X24611Y17148D01*
G01X24628Y17167D01*
G01X24679Y17217D01*
G01X24690Y17229D01*
G01X24309D01*
G01X24340Y17196D01*
G01X24379Y17158D01*
G01X24387Y17148D01*
G01X24395Y17139D01*
G01X24402Y17128D01*
G01X24408Y17118D01*
G01X24413Y17106D01*
G01X24417Y17094D01*
G01X24420Y17081D01*
G01X24422Y17067D01*
G01X24423Y17051D01*
G37*
G36*
G01X6868Y21015D02*
G01X6868Y21168D01*
G02X6342Y21314I0J1018D01*
G01Y20869D01*
G02X6868Y21015I525J-872D01*
G37*
G36*
G01X27127Y18536D02*
G01X27129Y18557D01*
G01X27136Y18576D01*
G01X27146Y18585D01*
G01X27159Y18580D01*
G01X27267Y18688D01*
G01X27253Y18702D01*
G01X27241Y18719D01*
G01X27215Y18756D01*
G01X27192Y18799D01*
G01X27171Y18846D01*
G01X27153Y18893D01*
G01X27139Y18940D01*
G01X27130Y18985D01*
G01X27128Y19005D01*
G01X27127Y19025D01*
G01Y18536D01*
G37*
G36*
G01X31350Y11398D02*
G01X31350Y11550D01*
G03X31598Y11703I0J279D01*
G01Y11245D01*
G03X31350Y11398I-249J-127D01*
G37*
G04 Tear End*

G04 Pad Start*
G54D10*
G01X5856Y8014D03*
G01X1256Y8014D03*
G01X1256Y4514D03*
G54D11*
G01X1268Y18290D03*
G01X1268Y9650D03*
G54D12*
G01X5448Y9650D03*
G01X5448Y18290D03*
G54D13*
G01X6115Y22091D03*
G01X6115Y21092D03*
G54D14*
G01X2267Y23390D03*
G01X2267Y19790D03*
G54D16*
G01X28274Y8670D03*
G54D17*
G01X23824Y8670D03*
G01X23824Y19270D03*
G54D16*
G01X28274Y19270D03*
G54D18*
G01X30025Y10120D03*
G01X30025Y11220D03*
G01X30025Y12320D03*
G01X30025Y13070D03*
G01X30025Y13770D03*
G01X30025Y14520D03*
G01X30025Y15620D03*
G01X30025Y16720D03*
G01X30025Y17820D03*
G54D19*
G01X24511Y3303D03*
G54D20*
G01X25986Y1777D03*
G01X23036Y1777D03*
G54D21*
G01X20678Y17754D03*
G01X20678Y8154D03*
G01X20678Y7054D03*
G01X20678Y5954D03*
G01X8278Y5954D03*
G01X8278Y15554D03*
G01X8278Y16654D03*
G01X8278Y18854D03*
G01X8278Y19954D03*
G04 Pad End*

G04 Via Start*
G54D22*
G01X4064Y20955D03*
G01X4699Y20955D03*
G01X6731Y21082D03*
G01X6731Y20447D03*
G01X25301Y26555D03*
G01X25936Y26555D03*
G01X25301Y25920D03*
G01X25936Y25920D03*
G01X11314Y26050D03*
G01X11314Y25415D03*
G01X10679Y25415D03*
G01X10679Y26050D03*
G01X19177Y26035D03*
G01X19202Y26754D03*
G01X30988Y20955D03*
G01X31496Y20955D03*
G01X16440Y16971D03*
G54D23*
G01X14486Y8345D03*
G01X15136Y8218D03*
G01X11430Y11049D03*
G01X11938Y10541D03*
G01X16809Y12220D03*
G01X16301Y11720D03*
G01X16301Y14720D03*
G01X16809Y14220D03*
G01X16809Y15220D03*
G01X16301Y13720D03*
G01X16809Y13220D03*
G01X24235Y12086D03*
G01X25016Y12086D03*
G01X26616Y12086D03*
G01X27397Y12086D03*
G01X25816Y12086D03*
G01X29937Y7493D03*
G01X29937Y8509D03*
G01X29927Y6812D03*
G01X30660Y10966D03*
G01X29057Y14827D03*
G01X29072Y14151D03*
G01X30938Y14640D03*
G01X31249Y13945D03*
G01X31192Y12314D03*
G01X28945Y12786D03*
G01X28935Y12075D03*
G01X22694Y18902D03*
G01X28060Y17393D03*
G01X27380Y17393D03*
G01X32551Y9416D03*
G01X32551Y10414D03*
G54D22*
G01X32475Y11926D03*
G54D23*
G01X29072Y13462D03*
G01X2584Y7874D03*
G01X2577Y7184D03*
G01X5209Y15220D03*
G01X7495Y12220D03*
G01X5209Y14220D03*
G01X5209Y13220D03*
G01X9673Y7561D03*
G01X10430Y7561D03*
G01X20595Y12697D03*
G01X20595Y12027D03*
G01X25816Y18902D03*
G01X25035Y18902D03*
G01X22246Y15986D03*
G01X23780Y14297D03*
G01X23770Y13601D03*
G01X21463Y24130D03*
G01X23234Y22867D03*
G01X17037Y24151D03*
G01X12882Y23614D03*
G01X10668Y23876D03*
G01X10750Y4029D03*
G01X11600Y4029D03*
G01X10750Y2678D03*
G01X11600Y2678D03*
G54D22*
G01X14650Y10220D03*
G01X15748Y23114D03*
G01X16383Y23114D03*
G54D23*
G01X9226Y18566D03*
G01X17945Y19953D03*
G01X29013Y15488D03*
G01X29079Y16576D03*
G01X5207Y5969D03*
G01X4318Y7366D03*
G54D22*
G01X15113Y18923D03*
G01X13539Y1300D03*
G01X14174Y1300D03*
G01X14174Y665D03*
G01X13539Y665D03*
G01X9398Y10287D03*
G01X7239Y8001D03*
G01X12827Y25654D03*
G54D23*
G01X19939Y19431D03*
G01X19939Y18669D03*
G01X13898Y3937D03*
G54D22*
G01X21463Y16129D03*
G54D23*
G01X32639Y19558D03*
G01X33147Y21590D03*
G01X20911Y19585D03*
G01X22987Y25781D03*
G01X6223Y2159D03*
G01X31654Y6722D03*
G01X3175Y5715D03*
G01X25307Y17397D03*
G01X24499Y17397D03*
G01X5461Y23368D03*
G01X3951Y21850D03*
G01X12065Y15113D03*
G01X19237Y16968D03*
G01X16129Y19177D03*
G01X20537Y3298D03*
G01X21172Y3298D03*
G01X21172Y2663D03*
G01X21172Y2028D03*
G01X21642Y5259D03*
G01X21138Y10101D03*
G01X18852Y10101D03*
G01X19939Y11303D03*
G01X11430Y19976D03*
G01X29972Y9271D03*
G01X29748Y22352D03*
G01X30383Y22352D03*
G01X30075Y21837D03*
G01X28321Y22352D03*
G01X27940Y21844D03*
G01X26543Y27305D03*
G01X13290Y12954D03*
G01X11420Y11735D03*
G01X10287Y12446D03*
G01X17911Y21411D03*
G01X20701Y22733D03*
G01X18669Y22733D03*
G01X1270Y3810D03*
G01X24130Y25781D03*
G01X21971Y25654D03*
G01X22606Y7874D03*
G01X34163Y11811D03*
G01X34163Y10922D03*
G01X33655Y18288D03*
G01X15875Y3302D03*
G01X16510Y3302D03*
G01X16510Y2667D03*
G01X15875Y2667D03*
G01X15875Y2032D03*
G01X12446Y7620D03*
G01X11811Y7620D03*
G01X32766Y13970D03*
G01X30607Y15621D03*
G01X17272Y12700D03*
G01X18415Y12700D03*
G01X19050Y12700D03*
G01X18669Y12192D03*
G01X19431Y13208D03*
G01X18796Y13208D03*
G01X18161Y13208D03*
G01X24638Y20320D03*
G01X25273Y20320D03*
G01X23241Y19558D03*
G01X9144Y27305D03*
G01X9779Y27305D03*
G01X10414Y27305D03*
G01X11049Y27305D03*
G01X4826Y4318D03*
G01X5461Y4318D03*
G01X6096Y4318D03*
G01X14605Y25654D03*
G01X15240Y25654D03*
G01X15875Y25781D03*
G01X16510Y25781D03*
G01X17145Y25781D03*
G01X13970Y25654D03*
G01X11176Y7620D03*
G01X16256Y8890D03*
G01X13462Y9779D03*
G01X10668Y9779D03*
G01X6985Y1360D03*
G01X30734Y21844D03*
G01X17348Y18914D03*
G01X31747Y18383D03*
G01X32288Y22358D03*
G54D22*
G01X9226Y17931D03*
G54D23*
G01X25903Y27401D03*
G01X31368Y21846D03*
G01X31017Y22354D03*
G01X31651Y22355D03*
G01X31947Y21837D03*
G01X32923Y22357D03*
G01X33560Y22359D03*
G01X34197Y22363D03*
G01X32109Y20078D03*
G01X22277Y5259D03*
G01X21971Y7874D03*
G01X23599Y5262D03*
G01X25423Y5262D03*
G01X23599Y4627D03*
G01X25423Y4627D03*
G01X25423Y3992D03*
G01X23599Y3992D03*
G01X25527Y6604D03*
G01X25908Y5969D03*
G01X32893Y5842D03*
G01X33528Y5842D03*
G01X34163Y5842D03*
G01X32893Y5207D03*
G01X33528Y5207D03*
G01X34163Y5207D03*
G01X32896Y3939D03*
G01X33531Y3939D03*
G01X34166Y3939D03*
G01X32896Y4574D03*
G01X33531Y4574D03*
G01X34166Y4574D03*
G01X32896Y3304D03*
G01X33531Y3304D03*
G01X34166Y3304D03*
G01X25795Y3432D03*
G01X23255Y3432D03*
G01X24511Y2118D03*
G01X23876Y2118D03*
G01X25146Y2118D03*
G01X22912Y5259D03*
G01X22165Y6365D03*
G01X21642Y5894D03*
G01X19304Y6223D03*
G01X19304Y5588D03*
G01X28321Y19812D03*
G01X30041Y19868D03*
G01X10668Y16129D03*
G54D22*
G01X26416Y13732D03*
G01X27416Y13732D03*
G01X26416Y15732D03*
G01X27416Y15732D03*
G01X25416Y13732D03*
G01X25416Y15732D03*
G01X26416Y14732D03*
G01X25416Y14731D03*
G01X27416Y14732D03*
G04 Via End*

G04 Track Start*
G54D24*
G01X4064Y20955D02*
G01X4699Y20955D01*
G01X4836Y21092D01*
G01X6115D01*
G01X6731Y21082D02*
G01X6731Y20447D01*
G54D25*
G01X30607Y7839D02*
G01X29937Y8509D01*
G01X26616Y12086D02*
G01X26616Y11589D01*
G01X26985Y11220D01*
G01X30025D01*
G54D26*
G01X29072Y13462D02*
G01X29464Y13070D01*
G01X30025D01*
G54D25*
G01X9673Y7561D02*
G01X9673Y7231D01*
G01X9899Y7005D01*
G01X10430Y7561D02*
G01X10430Y7231D01*
G01X10204Y7005D01*
G01X11892Y6503D02*
G01X11892Y6643D01*
G01X11587Y6643D02*
G01X11587Y6503D01*
G01X12500Y6480D02*
G01X12500Y6619D01*
G01X12195Y6619D02*
G01X12195Y6480D01*
G01X14486Y8345D02*
G01X12102Y8345D01*
G01X11430Y9017D01*
G01Y11049D01*
G01X15136Y8548D02*
G01X15136Y8218D01*
G01X11938Y10541D02*
G01X11938Y9254D01*
G01X12365Y8828D01*
G01X14857D01*
G01X15136Y8548D01*
G01X11430Y11049D02*
G01X12101Y11720D01*
G01X16301D01*
G01X16809Y11465D02*
G01X16809Y12220D01*
G01X16567Y11223D02*
G01X16809Y11465D01*
G01X15920Y11376D02*
G01X16072Y11223D01*
G01X16567D01*
G01X11938Y10541D02*
G01X11938Y11025D01*
G01X12288Y11376D01*
G01X15920D01*
G01X22694Y23661D02*
G01X22694Y18902D01*
G01X21717Y24638D02*
G01X22694Y23661D01*
G01X22246Y17809D02*
G01X22246Y15986D01*
G01X21463Y19595D02*
G01X21463Y18592D01*
G01X22246Y17809D01*
G01X22211Y18702D02*
G01X22211Y19290D01*
G01X21844Y18669D02*
G01X21844Y19431D01*
G01X21717Y19849D02*
G01X21463Y19595D01*
G01X21844Y19431D02*
G01X22036Y19623D01*
G01X22211Y19290D02*
G01X22378Y19456D01*
G01Y23215D01*
G01X21463Y24130D01*
G01X22036Y19623D02*
G01X22036Y22875D01*
G01X21717Y22479D02*
G01X21717Y19849D01*
G01X20759Y24151D02*
G01X17037Y24151D01*
G01X22036Y22875D02*
G01X20759Y24151D01*
G01X20582Y23614D02*
G01X21717Y22479D01*
G01X16619Y23614D02*
G01X20582Y23614D01*
G01X16103Y24130D02*
G01X16619Y23614D01*
G01X12882Y23614D02*
G01X12882Y23677D01*
G01X13335Y24130D01*
G01X16103D01*
G54D26*
G01X5856Y8014D02*
G01X5207Y7365D01*
G01Y5969D01*
G01X1256Y8014D02*
G01X1256Y7253D01*
G01X1884Y6625D01*
G01X3577D01*
G01X4318Y7366D01*
G54D25*
G01X13156Y24638D02*
G01X21717Y24638D01*
G01X10668Y23876D02*
G01X11049Y24257D01*
G01X12775D01*
G01X13156Y24638D01*
G01X7366Y21590D02*
G01X6868Y21092D01*
G01X6115D01*
G01X7366Y23495D02*
G01X7366Y21590D01*
G01X12827Y25654D02*
G01X11811Y24638D01*
G01X8509D01*
G01X7366Y23495D01*
G01X31249Y13945D02*
G01X31267Y13945D01*
G01X31674Y13538D01*
G01X31674Y10292D02*
G01X32551Y9416D01*
G01X31674Y13538D02*
G01X31674Y11474D01*
G01Y10292D01*
G01X23234Y22867D02*
G01X26155Y22867D01*
G01X27051Y21971D01*
G01Y18796D01*
G01X28060Y17787D02*
G01X27051Y18796D01*
G01X28060Y17388D02*
G01X28060Y17787D01*
G01X19939Y19431D02*
G01X18796Y18288D01*
G01X10982Y15554D02*
G01X8278Y15554D01*
G01X8278Y16654D02*
G01X11574Y16654D01*
G01X13208Y18288D01*
G01X18796Y18288D02*
G01X13208Y18288D01*
G01X19939Y18669D02*
G01X19219Y17949D01*
G01X13377D01*
G01X10982Y15554D01*
G01X31942Y11023D02*
G01X32551Y10414D01*
G01X28727Y14827D02*
G01X29057Y14827D01*
G01X33147Y21590D02*
G01X33147Y19924D01*
G01X33142Y19919D01*
G01Y19283D01*
G01X29072Y14151D02*
G01X28857Y14151D01*
G01X20431Y12192D02*
G01X20595Y12027D01*
G01X20595Y12697D02*
G01X20413Y12515D01*
G01X9899Y7005D02*
G01X9899Y6478D01*
G01X10204Y7005D02*
G01X10204Y6604D01*
G01X10458Y6350D01*
G01X11436D01*
G01X10750Y4029D02*
G01X10750Y4654D01*
G01X10267Y3160D02*
G01X10750Y2678D01*
G01X10267Y4679D02*
G01X10267Y3160D01*
G01X23770Y13601D02*
G01X23297Y14074D01*
G01Y17216D01*
G01X21844Y18669D01*
G01X24313Y13394D02*
G01X24038Y13118D01*
G01X11811Y2159D02*
G01X12319Y2667D01*
G01X6223Y2159D02*
G01X11811Y2159D01*
G01X22770Y12864D02*
G01X24143Y12864D01*
G01X24567Y13288D01*
G01X22838Y12573D02*
G01X24211Y12573D01*
G01X24821Y13183D01*
G01X24499Y17395D02*
G01X24499Y16990D01*
G01X24313Y16804D01*
G01Y13394D01*
G01X29395Y11747D02*
G01X29156Y11507D01*
G01X28559Y11507D02*
G01X28252Y11814D01*
G01X29156Y11507D02*
G01X28559Y11507D01*
G01X30025Y11220D02*
G01X30427Y11220D01*
G01X30660Y10988D01*
G01Y10966D01*
G01X30504Y12320D02*
G01X30025Y12320D01*
G01X30571Y11747D02*
G01X29395Y11747D01*
G01X26181Y16891D02*
G01X27051Y17761D01*
G01Y18796D01*
G01X28531Y15023D02*
G01X28727Y14827D01*
G01X28857Y14151D02*
G01X28277Y14731D01*
G01X28252Y11814D02*
G01X28252Y14366D01*
G01X27992Y14626D01*
G01X31350Y11474D02*
G01X30504Y12320D01*
G01X31674Y11474D02*
G01X31350Y11474D01*
G01X32823Y18963D02*
G01X29990Y18963D01*
G01X33142Y19283D02*
G01X32823Y18963D01*
G01X29990Y18963D02*
G01X28807Y17780D01*
G01X32639Y19558D02*
G01X32385Y19304D01*
G01X29917D01*
G01X28553Y17940D02*
G01X29917Y19304D01*
G01X30767Y12955D02*
G01X31192Y12530D01*
G01Y12314D01*
G01X30025Y14520D02*
G01X30348Y14520D01*
G01X30767Y14101D01*
G01Y12955D01*
G01X27380Y17337D02*
G01X27380Y17398D01*
G01X27992Y16725D02*
G01X27380Y17337D01*
G01X27992Y14626D02*
G01X27992Y16725D01*
G01X28277Y14731D02*
G01X28277Y16901D01*
G01X28553Y17178D01*
G01Y17940D01*
G01X28807Y17780D02*
G01X28807Y17072D01*
G01X28531Y16796D01*
G01Y15023D01*
G01X26169Y11733D02*
G01X25816Y12086D01*
G01X24235Y12086D02*
G01X25384Y10938D01*
G01X3175Y2730D02*
G01X3175Y5715D01*
G01X4254Y1651D02*
G01X3175Y2730D01*
G01X12573Y2562D02*
G01X11916Y1905D01*
G01X12573Y3937D02*
G01X12573Y2562D01*
G01X12319Y2667D02*
G01X12319Y4042D01*
G01X29079Y16576D02*
G01X29079Y16887D01*
G01X29464Y17272D01*
G01X30861D01*
G01X11916Y1905D02*
G01X6709Y1905D01*
G01X6455Y1651D01*
G01X4254D01*
G01X24567Y13288D02*
G01X24567Y16566D01*
G01X25307Y17306D01*
G01Y17399D01*
G01X24821Y13183D02*
G01X24821Y16349D01*
G01X25363Y16891D01*
G01X26181D01*
G54D27*
G01X5448Y18290D02*
G01X5717Y18290D01*
G01X7381Y19954D01*
G01X8278D01*
G54D25*
G01X25019Y9017D02*
G01X24439Y9597D01*
G01X20221D01*
G01X32196Y14159D02*
G01X32196Y13016D01*
G01X33147Y12065D01*
G01X30025Y16720D02*
G01X30778Y16720D01*
G01X30938Y15063D02*
G01X30938Y14640D01*
G01X33147Y12065D02*
G01X33147Y9144D01*
G01X31654Y6722D02*
G01X31344Y7032D01*
G01Y10974D01*
G01X30571Y11747D01*
G01X23780Y17133D02*
G01X22211Y18702D01*
G01X23780Y14297D02*
G01X23780Y17133D01*
G01X29937Y7493D02*
G01X29638Y7791D01*
G01X26657D01*
G01X26169Y8279D01*
G01Y11733D01*
G01X25384Y10938D02*
G01X25384Y8031D01*
G01X26372Y7043D01*
G01X26279Y6647D02*
G01X25019Y7906D01*
G01Y9017D01*
G01X30607Y6671D02*
G01X30607Y7839D01*
G01X25777Y8152D02*
G01X25777Y11325D01*
G01X25016Y12086D01*
G01X29927Y6812D02*
G01X29319Y7420D01*
G01X26510D01*
G01X25777Y8152D01*
G01X33147Y9144D02*
G01X32137Y8134D01*
G01X26372Y7043D02*
G01X29014Y7043D01*
G01X29051Y6647D02*
G01X26279Y6647D01*
G01X32137Y8134D02*
G01X32137Y6522D01*
G01X19783Y12192D02*
G01X20431Y12192D01*
G01X24038Y13118D02*
G01X22665Y13118D01*
G01X16794Y5461D02*
G01X11049Y5461D01*
G01X10267Y4679D01*
G01X10750Y4654D02*
G01X11303Y5207D01*
G01X16899D01*
G01X12319Y4042D02*
G01X13103Y4826D01*
G01X16877D01*
G01X16983Y4572D02*
G01X13208Y4572D01*
G01X12573Y3937D01*
G01X20413Y12515D02*
G01X19674Y12515D01*
G01X16739Y9579D01*
G01X17043Y9453D02*
G01X19783Y12192D01*
G01X16739Y9579D02*
G01X16739Y6960D01*
G01X16104Y6325D01*
G01X12652D01*
G01X17043Y6679D02*
G01X17043Y9453D01*
G01X20221Y9597D02*
G01X18161Y7537D01*
G01Y5750D01*
G01X16983Y4572D01*
G01X16877Y4826D02*
G01X17907Y5856D01*
G01Y7642D01*
G01X22838Y12573D01*
G01X16899Y5207D02*
G01X17653Y5961D01*
G01Y7747D01*
G01X22770Y12864D01*
G01X22665Y13118D02*
G01X17399Y7852D01*
G01Y6066D01*
G01X16794Y5461D01*
G01X9899Y6478D02*
G01X10357Y6020D01*
G01X16384D01*
G01X17043Y6679D01*
G01X29622Y6075D02*
G01X29051Y6647D01*
G01X31690Y6075D02*
G01X29622Y6075D01*
G01X32137Y6522D02*
G01X31690Y6075D01*
G01X30265Y6329D02*
G01X30607Y6671D01*
G01X29727Y6329D02*
G01X30265Y6329D01*
G01X29014Y7043D02*
G01X29727Y6329D01*
G01X30778Y16720D02*
G01X31090Y16408D01*
G01Y15215D01*
G01X30938Y15063D01*
G01X30861Y17272D02*
G01X31369Y16764D01*
G01Y14986D01*
G01X32196Y14159D01*
G01X30938Y14640D02*
G01X31237Y14640D01*
G01X31942Y13935D01*
G01Y11023D01*
G54D28*
G01X20678Y7054D02*
G01X23680Y7054D01*
G01X24511Y6223D02*
G01X24511Y3303D01*
G54D25*
G01X12194Y6482D02*
G02X11891Y6505I-151J23D01*
G01X11892Y6643D02*
G03X11587Y6643I-152J0D01*
G01X11587Y6503D02*
G02X11435Y6351I-152J0D01*
G01X12500Y6619D02*
G03X12195Y6619I-152J0D01*
G01X12652Y6325D02*
G02X12500Y6477I0J152D01*
G54D28*
G01X23680Y7054D02*
G02X24511Y6223I0J-831D01*
G04 Track End*

M02*
