G04 Layer: TopPasteMaskLayer*
G04 EasyEDA Pro v2.1.27.74734765.450747, 2024-06-16 14:56:05*
G04 Gerber Generator version 0.3*
G04 Scale: 100 percent, Rotated: No, Reflected: No*
G04 Dimensions in millimeters*
G04 Leading zeros omitted, absolute positions, 3 integers and 3 decimals*
%FSLAX33Y33*%
%MOMM*%
%AMRoundRect*1,1,$1,$2,$3*1,1,$1,$4,$5*1,1,$1,0-$2,0-$3*1,1,$1,0-$4,0-$5*20,1,$1,$2,$3,$4,$5,0*20,1,$1,$4,$5,0-$2,0-$3,0*20,1,$1,0-$2,0-$3,0-$4,0-$5,0*20,1,$1,0-$4,0-$5,$2,$3,0*4,1,4,$2,$3,$4,$5,0-$2,0-$3,0-$4,0-$5,$2,$3,0*%
%AMPolygonMacro1*4,1,7,-0.1,0.3,0.2,0.3,-0.1,0.0,0.2,-0.3,-0.1,-0.3,-0.2,-0.2,-0.2,0.2,-0.1,0.3,0*%
%AMPolygonMacro2*4,1,7,0.15,-0.3,0.05,-0.3,-0.25,0.0,0.05,0.3,0.15,0.3,0.25,0.2,0.25,-0.2,0.15,-0.3,0*%
%ADD10RoundRect,0.18X0.36X-0.51X-0.36X-0.51*%
%ADD11RoundRect,0.18X-0.36X0.51X0.36X0.51*%
%ADD12RoundRect,0.6X-0.3X0.35X0.3X0.35*%
%ADD13R,1.1X0.9*%
%ADD14R,0.25X0.55*%
%ADD15R,0.25X0.7*%
%ADD16R,1.2X0.6*%
%ADD17RoundRect,0.106X-0.213X0.483X0.213X0.483*%
%ADD18RoundRect,0.3072X0.225X0.35X0.225X-0.35*%
%ADD19RoundRect,0.3X0.225X0.35X0.225X-0.35*%
%ADD20RoundRect,0.21X-0.52X0.245X0.52X0.245*%
%ADD21RoundRect,0.21X0.52X-0.245X-0.52X-0.245*%
%ADD22R,0.8X0.9*%
%ADD23R,0.9X0.8*%
%ADD24RoundRect,0.16X0.32X-0.32X-0.32X-0.32*%
%ADD25RoundRect,0.24X-0.48X0.98X0.48X0.98*%
%ADD26R,1.0X0.3*%
%ADD27R,0.8X0.4*%
%ADD28C,0.762*%
%ADD29R,0.45X2.6*%
%ADD30R,1.5X0.55*%
%ADD31R,0.65X1.05*%
%ADD32RoundRect,0.16X0.32X-0.37X-0.32X-0.37*%
%ADD33RoundRect,0.07X-0.315X-0.415X-0.315X0.415*%
%ADD34R,0.6X0.25*%
%ADD35R,0.25X0.6*%
%ADD36PolygonMacro1*%
%ADD37PolygonMacro2*%
%ADD38C,1.016*%
%ADD39R,0.4X0.889*%
%ADD40R,0.294X0.489*%
%ADD41R,0.434X0.489*%
%ADD42R,0.489X0.294*%
%ADD43R,0.489X0.434*%
%ADD44RoundRect,0.315X0.368X-0.692X-0.368X-0.692*%
%ADD45RoundRect,0.36X0.42X0.52X0.42X-0.52*%
%ADD46O,1.276X0.581*%
%ADD47R,3.4X4.3*%
%ADD48O,1.692X0.364*%
%ADD49RoundRect,0.45X0.525X-0.925X-0.525X-0.925*%
G75*


G04 PolygonModel Start*
G36*
G01X17221Y7521D02*
G02X17501Y7521I140J0D01*
G01Y7001D01*
G02X17221I-140J0D01*
G01Y7521D01*
G37*
G36*
G01X17720Y7521D02*
G02X18000Y7521I140J0D01*
G01Y7001D01*
G02X17720I-140J0D01*
G01Y7521D01*
G37*
G36*
G01X18221Y7521D02*
G02X18501Y7521I140J0D01*
G01Y7001D01*
G02X18221I-140J0D01*
G01Y7521D01*
G37*
G36*
G01X18720Y7521D02*
G02X19000Y7521I140J0D01*
G01Y7001D01*
G02X18720I-140J0D01*
G01Y7521D01*
G37*
G36*
G01X19221Y7521D02*
G02X19501Y7521I140J0D01*
G01Y7001D01*
G02X19221I-140J0D01*
G01Y7521D01*
G37*
G36*
G01X19720Y7521D02*
G02X20000Y7521I140J0D01*
G01Y7001D01*
G02X19720I-140J0D01*
G01Y7521D01*
G37*
G36*
G01X20870Y6643D02*
G02X20870Y6363I0J-140D01*
G01X20350D01*
G02Y6643I0J140D01*
G01X20870D01*
G37*
G36*
G01X20870Y6151D02*
G02X20870Y5871I0J-140D01*
G01X20350D01*
G02Y6151I0J140D01*
G01X20870D01*
G37*
G36*
G01X20870Y5651D02*
G02X20870Y5371I0J-140D01*
G01X20350D01*
G02Y5651I0J140D01*
G01X20870D01*
G37*
G36*
G01X20870Y5151D02*
G02X20870Y4871I0J-140D01*
G01X20350D01*
G02Y5151I0J140D01*
G01X20870D01*
G37*
G36*
G01X20870Y4651D02*
G02X20870Y4371I0J-140D01*
G01X20350D01*
G02Y4651I0J140D01*
G01X20870D01*
G37*
G36*
G01X20870Y4151D02*
G02X20870Y3871I0J-140D01*
G01X20350D01*
G02Y4151I0J140D01*
G01X20870D01*
G37*
G36*
G01X19720Y3521D02*
G02X20000Y3521I140J0D01*
G01Y3001D01*
G02X19720I-140J0D01*
G01Y3521D01*
G37*
G36*
G01X19221Y3521D02*
G02X19501Y3521I140J0D01*
G01Y3001D01*
G02X19221I-140J0D01*
G01Y3521D01*
G37*
G36*
G01X18720Y3521D02*
G02X19000Y3521I140J0D01*
G01Y3001D01*
G02X18720I-140J0D01*
G01Y3521D01*
G37*
G36*
G01X18221Y3521D02*
G02X18501Y3521I140J0D01*
G01Y3001D01*
G02X18221I-140J0D01*
G01Y3521D01*
G37*
G36*
G01X17720Y3521D02*
G02X18000Y3521I140J0D01*
G01Y3001D01*
G02X17720I-140J0D01*
G01Y3521D01*
G37*
G36*
G01X17221Y3521D02*
G02X17501Y3521I140J0D01*
G01Y3001D01*
G02X17221I-140J0D01*
G01Y3521D01*
G37*
G36*
G01X16870Y4151D02*
G02X16870Y3871I0J-140D01*
G01X16351D01*
G02Y4151I0J140D01*
G01X16870D01*
G37*
G36*
G01X16870Y4651D02*
G02X16870Y4371I0J-140D01*
G01X16351D01*
G02Y4651I0J140D01*
G01X16870D01*
G37*
G36*
G01X16870Y5151D02*
G02X16870Y4871I0J-140D01*
G01X16351D01*
G02Y5151I0J140D01*
G01X16870D01*
G37*
G36*
G01X16870Y5651D02*
G02X16870Y5371I0J-140D01*
G01X16351D01*
G02Y5651I0J140D01*
G01X16870D01*
G37*
G36*
G01X16870Y6151D02*
G02X16870Y5871I0J-140D01*
G01X16351D01*
G02Y6151I0J140D01*
G01X16870D01*
G37*
G36*
G01X16870Y6651D02*
G02X16870Y6371I0J-140D01*
G01X16351D01*
G02Y6651I0J140D01*
G01X16870D01*
G37*
G36*
G01X19690Y6328D02*
G01X19690Y4168D01*
G01X17530D01*
G01Y6328D01*
G01X19690D01*
G37*
G36*
G01X17098Y2251D02*
G01X17098Y1801D01*
G01X17028Y1751D01*
G01X16548D01*
G01X16498Y1801D01*
G01Y2251D01*
G01X16548Y2301D01*
G01X17028D01*
G01X17098Y2251D01*
G37*
G36*
G01X18058Y2251D02*
G01X18058Y1801D01*
G01X18008Y1751D01*
G01X17528D01*
G01X17458Y1801D01*
G01Y2251D01*
G01X17528Y2301D01*
G01X18008D01*
G01X18058Y2251D01*
G37*
G36*
G01X22854Y3712D02*
G01X22854Y4162D01*
G01X22924Y4212D01*
G01X23404D01*
G01X23454Y4162D01*
G01Y3712D01*
G01X23404Y3662D01*
G01X22924D01*
G01X22854Y3712D01*
G37*
G36*
G01X21894Y3712D02*
G01X21894Y4162D01*
G01X21944Y4212D01*
G01X22424D01*
G01X22494Y4162D01*
G01Y3712D01*
G01X22424Y3662D01*
G01X21944D01*
G01X21894Y3712D01*
G37*
G36*
G01X19865Y1801D02*
G01X19865Y2251D01*
G01X19935Y2301D01*
G01X20415D01*
G01X20465Y2251D01*
G01Y1801D01*
G01X20415Y1751D01*
G01X19935D01*
G01X19865Y1801D01*
G37*
G36*
G01X18905Y1801D02*
G01X18905Y2251D01*
G01X18955Y2301D01*
G01X19435D01*
G01X19505Y2251D01*
G01Y1801D01*
G01X19435Y1751D01*
G01X18955D01*
G01X18905Y1801D01*
G37*
G36*
G01X21315Y8607D02*
G01X21315Y8157D01*
G01X21245Y8107D01*
G01X20765D01*
G01X20715Y8157D01*
G01Y8607D01*
G01X20765Y8657D01*
G01X21245D01*
G01X21315Y8607D01*
G37*
G36*
G01X22275Y8607D02*
G01X22275Y8157D01*
G01X22225Y8107D01*
G01X21745D01*
G01X21675Y8157D01*
G01Y8607D01*
G01X21745Y8657D01*
G01X22225D01*
G01X22275Y8607D01*
G37*
G36*
G01X14623Y4347D02*
G01X14623Y4797D01*
G01X14693Y4847D01*
G01X15173D01*
G01X15223Y4797D01*
G01Y4347D01*
G01X15173Y4297D01*
G01X14693D01*
G01X14623Y4347D01*
G37*
G36*
G01X13663Y4347D02*
G01X13663Y4797D01*
G01X13713Y4847D01*
G01X14193D01*
G01X14263Y4797D01*
G01Y4347D01*
G01X14193Y4297D01*
G01X13713D01*
G01X13663Y4347D01*
G37*
G36*
G01X24477Y22063D02*
G01X24477Y22523D01*
G01X24517Y22563D01*
G01X25017D01*
G01X25057Y22523D01*
G01Y22063D01*
G01X25017Y22023D01*
G01X24517D01*
G01X24477Y22063D01*
G37*
G36*
G01X24207Y22063D02*
G01X24207Y22523D01*
G01X24167Y22563D01*
G01X23666D01*
G01X23626Y22523D01*
G01Y22063D01*
G01X23666Y22023D01*
G01X24167D01*
G01X24207Y22063D01*
G37*
G36*
G01X24477Y20920D02*
G01X24477Y21380D01*
G01X24517Y21420D01*
G01X25017D01*
G01X25057Y21380D01*
G01Y20920D01*
G01X25017Y20880D01*
G01X24517D01*
G01X24477Y20920D01*
G37*
G36*
G01X24207Y20920D02*
G01X24207Y21380D01*
G01X24167Y21420D01*
G01X23666D01*
G01X23626Y21380D01*
G01Y20920D01*
G01X23666Y20880D01*
G01X24167D01*
G01X24207Y20920D01*
G37*
G36*
G01X23299Y24619D02*
G01X23299Y25069D01*
G01X23369Y25119D01*
G01X23849D01*
G01X23899Y25069D01*
G01Y24619D01*
G01X23849Y24569D01*
G01X23369D01*
G01X23299Y24619D01*
G37*
G36*
G01X22339Y24619D02*
G01X22339Y25069D01*
G01X22389Y25119D01*
G01X22869D01*
G01X22939Y25069D01*
G01Y24619D01*
G01X22869Y24569D01*
G01X22389D01*
G01X22339Y24619D01*
G37*
G36*
G01X22984Y23833D02*
G01X22984Y23373D01*
G01X22944Y23333D01*
G01X22444D01*
G01X22404Y23373D01*
G01Y23833D01*
G01X22444Y23873D01*
G01X22944D01*
G01X22984Y23833D01*
G37*
G36*
G01X23254Y23833D02*
G01X23254Y23373D01*
G01X23294Y23333D01*
G01X23795D01*
G01X23835Y23373D01*
G01Y23833D01*
G01X23795Y23873D01*
G01X23294D01*
G01X23254Y23833D01*
G37*
G36*
G01X1532Y6501D02*
G01X1532Y6961D01*
G01X1572Y7001D01*
G01X2073D01*
G01X2113Y6961D01*
G01Y6501D01*
G01X2073Y6461D01*
G01X1572D01*
G01X1532Y6501D01*
G37*
G36*
G01X1262Y6501D02*
G01X1262Y6961D01*
G01X1222Y7001D01*
G01X721D01*
G01X681Y6961D01*
G01Y6501D01*
G01X721Y6461D01*
G01X1222D01*
G01X1262Y6501D01*
G37*
G36*
G01X1532Y7644D02*
G01X1532Y8104D01*
G01X1572Y8144D01*
G01X2073D01*
G01X2113Y8104D01*
G01Y7644D01*
G01X2073Y7604D01*
G01X1572D01*
G01X1532Y7644D01*
G37*
G36*
G01X1262Y7644D02*
G01X1262Y8104D01*
G01X1222Y8144D01*
G01X721D01*
G01X681Y8104D01*
G01Y7644D01*
G01X721Y7604D01*
G01X1222D01*
G01X1262Y7644D01*
G37*
G36*
G01X15121Y20217D02*
G01X15121Y20677D01*
G01X15161Y20717D01*
G01X15662D01*
G01X15702Y20677D01*
G01Y20217D01*
G01X15662Y20177D01*
G01X15161D01*
G01X15121Y20217D01*
G37*
G36*
G01X14851Y20217D02*
G01X14851Y20677D01*
G01X14811Y20717D01*
G01X14310D01*
G01X14270Y20677D01*
G01Y20217D01*
G01X14310Y20177D01*
G01X14811D01*
G01X14851Y20217D01*
G37*
G36*
G01X14845Y22582D02*
G01X14845Y22122D01*
G01X14805Y22082D01*
G01X14305D01*
G01X14265Y22122D01*
G01Y22582D01*
G01X14305Y22622D01*
G01X14805D01*
G01X14845Y22582D01*
G37*
G36*
G01X15115Y22582D02*
G01X15115Y22122D01*
G01X15155Y22082D01*
G01X15656D01*
G01X15696Y22122D01*
G01Y22582D01*
G01X15656Y22622D01*
G01X15155D01*
G01X15115Y22582D01*
G37*
G36*
G01X1532Y5358D02*
G01X1532Y5818D01*
G01X1572Y5858D01*
G01X2073D01*
G01X2113Y5818D01*
G01Y5358D01*
G01X2073Y5318D01*
G01X1572D01*
G01X1532Y5358D01*
G37*
G36*
G01X1262Y5358D02*
G01X1262Y5818D01*
G01X1222Y5858D01*
G01X721D01*
G01X681Y5818D01*
G01Y5358D01*
G01X721Y5318D01*
G01X1222D01*
G01X1262Y5358D01*
G37*
G36*
G01X3884Y8099D02*
G01X3884Y7649D01*
G01X3814Y7599D01*
G01X3334D01*
G01X3284Y7649D01*
G01Y8099D01*
G01X3334Y8149D01*
G01X3814D01*
G01X3884Y8099D01*
G37*
G36*
G01X4844Y8099D02*
G01X4844Y7649D01*
G01X4794Y7599D01*
G01X4314D01*
G01X4244Y7649D01*
G01Y8099D01*
G01X4314Y8149D01*
G01X4794D01*
G01X4844Y8099D01*
G37*
G36*
G01X663Y22978D02*
G01X1123Y22978D01*
G01X1163Y22938D01*
G01Y22437D01*
G01X1123Y22397D01*
G01X663D01*
G01X623Y22437D01*
G01Y22938D01*
G01X663Y22978D01*
G37*
G36*
G01X663Y23248D02*
G01X1123Y23248D01*
G01X1163Y23288D01*
G01Y23788D01*
G01X1123Y23828D01*
G01X663D01*
G01X623Y23788D01*
G01Y23288D01*
G01X663Y23248D01*
G37*
G36*
G01X4336Y20042D02*
G01X4336Y19582D01*
G01X4296Y19542D01*
G01X3795D01*
G01X3755Y19582D01*
G01Y20042D01*
G01X3795Y20082D01*
G01X4296D01*
G01X4336Y20042D01*
G37*
G36*
G01X4606Y20042D02*
G01X4606Y19582D01*
G01X4646Y19542D01*
G01X5146D01*
G01X5186Y19582D01*
G01Y20042D01*
G01X5146Y20082D01*
G01X4646D01*
G01X4606Y20042D01*
G37*
G36*
G01X2548Y19582D02*
G01X2548Y20042D01*
G01X2588Y20082D01*
G01X3089D01*
G01X3129Y20042D01*
G01Y19582D01*
G01X3089Y19542D01*
G01X2588D01*
G01X2548Y19582D01*
G37*
G36*
G01X2278Y19582D02*
G01X2278Y20042D01*
G01X2238Y20082D01*
G01X1737D01*
G01X1697Y20042D01*
G01Y19582D01*
G01X1737Y19542D01*
G01X2238D01*
G01X2278Y19582D01*
G37*
G36*
G01X4910Y23519D02*
G01X4460Y23519D01*
G01X4410Y23589D01*
G01Y24069D01*
G01X4460Y24119D01*
G01X4910D01*
G01X4960Y24069D01*
G01Y23589D01*
G01X4910Y23519D01*
G37*
G36*
G01X4910Y22559D02*
G01X4460Y22559D01*
G01X4410Y22609D01*
G01Y23089D01*
G01X4460Y23159D01*
G01X4910D01*
G01X4960Y23089D01*
G01Y22609D01*
G01X4910Y22559D01*
G37*
G36*
G01X6693Y17420D02*
G01X6693Y16920D01*
G01X5503D01*
G01Y17420D01*
G01X6693D01*
G37*
G36*
G01X6693Y11020D02*
G01X6693Y10520D01*
G01X5503D01*
G01Y11020D01*
G01X6693D01*
G37*
G36*
G01X6693Y11820D02*
G01X6693Y11320D01*
G01X5503D01*
G01Y11820D01*
G01X6693D01*
G37*
G36*
G01X6693Y16620D02*
G01X6693Y16120D01*
G01X5503D01*
G01Y16620D01*
G01X6693D01*
G37*
G36*
G01X6743Y12370D02*
G01X6743Y12070D01*
G01X5453D01*
G01Y12370D01*
G01X6743D01*
G37*
G36*
G01X6743Y13870D02*
G01X6743Y13570D01*
G01X5453D01*
G01Y13870D01*
G01X6743D01*
G37*
G36*
G01X6743Y14370D02*
G01X6743Y14070D01*
G01X5453D01*
G01Y14370D01*
G01X6743D01*
G37*
G36*
G01X6743Y14870D02*
G01X6743Y14570D01*
G01X5453D01*
G01Y14870D01*
G01X6743D01*
G37*
G36*
G01X6743Y15870D02*
G01X6743Y15570D01*
G01X5453D01*
G01Y15870D01*
G01X6743D01*
G37*
G36*
G01X6743Y13370D02*
G01X6743Y13070D01*
G01X5453D01*
G01Y13370D01*
G01X6743D01*
G37*
G36*
G01X6743Y12870D02*
G01X6743Y12570D01*
G01X5453D01*
G01Y12870D01*
G01X6743D01*
G37*
G36*
G01X5848Y18890D02*
G02X5848Y17690I0J-600D01*
G01X5048D01*
G02Y18890I0J600D01*
G01X5848D01*
G37*
G36*
G01X1568Y18890D02*
G02X1568Y17690I0J-600D01*
G01X968D01*
G02Y18890I0J600D01*
G01X1568D01*
G37*
G36*
G01X5848Y10250D02*
G02X5848Y9050I-7J-600D01*
G01X5048D01*
G02Y10250I7J600D01*
G01X5848D01*
G37*
G36*
G01X1568Y10250D02*
G02X1568Y9050I-7J-600D01*
G01X968D01*
G02Y10250I7J600D01*
G01X1568D01*
G37*
G36*
G01X6743Y15370D02*
G01X6743Y15070D01*
G01X5453D01*
G01Y15370D01*
G01X6743D01*
G37*
G36*
G01X8574Y22868D02*
G01X8114Y22868D01*
G01X8074Y22908D01*
G01Y23409D01*
G01X8114Y23449D01*
G01X8574D01*
G01X8614Y23409D01*
G01Y22908D01*
G01X8574Y22868D01*
G37*
G36*
G01X8574Y22598D02*
G01X8114Y22598D01*
G01X8074Y22558D01*
G01Y22057D01*
G01X8114Y22017D01*
G01X8574D01*
G01X8614Y22057D01*
G01Y22558D01*
G01X8574Y22598D01*
G37*
G36*
G01X9036Y22598D02*
G01X9496Y22598D01*
G01X9536Y22558D01*
G01Y22057D01*
G01X9496Y22017D01*
G01X9036D01*
G01X8996Y22057D01*
G01Y22558D01*
G01X9036Y22598D01*
G37*
G36*
G01X9036Y22868D02*
G01X9496Y22868D01*
G01X9536Y22908D01*
G01Y23409D01*
G01X9496Y23449D01*
G01X9036D01*
G01X8996Y23409D01*
G01Y22908D01*
G01X9036Y22868D01*
G37*
G36*
G01X10085Y22807D02*
G01X10535Y22807D01*
G01X10585Y22737D01*
G01Y22257D01*
G01X10535Y22207D01*
G01X10085D01*
G01X10035Y22257D01*
G01Y22737D01*
G01X10085Y22807D01*
G37*
G36*
G01X10085Y23767D02*
G01X10535Y23767D01*
G01X10585Y23717D01*
G01Y23237D01*
G01X10535Y23167D01*
G01X10085D01*
G01X10035Y23237D01*
G01Y23717D01*
G01X10085Y23767D01*
G37*
G36*
G01X12410Y8849D02*
G01X12410Y8399D01*
G01X12340Y8349D01*
G01X11860D01*
G01X11810Y8399D01*
G01Y8849D01*
G01X11860Y8899D01*
G01X12340D01*
G01X12410Y8849D01*
G37*
G36*
G01X13370Y8849D02*
G01X13370Y8399D01*
G01X13320Y8349D01*
G01X12840D01*
G01X12770Y8399D01*
G01Y8849D01*
G01X12840Y8899D01*
G01X13320D01*
G01X13370Y8849D01*
G37*
G36*
G01X9646Y11864D02*
G01X9196Y11864D01*
G01X9146Y11934D01*
G01Y12414D01*
G01X9196Y12464D01*
G01X9646D01*
G01X9696Y12414D01*
G01Y11934D01*
G01X9646Y11864D01*
G37*
G36*
G01X9646Y10904D02*
G01X9196Y10904D01*
G01X9146Y10954D01*
G01Y11434D01*
G01X9196Y11504D01*
G01X9646D01*
G01X9696Y11434D01*
G01Y10954D01*
G01X9646Y10904D01*
G37*
G36*
G01X9911Y13899D02*
G01X9911Y13449D01*
G01X9841Y13399D01*
G01X9361D01*
G01X9311Y13449D01*
G01Y13899D01*
G01X9361Y13949D01*
G01X9841D01*
G01X9911Y13899D01*
G37*
G36*
G01X10871Y13899D02*
G01X10871Y13449D01*
G01X10821Y13399D01*
G01X10341D01*
G01X10271Y13449D01*
G01Y13899D01*
G01X10341Y13949D01*
G01X10821D01*
G01X10871Y13899D01*
G37*
G36*
G01X12673Y13449D02*
G01X12673Y13899D01*
G01X12743Y13949D01*
G01X13223D01*
G01X13273Y13899D01*
G01Y13449D01*
G01X13223Y13399D01*
G01X12743D01*
G01X12673Y13449D01*
G37*
G36*
G01X11713Y13449D02*
G01X11713Y13899D01*
G01X11763Y13949D01*
G01X12243D01*
G01X12313Y13899D01*
G01Y13449D01*
G01X12243Y13399D01*
G01X11763D01*
G01X11713Y13449D01*
G37*
G36*
G01X14623Y3077D02*
G01X14623Y3527D01*
G01X14693Y3577D01*
G01X15173D01*
G01X15223Y3527D01*
G01Y3077D01*
G01X15173Y3027D01*
G01X14693D01*
G01X14623Y3077D01*
G37*
G36*
G01X13663Y3077D02*
G01X13663Y3527D01*
G01X13713Y3577D01*
G01X14193D01*
G01X14263Y3527D01*
G01Y3077D01*
G01X14193Y3027D01*
G01X13713D01*
G01X13663Y3077D01*
G37*
G36*
G01X33200Y11205D02*
G01X33200Y11655D01*
G01X33270Y11705D01*
G01X33750D01*
G01X33800Y11655D01*
G01Y11205D01*
G01X33750Y11155D01*
G01X33270D01*
G01X33200Y11205D01*
G37*
G36*
G01X32240Y11205D02*
G01X32240Y11655D01*
G01X32290Y11705D01*
G01X32770D01*
G01X32840Y11655D01*
G01Y11205D01*
G01X32770Y11155D01*
G01X32290D01*
G01X32240Y11205D01*
G37*
G36*
G01X33372Y9930D02*
G01X33372Y10390D01*
G01X33412Y10430D01*
G01X33913D01*
G01X33953Y10390D01*
G01Y9930D01*
G01X33913Y9890D01*
G01X33412D01*
G01X33372Y9930D01*
G37*
G36*
G01X33102Y9930D02*
G01X33102Y10390D01*
G01X33062Y10430D01*
G01X32562D01*
G01X32522Y10390D01*
G01Y9930D01*
G01X32562Y9890D01*
G01X33062D01*
G01X33102Y9930D01*
G37*
G36*
G01X33372Y6899D02*
G01X33372Y7359D01*
G01X33412Y7399D01*
G01X33913D01*
G01X33953Y7359D01*
G01Y6899D01*
G01X33913Y6859D01*
G01X33412D01*
G01X33372Y6899D01*
G37*
G36*
G01X33102Y6899D02*
G01X33102Y7359D01*
G01X33062Y7399D01*
G01X32562D01*
G01X32522Y7359D01*
G01Y6899D01*
G01X32562Y6859D01*
G01X33062D01*
G01X33102Y6899D01*
G37*
G36*
G01X33372Y8932D02*
G01X33372Y9392D01*
G01X33412Y9432D01*
G01X33913D01*
G01X33953Y9392D01*
G01Y8932D01*
G01X33913Y8892D01*
G01X33412D01*
G01X33372Y8932D01*
G37*
G36*
G01X33102Y8932D02*
G01X33102Y9392D01*
G01X33062Y9432D01*
G01X32562D01*
G01X32522Y9392D01*
G01Y8932D01*
G01X32562Y8892D01*
G01X33062D01*
G01X33102Y8932D01*
G37*
G36*
G01X33372Y7918D02*
G01X33372Y8378D01*
G01X33412Y8418D01*
G01X33913D01*
G01X33953Y8378D01*
G01Y7918D01*
G01X33913Y7878D01*
G01X33412D01*
G01X33372Y7918D01*
G37*
G36*
G01X33102Y7918D02*
G01X33102Y8378D01*
G01X33062Y8418D01*
G01X32562D01*
G01X32522Y8378D01*
G01Y7918D01*
G01X32562Y7878D01*
G01X33062D01*
G01X33102Y7918D01*
G37*
G36*
G01X29389Y21318D02*
G01X29389Y20858D01*
G01X29349Y20818D01*
G01X28849D01*
G01X28809Y20858D01*
G01Y21318D01*
G01X28849Y21358D01*
G01X29349D01*
G01X29389Y21318D01*
G37*
G36*
G01X29659Y21318D02*
G01X29659Y20858D01*
G01X29699Y20818D01*
G01X30200D01*
G01X30240Y20858D01*
G01Y21318D01*
G01X30200Y21358D01*
G01X29699D01*
G01X29659Y21318D01*
G37*
G36*
G01X8828Y18800D02*
G01X8378Y18800D01*
G01X8328Y18870D01*
G01Y19350D01*
G01X8378Y19400D01*
G01X8828D01*
G01X8878Y19350D01*
G01Y18870D01*
G01X8828Y18800D01*
G37*
G36*
G01X8828Y17840D02*
G01X8378Y17840D01*
G01X8328Y17890D01*
G01Y18370D01*
G01X8378Y18440D01*
G01X8828D01*
G01X8878Y18370D01*
G01Y17890D01*
G01X8828Y17840D01*
G37*
G36*
G01X20370Y21996D02*
G01X20370Y22446D01*
G01X20440Y22496D01*
G01X20920D01*
G01X20970Y22446D01*
G01Y21996D01*
G01X20920Y21946D01*
G01X20440D01*
G01X20370Y21996D01*
G37*
G36*
G01X19410Y21996D02*
G01X19410Y22446D01*
G01X19460Y22496D01*
G01X19940D01*
G01X20010Y22446D01*
G01Y21996D01*
G01X19940Y21946D01*
G01X19460D01*
G01X19410Y21996D01*
G37*
G36*
G01X20370Y23024D02*
G01X20370Y23474D01*
G01X20440Y23524D01*
G01X20920D01*
G01X20970Y23474D01*
G01Y23024D01*
G01X20920Y22974D01*
G01X20440D01*
G01X20370Y23024D01*
G37*
G36*
G01X19410Y23024D02*
G01X19410Y23474D01*
G01X19460Y23524D01*
G01X19940D01*
G01X20010Y23474D01*
G01Y23024D01*
G01X19940Y22974D01*
G01X19460D01*
G01X19410Y23024D01*
G37*
G36*
G01X14449Y18800D02*
G01X13999Y18800D01*
G01X13949Y18870D01*
G01Y19350D01*
G01X13999Y19400D01*
G01X14449D01*
G01X14499Y19350D01*
G01Y18870D01*
G01X14449Y18800D01*
G37*
G36*
G01X14449Y17840D02*
G01X13999Y17840D01*
G01X13949Y17890D01*
G01Y18370D01*
G01X13999Y18440D01*
G01X14449D01*
G01X14499Y18370D01*
G01Y17890D01*
G01X14449Y17840D01*
G37*
G36*
G01X10490Y20857D02*
G01X10490Y21307D01*
G01X10560Y21357D01*
G01X11040D01*
G01X11090Y21307D01*
G01Y20857D01*
G01X11040Y20807D01*
G01X10560D01*
G01X10490Y20857D01*
G37*
G36*
G01X9530Y20857D02*
G01X9530Y21307D01*
G01X9580Y21357D01*
G01X10060D01*
G01X10130Y21307D01*
G01Y20857D01*
G01X10060Y20807D01*
G01X9580D01*
G01X9530Y20857D01*
G37*
G36*
G01X12393Y21307D02*
G01X12393Y20857D01*
G01X12323Y20807D01*
G01X11843D01*
G01X11793Y20857D01*
G01Y21307D01*
G01X11843Y21357D01*
G01X12323D01*
G01X12393Y21307D01*
G37*
G36*
G01X13353Y21307D02*
G01X13353Y20857D01*
G01X13303Y20807D01*
G01X12823D01*
G01X12753Y20857D01*
G01Y21307D01*
G01X12823Y21357D01*
G01X13303D01*
G01X13353Y21307D01*
G37*
G36*
G01X26027Y20400D02*
G01X26200Y20400D01*
G01X26383Y20132D01*
G01Y19635D01*
G01X26343Y19595D01*
G01X25883D01*
G01X25843Y19635D01*
G01Y20132D01*
G01X26027Y20400D01*
G37*
G36*
G01X26027Y20670D02*
G01X26200Y20670D01*
G01X26383Y20939D01*
G01Y21435D01*
G01X26343Y21475D01*
G01X25883D01*
G01X25843Y21435D01*
G01Y20939D01*
G01X26027Y20670D01*
G37*
G36*
G01X25302Y25078D02*
G01X25302Y24628D01*
G01X25232Y24578D01*
G01X24752D01*
G01X24702Y24628D01*
G01Y25078D01*
G01X24752Y25128D01*
G01X25232D01*
G01X25302Y25078D01*
G37*
G36*
G01X26262Y25078D02*
G01X26262Y24628D01*
G01X26212Y24578D01*
G01X25732D01*
G01X25662Y24628D01*
G01Y25078D01*
G01X25732Y25128D01*
G01X26212D01*
G01X26262Y25078D01*
G37*
G36*
G01X25302Y23828D02*
G01X25302Y23378D01*
G01X25232Y23328D01*
G01X24752D01*
G01X24702Y23378D01*
G01Y23828D01*
G01X24752Y23878D01*
G01X25232D01*
G01X25302Y23828D01*
G37*
G36*
G01X26262Y23828D02*
G01X26262Y23378D01*
G01X26212Y23328D01*
G01X25732D01*
G01X25662Y23378D01*
G01Y23828D01*
G01X25732Y23878D01*
G01X26212D01*
G01X26262Y23828D01*
G37*
G36*
G01X26812Y22088D02*
G01X26812Y22538D01*
G01X26882Y22588D01*
G01X27362D01*
G01X27412Y22538D01*
G01Y22088D01*
G01X27362Y22038D01*
G01X26882D01*
G01X26812Y22088D01*
G37*
G36*
G01X25852Y22088D02*
G01X25852Y22538D01*
G01X25902Y22588D01*
G01X26382D01*
G01X26452Y22538D01*
G01Y22088D01*
G01X26382Y22038D01*
G01X25902D01*
G01X25852Y22088D01*
G37*
G36*
G01X27488Y20715D02*
G01X27038Y20715D01*
G01X26988Y20785D01*
G01Y21265D01*
G01X27038Y21315D01*
G01X27488D01*
G01X27538Y21265D01*
G01Y20785D01*
G01X27488Y20715D01*
G37*
G36*
G01X27488Y19755D02*
G01X27038Y19755D01*
G01X26988Y19805D01*
G01Y20285D01*
G01X27038Y20355D01*
G01X27488D01*
G01X27538Y20285D01*
G01Y19805D01*
G01X27488Y19755D01*
G37*
G36*
G01X30406Y20315D02*
G01X30406Y19865D01*
G01X30336Y19815D01*
G01X29856D01*
G01X29806Y19865D01*
G01Y20315D01*
G01X29856Y20365D01*
G01X30336D01*
G01X30406Y20315D01*
G37*
G36*
G01X31366Y20315D02*
G01X31366Y19865D01*
G01X31316Y19815D01*
G01X30836D01*
G01X30766Y19865D01*
G01Y20315D01*
G01X30836Y20365D01*
G01X31316D01*
G01X31366Y20315D01*
G37*
G36*
G01X30406Y19333D02*
G01X30406Y18883D01*
G01X30336Y18833D01*
G01X29856D01*
G01X29806Y18883D01*
G01Y19333D01*
G01X29856Y19383D01*
G01X30336D01*
G01X30406Y19333D01*
G37*
G36*
G01X31366Y19333D02*
G01X31366Y18883D01*
G01X31316Y18833D01*
G01X30836D01*
G01X30766Y18883D01*
G01Y19333D01*
G01X30836Y19383D01*
G01X31316D01*
G01X31366Y19333D01*
G37*
G36*
G01X33531Y19709D02*
G01X33531Y20169D01*
G01X33571Y20209D01*
G01X34072D01*
G01X34112Y20169D01*
G01Y19709D01*
G01X34072Y19669D01*
G01X33571D01*
G01X33531Y19709D01*
G37*
G36*
G01X33261Y19709D02*
G01X33261Y20169D01*
G01X33221Y20209D01*
G01X32721D01*
G01X32681Y20169D01*
G01Y19709D01*
G01X32721Y19669D01*
G01X33221D01*
G01X33261Y19709D01*
G37*
G36*
G01X33322Y18517D02*
G01X33322Y18967D01*
G01X33392Y19017D01*
G01X33872D01*
G01X33922Y18967D01*
G01Y18517D01*
G01X33872Y18467D01*
G01X33392D01*
G01X33322Y18517D01*
G37*
G36*
G01X32362Y18517D02*
G01X32362Y18967D01*
G01X32412Y19017D01*
G01X32892D01*
G01X32962Y18967D01*
G01Y18517D01*
G01X32892Y18467D01*
G01X32412D01*
G01X32362Y18517D01*
G37*
G36*
G01X33193Y13300D02*
G01X33193Y13750D01*
G01X33263Y13800D01*
G01X33743D01*
G01X33793Y13750D01*
G01Y13300D01*
G01X33743Y13250D01*
G01X33263D01*
G01X33193Y13300D01*
G37*
G36*
G01X32233Y13300D02*
G01X32233Y13750D01*
G01X32283Y13800D01*
G01X32763D01*
G01X32833Y13750D01*
G01Y13300D01*
G01X32763Y13250D01*
G01X32283D01*
G01X32233Y13300D01*
G37*
G36*
G01X33200Y12221D02*
G01X33200Y12671D01*
G01X33270Y12721D01*
G01X33750D01*
G01X33800Y12671D01*
G01Y12221D01*
G01X33750Y12171D01*
G01X33270D01*
G01X33200Y12221D01*
G37*
G36*
G01X32240Y12221D02*
G01X32240Y12671D01*
G01X32290Y12721D01*
G01X32770D01*
G01X32840Y12671D01*
G01Y12221D01*
G01X32770Y12171D01*
G01X32290D01*
G01X32240Y12221D01*
G37*
G36*
G01X21397Y14552D02*
G01X21847Y14552D01*
G01X21897Y14482D01*
G01Y14002D01*
G01X21847Y13952D01*
G01X21397D01*
G01X21347Y14002D01*
G01Y14482D01*
G01X21397Y14552D01*
G37*
G36*
G01X21397Y15512D02*
G01X21847Y15512D01*
G01X21897Y15462D01*
G01Y14982D01*
G01X21847Y14912D01*
G01X21397D01*
G01X21347Y14982D01*
G01Y15462D01*
G01X21397Y15512D01*
G37*
G36*
G01X28825Y22394D02*
G01X29285Y22394D01*
G01X29325Y22354D01*
G01Y21853D01*
G01X29285Y21813D01*
G01X28825D01*
G01X28785Y21853D01*
G01Y22354D01*
G01X28825Y22394D01*
G37*
G36*
G01X28825Y22664D02*
G01X29285Y22664D01*
G01X29325Y22704D01*
G01Y23204D01*
G01X29285Y23244D01*
G01X28825D01*
G01X28785Y23204D01*
G01Y22704D01*
G01X28825Y22664D01*
G37*
G36*
G01X28730Y23746D02*
G01X28730Y24206D01*
G01X28770Y24246D01*
G01X29270D01*
G01X29310Y24206D01*
G01Y23746D01*
G01X29270Y23706D01*
G01X28770D01*
G01X28730Y23746D01*
G37*
G36*
G01X28459Y23746D02*
G01X28459Y24206D01*
G01X28419Y24246D01*
G01X27919D01*
G01X27879Y24206D01*
G01Y23746D01*
G01X27919Y23706D01*
G01X28419D01*
G01X28459Y23746D01*
G37*
G36*
G01X14952Y23868D02*
G01X14952Y23418D01*
G01X14882Y23368D01*
G01X14402D01*
G01X14352Y23418D01*
G01Y23868D01*
G01X14402Y23918D01*
G01X14882D01*
G01X14952Y23868D01*
G37*
G36*
G01X15912Y23868D02*
G01X15912Y23418D01*
G01X15862Y23368D01*
G01X15382D01*
G01X15312Y23418D01*
G01Y23868D01*
G01X15382Y23918D01*
G01X15862D01*
G01X15912Y23868D01*
G37*
G36*
G01X14952Y25046D02*
G01X14952Y24596D01*
G01X14882Y24546D01*
G01X14402D01*
G01X14352Y24596D01*
G01Y25046D01*
G01X14402Y25096D01*
G01X14882D01*
G01X14952Y25046D01*
G37*
G36*
G01X15912Y25046D02*
G01X15912Y24596D01*
G01X15862Y24546D01*
G01X15382D01*
G01X15312Y24596D01*
G01Y25046D01*
G01X15382Y25096D01*
G01X15862D01*
G01X15912Y25046D01*
G37*
G36*
G01X20587Y21312D02*
G01X20587Y20852D01*
G01X20627Y20812D01*
G01X21128D01*
G01X21168Y20852D01*
G01Y21312D01*
G01X21128Y21352D01*
G01X20627D01*
G01X20587Y21312D01*
G37*
G36*
G01X20317Y21312D02*
G01X20317Y20852D01*
G01X20277Y20812D01*
G01X19777D01*
G01X19737Y20852D01*
G01Y21312D01*
G01X19777Y21352D01*
G01X20277D01*
G01X20317Y21312D01*
G37*
G36*
G01X20587Y20314D02*
G01X20587Y19854D01*
G01X20627Y19814D01*
G01X21128D01*
G01X21168Y19854D01*
G01Y20314D01*
G01X21128Y20354D01*
G01X20627D01*
G01X20587Y20314D01*
G37*
G36*
G01X20317Y20314D02*
G01X20317Y19854D01*
G01X20277Y19814D01*
G01X19777D01*
G01X19737Y19854D01*
G01Y20314D01*
G01X19777Y20354D01*
G01X20277D01*
G01X20317Y20314D01*
G37*
G36*
G01X21138Y24565D02*
G01X20678Y24565D01*
G01X20638Y24525D01*
G01Y24024D01*
G01X20678Y23984D01*
G01X21138D01*
G01X21178Y24024D01*
G01Y24525D01*
G01X21138Y24565D01*
G37*
G36*
G01X21138Y24835D02*
G01X20678Y24835D01*
G01X20638Y24875D01*
G01Y25375D01*
G01X20678Y25415D01*
G01X21138D01*
G01X21178Y25375D01*
G01Y24875D01*
G01X21138Y24835D01*
G37*
G36*
G01X17336Y23392D02*
G01X17336Y23852D01*
G01X17296Y23892D01*
G01X16795D01*
G01X16755Y23852D01*
G01Y23392D01*
G01X16795Y23352D01*
G01X17296D01*
G01X17336Y23392D01*
G37*
G36*
G01X17606Y23392D02*
G01X17606Y23852D01*
G01X17646Y23892D01*
G01X18146D01*
G01X18186Y23852D01*
G01Y23392D01*
G01X18146Y23352D01*
G01X17646D01*
G01X17606Y23392D01*
G37*
G36*
G01X22530Y6256D02*
G01X22530Y5806D01*
G01X22460Y5756D01*
G01X21980D01*
G01X21930Y5806D01*
G01Y6256D01*
G01X21980Y6306D01*
G01X22460D01*
G01X22530Y6256D01*
G37*
G36*
G01X23490Y6256D02*
G01X23490Y5806D01*
G01X23440Y5756D01*
G01X22960D01*
G01X22890Y5806D01*
G01Y6256D01*
G01X22960Y6306D01*
G01X23440D01*
G01X23490Y6256D01*
G37*
G36*
G01X22530Y7248D02*
G01X22530Y6798D01*
G01X22460Y6748D01*
G01X21980D01*
G01X21930Y6798D01*
G01Y7248D01*
G01X21980Y7298D01*
G01X22460D01*
G01X22530Y7248D01*
G37*
G36*
G01X23490Y7248D02*
G01X23490Y6798D01*
G01X23440Y6748D01*
G01X22960D01*
G01X22890Y6798D01*
G01Y7248D01*
G01X22960Y7298D01*
G01X23440D01*
G01X23490Y7248D01*
G37*
G36*
G01X29491Y17232D02*
G01X30156Y17232D01*
G01Y17432D01*
G01X29491D01*
G01Y17232D01*
G37*
G36*
G01X29491Y14432D02*
G01X30156Y14432D01*
G01Y14632D01*
G01X29491D01*
G01Y14432D01*
G37*
G36*
G01X30156Y15032D02*
G01X29491Y15032D01*
G01Y14832D01*
G01X30156D01*
G01Y15032D01*
G37*
G36*
G01X30156Y12232D02*
G01X29491Y12232D01*
G01Y12032D01*
G01X30156D01*
G01Y12232D01*
G37*
G36*
G01X29491Y16832D02*
G01X30156Y16832D01*
G01Y17032D01*
G01X29491D01*
G01Y16832D01*
G37*
G36*
G01X29491Y14032D02*
G01X30156Y14032D01*
G01Y14232D01*
G01X29491D01*
G01Y14032D01*
G37*
G36*
G01X29491Y16432D02*
G01X30156Y16432D01*
G01Y16632D01*
G01X29491D01*
G01Y16432D01*
G37*
G36*
G01X29491Y13632D02*
G01X30156Y13632D01*
G01Y13832D01*
G01X29491D01*
G01Y13632D01*
G37*
G36*
G01X29491Y16032D02*
G01X30156Y16032D01*
G01Y16232D01*
G01X29491D01*
G01Y16032D01*
G37*
G36*
G01X29491Y13232D02*
G01X30156Y13232D01*
G01Y13432D01*
G01X29491D01*
G01Y13232D01*
G37*
G36*
G01X30156Y15432D02*
G01X29491Y15432D01*
G01Y15232D01*
G01X30156D01*
G01Y15432D01*
G37*
G36*
G01X30156Y12632D02*
G01X29491Y12632D01*
G01Y12432D01*
G01X30156D01*
G01Y12632D01*
G37*
G36*
G01X29491Y15632D02*
G01X30156Y15632D01*
G01Y15832D01*
G01X29491D01*
G01Y15632D01*
G37*
G36*
G01X29491Y12832D02*
G01X30156Y12832D01*
G01Y13032D01*
G01X29491D01*
G01Y12832D01*
G37*
G36*
G01X29116Y18472D02*
G01X28916Y18472D01*
G01Y17807D01*
G01X29116D01*
G01Y18472D01*
G37*
G36*
G01X28916Y10992D02*
G01X29116Y10992D01*
G01Y11657D01*
G01X28916D01*
G01Y10992D01*
G37*
G36*
G01X28716Y18472D02*
G01X28516Y18472D01*
G01Y17807D01*
G01X28716D01*
G01Y18472D01*
G37*
G36*
G01X28516Y10992D02*
G01X28716Y10992D01*
G01Y11657D01*
G01X28516D01*
G01Y10992D01*
G37*
G36*
G01X28316Y18472D02*
G01X28116Y18472D01*
G01Y17807D01*
G01X28316D01*
G01Y18472D01*
G37*
G36*
G01X28116Y10992D02*
G01X28316Y10992D01*
G01Y11657D01*
G01X28116D01*
G01Y10992D01*
G37*
G36*
G01X27716Y10992D02*
G01X27916Y10992D01*
G01Y11657D01*
G01X27716D01*
G01Y10992D01*
G37*
G36*
G01X27716Y17807D02*
G01X27916Y17807D01*
G01Y18472D01*
G01X27716D01*
G01Y17807D01*
G37*
G36*
G01X27516Y18472D02*
G01X27316Y18472D01*
G01Y17807D01*
G01X27516D01*
G01Y18472D01*
G37*
G36*
G01X27316Y10992D02*
G01X27516Y10992D01*
G01Y11657D01*
G01X27316D01*
G01Y10992D01*
G37*
G36*
G01X27116Y18472D02*
G01X26916Y18472D01*
G01Y17807D01*
G01X27116D01*
G01Y18472D01*
G37*
G36*
G01X26916Y10992D02*
G01X27116Y10992D01*
G01Y11657D01*
G01X26916D01*
G01Y10992D01*
G37*
G36*
G01X26716Y18472D02*
G01X26516Y18472D01*
G01Y17807D01*
G01X26716D01*
G01Y18472D01*
G37*
G36*
G01X26516Y10992D02*
G01X26716Y10992D01*
G01Y11657D01*
G01X26516D01*
G01Y10992D01*
G37*
G36*
G01X26316Y18472D02*
G01X26116Y18472D01*
G01Y17807D01*
G01X26316D01*
G01Y18472D01*
G37*
G36*
G01X26116Y10992D02*
G01X26316Y10992D01*
G01Y11657D01*
G01X26116D01*
G01Y10992D01*
G37*
G36*
G01X25916Y18472D02*
G01X25716Y18472D01*
G01Y17807D01*
G01X25916D01*
G01Y18472D01*
G37*
G36*
G01X25716Y10992D02*
G01X25916Y10992D01*
G01Y11657D01*
G01X25716D01*
G01Y10992D01*
G37*
G36*
G01X25516Y18472D02*
G01X25316Y18472D01*
G01Y17807D01*
G01X25516D01*
G01Y18472D01*
G37*
G36*
G01X25316Y10992D02*
G01X25516Y10992D01*
G01Y11657D01*
G01X25316D01*
G01Y10992D01*
G37*
G36*
G01X24916Y10992D02*
G01X25116Y10992D01*
G01Y11657D01*
G01X24916D01*
G01Y10992D01*
G37*
G36*
G01X24916Y17807D02*
G01X25116Y17807D01*
G01Y18472D01*
G01X24916D01*
G01Y17807D01*
G37*
G36*
G01X24716Y18472D02*
G01X24516Y18472D01*
G01Y17807D01*
G01X24716D01*
G01Y18472D01*
G37*
G36*
G01X24516Y10992D02*
G01X24716Y10992D01*
G01Y11657D01*
G01X24516D01*
G01Y10992D01*
G37*
G36*
G01X24316Y18472D02*
G01X24116Y18472D01*
G01Y17807D01*
G01X24316D01*
G01Y18472D01*
G37*
G36*
G01X24116Y10992D02*
G01X24316Y10992D01*
G01Y11657D01*
G01X24116D01*
G01Y10992D01*
G37*
G36*
G01X23916Y18472D02*
G01X23716Y18472D01*
G01Y17807D01*
G01X23916D01*
G01Y18472D01*
G37*
G36*
G01X23716Y10992D02*
G01X23916Y10992D01*
G01Y11657D01*
G01X23716D01*
G01Y10992D01*
G37*
G36*
G01X22676Y12032D02*
G01X23341Y12032D01*
G01Y12232D01*
G01X22676D01*
G01Y12032D01*
G37*
G36*
G01X22676Y14832D02*
G01X23341Y14832D01*
G01Y15032D01*
G01X22676D01*
G01Y14832D01*
G37*
G36*
G01X23341Y14632D02*
G01X22676Y14632D01*
G01Y14432D01*
G01X23341D01*
G01Y14632D01*
G37*
G36*
G01X23341Y17432D02*
G01X22676Y17432D01*
G01Y17232D01*
G01X23341D01*
G01Y17432D01*
G37*
G36*
G01X22676Y12432D02*
G01X23341Y12432D01*
G01Y12632D01*
G01X22676D01*
G01Y12432D01*
G37*
G36*
G01X22676Y15232D02*
G01X23341Y15232D01*
G01Y15432D01*
G01X22676D01*
G01Y15232D01*
G37*
G36*
G01X22676Y12832D02*
G01X23341Y12832D01*
G01Y13032D01*
G01X22676D01*
G01Y12832D01*
G37*
G36*
G01X22676Y15632D02*
G01X23341Y15632D01*
G01Y15832D01*
G01X22676D01*
G01Y15632D01*
G37*
G36*
G01X22676Y13232D02*
G01X23341Y13232D01*
G01Y13432D01*
G01X22676D01*
G01Y13232D01*
G37*
G36*
G01X22676Y16032D02*
G01X23341Y16032D01*
G01Y16232D01*
G01X22676D01*
G01Y16032D01*
G37*
G36*
G01X23341Y14232D02*
G01X22676Y14232D01*
G01Y14032D01*
G01X23341D01*
G01Y14232D01*
G37*
G36*
G01X23341Y17032D02*
G01X22676Y17032D01*
G01Y16832D01*
G01X23341D01*
G01Y17032D01*
G37*
G36*
G01X22676Y13632D02*
G01X23341Y13632D01*
G01Y13832D01*
G01X22676D01*
G01Y13632D01*
G37*
G36*
G01X22676Y16432D02*
G01X23341Y16432D01*
G01Y16632D01*
G01X22676D01*
G01Y16432D01*
G37*
G36*
G01X28016Y16332D02*
G01X28016Y13132D01*
G01X24816D01*
G01Y16332D01*
G01X28016D01*
G37*
G04 PolygonModel End*

G04 Pad Start*
G54D10*
G01X9285Y876D03*
G54D11*
G01X4685Y876D03*
G54D12*
G01X8660Y2426D03*
G01X5310Y2426D03*
G54D13*
G01X6489Y22860D03*
G54D14*
G01X6989Y23885D03*
G01X6489Y23885D03*
G01X5989Y23885D03*
G01X5989Y21835D03*
G01X6489Y21835D03*
G01X6989Y21835D03*
G54D15*
G01X3651Y22850D03*
G01X3151Y22850D03*
G01X2651Y22850D03*
G01X2151Y22850D03*
G01X2151Y20850D03*
G01X2651Y20850D03*
G01X3151Y20850D03*
G01X3651Y20850D03*
G54D16*
G01X2902Y21851D03*
G54D17*
G01X8530Y6418D03*
G01X9480Y6418D03*
G01X10430Y6418D03*
G01X10430Y8716D03*
G01X9480Y8716D03*
G01X8530Y8716D03*
G54D19*
G01X6477Y5690D03*
G01X6477Y8035D03*
G54D20*
G01X17945Y20461D03*
G01X17945Y22361D03*
G01X15944Y21411D03*
G54D10*
G01X30367Y876D03*
G54D11*
G01X25767Y876D03*
G54D12*
G01X29742Y2426D03*
G01X26392Y2426D03*
G54D21*
G01X3204Y6411D03*
G01X3204Y4511D03*
G01X5205Y5461D03*
G54D22*
G01X8193Y20574D03*
G01X6793Y20574D03*
G54D23*
G01X8636Y24707D03*
G01X8636Y26107D03*
G54D24*
G01X893Y19825D03*
G01X888Y21425D03*
G54D25*
G01X6788Y25781D03*
G01X4732Y25781D03*
G54D26*
G01X15539Y9720D03*
G01X15539Y10220D03*
G01X15539Y10720D03*
G01X15539Y11220D03*
G01X15539Y11720D03*
G01X15539Y12220D03*
G01X15539Y12720D03*
G01X15539Y13220D03*
G01X15539Y13720D03*
G01X15539Y14220D03*
G01X15539Y14720D03*
G01X15539Y15220D03*
G01X15539Y15720D03*
G01X15539Y16220D03*
G01X15539Y16720D03*
G01X15539Y17220D03*
G01X15539Y17720D03*
G01X15539Y18220D03*
G54D27*
G01X18141Y8720D03*
G01X18141Y19220D03*
G54D28*
G01X13331Y27119D03*
G01X11843Y27119D03*
G01X14884Y27119D03*
G54D29*
G01X9949Y3354D03*
G54D30*
G01X11174Y5080D03*
G01X11174Y1627D03*
G54D29*
G01X12400Y3354D03*
G54D31*
G01X10750Y4029D03*
G01X11600Y4029D03*
G01X10750Y2678D03*
G01X11600Y2678D03*
G54D32*
G01X13741Y2109D03*
G01X15141Y2109D03*
G54D33*
G01X11782Y22509D03*
G01X12882Y22509D03*
G01X12882Y24339D03*
G01X11782Y24339D03*
G54D34*
G01X10663Y10399D03*
G01X10663Y10899D03*
G01X10663Y11399D03*
G01X10663Y11899D03*
G54D35*
G01X11256Y12482D03*
G01X11756Y12482D03*
G01X12256Y12482D03*
G01X12756Y12482D03*
G54D34*
G01X13349Y11899D03*
G01X13349Y11399D03*
G01X13349Y10899D03*
G01X13349Y10399D03*
G54D35*
G01X12756Y9806D03*
G01X12256Y9806D03*
G01X11756Y9806D03*
G01X11256Y9816D03*
G54D36*
G01X9883Y26035D03*
G54D37*
G01X10253Y26036D03*
G54D38*
G01X22232Y27152D03*
G01X20454Y27152D03*
G54D39*
G01X13186Y7583D03*
G01X13836Y7583D03*
G01X14486Y7583D03*
G01X15136Y7583D03*
G01X13186Y5879D03*
G01X13836Y5879D03*
G01X14486Y5879D03*
G01X15136Y5879D03*
G54D40*
G01X20045Y25294D03*
G01X19245Y25294D03*
G54D41*
G01X19645Y24234D03*
G54D42*
G01X18070Y24619D03*
G01X18070Y25419D03*
G54D43*
G01X17010Y25019D03*
G54D44*
G01X12705Y19320D03*
G01X10155Y19320D03*
G54D38*
G01X34096Y21186D03*
G01X32699Y21170D03*
G54D45*
G01X33650Y15032D03*
G01X31950Y17232D03*
G01X33650Y17232D03*
G01X31950Y15032D03*
G54D46*
G01X30826Y5969D03*
G01X30826Y7239D03*
G01X30826Y8509D03*
G01X30826Y9779D03*
G01X24800Y5969D03*
G01X24800Y7239D03*
G01X24800Y8509D03*
G01X24800Y9779D03*
G54D47*
G01X27813Y7874D03*
G54D48*
G01X9225Y17231D03*
G01X9225Y16581D03*
G01X9225Y15931D03*
G01X9225Y15281D03*
G01X13517Y17231D03*
G01X13517Y16581D03*
G01X13517Y15931D03*
G01X13517Y15281D03*
G54D49*
G01X33765Y26162D03*
G01X28465Y26162D03*
G04 Pad End*

M02*
