G04 Layer: DrillDrawingLayer*
G04 EasyEDA Pro v2.1.27.74734765.450747, 2024-06-16 14:56:05*
G04 Gerber Generator version 0.3*
G04 Scale: 100 percent, Rotated: No, Reflected: No*
G04 Dimensions in millimeters*
G04 Leading zeros omitted, absolute positions, 3 integers and 3 decimals*
%FSLAX33Y33*%
%MOMM*%
%ADD10C,0.254*%
G75*


G04 Image Start*
G36*
G01X1068Y18490D02*
G01X1068Y18453D01*
G01X1105D01*
G01X1431D01*
G01Y18127D01*
G01X1105D01*
G01Y18453D01*
G01X1068D01*
G01Y18091D01*
G01X1467D01*
G01Y18490D01*
G37*
G36*
G01X1068Y9850D02*
G01X1068Y9813D01*
G01X1105D01*
G01X1431D01*
G01Y9487D01*
G01X1105D01*
G01Y9813D01*
G01X1068D01*
G01Y9450D01*
G01X1467D01*
G01Y9850D01*
G37*
G36*
G01X5448Y9849D02*
G01X5427Y9848D01*
G01X5408Y9846D01*
G01X5389Y9840D01*
G01X5371Y9834D01*
G01X5353Y9825D01*
G01X5337Y9815D01*
G01X5321Y9804D01*
G01X5307Y9791D01*
G01X5294Y9777D01*
G01X5283Y9761D01*
G01X5273Y9745D01*
G01X5264Y9728D01*
G01X5258Y9709D01*
G01X5253Y9690D01*
G01X5250Y9670D01*
G01X5249Y9650D01*
G01X5282D01*
G01X5283Y9667D01*
G01X5285Y9683D01*
G01X5289Y9699D01*
G01X5295Y9714D01*
G01X5302Y9729D01*
G01X5310Y9743D01*
G01X5320Y9756D01*
G01X5330Y9767D01*
G01X5343Y9778D01*
G01X5355Y9788D01*
G01X5369Y9796D01*
G01X5383Y9803D01*
G01X5399Y9808D01*
G01X5415Y9813D01*
G01X5431Y9815D01*
G01X5448Y9816D01*
G01X5465Y9815D01*
G01X5481Y9813D01*
G01X5498Y9808D01*
G01X5513Y9803D01*
G01X5527Y9796D01*
G01X5541Y9788D01*
G01X5553Y9778D01*
G01X5566Y9767D01*
G01X5576Y9756D01*
G01X5586Y9743D01*
G01X5594Y9729D01*
G01X5601Y9714D01*
G01X5607Y9699D01*
G01X5611Y9683D01*
G01X5613Y9667D01*
G01X5614Y9650D01*
G01X5613Y9633D01*
G01X5611Y9616D01*
G01X5607Y9601D01*
G01X5601Y9585D01*
G01X5594Y9571D01*
G01X5586Y9557D01*
G01X5576Y9544D01*
G01X5566Y9533D01*
G01X5553Y9522D01*
G01X5541Y9512D01*
G01X5527Y9504D01*
G01X5513Y9497D01*
G01X5498Y9491D01*
G01X5481Y9487D01*
G01X5465Y9485D01*
G01X5448Y9484D01*
G01X5431Y9485D01*
G01X5415Y9487D01*
G01X5399Y9491D01*
G01X5383Y9497D01*
G01X5369Y9504D01*
G01X5355Y9512D01*
G01X5343Y9522D01*
G01X5330Y9533D01*
G01X5320Y9544D01*
G01X5310Y9557D01*
G01X5302Y9571D01*
G01X5295Y9585D01*
G01X5289Y9601D01*
G01X5285Y9616D01*
G01X5283Y9633D01*
G01X5282Y9650D01*
G01X5249D01*
G01X5250Y9630D01*
G01X5253Y9610D01*
G01X5258Y9591D01*
G01X5264Y9572D01*
G01X5273Y9555D01*
G01X5283Y9539D01*
G01X5294Y9523D01*
G01X5307Y9509D01*
G01X5321Y9496D01*
G01X5337Y9485D01*
G01X5353Y9475D01*
G01X5371Y9466D01*
G01X5389Y9459D01*
G01X5408Y9454D01*
G01X5427Y9452D01*
G01X5448Y9450D01*
G01X5469Y9452D01*
G01X5488Y9454D01*
G01X5507Y9459D01*
G01X5526Y9466D01*
G01X5543Y9475D01*
G01X5560Y9485D01*
G01X5575Y9496D01*
G01X5589Y9509D01*
G01X5602Y9523D01*
G01X5613Y9539D01*
G01X5624Y9555D01*
G01X5632Y9572D01*
G01X5638Y9591D01*
G01X5643Y9610D01*
G01X5646Y9630D01*
G01X5647Y9650D01*
G01X5646Y9670D01*
G01X5643Y9690D01*
G01X5638Y9709D01*
G01X5632Y9728D01*
G01X5624Y9745D01*
G01X5613Y9761D01*
G01X5602Y9777D01*
G01X5589Y9791D01*
G01X5575Y9804D01*
G01X5560Y9815D01*
G01X5543Y9825D01*
G01X5526Y9834D01*
G01X5507Y9840D01*
G01X5488Y9846D01*
G01X5469Y9848D01*
G37*
G36*
G01X5448Y18490D02*
G01X5427Y18488D01*
G01X5408Y18486D01*
G01X5389Y18481D01*
G01X5371Y18474D01*
G01X5353Y18465D01*
G01X5337Y18455D01*
G01X5321Y18444D01*
G01X5307Y18431D01*
G01X5294Y18417D01*
G01X5283Y18401D01*
G01X5273Y18385D01*
G01X5264Y18368D01*
G01X5258Y18349D01*
G01X5253Y18330D01*
G01X5250Y18310D01*
G01X5249Y18290D01*
G01X5282D01*
G01X5283Y18307D01*
G01X5285Y18324D01*
G01X5289Y18339D01*
G01X5295Y18355D01*
G01X5302Y18369D01*
G01X5310Y18383D01*
G01X5320Y18396D01*
G01X5330Y18407D01*
G01X5343Y18418D01*
G01X5355Y18428D01*
G01X5369Y18436D01*
G01X5383Y18443D01*
G01X5399Y18449D01*
G01X5415Y18453D01*
G01X5431Y18455D01*
G01X5448Y18456D01*
G01X5465Y18455D01*
G01X5481Y18453D01*
G01X5498Y18449D01*
G01X5513Y18443D01*
G01X5527Y18436D01*
G01X5541Y18428D01*
G01X5553Y18418D01*
G01X5566Y18407D01*
G01X5576Y18396D01*
G01X5586Y18383D01*
G01X5594Y18369D01*
G01X5601Y18355D01*
G01X5607Y18339D01*
G01X5611Y18324D01*
G01X5613Y18307D01*
G01X5614Y18290D01*
G01X5613Y18273D01*
G01X5611Y18257D01*
G01X5607Y18241D01*
G01X5601Y18226D01*
G01X5594Y18211D01*
G01X5586Y18197D01*
G01X5576Y18184D01*
G01X5566Y18173D01*
G01X5553Y18162D01*
G01X5541Y18152D01*
G01X5527Y18144D01*
G01X5513Y18137D01*
G01X5498Y18132D01*
G01X5481Y18127D01*
G01X5465Y18125D01*
G01X5448Y18124D01*
G01X5431Y18125D01*
G01X5415Y18127D01*
G01X5399Y18132D01*
G01X5383Y18137D01*
G01X5369Y18144D01*
G01X5355Y18152D01*
G01X5343Y18162D01*
G01X5330Y18173D01*
G01X5320Y18184D01*
G01X5310Y18197D01*
G01X5302Y18211D01*
G01X5295Y18226D01*
G01X5289Y18241D01*
G01X5285Y18257D01*
G01X5283Y18273D01*
G01X5282Y18290D01*
G01X5249D01*
G01X5250Y18270D01*
G01X5253Y18250D01*
G01X5258Y18231D01*
G01X5264Y18212D01*
G01X5273Y18195D01*
G01X5283Y18179D01*
G01X5294Y18163D01*
G01X5307Y18149D01*
G01X5321Y18136D01*
G01X5337Y18125D01*
G01X5353Y18115D01*
G01X5371Y18106D01*
G01X5389Y18100D01*
G01X5408Y18094D01*
G01X5427Y18092D01*
G01X5448Y18090D01*
G01X5469Y18092D01*
G01X5488Y18094D01*
G01X5507Y18100D01*
G01X5526Y18106D01*
G01X5543Y18115D01*
G01X5560Y18125D01*
G01X5575Y18136D01*
G01X5589Y18149D01*
G01X5602Y18163D01*
G01X5613Y18179D01*
G01X5624Y18195D01*
G01X5632Y18212D01*
G01X5638Y18231D01*
G01X5643Y18250D01*
G01X5646Y18270D01*
G01X5647Y18290D01*
G01X5646Y18310D01*
G01X5643Y18330D01*
G01X5638Y18349D01*
G01X5632Y18368D01*
G01X5624Y18385D01*
G01X5613Y18401D01*
G01X5602Y18417D01*
G01X5589Y18431D01*
G01X5575Y18444D01*
G01X5560Y18455D01*
G01X5543Y18465D01*
G01X5526Y18474D01*
G01X5507Y18481D01*
G01X5488Y18486D01*
G01X5469Y18488D01*
G37*
G36*
G01X3865Y21128D02*
G01X3884Y21094D01*
G01X3922D01*
G01X4206D01*
G01X4135Y20972D01*
G01X4064Y20849D01*
G01X3993Y20972D01*
G01X3922Y21094D01*
G01X3884D01*
G01X4064Y20782D01*
G01X4164Y20955D01*
G01X4264Y21128D01*
G37*
G36*
G01X4500Y21128D02*
G01X4519Y21094D01*
G01X4557D01*
G01X4841D01*
G01X4770Y20972D01*
G01X4699Y20849D01*
G01X4628Y20972D01*
G01X4557Y21094D01*
G01X4519D01*
G01X4699Y20782D01*
G01X4799Y20955D01*
G01X4899Y21128D01*
G37*
G36*
G01X6532Y21255D02*
G01X6551Y21221D01*
G01X6589D01*
G01X6873D01*
G01X6802Y21099D01*
G01X6731Y20976D01*
G01X6660Y21099D01*
G01X6589Y21221D01*
G01X6551D01*
G01X6731Y20909D01*
G01X6831Y21082D01*
G01X6931Y21255D01*
G37*
G36*
G01X6532Y20620D02*
G01X6551Y20586D01*
G01X6589D01*
G01X6873D01*
G01X6802Y20464D01*
G01X6731Y20341D01*
G01X6660Y20464D01*
G01X6589Y20586D01*
G01X6551D01*
G01X6731Y20274D01*
G01X6831Y20447D01*
G01X6931Y20620D01*
G37*
G36*
G01X25102Y26727D02*
G01X25121Y26694D01*
G01X25159D01*
G01X25443D01*
G01X25372Y26571D01*
G01X25301Y26449D01*
G01X25230Y26571D01*
G01X25159Y26694D01*
G01X25121D01*
G01X25201Y26555D01*
G01X25301Y26382D01*
G01X25501Y26727D01*
G37*
G36*
G01X25737Y26727D02*
G01X25756Y26694D01*
G01X25794D01*
G01X26078D01*
G01X26007Y26571D01*
G01X25936Y26449D01*
G01X25865Y26571D01*
G01X25794Y26694D01*
G01X25756D01*
G01X25836Y26555D01*
G01X25936Y26382D01*
G01X26136Y26727D01*
G37*
G36*
G01X25102Y26092D02*
G01X25121Y26059D01*
G01X25159D01*
G01X25443D01*
G01X25372Y25936D01*
G01X25301Y25814D01*
G01X25230Y25936D01*
G01X25159Y26059D01*
G01X25121D01*
G01X25201Y25920D01*
G01X25301Y25747D01*
G01X25501Y26092D01*
G37*
G36*
G01X25737Y26092D02*
G01X25756Y26059D01*
G01X25794D01*
G01X26078D01*
G01X26007Y25936D01*
G01X25936Y25814D01*
G01X25865Y25936D01*
G01X25794Y26059D01*
G01X25756D01*
G01X25836Y25920D01*
G01X25936Y25747D01*
G01X26136Y26092D01*
G37*
G36*
G01X11115Y26222D02*
G01X11134Y26189D01*
G01X11172D01*
G01X11456D01*
G01X11385Y26066D01*
G01X11314Y25944D01*
G01X11243Y26066D01*
G01X11172Y26189D01*
G01X11134D01*
G01X11215Y26050D01*
G01X11314Y25878D01*
G01X11414Y26050D01*
G01X11513Y26222D01*
G37*
G36*
G01X11115Y25587D02*
G01X11134Y25554D01*
G01X11172D01*
G01X11456D01*
G01X11385Y25431D01*
G01X11314Y25309D01*
G01X11243Y25431D01*
G01X11172Y25554D01*
G01X11134D01*
G01X11215Y25415D01*
G01X11314Y25243D01*
G01X11414Y25415D01*
G01X11513Y25587D01*
G37*
G36*
G01X10480Y25587D02*
G01X10499Y25554D01*
G01X10537D01*
G01X10821D01*
G01X10750Y25431D01*
G01X10679Y25309D01*
G01X10608Y25431D01*
G01X10537Y25554D01*
G01X10499D01*
G01X10580Y25415D01*
G01X10679Y25243D01*
G01X10779Y25415D01*
G01X10878Y25587D01*
G37*
G36*
G01X10480Y26222D02*
G01X10499Y26189D01*
G01X10537D01*
G01X10821D01*
G01X10750Y26066D01*
G01X10679Y25944D01*
G01X10608Y26066D01*
G01X10537Y26189D01*
G01X10499D01*
G01X10580Y26050D01*
G01X10679Y25878D01*
G01X10779Y26050D01*
G01X10878Y26222D01*
G37*
G36*
G01X18978Y26208D02*
G01X18997Y26174D01*
G01X19035D01*
G01X19319D01*
G01X19248Y26052D01*
G01X19177Y25929D01*
G01X19106Y26052D01*
G01X19035Y26174D01*
G01X18997D01*
G01X19177Y25862D01*
G01X19277Y26035D01*
G01X19377Y26208D01*
G37*
G36*
G01X19003Y26927D02*
G01X19022Y26894D01*
G01X19060D01*
G01X19344D01*
G01X19273Y26771D01*
G01X19202Y26648D01*
G01X19060Y26894D01*
G01X19022D01*
G01X19102Y26754D01*
G01X19202Y26582D01*
G01X19402Y26927D01*
G37*
G36*
G01X30789Y21128D02*
G01X30808Y21094D01*
G01X30846D01*
G01X31130D01*
G01X31059Y20972D01*
G01X30988Y20849D01*
G01X30917Y20972D01*
G01X30846Y21094D01*
G01X30808D01*
G01X30988Y20782D01*
G01X31088Y20955D01*
G01X31188Y21128D01*
G37*
G36*
G01X31297Y21128D02*
G01X31316Y21094D01*
G01X31354D01*
G01X31638D01*
G01X31567Y20972D01*
G01X31496Y20849D01*
G01X31425Y20972D01*
G01X31354Y21094D01*
G01X31316D01*
G01X31496Y20782D01*
G01X31596Y20955D01*
G01X31696Y21128D01*
G37*
G36*
G01X16241Y17143D02*
G01X16260Y17110D01*
G01X16299D01*
G01X16582D01*
G01X16512Y16988D01*
G01X16440Y16865D01*
G01X16369Y16988D01*
G01X16299Y17110D01*
G01X16260D01*
G01X16341Y16971D01*
G01X16440Y16798D01*
G01X16640Y17143D01*
G37*
G36*
G01X32276Y12099D02*
G01X32295Y12066D01*
G01X32333D01*
G01X32617D01*
G01X32546Y11943D01*
G01X32475Y11820D01*
G01X32404Y11943D01*
G01X32333Y12066D01*
G01X32295D01*
G01X32475Y11754D01*
G01X32574Y11926D01*
G01X32675Y12099D01*
G37*
G36*
G01X14451Y10393D02*
G01X14470Y10360D01*
G01X14508D01*
G01X14792D01*
G01X14721Y10237D01*
G01X14650Y10114D01*
G01X14580Y10237D01*
G01X14508Y10360D01*
G01X14470D01*
G01X14650Y10047D01*
G01X14750Y10220D01*
G01X14850Y10393D01*
G37*
G36*
G01X15549Y23287D02*
G01X15568Y23253D01*
G01X15606D01*
G01X15890D01*
G01X15819Y23131D01*
G01X15748Y23008D01*
G01X15677Y23131D01*
G01X15606Y23253D01*
G01X15568D01*
G01X15748Y22941D01*
G01X15848Y23114D01*
G01X15948Y23287D01*
G37*
G36*
G01X16184Y23287D02*
G01X16203Y23253D01*
G01X16241D01*
G01X16525D01*
G01X16454Y23131D01*
G01X16383Y23008D01*
G01X16312Y23131D01*
G01X16241Y23253D01*
G01X16203D01*
G01X16383Y22941D01*
G01X16483Y23114D01*
G01X16583Y23287D01*
G37*
G36*
G01X9027Y18738D02*
G01X9046Y18705D01*
G01X9085D01*
G01X9368D01*
G01X9297Y18582D01*
G01X9226Y18459D01*
G01X9155Y18582D01*
G01X9085Y18705D01*
G01X9046D01*
G01X9127Y18565D01*
G01X9226Y18393D01*
G01X9326Y18565D01*
G01X9425Y18738D01*
G37*
G36*
G01X14914Y19096D02*
G01X14933Y19062D01*
G01X14971D01*
G01X15255D01*
G01X15184Y18940D01*
G01X15113Y18817D01*
G01X15042Y18940D01*
G01X14971Y19062D01*
G01X14933D01*
G01X15113Y18750D01*
G01X15213Y18923D01*
G01X15313Y19096D01*
G37*
G36*
G01X13340Y1473D02*
G01X13359Y1440D01*
G01X13397D01*
G01X13681D01*
G01X13610Y1317D01*
G01X13539Y1194D01*
G01X13469Y1317D01*
G01X13397Y1440D01*
G01X13359D01*
G01X13539Y1128D01*
G01X13639Y1300D01*
G01X13739Y1473D01*
G37*
G36*
G01X13975Y1473D02*
G01X13994Y1440D01*
G01X14032D01*
G01X14316D01*
G01X14245Y1317D01*
G01X14174Y1194D01*
G01X14104Y1317D01*
G01X14032Y1440D01*
G01X13994D01*
G01X14174Y1128D01*
G01X14274Y1300D01*
G01X14374Y1473D01*
G37*
G36*
G01X13975Y838D02*
G01X13994Y805D01*
G01X14032D01*
G01X14316D01*
G01X14245Y682D01*
G01X14174Y559D01*
G01X14104Y682D01*
G01X14032Y805D01*
G01X13994D01*
G01X14174Y493D01*
G01X14274Y665D01*
G01X14374Y838D01*
G37*
G36*
G01X13340Y838D02*
G01X13359Y805D01*
G01X13397D01*
G01X13681D01*
G01X13610Y682D01*
G01X13539Y559D01*
G01X13469Y682D01*
G01X13397Y805D01*
G01X13359D01*
G01X13539Y493D01*
G01X13639Y665D01*
G01X13739Y838D01*
G37*
G36*
G01X9199Y10460D02*
G01X9218Y10426D01*
G01X9256D01*
G01X9540D01*
G01X9469Y10304D01*
G01X9398Y10181D01*
G01X9327Y10304D01*
G01X9256Y10426D01*
G01X9218D01*
G01X9398Y10114D01*
G01X9498Y10287D01*
G01X9598Y10460D01*
G37*
G36*
G01X7040Y8174D02*
G01X7059Y8140D01*
G01X7097D01*
G01X7381D01*
G01X7310Y8018D01*
G01X7239Y7895D01*
G01X7168Y8018D01*
G01X7097Y8140D01*
G01X7059D01*
G01X7239Y7828D01*
G01X7339Y8001D01*
G01X7439Y8174D01*
G37*
G36*
G01X12628Y25827D02*
G01X12647Y25793D01*
G01X12685D01*
G01X12969D01*
G01X12898Y25671D01*
G01X12827Y25548D01*
G01X12756Y25671D01*
G01X12685Y25793D01*
G01X12647D01*
G01X12827Y25481D01*
G01X12927Y25654D01*
G01X13027Y25827D01*
G37*
G36*
G01X21264Y16302D02*
G01X21283Y16268D01*
G01X21321D01*
G01X21605D01*
G01X21534Y16146D01*
G01X21463Y16023D01*
G01X21392Y16146D01*
G01X21321Y16268D01*
G01X21283D01*
G01X21463Y15956D01*
G01X21563Y16129D01*
G01X21663Y16302D01*
G37*
G36*
G01X9027Y18103D02*
G01X9046Y18070D01*
G01X9085D01*
G01X9368D01*
G01X9297Y17947D01*
G01X9226Y17824D01*
G01X9155Y17947D01*
G01X9085Y18070D01*
G01X9046D01*
G01X9127Y17930D01*
G01X9226Y17758D01*
G01X9326Y17930D01*
G01X9425Y18103D01*
G37*
G36*
G01X26216Y13904D02*
G01X26236Y13871D01*
G01X26274D01*
G01X26558D01*
G01X26487Y13749D01*
G01X26416Y13626D01*
G01X26345Y13749D01*
G01X26274Y13871D01*
G01X26236D01*
G01X26316Y13732D01*
G01X26416Y13559D01*
G01X26615Y13904D01*
G37*
G36*
G01X27217Y13904D02*
G01X27235Y13871D01*
G01X27274D01*
G01X27557D01*
G01X27487Y13749D01*
G01X27416Y13626D01*
G01X27345Y13749D01*
G01X27274Y13871D01*
G01X27235D01*
G01X27416Y13559D01*
G01X27516Y13732D01*
G01X27615Y13904D01*
G37*
G36*
G01X26217Y15904D02*
G01X26236Y15871D01*
G01X26274D01*
G01X26558D01*
G01X26487Y15748D01*
G01X26416Y15626D01*
G01X26345Y15748D01*
G01X26274Y15871D01*
G01X26236D01*
G01X26416Y15559D01*
G01X26516Y15732D01*
G01X26616Y15904D01*
G37*
G36*
G01X27217Y15904D02*
G01X27236Y15871D01*
G01X27274D01*
G01X27557D01*
G01X27487Y15748D01*
G01X27416Y15626D01*
G01X27345Y15748D01*
G01X27274Y15871D01*
G01X27236D01*
G01X27416Y15559D01*
G01X27516Y15732D01*
G01X27615Y15904D01*
G37*
G36*
G01X25217Y13904D02*
G01X25235Y13871D01*
G01X25274D01*
G01X25557D01*
G01X25487Y13749D01*
G01X25416Y13626D01*
G01X25345Y13749D01*
G01X25274Y13871D01*
G01X25235D01*
G01X25416Y13559D01*
G01X25516Y13732D01*
G01X25615Y13904D01*
G37*
G36*
G01X25217Y15904D02*
G01X25235Y15871D01*
G01X25274D01*
G01X25557D01*
G01X25487Y15749D01*
G01X25416Y15626D01*
G01X25345Y15749D01*
G01X25274Y15871D01*
G01X25235D01*
G01X25416Y15559D01*
G01X25516Y15732D01*
G01X25615Y15904D01*
G37*
G36*
G01X26216Y14905D02*
G01X26236Y14871D01*
G01X26274D01*
G01X26558D01*
G01X26487Y14748D01*
G01X26416Y14626D01*
G01X26345Y14748D01*
G01X26274Y14871D01*
G01X26236D01*
G01X26316Y14732D01*
G01X26416Y14559D01*
G01X26615Y14905D01*
G37*
G36*
G01X25217Y14904D02*
G01X25236Y14871D01*
G01X25275D01*
G01X25558D01*
G01X25487Y14748D01*
G01X25416Y14625D01*
G01X25346Y14748D01*
G01X25275Y14871D01*
G01X25236D01*
G01X25416Y14559D01*
G01X25516Y14731D01*
G01X25616Y14904D01*
G37*
G36*
G01X27217Y14905D02*
G01X27236Y14871D01*
G01X27274D01*
G01X27557D01*
G01X27487Y14748D01*
G01X27416Y14626D01*
G01X27345Y14748D01*
G01X27274Y14871D01*
G01X27236D01*
G01X27416Y14559D01*
G01X27516Y14732D01*
G01X27615Y14905D01*
G37*
G36*
G01X14486Y8575D02*
G01X14428Y8444D01*
G01X14286Y8460D01*
G01X14371Y8345D01*
G01X14317Y8272D01*
G01X14360D01*
G01X14398Y8325D01*
G01X14413Y8345D01*
G01X14398Y8365D01*
G01X14360Y8418D01*
G01X14425Y8411D01*
G01X14450Y8408D01*
G01X14459Y8431D01*
G01X14486Y8491D01*
G01X14512Y8431D01*
G01X14522Y8408D01*
G01X14547Y8410D01*
G01X14612Y8418D01*
G01X14574Y8365D01*
G01X14559Y8345D01*
G01X14574Y8325D01*
G01X14612Y8272D01*
G01X14547Y8279D01*
G01X14522Y8282D01*
G01X14512Y8259D01*
G01X14486Y8199D01*
G01X14459Y8259D01*
G01X14450Y8282D01*
G01X14425Y8279D01*
G01X14360Y8272D01*
G01X14317D01*
G01X14286Y8230D01*
G01X14428Y8245D01*
G01X14486Y8115D01*
G01X14544Y8245D01*
G01X14685Y8230D01*
G01X14601Y8345D01*
G01X14685Y8460D01*
G01X14544Y8444D01*
G37*
G36*
G01X15136Y8448D02*
G01X15078Y8317D01*
G01X14937Y8333D01*
G01X15021Y8218D01*
G01X14968Y8145D01*
G01X15010D01*
G01X15048Y8198D01*
G01X15063Y8218D01*
G01X15048Y8238D01*
G01X15010Y8291D01*
G01X15075Y8284D01*
G01X15100Y8281D01*
G01X15109Y8304D01*
G01X15136Y8364D01*
G01X15162Y8304D01*
G01X15172Y8281D01*
G01X15197Y8283D01*
G01X15262Y8291D01*
G01X15224Y8238D01*
G01X15209Y8218D01*
G01X15224Y8198D01*
G01X15262Y8145D01*
G01X15197Y8152D01*
G01X15172Y8155D01*
G01X15162Y8132D01*
G01X15136Y8072D01*
G01X15109Y8132D01*
G01X15100Y8155D01*
G01X15075Y8152D01*
G01X15010Y8145D01*
G01X14968D01*
G01X14937Y8103D01*
G01X15078Y8118D01*
G01X15136Y7988D01*
G01X15194Y8118D01*
G01X15336Y8103D01*
G01X15251Y8218D01*
G01X15336Y8333D01*
G01X15194Y8317D01*
G37*
G36*
G01X11430Y11279D02*
G01X11373Y11149D01*
G01X11231Y11164D01*
G01X11315Y11049D01*
G01X11262Y10976D01*
G01X11304D01*
G01X11343Y11029D01*
G01X11357Y11049D01*
G01X11343Y11069D01*
G01X11304Y11122D01*
G01X11369Y11115D01*
G01X11393Y11112D01*
G01X11404Y11135D01*
G01X11430Y11195D01*
G01X11456Y11135D01*
G01X11467Y11112D01*
G01X11491Y11115D01*
G01X11556Y11122D01*
G01X11517Y11069D01*
G01X11503Y11049D01*
G01X11517Y11029D01*
G01X11556Y10976D01*
G01X11491Y10983D01*
G01X11467Y10986D01*
G01X11456Y10963D01*
G01X11430Y10903D01*
G01X11404Y10963D01*
G01X11393Y10986D01*
G01X11369Y10983D01*
G01X11304Y10976D01*
G01X11262D01*
G01X11231Y10934D01*
G01X11373Y10949D01*
G01X11430Y10819D01*
G01X11487Y10949D01*
G01X11630Y10934D01*
G01X11545Y11049D01*
G01X11630Y11164D01*
G01X11487Y11149D01*
G37*
G36*
G01X11938Y10771D02*
G01X11881Y10641D01*
G01X11739Y10656D01*
G01X11823Y10541D01*
G01X11770Y10468D01*
G01X11812D01*
G01X11851Y10521D01*
G01X11865Y10541D01*
G01X11851Y10561D01*
G01X11812Y10614D01*
G01X11877Y10607D01*
G01X11901Y10604D01*
G01X11912Y10627D01*
G01X11938Y10687D01*
G01X11964Y10627D01*
G01X11975Y10604D01*
G01X11999Y10607D01*
G01X12064Y10614D01*
G01X12025Y10561D01*
G01X12011Y10541D01*
G01X12025Y10521D01*
G01X12064Y10468D01*
G01X11999Y10475D01*
G01X11975Y10478D01*
G01X11964Y10455D01*
G01X11938Y10395D01*
G01X11912Y10455D01*
G01X11901Y10478D01*
G01X11877Y10475D01*
G01X11812Y10468D01*
G01X11770D01*
G01X11739Y10426D01*
G01X11881Y10441D01*
G01X11938Y10311D01*
G01X11995Y10441D01*
G01X12138Y10426D01*
G01X12053Y10541D01*
G01X12138Y10656D01*
G01X11995Y10641D01*
G37*
G36*
G01X16809Y12450D02*
G01X16752Y12320D01*
G01X16610Y12335D01*
G01X16694Y12220D01*
G01X16641Y12147D01*
G01X16683D01*
G01X16722Y12200D01*
G01X16737Y12220D01*
G01X16722Y12240D01*
G01X16683Y12293D01*
G01X16748Y12286D01*
G01X16773Y12283D01*
G01X16783Y12306D01*
G01X16809Y12366D01*
G01X16836Y12306D01*
G01X16846Y12283D01*
G01X16871Y12286D01*
G01X16936Y12293D01*
G01X16897Y12240D01*
G01X16882Y12220D01*
G01X16897Y12200D01*
G01X16936Y12147D01*
G01X16871Y12154D01*
G01X16846Y12157D01*
G01X16836Y12134D01*
G01X16809Y12074D01*
G01X16783Y12134D01*
G01X16773Y12157D01*
G01X16748Y12154D01*
G01X16683Y12147D01*
G01X16641D01*
G01X16610Y12105D01*
G01X16752Y12120D01*
G01X16809Y11990D01*
G01X16867Y12120D01*
G01X17009Y12105D01*
G01X16925Y12220D01*
G01X17009Y12335D01*
G01X16867Y12320D01*
G37*
G36*
G01X16301Y11950D02*
G01X16244Y11820D01*
G01X16102Y11835D01*
G01X16186Y11720D01*
G01X16133Y11647D01*
G01X16175D01*
G01X16214Y11700D01*
G01X16229Y11720D01*
G01X16214Y11740D01*
G01X16175Y11793D01*
G01X16240Y11786D01*
G01X16265Y11783D01*
G01X16275Y11806D01*
G01X16301Y11866D01*
G01X16328Y11806D01*
G01X16338Y11783D01*
G01X16363Y11786D01*
G01X16428Y11793D01*
G01X16389Y11740D01*
G01X16374Y11720D01*
G01X16389Y11700D01*
G01X16428Y11647D01*
G01X16363Y11654D01*
G01X16338Y11657D01*
G01X16328Y11634D01*
G01X16301Y11574D01*
G01X16275Y11634D01*
G01X16265Y11657D01*
G01X16240Y11654D01*
G01X16175Y11647D01*
G01X16133D01*
G01X16102Y11605D01*
G01X16244Y11621D01*
G01X16301Y11490D01*
G01X16359Y11621D01*
G01X16501Y11605D01*
G01X16417Y11720D01*
G01X16501Y11835D01*
G01X16359Y11820D01*
G37*
G36*
G01X16301Y14950D02*
G01X16244Y14820D01*
G01X16102Y14835D01*
G01X16186Y14720D01*
G01X16133Y14647D01*
G01X16175D01*
G01X16214Y14700D01*
G01X16229Y14720D01*
G01X16214Y14740D01*
G01X16175Y14793D01*
G01X16240Y14786D01*
G01X16265Y14783D01*
G01X16275Y14806D01*
G01X16301Y14866D01*
G01X16328Y14806D01*
G01X16338Y14783D01*
G01X16363Y14786D01*
G01X16428Y14793D01*
G01X16389Y14740D01*
G01X16374Y14720D01*
G01X16389Y14700D01*
G01X16428Y14647D01*
G01X16363Y14654D01*
G01X16338Y14657D01*
G01X16328Y14634D01*
G01X16301Y14574D01*
G01X16275Y14634D01*
G01X16265Y14657D01*
G01X16240Y14654D01*
G01X16175Y14647D01*
G01X16133D01*
G01X16102Y14605D01*
G01X16244Y14620D01*
G01X16301Y14490D01*
G01X16359Y14620D01*
G01X16501Y14605D01*
G01X16417Y14720D01*
G01X16501Y14835D01*
G01X16359Y14820D01*
G37*
G36*
G01X16809Y14450D02*
G01X16752Y14320D01*
G01X16610Y14335D01*
G01X16694Y14220D01*
G01X16641Y14147D01*
G01X16683D01*
G01X16722Y14200D01*
G01X16737Y14220D01*
G01X16722Y14240D01*
G01X16683Y14293D01*
G01X16748Y14286D01*
G01X16773Y14283D01*
G01X16783Y14306D01*
G01X16809Y14366D01*
G01X16836Y14306D01*
G01X16846Y14283D01*
G01X16871Y14286D01*
G01X16936Y14293D01*
G01X16897Y14240D01*
G01X16882Y14220D01*
G01X16897Y14200D01*
G01X16936Y14147D01*
G01X16871Y14154D01*
G01X16846Y14157D01*
G01X16836Y14134D01*
G01X16809Y14074D01*
G01X16783Y14134D01*
G01X16773Y14157D01*
G01X16748Y14154D01*
G01X16683Y14147D01*
G01X16641D01*
G01X16610Y14105D01*
G01X16752Y14120D01*
G01X16809Y13990D01*
G01X16867Y14120D01*
G01X17009Y14105D01*
G01X16925Y14220D01*
G01X17009Y14335D01*
G01X16867Y14320D01*
G37*
G36*
G01X16809Y15450D02*
G01X16752Y15320D01*
G01X16610Y15335D01*
G01X16694Y15220D01*
G01X16641Y15147D01*
G01X16683D01*
G01X16722Y15200D01*
G01X16737Y15220D01*
G01X16722Y15240D01*
G01X16683Y15293D01*
G01X16748Y15286D01*
G01X16773Y15283D01*
G01X16783Y15306D01*
G01X16809Y15366D01*
G01X16836Y15306D01*
G01X16846Y15283D01*
G01X16871Y15286D01*
G01X16936Y15293D01*
G01X16897Y15240D01*
G01X16882Y15220D01*
G01X16897Y15200D01*
G01X16936Y15147D01*
G01X16871Y15154D01*
G01X16846Y15157D01*
G01X16836Y15134D01*
G01X16809Y15074D01*
G01X16783Y15134D01*
G01X16773Y15157D01*
G01X16748Y15154D01*
G01X16683Y15147D01*
G01X16641D01*
G01X16610Y15105D01*
G01X16752Y15121D01*
G01X16809Y14990D01*
G01X16867Y15121D01*
G01X17009Y15105D01*
G01X16925Y15220D01*
G01X17009Y15335D01*
G01X16867Y15320D01*
G37*
G36*
G01X16301Y13950D02*
G01X16244Y13820D01*
G01X16102Y13835D01*
G01X16186Y13720D01*
G01X16133Y13647D01*
G01X16175D01*
G01X16214Y13700D01*
G01X16229Y13720D01*
G01X16214Y13740D01*
G01X16175Y13793D01*
G01X16240Y13786D01*
G01X16265Y13783D01*
G01X16275Y13806D01*
G01X16301Y13866D01*
G01X16328Y13806D01*
G01X16338Y13783D01*
G01X16363Y13786D01*
G01X16428Y13793D01*
G01X16389Y13740D01*
G01X16374Y13720D01*
G01X16389Y13700D01*
G01X16428Y13647D01*
G01X16363Y13654D01*
G01X16338Y13657D01*
G01X16328Y13634D01*
G01X16301Y13574D01*
G01X16275Y13634D01*
G01X16265Y13657D01*
G01X16240Y13654D01*
G01X16175Y13647D01*
G01X16133D01*
G01X16102Y13605D01*
G01X16244Y13620D01*
G01X16301Y13490D01*
G01X16359Y13620D01*
G01X16501Y13605D01*
G01X16417Y13720D01*
G01X16501Y13835D01*
G01X16359Y13820D01*
G37*
G36*
G01X16809Y13450D02*
G01X16752Y13320D01*
G01X16610Y13335D01*
G01X16694Y13220D01*
G01X16641Y13147D01*
G01X16683D01*
G01X16722Y13200D01*
G01X16737Y13220D01*
G01X16722Y13240D01*
G01X16683Y13293D01*
G01X16748Y13286D01*
G01X16773Y13283D01*
G01X16783Y13306D01*
G01X16809Y13366D01*
G01X16836Y13306D01*
G01X16846Y13283D01*
G01X16871Y13286D01*
G01X16936Y13293D01*
G01X16897Y13240D01*
G01X16882Y13220D01*
G01X16897Y13200D01*
G01X16936Y13147D01*
G01X16871Y13154D01*
G01X16846Y13157D01*
G01X16836Y13134D01*
G01X16809Y13074D01*
G01X16783Y13134D01*
G01X16773Y13157D01*
G01X16748Y13154D01*
G01X16683Y13147D01*
G01X16641D01*
G01X16610Y13105D01*
G01X16752Y13121D01*
G01X16809Y12990D01*
G01X16867Y13121D01*
G01X17009Y13105D01*
G01X16925Y13220D01*
G01X17009Y13335D01*
G01X16867Y13320D01*
G37*
G36*
G01X24235Y12316D02*
G01X24177Y12186D01*
G01X24036Y12202D01*
G01X24120Y12086D01*
G01X24067Y12014D01*
G01X24109D01*
G01X24147Y12067D01*
G01X24162Y12086D01*
G01X24147Y12107D01*
G01X24109Y12159D01*
G01X24174Y12152D01*
G01X24199Y12149D01*
G01X24209Y12172D01*
G01X24235Y12232D01*
G01X24262Y12172D01*
G01X24271Y12149D01*
G01X24296Y12152D01*
G01X24361Y12159D01*
G01X24323Y12107D01*
G01X24308Y12086D01*
G01X24323Y12067D01*
G01X24361Y12014D01*
G01X24296Y12021D01*
G01X24271Y12023D01*
G01X24262Y12000D01*
G01X24235Y11941D01*
G01X24209Y12000D01*
G01X24199Y12023D01*
G01X24174Y12021D01*
G01X24109Y12014D01*
G01X24067D01*
G01X24036Y11972D01*
G01X24177Y11987D01*
G01X24235Y11856D01*
G01X24293Y11987D01*
G01X24434Y11972D01*
G01X24350Y12086D01*
G01X24434Y12202D01*
G01X24293Y12186D01*
G37*
G36*
G01X25016Y12316D02*
G01X24959Y12186D01*
G01X24817Y12202D01*
G01X24901Y12086D01*
G01X24848Y12014D01*
G01X24890D01*
G01X24929Y12067D01*
G01X24943Y12086D01*
G01X24929Y12107D01*
G01X24890Y12159D01*
G01X24955Y12152D01*
G01X24980Y12149D01*
G01X24990Y12172D01*
G01X25016Y12232D01*
G01X25042Y12172D01*
G01X25053Y12149D01*
G01X25077Y12152D01*
G01X25142Y12159D01*
G01X25104Y12107D01*
G01X25089Y12086D01*
G01X25104Y12067D01*
G01X25142Y12014D01*
G01X25077Y12021D01*
G01X25053Y12023D01*
G01X25042Y12000D01*
G01X25016Y11941D01*
G01X24990Y12000D01*
G01X24980Y12023D01*
G01X24955Y12021D01*
G01X24890Y12014D01*
G01X24848D01*
G01X24817Y11972D01*
G01X24959Y11987D01*
G01X25016Y11856D01*
G01X25074Y11987D01*
G01X25216Y11972D01*
G01X25131Y12086D01*
G01X25216Y12202D01*
G01X25074Y12186D01*
G37*
G36*
G01X26616Y12316D02*
G01X26558Y12186D01*
G01X26417Y12202D01*
G01X26501Y12086D01*
G01X26447Y12014D01*
G01X26490D01*
G01X26528Y12067D01*
G01X26543Y12086D01*
G01X26528Y12107D01*
G01X26490Y12159D01*
G01X26555Y12152D01*
G01X26580Y12149D01*
G01X26590Y12172D01*
G01X26616Y12232D01*
G01X26643Y12172D01*
G01X26652Y12149D01*
G01X26677Y12152D01*
G01X26742Y12159D01*
G01X26704Y12107D01*
G01X26689Y12086D01*
G01X26704Y12067D01*
G01X26742Y12014D01*
G01X26677Y12021D01*
G01X26652Y12023D01*
G01X26643Y12000D01*
G01X26616Y11941D01*
G01X26590Y12000D01*
G01X26580Y12023D01*
G01X26555Y12021D01*
G01X26490Y12014D01*
G01X26447D01*
G01X26417Y11972D01*
G01X26558Y11987D01*
G01X26616Y11856D01*
G01X26674Y11987D01*
G01X26815Y11972D01*
G01X26731Y12086D01*
G01X26815Y12202D01*
G01X26674Y12186D01*
G37*
G36*
G01X27397Y12316D02*
G01X27340Y12186D01*
G01X27198Y12202D01*
G01X27282Y12086D01*
G01X27229Y12014D01*
G01X27271D01*
G01X27310Y12067D01*
G01X27324Y12086D01*
G01X27310Y12107D01*
G01X27271Y12159D01*
G01X27336Y12152D01*
G01X27361Y12149D01*
G01X27371Y12172D01*
G01X27397Y12232D01*
G01X27423Y12172D01*
G01X27434Y12149D01*
G01X27458Y12152D01*
G01X27523Y12159D01*
G01X27485Y12107D01*
G01X27470Y12086D01*
G01X27485Y12067D01*
G01X27523Y12014D01*
G01X27458Y12021D01*
G01X27434Y12023D01*
G01X27423Y12000D01*
G01X27397Y11941D01*
G01X27371Y12000D01*
G01X27361Y12023D01*
G01X27336Y12021D01*
G01X27271Y12014D01*
G01X27229D01*
G01X27198Y11972D01*
G01X27340Y11987D01*
G01X27397Y11856D01*
G01X27455Y11987D01*
G01X27597Y11972D01*
G01X27512Y12086D01*
G01X27597Y12202D01*
G01X27455Y12186D01*
G37*
G36*
G01X25816Y12316D02*
G01X25759Y12186D01*
G01X25617Y12202D01*
G01X25701Y12086D01*
G01X25648Y12014D01*
G01X25690D01*
G01X25729Y12067D01*
G01X25743Y12086D01*
G01X25729Y12107D01*
G01X25690Y12159D01*
G01X25755Y12152D01*
G01X25780Y12149D01*
G01X25790Y12172D01*
G01X25816Y12232D01*
G01X25842Y12172D01*
G01X25853Y12149D01*
G01X25878Y12152D01*
G01X25943Y12159D01*
G01X25904Y12107D01*
G01X25889Y12086D01*
G01X25904Y12067D01*
G01X25943Y12014D01*
G01X25878Y12021D01*
G01X25853Y12023D01*
G01X25842Y12000D01*
G01X25816Y11941D01*
G01X25790Y12000D01*
G01X25780Y12023D01*
G01X25755Y12021D01*
G01X25690Y12014D01*
G01X25648D01*
G01X25617Y11972D01*
G01X25759Y11987D01*
G01X25816Y11856D01*
G01X25874Y11987D01*
G01X26016Y11972D01*
G01X25931Y12086D01*
G01X26016Y12202D01*
G01X25874Y12186D01*
G37*
G36*
G01X29937Y7723D02*
G01X29879Y7593D01*
G01X29737Y7608D01*
G01X29822Y7493D01*
G01X29768Y7420D01*
G01X29810D01*
G01X29849Y7473D01*
G01X29864Y7493D01*
G01X29849Y7513D01*
G01X29810Y7566D01*
G01X29875Y7559D01*
G01X29900Y7556D01*
G01X29911Y7579D01*
G01X29937Y7639D01*
G01X29963Y7579D01*
G01X29973Y7556D01*
G01X29998Y7559D01*
G01X30063Y7566D01*
G01X30024Y7513D01*
G01X30010Y7493D01*
G01X30024Y7473D01*
G01X30063Y7420D01*
G01X29998Y7427D01*
G01X29973Y7430D01*
G01X29963Y7407D01*
G01X29937Y7347D01*
G01X29911Y7407D01*
G01X29900Y7430D01*
G01X29875Y7427D01*
G01X29810Y7420D01*
G01X29768D01*
G01X29737Y7378D01*
G01X29879Y7393D01*
G01X29937Y7263D01*
G01X29994Y7393D01*
G01X30136Y7378D01*
G01X30052Y7493D01*
G01X30136Y7608D01*
G01X29994Y7593D01*
G37*
G36*
G01X29937Y8739D02*
G01X29879Y8609D01*
G01X29737Y8624D01*
G01X29822Y8509D01*
G01X29768Y8436D01*
G01X29810D01*
G01X29849Y8489D01*
G01X29864Y8509D01*
G01X29849Y8529D01*
G01X29810Y8582D01*
G01X29875Y8575D01*
G01X29900Y8572D01*
G01X29911Y8595D01*
G01X29937Y8655D01*
G01X29963Y8595D01*
G01X29973Y8572D01*
G01X29998Y8575D01*
G01X30063Y8582D01*
G01X30024Y8529D01*
G01X30010Y8509D01*
G01X30024Y8489D01*
G01X30063Y8436D01*
G01X29998Y8443D01*
G01X29973Y8446D01*
G01X29963Y8423D01*
G01X29937Y8363D01*
G01X29911Y8423D01*
G01X29900Y8446D01*
G01X29875Y8443D01*
G01X29810Y8436D01*
G01X29768D01*
G01X29737Y8394D01*
G01X29879Y8409D01*
G01X29937Y8279D01*
G01X29994Y8409D01*
G01X30136Y8394D01*
G01X30052Y8509D01*
G01X30136Y8624D01*
G01X29994Y8609D01*
G37*
G36*
G01X29927Y7042D02*
G01X29870Y6911D01*
G01X29728Y6927D01*
G01X29812Y6812D01*
G01X29759Y6739D01*
G01X29801D01*
G01X29840Y6791D01*
G01X29855Y6812D01*
G01X29840Y6832D01*
G01X29801Y6884D01*
G01X29866Y6877D01*
G01X29891Y6875D01*
G01X29901Y6898D01*
G01X29927Y6958D01*
G01X29954Y6898D01*
G01X29964Y6875D01*
G01X29989Y6877D01*
G01X30053Y6884D01*
G01X30015Y6832D01*
G01X30000Y6812D01*
G01X30015Y6791D01*
G01X30054Y6739D01*
G01X29989Y6746D01*
G01X29964Y6749D01*
G01X29954Y6726D01*
G01X29927Y6666D01*
G01X29901Y6726D01*
G01X29891Y6749D01*
G01X29866Y6746D01*
G01X29801Y6739D01*
G01X29759D01*
G01X29728Y6696D01*
G01X29870Y6712D01*
G01X29927Y6582D01*
G01X29985Y6712D01*
G01X30127Y6696D01*
G01X30043Y6812D01*
G01X30127Y6927D01*
G01X29985Y6911D01*
G37*
G36*
G01X30660Y11196D02*
G01X30602Y11066D01*
G01X30460Y11081D01*
G01X30545Y10966D01*
G01X30491Y10893D01*
G01X30533D01*
G01X30572Y10946D01*
G01X30587Y10966D01*
G01X30572Y10986D01*
G01X30533Y11039D01*
G01X30598Y11032D01*
G01X30623Y11029D01*
G01X30633Y11052D01*
G01X30660Y11112D01*
G01X30686Y11052D01*
G01X30696Y11029D01*
G01X30721Y11032D01*
G01X30786Y11039D01*
G01X30747Y10986D01*
G01X30732Y10966D01*
G01X30747Y10946D01*
G01X30786Y10893D01*
G01X30721Y10900D01*
G01X30696Y10903D01*
G01X30686Y10880D01*
G01X30660Y10820D01*
G01X30633Y10880D01*
G01X30623Y10903D01*
G01X30598Y10900D01*
G01X30533Y10893D01*
G01X30491D01*
G01X30460Y10851D01*
G01X30602Y10867D01*
G01X30660Y10736D01*
G01X30717Y10867D01*
G01X30859Y10851D01*
G01X30775Y10966D01*
G01X30859Y11081D01*
G01X30717Y11066D01*
G37*
G36*
G01X29057Y15057D02*
G01X28999Y14927D01*
G01X28857Y14942D01*
G01X28942Y14827D01*
G01X28888Y14754D01*
G01X28931D01*
G01X28969Y14807D01*
G01X28984Y14827D01*
G01X28969Y14847D01*
G01X28931Y14900D01*
G01X28996Y14893D01*
G01X29021Y14890D01*
G01X29030Y14913D01*
G01X29057Y14973D01*
G01X29083Y14913D01*
G01X29093Y14890D01*
G01X29118Y14893D01*
G01X29183Y14900D01*
G01X29144Y14847D01*
G01X29130Y14827D01*
G01X29144Y14807D01*
G01X29183Y14754D01*
G01X29118Y14761D01*
G01X29093Y14764D01*
G01X29083Y14741D01*
G01X29057Y14681D01*
G01X29031Y14741D01*
G01X29021Y14764D01*
G01X28996Y14761D01*
G01X28931Y14754D01*
G01X28888D01*
G01X28857Y14712D01*
G01X28999Y14727D01*
G01X29057Y14597D01*
G01X29114Y14727D01*
G01X29256Y14712D01*
G01X29172Y14827D01*
G01X29256Y14942D01*
G01X29114Y14927D01*
G37*
G36*
G01X29072Y14381D02*
G01X29015Y14251D01*
G01X28873Y14266D01*
G01X28957Y14151D01*
G01X28904Y14078D01*
G01X28946D01*
G01X28984Y14131D01*
G01X28999Y14151D01*
G01X28984Y14171D01*
G01X28946Y14224D01*
G01X29011Y14217D01*
G01X29036Y14214D01*
G01X29046Y14237D01*
G01X29072Y14297D01*
G01X29099Y14237D01*
G01X29109Y14214D01*
G01X29133Y14217D01*
G01X29198Y14224D01*
G01X29160Y14171D01*
G01X29145Y14151D01*
G01X29160Y14131D01*
G01X29198Y14078D01*
G01X29133Y14085D01*
G01X29109Y14088D01*
G01X29099Y14065D01*
G01X29072Y14005D01*
G01X29046Y14065D01*
G01X29036Y14088D01*
G01X29011Y14085D01*
G01X28946Y14078D01*
G01X28904D01*
G01X28873Y14036D01*
G01X29015Y14051D01*
G01X29072Y13921D01*
G01X29130Y14051D01*
G01X29271Y14036D01*
G01X29187Y14151D01*
G01X29271Y14266D01*
G01X29130Y14251D01*
G37*
G36*
G01X30938Y14870D02*
G01X30880Y14740D01*
G01X30739Y14755D01*
G01X30823Y14640D01*
G01X30770Y14567D01*
G01X30812D01*
G01X30850Y14620D01*
G01X30865Y14640D01*
G01X30850Y14660D01*
G01X30812Y14713D01*
G01X30877Y14706D01*
G01X30902Y14703D01*
G01X30911Y14726D01*
G01X30938Y14786D01*
G01X30964Y14726D01*
G01X30974Y14703D01*
G01X30999Y14706D01*
G01X31064Y14713D01*
G01X31026Y14660D01*
G01X31011Y14640D01*
G01X31026Y14620D01*
G01X31064Y14567D01*
G01X30999Y14574D01*
G01X30974Y14577D01*
G01X30964Y14554D01*
G01X30938Y14494D01*
G01X30912Y14554D01*
G01X30902Y14577D01*
G01X30877Y14574D01*
G01X30812Y14567D01*
G01X30770D01*
G01X30739Y14525D01*
G01X30880Y14540D01*
G01X30938Y14410D01*
G01X30996Y14540D01*
G01X31137Y14525D01*
G01X31053Y14640D01*
G01X31137Y14755D01*
G01X30996Y14740D01*
G37*
G36*
G01X31249Y14175D02*
G01X31192Y14045D01*
G01X31050Y14060D01*
G01X31134Y13945D01*
G01X31081Y13872D01*
G01X31123D01*
G01X31162Y13925D01*
G01X31176Y13945D01*
G01X31162Y13965D01*
G01X31123Y14018D01*
G01X31188Y14011D01*
G01X31213Y14008D01*
G01X31249Y14090D01*
G01X31286Y14008D01*
G01X31311Y14011D01*
G01X31375Y14018D01*
G01X31336Y13965D01*
G01X31322Y13945D01*
G01X31337Y13925D01*
G01X31376Y13872D01*
G01X31311Y13879D01*
G01X31286Y13882D01*
G01X31249Y13799D01*
G01X31213Y13882D01*
G01X31188Y13879D01*
G01X31123Y13872D01*
G01X31081D01*
G01X31050Y13830D01*
G01X31192Y13845D01*
G01X31249Y13714D01*
G01X31307Y13845D01*
G01X31449Y13830D01*
G01X31364Y13945D01*
G01X31449Y14060D01*
G01X31307Y14045D01*
G37*
G36*
G01X31192Y12545D02*
G01X31134Y12414D01*
G01X30993Y12429D01*
G01X31077Y12314D01*
G01X31024Y12241D01*
G01X31066D01*
G01X31104Y12294D01*
G01X31119Y12314D01*
G01X31104Y12334D01*
G01X31066Y12387D01*
G01X31131Y12380D01*
G01X31156Y12377D01*
G01X31165Y12400D01*
G01X31192Y12460D01*
G01X31228Y12377D01*
G01X31253Y12380D01*
G01X31318Y12387D01*
G01X31280Y12334D01*
G01X31265Y12314D01*
G01X31280Y12294D01*
G01X31318Y12241D01*
G01X31253Y12248D01*
G01X31228Y12251D01*
G01X31192Y12169D01*
G01X31166Y12228D01*
G01X31156Y12251D01*
G01X31131Y12248D01*
G01X31066Y12241D01*
G01X31024D01*
G01X30993Y12199D01*
G01X31134Y12214D01*
G01X31192Y12084D01*
G01X31250Y12214D01*
G01X31391Y12199D01*
G01X31307Y12314D01*
G01X31391Y12429D01*
G01X31250Y12414D01*
G37*
G36*
G01X28945Y13016D02*
G01X28888Y12886D01*
G01X28746Y12901D01*
G01X28830Y12786D01*
G01X28777Y12713D01*
G01X28819D01*
G01X28857Y12766D01*
G01X28872Y12786D01*
G01X28857Y12806D01*
G01X28819Y12859D01*
G01X28884Y12852D01*
G01X28909Y12849D01*
G01X28919Y12872D01*
G01X28945Y12932D01*
G01X28972Y12872D01*
G01X28982Y12849D01*
G01X29006Y12852D01*
G01X29071Y12859D01*
G01X29033Y12806D01*
G01X29018Y12786D01*
G01X29033Y12766D01*
G01X29071Y12713D01*
G01X29006Y12720D01*
G01X28982Y12723D01*
G01X28972Y12700D01*
G01X28945Y12640D01*
G01X28919Y12700D01*
G01X28909Y12723D01*
G01X28884Y12720D01*
G01X28819Y12713D01*
G01X28777D01*
G01X28746Y12671D01*
G01X28888Y12686D01*
G01X28945Y12556D01*
G01X29003Y12686D01*
G01X29144Y12671D01*
G01X29060Y12786D01*
G01X29144Y12901D01*
G01X29003Y12886D01*
G37*
G36*
G01X28935Y12305D02*
G01X28877Y12174D01*
G01X28735Y12190D01*
G01X28819Y12075D01*
G01X28766Y12002D01*
G01X28808D01*
G01X28847Y12054D01*
G01X28862Y12075D01*
G01X28847Y12095D01*
G01X28808Y12147D01*
G01X28873Y12140D01*
G01X28898Y12138D01*
G01X28908Y12161D01*
G01X28935Y12220D01*
G01X28961Y12161D01*
G01X28971Y12138D01*
G01X28996Y12140D01*
G01X29061Y12147D01*
G01X29022Y12095D01*
G01X29007Y12075D01*
G01X29022Y12054D01*
G01X29061Y12002D01*
G01X28996Y12009D01*
G01X28971Y12012D01*
G01X28961Y11989D01*
G01X28935Y11929D01*
G01X28908Y11989D01*
G01X28898Y12012D01*
G01X28873Y12009D01*
G01X28808Y12002D01*
G01X28766D01*
G01X28735Y11959D01*
G01X28877Y11975D01*
G01X28935Y11845D01*
G01X28992Y11975D01*
G01X29134Y11959D01*
G01X29049Y12075D01*
G01X29134Y12190D01*
G01X28992Y12174D01*
G37*
G36*
G01X22694Y19132D02*
G01X22636Y19001D01*
G01X22494Y19016D01*
G01X22579Y18902D01*
G01X22525Y18829D01*
G01X22567D01*
G01X22606Y18881D01*
G01X22621Y18902D01*
G01X22606Y18921D01*
G01X22567Y18974D01*
G01X22632Y18967D01*
G01X22657Y18965D01*
G01X22694Y19047D01*
G01X22720Y18988D01*
G01X22730Y18965D01*
G01X22755Y18967D01*
G01X22820Y18974D01*
G01X22781Y18921D01*
G01X22767Y18902D01*
G01X22781Y18881D01*
G01X22820Y18829D01*
G01X22755Y18836D01*
G01X22730Y18839D01*
G01X22720Y18816D01*
G01X22694Y18756D01*
G01X22667Y18816D01*
G01X22657Y18839D01*
G01X22632Y18836D01*
G01X22567Y18829D01*
G01X22525D01*
G01X22494Y18786D01*
G01X22636Y18802D01*
G01X22694Y18672D01*
G01X22751Y18802D01*
G01X22893Y18786D01*
G01X22809Y18902D01*
G01X22893Y19016D01*
G01X22751Y19001D01*
G37*
G36*
G01X28060Y17624D02*
G01X28002Y17493D01*
G01X27861Y17508D01*
G01X27945Y17393D01*
G01X27892Y17320D01*
G01X27934D01*
G01X27973Y17373D01*
G01X27987Y17393D01*
G01X27973Y17413D01*
G01X27934Y17466D01*
G01X27999Y17459D01*
G01X28024Y17456D01*
G01X28033Y17479D01*
G01X28060Y17539D01*
G01X28096Y17456D01*
G01X28121Y17459D01*
G01X28186Y17466D01*
G01X28148Y17413D01*
G01X28133Y17393D01*
G01X28148Y17373D01*
G01X28186Y17320D01*
G01X28121Y17327D01*
G01X28096Y17330D01*
G01X28060Y17248D01*
G01X28033Y17307D01*
G01X28024Y17330D01*
G01X27999Y17327D01*
G01X27934Y17320D01*
G01X27892D01*
G01X27861Y17278D01*
G01X28002Y17293D01*
G01X28060Y17163D01*
G01X28118Y17293D01*
G01X28260Y17278D01*
G01X28175Y17393D01*
G01X28260Y17508D01*
G01X28118Y17493D01*
G37*
G36*
G01X27380Y17624D02*
G01X27322Y17493D01*
G01X27181Y17508D01*
G01X27265Y17393D01*
G01X27212Y17320D01*
G01X27254D01*
G01X27292Y17373D01*
G01X27307Y17393D01*
G01X27292Y17413D01*
G01X27254Y17466D01*
G01X27319Y17459D01*
G01X27344Y17456D01*
G01X27380Y17539D01*
G01X27406Y17479D01*
G01X27416Y17456D01*
G01X27441Y17459D01*
G01X27506Y17466D01*
G01X27468Y17413D01*
G01X27453Y17393D01*
G01X27468Y17373D01*
G01X27506Y17320D01*
G01X27441Y17327D01*
G01X27416Y17330D01*
G01X27407Y17307D01*
G01X27380Y17248D01*
G01X27344Y17330D01*
G01X27319Y17327D01*
G01X27254Y17320D01*
G01X27212D01*
G01X27181Y17278D01*
G01X27322Y17293D01*
G01X27380Y17163D01*
G01X27438Y17293D01*
G01X27579Y17278D01*
G01X27495Y17393D01*
G01X27579Y17508D01*
G01X27438Y17493D01*
G37*
G36*
G01X32551Y9646D02*
G01X32493Y9516D01*
G01X32351Y9531D01*
G01X32435Y9416D01*
G01X32382Y9343D01*
G01X32425D01*
G01X32463Y9396D01*
G01X32478Y9416D01*
G01X32463Y9436D01*
G01X32425Y9489D01*
G01X32490Y9482D01*
G01X32514Y9479D01*
G01X32524Y9502D01*
G01X32551Y9562D01*
G01X32577Y9502D01*
G01X32587Y9479D01*
G01X32612Y9482D01*
G01X32677Y9489D01*
G01X32638Y9436D01*
G01X32624Y9416D01*
G01X32638Y9396D01*
G01X32677Y9343D01*
G01X32612Y9350D01*
G01X32587Y9353D01*
G01X32577Y9330D01*
G01X32551Y9270D01*
G01X32524Y9330D01*
G01X32514Y9353D01*
G01X32490Y9350D01*
G01X32425Y9343D01*
G01X32382D01*
G01X32351Y9301D01*
G01X32493Y9317D01*
G01X32551Y9186D01*
G01X32608Y9317D01*
G01X32750Y9301D01*
G01X32666Y9416D01*
G01X32750Y9531D01*
G01X32608Y9516D01*
G37*
G36*
G01X32551Y10644D02*
G01X32493Y10514D01*
G01X32351Y10529D01*
G01X32435Y10414D01*
G01X32382Y10341D01*
G01X32425D01*
G01X32463Y10394D01*
G01X32478Y10414D01*
G01X32463Y10434D01*
G01X32425Y10487D01*
G01X32490Y10480D01*
G01X32514Y10477D01*
G01X32524Y10500D01*
G01X32551Y10560D01*
G01X32577Y10500D01*
G01X32587Y10477D01*
G01X32612Y10480D01*
G01X32677Y10487D01*
G01X32638Y10434D01*
G01X32624Y10414D01*
G01X32638Y10394D01*
G01X32677Y10341D01*
G01X32612Y10348D01*
G01X32587Y10351D01*
G01X32577Y10328D01*
G01X32551Y10268D01*
G01X32524Y10328D01*
G01X32514Y10351D01*
G01X32490Y10348D01*
G01X32425Y10341D01*
G01X32382D01*
G01X32351Y10299D01*
G01X32493Y10314D01*
G01X32551Y10184D01*
G01X32608Y10314D01*
G01X32750Y10299D01*
G01X32666Y10414D01*
G01X32750Y10529D01*
G01X32608Y10514D01*
G37*
G36*
G01X29072Y13692D02*
G01X29015Y13562D01*
G01X28873Y13577D01*
G01X28957Y13462D01*
G01X28904Y13389D01*
G01X28946D01*
G01X28984Y13442D01*
G01X28999Y13462D01*
G01X28984Y13482D01*
G01X28946Y13535D01*
G01X29011Y13528D01*
G01X29036Y13525D01*
G01X29046Y13548D01*
G01X29072Y13608D01*
G01X29099Y13548D01*
G01X29109Y13525D01*
G01X29133Y13528D01*
G01X29198Y13535D01*
G01X29160Y13482D01*
G01X29145Y13462D01*
G01X29160Y13442D01*
G01X29198Y13389D01*
G01X29133Y13396D01*
G01X29109Y13399D01*
G01X29099Y13376D01*
G01X29072Y13316D01*
G01X29046Y13376D01*
G01X29036Y13399D01*
G01X29011Y13396D01*
G01X28946Y13389D01*
G01X28904D01*
G01X28873Y13347D01*
G01X29015Y13362D01*
G01X29072Y13232D01*
G01X29130Y13362D01*
G01X29271Y13347D01*
G01X29187Y13462D01*
G01X29271Y13577D01*
G01X29130Y13562D01*
G37*
G36*
G01X2584Y8104D02*
G01X2527Y7974D01*
G01X2385Y7989D01*
G01X2469Y7874D01*
G01X2416Y7801D01*
G01X2458D01*
G01X2497Y7854D01*
G01X2512Y7874D01*
G01X2497Y7894D01*
G01X2458Y7947D01*
G01X2523Y7940D01*
G01X2548Y7937D01*
G01X2558Y7960D01*
G01X2584Y8020D01*
G01X2611Y7960D01*
G01X2621Y7937D01*
G01X2646Y7940D01*
G01X2711Y7947D01*
G01X2672Y7894D01*
G01X2657Y7874D01*
G01X2672Y7854D01*
G01X2711Y7801D01*
G01X2646Y7808D01*
G01X2621Y7811D01*
G01X2611Y7788D01*
G01X2584Y7728D01*
G01X2558Y7788D01*
G01X2548Y7811D01*
G01X2523Y7808D01*
G01X2458Y7801D01*
G01X2416D01*
G01X2385Y7759D01*
G01X2527Y7774D01*
G01X2584Y7644D01*
G01X2642Y7774D01*
G01X2784Y7759D01*
G01X2700Y7874D01*
G01X2784Y7989D01*
G01X2642Y7974D01*
G37*
G36*
G01X2578Y7414D02*
G01X2520Y7283D01*
G01X2378Y7299D01*
G01X2462Y7184D01*
G01X2409Y7111D01*
G01X2451D01*
G01X2490Y7163D01*
G01X2504Y7184D01*
G01X2490Y7204D01*
G01X2451Y7256D01*
G01X2516Y7250D01*
G01X2541Y7247D01*
G01X2551Y7269D01*
G01X2578Y7329D01*
G01X2604Y7269D01*
G01X2614Y7247D01*
G01X2639Y7249D01*
G01X2704Y7256D01*
G01X2665Y7204D01*
G01X2650Y7184D01*
G01X2665Y7163D01*
G01X2704Y7111D01*
G01X2639Y7118D01*
G01X2614Y7121D01*
G01X2604Y7098D01*
G01X2578Y7038D01*
G01X2551Y7098D01*
G01X2541Y7121D01*
G01X2516Y7118D01*
G01X2451Y7111D01*
G01X2409D01*
G01X2378Y7068D01*
G01X2520Y7084D01*
G01X2578Y6954D01*
G01X2635Y7084D01*
G01X2777Y7068D01*
G01X2692Y7184D01*
G01X2777Y7299D01*
G01X2635Y7283D01*
G37*
G36*
G01X5209Y15450D02*
G01X5152Y15320D01*
G01X5009Y15335D01*
G01X5094Y15220D01*
G01X5040Y15147D01*
G01X5083D01*
G01X5122Y15200D01*
G01X5136Y15220D01*
G01X5122Y15240D01*
G01X5083Y15293D01*
G01X5148Y15286D01*
G01X5172Y15283D01*
G01X5209Y15365D01*
G01X5246Y15283D01*
G01X5271Y15286D01*
G01X5335Y15293D01*
G01X5296Y15240D01*
G01X5282Y15220D01*
G01X5296Y15200D01*
G01X5335Y15147D01*
G01X5271Y15154D01*
G01X5246Y15157D01*
G01X5209Y15074D01*
G01X5172Y15157D01*
G01X5148Y15154D01*
G01X5083Y15147D01*
G01X5040D01*
G01X5009Y15105D01*
G01X5152Y15120D01*
G01X5209Y14990D01*
G01X5266Y15120D01*
G01X5408Y15105D01*
G01X5324Y15220D01*
G01X5408Y15335D01*
G01X5266Y15320D01*
G37*
G36*
G01X7495Y12450D02*
G01X7438Y12320D01*
G01X7295Y12335D01*
G01X7380Y12220D01*
G01X7326Y12147D01*
G01X7369D01*
G01X7408Y12200D01*
G01X7422Y12220D01*
G01X7408Y12240D01*
G01X7369Y12293D01*
G01X7434Y12286D01*
G01X7458Y12283D01*
G01X7469Y12306D01*
G01X7495Y12366D01*
G01X7521Y12306D01*
G01X7532Y12283D01*
G01X7557Y12285D01*
G01X7621Y12293D01*
G01X7582Y12240D01*
G01X7568Y12220D01*
G01X7582Y12200D01*
G01X7621Y12147D01*
G01X7557Y12154D01*
G01X7532Y12157D01*
G01X7521Y12134D01*
G01X7495Y12074D01*
G01X7469Y12134D01*
G01X7458Y12157D01*
G01X7434Y12154D01*
G01X7369Y12147D01*
G01X7326D01*
G01X7295Y12105D01*
G01X7438Y12120D01*
G01X7495Y11990D01*
G01X7552Y12120D01*
G01X7694Y12105D01*
G01X7610Y12220D01*
G01X7694Y12335D01*
G01X7552Y12320D01*
G37*
G36*
G01X5209Y14450D02*
G01X5152Y14320D01*
G01X5009Y14335D01*
G01X5094Y14220D01*
G01X5040Y14147D01*
G01X5083D01*
G01X5122Y14200D01*
G01X5136Y14220D01*
G01X5122Y14240D01*
G01X5083Y14293D01*
G01X5148Y14286D01*
G01X5172Y14283D01*
G01X5183Y14306D01*
G01X5209Y14366D01*
G01X5235Y14306D01*
G01X5246Y14283D01*
G01X5271Y14285D01*
G01X5335Y14293D01*
G01X5296Y14240D01*
G01X5282Y14220D01*
G01X5296Y14200D01*
G01X5335Y14147D01*
G01X5271Y14154D01*
G01X5246Y14157D01*
G01X5235Y14134D01*
G01X5209Y14074D01*
G01X5183Y14134D01*
G01X5172Y14157D01*
G01X5148Y14154D01*
G01X5083Y14147D01*
G01X5040D01*
G01X5009Y14105D01*
G01X5152Y14120D01*
G01X5209Y13990D01*
G01X5266Y14120D01*
G01X5408Y14105D01*
G01X5324Y14220D01*
G01X5408Y14335D01*
G01X5266Y14320D01*
G37*
G36*
G01X5209Y13450D02*
G01X5152Y13320D01*
G01X5009Y13335D01*
G01X5094Y13220D01*
G01X5040Y13147D01*
G01X5083D01*
G01X5122Y13200D01*
G01X5136Y13220D01*
G01X5122Y13240D01*
G01X5083Y13293D01*
G01X5148Y13286D01*
G01X5172Y13283D01*
G01X5209Y13365D01*
G01X5246Y13283D01*
G01X5271Y13286D01*
G01X5335Y13293D01*
G01X5296Y13240D01*
G01X5282Y13220D01*
G01X5296Y13200D01*
G01X5335Y13147D01*
G01X5271Y13154D01*
G01X5246Y13157D01*
G01X5209Y13074D01*
G01X5172Y13157D01*
G01X5148Y13154D01*
G01X5083Y13147D01*
G01X5040D01*
G01X5009Y13105D01*
G01X5152Y13120D01*
G01X5209Y12990D01*
G01X5266Y13120D01*
G01X5408Y13105D01*
G01X5324Y13220D01*
G01X5408Y13335D01*
G01X5266Y13320D01*
G37*
G36*
G01X9673Y7791D02*
G01X9615Y7661D01*
G01X9473Y7676D01*
G01X9558Y7561D01*
G01X9504Y7488D01*
G01X9546D01*
G01X9585Y7541D01*
G01X9600Y7561D01*
G01X9585Y7581D01*
G01X9546Y7634D01*
G01X9611Y7627D01*
G01X9636Y7624D01*
G01X9673Y7706D01*
G01X9699Y7647D01*
G01X9709Y7624D01*
G01X9734Y7627D01*
G01X9799Y7634D01*
G01X9760Y7581D01*
G01X9745Y7561D01*
G01X9760Y7541D01*
G01X9799Y7488D01*
G01X9734Y7495D01*
G01X9709Y7498D01*
G01X9673Y7415D01*
G01X9636Y7498D01*
G01X9611Y7495D01*
G01X9546Y7488D01*
G01X9504D01*
G01X9473Y7446D01*
G01X9615Y7461D01*
G01X9673Y7330D01*
G01X9730Y7461D01*
G01X9872Y7446D01*
G01X9788Y7561D01*
G01X9872Y7676D01*
G01X9730Y7661D01*
G37*
G36*
G01X10430Y7791D02*
G01X10372Y7661D01*
G01X10230Y7676D01*
G01X10314Y7561D01*
G01X10261Y7488D01*
G01X10303D01*
G01X10342Y7541D01*
G01X10357Y7561D01*
G01X10342Y7581D01*
G01X10303Y7634D01*
G01X10368Y7627D01*
G01X10393Y7624D01*
G01X10430Y7706D01*
G01X10456Y7647D01*
G01X10466Y7624D01*
G01X10491Y7627D01*
G01X10556Y7634D01*
G01X10517Y7581D01*
G01X10502Y7561D01*
G01X10517Y7541D01*
G01X10556Y7488D01*
G01X10491Y7495D01*
G01X10466Y7498D01*
G01X10430Y7415D01*
G01X10393Y7498D01*
G01X10368Y7495D01*
G01X10303Y7488D01*
G01X10261D01*
G01X10230Y7446D01*
G01X10372Y7461D01*
G01X10430Y7330D01*
G01X10487Y7461D01*
G01X10629Y7446D01*
G01X10545Y7561D01*
G01X10629Y7676D01*
G01X10487Y7661D01*
G37*
G36*
G01X20595Y12927D02*
G01X20538Y12797D01*
G01X20396Y12812D01*
G01X20481Y12697D01*
G01X20427Y12624D01*
G01X20469D01*
G01X20508Y12677D01*
G01X20523Y12697D01*
G01X20508Y12717D01*
G01X20469Y12770D01*
G01X20534Y12762D01*
G01X20559Y12760D01*
G01X20569Y12783D01*
G01X20595Y12843D01*
G01X20622Y12783D01*
G01X20632Y12760D01*
G01X20657Y12762D01*
G01X20722Y12770D01*
G01X20683Y12717D01*
G01X20668Y12697D01*
G01X20683Y12677D01*
G01X20722Y12624D01*
G01X20657Y12631D01*
G01X20632Y12634D01*
G01X20622Y12611D01*
G01X20595Y12551D01*
G01X20569Y12611D01*
G01X20559Y12634D01*
G01X20534Y12631D01*
G01X20469Y12624D01*
G01X20427D01*
G01X20396Y12582D01*
G01X20538Y12597D01*
G01X20595Y12467D01*
G01X20653Y12597D01*
G01X20795Y12582D01*
G01X20711Y12697D01*
G01X20795Y12812D01*
G01X20653Y12797D01*
G37*
G36*
G01X20595Y12258D02*
G01X20538Y12127D01*
G01X20396Y12142D01*
G01X20481Y12027D01*
G01X20427Y11954D01*
G01X20469D01*
G01X20508Y12007D01*
G01X20523Y12027D01*
G01X20508Y12047D01*
G01X20469Y12100D01*
G01X20534Y12093D01*
G01X20559Y12090D01*
G01X20569Y12113D01*
G01X20595Y12173D01*
G01X20632Y12090D01*
G01X20657Y12093D01*
G01X20722Y12100D01*
G01X20683Y12047D01*
G01X20668Y12027D01*
G01X20683Y12007D01*
G01X20722Y11954D01*
G01X20657Y11961D01*
G01X20632Y11964D01*
G01X20595Y11882D01*
G01X20569Y11941D01*
G01X20559Y11964D01*
G01X20534Y11961D01*
G01X20469Y11954D01*
G01X20427D01*
G01X20396Y11912D01*
G01X20538Y11927D01*
G01X20595Y11797D01*
G01X20653Y11927D01*
G01X20795Y11912D01*
G01X20711Y12027D01*
G01X20795Y12142D01*
G01X20653Y12127D01*
G37*
G36*
G01X25816Y19132D02*
G01X25759Y19001D01*
G01X25617Y19016D01*
G01X25701Y18902D01*
G01X25648Y18829D01*
G01X25690D01*
G01X25729Y18881D01*
G01X25743Y18902D01*
G01X25729Y18921D01*
G01X25690Y18974D01*
G01X25755Y18967D01*
G01X25780Y18965D01*
G01X25790Y18988D01*
G01X25816Y19047D01*
G01X25842Y18988D01*
G01X25853Y18965D01*
G01X25878Y18967D01*
G01X25943Y18974D01*
G01X25904Y18921D01*
G01X25889Y18902D01*
G01X25904Y18881D01*
G01X25943Y18829D01*
G01X25878Y18836D01*
G01X25853Y18839D01*
G01X25842Y18816D01*
G01X25816Y18756D01*
G01X25790Y18816D01*
G01X25780Y18839D01*
G01X25755Y18836D01*
G01X25690Y18829D01*
G01X25648D01*
G01X25617Y18786D01*
G01X25759Y18802D01*
G01X25816Y18672D01*
G01X25874Y18802D01*
G01X26016Y18786D01*
G01X25931Y18902D01*
G01X26016Y19016D01*
G01X25874Y19001D01*
G37*
G36*
G01X25035Y19132D02*
G01X24977Y19001D01*
G01X24836Y19016D01*
G01X24920Y18902D01*
G01X24867Y18829D01*
G01X24909D01*
G01X24947Y18881D01*
G01X24962Y18902D01*
G01X24947Y18921D01*
G01X24909Y18974D01*
G01X24974Y18967D01*
G01X24999Y18965D01*
G01X25009Y18988D01*
G01X25035Y19047D01*
G01X25062Y18988D01*
G01X25071Y18965D01*
G01X25096Y18967D01*
G01X25161Y18974D01*
G01X25123Y18921D01*
G01X25108Y18902D01*
G01X25123Y18881D01*
G01X25161Y18829D01*
G01X25096Y18836D01*
G01X25071Y18839D01*
G01X25062Y18816D01*
G01X25035Y18756D01*
G01X25009Y18816D01*
G01X24999Y18839D01*
G01X24974Y18836D01*
G01X24909Y18829D01*
G01X24867D01*
G01X24836Y18786D01*
G01X24977Y18802D01*
G01X25035Y18672D01*
G01X25093Y18802D01*
G01X25234Y18786D01*
G01X25150Y18902D01*
G01X25234Y19016D01*
G01X25093Y19001D01*
G37*
G36*
G01X22246Y16216D02*
G01X22189Y16086D01*
G01X22047Y16101D01*
G01X22132Y15986D01*
G01X22078Y15913D01*
G01X22120D01*
G01X22159Y15966D01*
G01X22174Y15986D01*
G01X22159Y16006D01*
G01X22120Y16059D01*
G01X22185Y16052D01*
G01X22210Y16049D01*
G01X22220Y16072D01*
G01X22246Y16132D01*
G01X22273Y16072D01*
G01X22283Y16049D01*
G01X22308Y16052D01*
G01X22373Y16059D01*
G01X22334Y16006D01*
G01X22319Y15986D01*
G01X22334Y15966D01*
G01X22373Y15913D01*
G01X22308Y15920D01*
G01X22283Y15923D01*
G01X22273Y15900D01*
G01X22246Y15840D01*
G01X22220Y15900D01*
G01X22210Y15923D01*
G01X22185Y15920D01*
G01X22120Y15913D01*
G01X22078D01*
G01X22047Y15871D01*
G01X22189Y15886D01*
G01X22246Y15756D01*
G01X22304Y15886D01*
G01X22446Y15871D01*
G01X22362Y15986D01*
G01X22446Y16101D01*
G01X22304Y16086D01*
G37*
G36*
G01X23780Y14527D02*
G01X23723Y14397D01*
G01X23581Y14412D01*
G01X23665Y14297D01*
G01X23612Y14224D01*
G01X23654D01*
G01X23693Y14277D01*
G01X23707Y14297D01*
G01X23693Y14317D01*
G01X23654Y14370D01*
G01X23719Y14363D01*
G01X23743Y14360D01*
G01X23754Y14382D01*
G01X23780Y14442D01*
G01X23806Y14382D01*
G01X23817Y14360D01*
G01X23841Y14363D01*
G01X23906Y14370D01*
G01X23867Y14317D01*
G01X23853Y14297D01*
G01X23867Y14277D01*
G01X23906Y14224D01*
G01X23841Y14231D01*
G01X23817Y14234D01*
G01X23780Y14151D01*
G01X23743Y14234D01*
G01X23719Y14231D01*
G01X23654Y14224D01*
G01X23612D01*
G01X23581Y14182D01*
G01X23723Y14197D01*
G01X23780Y14067D01*
G01X23837Y14197D01*
G01X23980Y14182D01*
G01X23895Y14297D01*
G01X23980Y14412D01*
G01X23837Y14397D01*
G37*
G36*
G01X23770Y13831D02*
G01X23713Y13700D01*
G01X23571Y13715D01*
G01X23656Y13601D01*
G01X23602Y13528D01*
G01X23644D01*
G01X23683Y13580D01*
G01X23698Y13601D01*
G01X23683Y13621D01*
G01X23644Y13673D01*
G01X23709Y13666D01*
G01X23734Y13664D01*
G01X23744Y13687D01*
G01X23770Y13746D01*
G01X23797Y13687D01*
G01X23807Y13664D01*
G01X23832Y13666D01*
G01X23897Y13673D01*
G01X23858Y13621D01*
G01X23843Y13601D01*
G01X23858Y13580D01*
G01X23897Y13528D01*
G01X23832Y13535D01*
G01X23807Y13538D01*
G01X23797Y13515D01*
G01X23770Y13455D01*
G01X23744Y13515D01*
G01X23734Y13538D01*
G01X23709Y13535D01*
G01X23644Y13528D01*
G01X23602D01*
G01X23571Y13485D01*
G01X23713Y13501D01*
G01X23770Y13371D01*
G01X23828Y13501D01*
G01X23970Y13485D01*
G01X23886Y13601D01*
G01X23970Y13715D01*
G01X23828Y13700D01*
G37*
G36*
G01X21463Y24360D02*
G01X21406Y24230D01*
G01X21264Y24245D01*
G01X21348Y24130D01*
G01X21295Y24057D01*
G01X21337D01*
G01X21376Y24110D01*
G01X21390Y24130D01*
G01X21376Y24150D01*
G01X21337Y24203D01*
G01X21402Y24196D01*
G01X21426Y24193D01*
G01X21437Y24216D01*
G01X21463Y24276D01*
G01X21489Y24216D01*
G01X21500Y24193D01*
G01X21524Y24196D01*
G01X21589Y24203D01*
G01X21550Y24150D01*
G01X21536Y24130D01*
G01X21550Y24110D01*
G01X21589Y24057D01*
G01X21524Y24064D01*
G01X21500Y24067D01*
G01X21489Y24044D01*
G01X21463Y23984D01*
G01X21437Y24044D01*
G01X21426Y24067D01*
G01X21402Y24064D01*
G01X21337Y24057D01*
G01X21295D01*
G01X21264Y24015D01*
G01X21406Y24030D01*
G01X21463Y23900D01*
G01X21520Y24030D01*
G01X21663Y24015D01*
G01X21578Y24130D01*
G01X21663Y24245D01*
G01X21520Y24230D01*
G37*
G36*
G01X23234Y23097D02*
G01X23176Y22967D01*
G01X23034Y22982D01*
G01X23119Y22867D01*
G01X23065Y22794D01*
G01X23108D01*
G01X23146Y22847D01*
G01X23161Y22867D01*
G01X23146Y22887D01*
G01X23108Y22940D01*
G01X23172Y22933D01*
G01X23197Y22930D01*
G01X23207Y22953D01*
G01X23234Y23013D01*
G01X23260Y22953D01*
G01X23270Y22930D01*
G01X23295Y22933D01*
G01X23360Y22940D01*
G01X23321Y22887D01*
G01X23307Y22867D01*
G01X23321Y22847D01*
G01X23360Y22794D01*
G01X23295Y22802D01*
G01X23270Y22804D01*
G01X23260Y22781D01*
G01X23234Y22721D01*
G01X23207Y22781D01*
G01X23197Y22804D01*
G01X23172Y22802D01*
G01X23108Y22794D01*
G01X23065D01*
G01X23034Y22752D01*
G01X23176Y22768D01*
G01X23234Y22637D01*
G01X23291Y22768D01*
G01X23433Y22752D01*
G01X23349Y22867D01*
G01X23433Y22982D01*
G01X23291Y22967D01*
G37*
G36*
G01X17037Y24381D02*
G01X16979Y24251D01*
G01X16838Y24266D01*
G01X16922Y24151D01*
G01X16869Y24078D01*
G01X16911D01*
G01X16949Y24131D01*
G01X16964Y24151D01*
G01X16949Y24171D01*
G01X16911Y24224D01*
G01X16976Y24217D01*
G01X17001Y24214D01*
G01X17011Y24237D01*
G01X17037Y24297D01*
G01X17063Y24237D01*
G01X17073Y24214D01*
G01X17098Y24217D01*
G01X17163Y24224D01*
G01X17125Y24171D01*
G01X17110Y24151D01*
G01X17125Y24131D01*
G01X17163Y24078D01*
G01X17098Y24085D01*
G01X17073Y24088D01*
G01X17063Y24065D01*
G01X17037Y24006D01*
G01X17011Y24065D01*
G01X17001Y24088D01*
G01X16976Y24085D01*
G01X16911Y24078D01*
G01X16869D01*
G01X16838Y24036D01*
G01X16979Y24052D01*
G01X17037Y23921D01*
G01X17095Y24052D01*
G01X17236Y24036D01*
G01X17152Y24151D01*
G01X17236Y24266D01*
G01X17095Y24251D01*
G37*
G36*
G01X12882Y23845D02*
G01X12825Y23714D01*
G01X12683Y23730D01*
G01X12767Y23614D01*
G01X12714Y23542D01*
G01X12756D01*
G01X12795Y23594D01*
G01X12810Y23614D01*
G01X12795Y23635D01*
G01X12756Y23687D01*
G01X12821Y23680D01*
G01X12846Y23677D01*
G01X12856Y23700D01*
G01X12882Y23760D01*
G01X12909Y23700D01*
G01X12919Y23677D01*
G01X12944Y23680D01*
G01X13008Y23687D01*
G01X12970Y23635D01*
G01X12955Y23614D01*
G01X12970Y23594D01*
G01X13008Y23542D01*
G01X12944Y23548D01*
G01X12919Y23551D01*
G01X12909Y23529D01*
G01X12882Y23469D01*
G01X12856Y23529D01*
G01X12846Y23551D01*
G01X12821Y23548D01*
G01X12756Y23542D01*
G01X12714D01*
G01X12683Y23499D01*
G01X12825Y23515D01*
G01X12882Y23384D01*
G01X12940Y23515D01*
G01X13082Y23499D01*
G01X12998Y23614D01*
G01X13082Y23730D01*
G01X12940Y23714D01*
G37*
G36*
G01X10668Y24106D02*
G01X10611Y23976D01*
G01X10469Y23991D01*
G01X10553Y23876D01*
G01X10500Y23803D01*
G01X10542D01*
G01X10581Y23856D01*
G01X10595Y23876D01*
G01X10581Y23896D01*
G01X10542Y23949D01*
G01X10607Y23942D01*
G01X10631Y23939D01*
G01X10642Y23962D01*
G01X10668Y24022D01*
G01X10694Y23962D01*
G01X10705Y23939D01*
G01X10729Y23942D01*
G01X10794Y23949D01*
G01X10755Y23896D01*
G01X10741Y23876D01*
G01X10755Y23856D01*
G01X10794Y23803D01*
G01X10729Y23810D01*
G01X10705Y23813D01*
G01X10694Y23790D01*
G01X10668Y23730D01*
G01X10642Y23790D01*
G01X10631Y23813D01*
G01X10607Y23810D01*
G01X10542Y23803D01*
G01X10500D01*
G01X10469Y23761D01*
G01X10611Y23776D01*
G01X10668Y23646D01*
G01X10725Y23776D01*
G01X10868Y23761D01*
G01X10783Y23876D01*
G01X10868Y23991D01*
G01X10725Y23976D01*
G37*
G36*
G01X10750Y4259D02*
G01X10692Y4129D01*
G01X10550Y4144D01*
G01X10634Y4028D01*
G01X10581Y3956D01*
G01X10623D01*
G01X10662Y4009D01*
G01X10677Y4028D01*
G01X10662Y4049D01*
G01X10623Y4102D01*
G01X10688Y4094D01*
G01X10713Y4092D01*
G01X10750Y4174D01*
G01X10776Y4114D01*
G01X10786Y4091D01*
G01X10811Y4094D01*
G01X10876Y4102D01*
G01X10837Y4049D01*
G01X10822Y4028D01*
G01X10837Y4009D01*
G01X10876Y3956D01*
G01X10811Y3963D01*
G01X10786Y3965D01*
G01X10776Y3943D01*
G01X10750Y3883D01*
G01X10713Y3965D01*
G01X10688Y3963D01*
G01X10623Y3956D01*
G01X10581D01*
G01X10550Y3914D01*
G01X10692Y3929D01*
G01X10750Y3798D01*
G01X10807Y3929D01*
G01X10949Y3914D01*
G01X10865Y4028D01*
G01X10949Y4144D01*
G01X10807Y4129D01*
G37*
G36*
G01X11600Y4259D02*
G01X11542Y4129D01*
G01X11401Y4144D01*
G01X11485Y4028D01*
G01X11432Y3956D01*
G01X11474D01*
G01X11512Y4009D01*
G01X11527Y4028D01*
G01X11512Y4049D01*
G01X11474Y4102D01*
G01X11539Y4094D01*
G01X11564Y4092D01*
G01X11600Y4174D01*
G01X11626Y4114D01*
G01X11636Y4091D01*
G01X11661Y4094D01*
G01X11726Y4102D01*
G01X11688Y4049D01*
G01X11673Y4028D01*
G01X11688Y4009D01*
G01X11726Y3956D01*
G01X11661Y3963D01*
G01X11636Y3965D01*
G01X11626Y3943D01*
G01X11600Y3883D01*
G01X11564Y3965D01*
G01X11539Y3963D01*
G01X11474Y3956D01*
G01X11432D01*
G01X11401Y3914D01*
G01X11542Y3929D01*
G01X11600Y3798D01*
G01X11658Y3929D01*
G01X11799Y3914D01*
G01X11715Y4028D01*
G01X11799Y4144D01*
G01X11658Y4129D01*
G37*
G36*
G01X10750Y2908D02*
G01X10692Y2778D01*
G01X10550Y2793D01*
G01X10634Y2678D01*
G01X10581Y2605D01*
G01X10623D01*
G01X10662Y2658D01*
G01X10677Y2678D01*
G01X10662Y2698D01*
G01X10623Y2751D01*
G01X10688Y2744D01*
G01X10713Y2741D01*
G01X10750Y2823D01*
G01X10776Y2764D01*
G01X10786Y2741D01*
G01X10811Y2744D01*
G01X10876Y2751D01*
G01X10837Y2698D01*
G01X10822Y2678D01*
G01X10837Y2658D01*
G01X10876Y2605D01*
G01X10811Y2612D01*
G01X10786Y2615D01*
G01X10776Y2592D01*
G01X10750Y2532D01*
G01X10713Y2615D01*
G01X10688Y2612D01*
G01X10623Y2605D01*
G01X10581D01*
G01X10550Y2563D01*
G01X10692Y2578D01*
G01X10750Y2448D01*
G01X10807Y2578D01*
G01X10949Y2563D01*
G01X10865Y2678D01*
G01X10949Y2793D01*
G01X10807Y2778D01*
G37*
G36*
G01X11600Y2908D02*
G01X11542Y2778D01*
G01X11401Y2793D01*
G01X11485Y2678D01*
G01X11432Y2605D01*
G01X11474D01*
G01X11512Y2658D01*
G01X11527Y2678D01*
G01X11512Y2698D01*
G01X11474Y2751D01*
G01X11539Y2744D01*
G01X11564Y2741D01*
G01X11600Y2823D01*
G01X11626Y2764D01*
G01X11636Y2741D01*
G01X11661Y2744D01*
G01X11726Y2751D01*
G01X11688Y2698D01*
G01X11673Y2678D01*
G01X11688Y2658D01*
G01X11726Y2605D01*
G01X11661Y2612D01*
G01X11636Y2615D01*
G01X11626Y2592D01*
G01X11600Y2532D01*
G01X11564Y2615D01*
G01X11539Y2612D01*
G01X11474Y2605D01*
G01X11432D01*
G01X11401Y2563D01*
G01X11542Y2578D01*
G01X11600Y2448D01*
G01X11658Y2578D01*
G01X11799Y2563D01*
G01X11715Y2678D01*
G01X11799Y2793D01*
G01X11658Y2778D01*
G37*
G36*
G01X17945Y20183D02*
G01X17888Y20053D01*
G01X17746Y20069D01*
G01X17830Y19953D01*
G01X17777Y19881D01*
G01X17819D01*
G01X17858Y19933D01*
G01X17872Y19953D01*
G01X17858Y19974D01*
G01X17819Y20026D01*
G01X17884Y20019D01*
G01X17909Y20016D01*
G01X17919Y20039D01*
G01X17945Y20099D01*
G01X17972Y20039D01*
G01X17982Y20016D01*
G01X18007Y20019D01*
G01X18072Y20026D01*
G01X18033Y19974D01*
G01X18018Y19953D01*
G01X18033Y19933D01*
G01X18072Y19881D01*
G01X18007Y19888D01*
G01X17982Y19890D01*
G01X17972Y19867D01*
G01X17945Y19807D01*
G01X17919Y19867D01*
G01X17909Y19890D01*
G01X17884Y19888D01*
G01X17819Y19881D01*
G01X17777D01*
G01X17746Y19838D01*
G01X17888Y19854D01*
G01X17945Y19723D01*
G01X18003Y19854D01*
G01X18145Y19838D01*
G01X18060Y19953D01*
G01X18145Y20069D01*
G01X18003Y20053D01*
G37*
G36*
G01X29013Y15719D02*
G01X28955Y15588D01*
G01X28814Y15604D01*
G01X28898Y15488D01*
G01X28845Y15416D01*
G01X28887D01*
G01X28926Y15468D01*
G01X28940Y15488D01*
G01X28926Y15509D01*
G01X28887Y15562D01*
G01X28952Y15554D01*
G01X28977Y15551D01*
G01X28987Y15574D01*
G01X29013Y15634D01*
G01X29039Y15574D01*
G01X29049Y15551D01*
G01X29074Y15554D01*
G01X29139Y15561D01*
G01X29101Y15509D01*
G01X29086Y15488D01*
G01X29101Y15468D01*
G01X29139Y15416D01*
G01X29074Y15423D01*
G01X29049Y15425D01*
G01X29039Y15403D01*
G01X29013Y15343D01*
G01X28987Y15403D01*
G01X28977Y15425D01*
G01X28952Y15423D01*
G01X28887Y15416D01*
G01X28845D01*
G01X28814Y15374D01*
G01X28955Y15389D01*
G01X29013Y15258D01*
G01X29071Y15389D01*
G01X29213Y15374D01*
G01X29128Y15488D01*
G01X29213Y15604D01*
G01X29071Y15588D01*
G37*
G36*
G01X29079Y16806D02*
G01X29022Y16676D01*
G01X28880Y16691D01*
G01X28964Y16576D01*
G01X28911Y16503D01*
G01X28953D01*
G01X28992Y16556D01*
G01X29006Y16576D01*
G01X28992Y16596D01*
G01X28953Y16649D01*
G01X29017Y16642D01*
G01X29042Y16639D01*
G01X29053Y16661D01*
G01X29079Y16721D01*
G01X29105Y16661D01*
G01X29116Y16639D01*
G01X29140Y16642D01*
G01X29205Y16649D01*
G01X29166Y16596D01*
G01X29152Y16576D01*
G01X29166Y16556D01*
G01X29205Y16503D01*
G01X29140Y16510D01*
G01X29116Y16513D01*
G01X29079Y16430D01*
G01X29042Y16513D01*
G01X29017Y16510D01*
G01X28953Y16503D01*
G01X28911D01*
G01X28880Y16461D01*
G01X29022Y16476D01*
G01X29079Y16345D01*
G01X29136Y16476D01*
G01X29279Y16461D01*
G01X29194Y16576D01*
G01X29279Y16691D01*
G01X29136Y16676D01*
G37*
G36*
G01X5207Y6199D02*
G01X5150Y6069D01*
G01X5008Y6084D01*
G01X5092Y5969D01*
G01X5039Y5896D01*
G01X5081D01*
G01X5120Y5949D01*
G01X5134Y5969D01*
G01X5120Y5989D01*
G01X5081Y6042D01*
G01X5146Y6035D01*
G01X5170Y6032D01*
G01X5181Y6055D01*
G01X5207Y6115D01*
G01X5233Y6055D01*
G01X5244Y6032D01*
G01X5268Y6035D01*
G01X5333Y6042D01*
G01X5294Y5989D01*
G01X5280Y5969D01*
G01X5294Y5949D01*
G01X5333Y5896D01*
G01X5268Y5903D01*
G01X5244Y5906D01*
G01X5233Y5883D01*
G01X5207Y5823D01*
G01X5181Y5883D01*
G01X5170Y5906D01*
G01X5146Y5903D01*
G01X5081Y5896D01*
G01X5039D01*
G01X5008Y5854D01*
G01X5150Y5869D01*
G01X5207Y5739D01*
G01X5264Y5869D01*
G01X5406Y5854D01*
G01X5322Y5969D01*
G01X5406Y6084D01*
G01X5264Y6069D01*
G37*
G36*
G01X4318Y7596D02*
G01X4261Y7466D01*
G01X4119Y7481D01*
G01X4203Y7366D01*
G01X4150Y7293D01*
G01X4192D01*
G01X4231Y7346D01*
G01X4245Y7366D01*
G01X4231Y7386D01*
G01X4192Y7439D01*
G01X4257Y7432D01*
G01X4281Y7429D01*
G01X4292Y7452D01*
G01X4318Y7512D01*
G01X4344Y7452D01*
G01X4355Y7429D01*
G01X4379Y7432D01*
G01X4444Y7439D01*
G01X4405Y7386D01*
G01X4391Y7366D01*
G01X4405Y7346D01*
G01X4444Y7293D01*
G01X4379Y7300D01*
G01X4355Y7303D01*
G01X4344Y7280D01*
G01X4318Y7220D01*
G01X4292Y7280D01*
G01X4281Y7303D01*
G01X4257Y7300D01*
G01X4192Y7293D01*
G01X4150D01*
G01X4119Y7251D01*
G01X4261Y7266D01*
G01X4318Y7136D01*
G01X4375Y7266D01*
G01X4517Y7251D01*
G01X4433Y7366D01*
G01X4517Y7481D01*
G01X4375Y7466D01*
G37*
G36*
G01X19939Y19661D02*
G01X19882Y19531D01*
G01X19740Y19546D01*
G01X19824Y19431D01*
G01X19771Y19358D01*
G01X19813D01*
G01X19852Y19411D01*
G01X19866Y19431D01*
G01X19852Y19451D01*
G01X19813Y19504D01*
G01X19878Y19497D01*
G01X19902Y19494D01*
G01X19913Y19517D01*
G01X19939Y19577D01*
G01X19965Y19517D01*
G01X19976Y19494D01*
G01X20000Y19497D01*
G01X20065Y19504D01*
G01X20026Y19451D01*
G01X20012Y19431D01*
G01X20026Y19411D01*
G01X20065Y19358D01*
G01X20000Y19365D01*
G01X19976Y19368D01*
G01X19965Y19345D01*
G01X19939Y19285D01*
G01X19913Y19345D01*
G01X19902Y19368D01*
G01X19878Y19365D01*
G01X19813Y19358D01*
G01X19771D01*
G01X19740Y19316D01*
G01X19882Y19331D01*
G01X19939Y19201D01*
G01X19996Y19331D01*
G01X20139Y19316D01*
G01X20054Y19431D01*
G01X20139Y19546D01*
G01X19996Y19531D01*
G37*
G36*
G01X19939Y18899D02*
G01X19882Y18769D01*
G01X19740Y18784D01*
G01X19824Y18669D01*
G01X19771Y18596D01*
G01X19813D01*
G01X19852Y18649D01*
G01X19866Y18669D01*
G01X19852Y18689D01*
G01X19813Y18742D01*
G01X19878Y18735D01*
G01X19902Y18732D01*
G01X19913Y18755D01*
G01X19939Y18815D01*
G01X19965Y18755D01*
G01X19976Y18732D01*
G01X20000Y18735D01*
G01X20065Y18742D01*
G01X20026Y18689D01*
G01X20012Y18669D01*
G01X20026Y18649D01*
G01X20065Y18596D01*
G01X20000Y18603D01*
G01X19976Y18606D01*
G01X19965Y18583D01*
G01X19939Y18523D01*
G01X19913Y18583D01*
G01X19902Y18606D01*
G01X19878Y18603D01*
G01X19813Y18596D01*
G01X19771D01*
G01X19740Y18554D01*
G01X19882Y18569D01*
G01X19939Y18439D01*
G01X19996Y18569D01*
G01X20139Y18554D01*
G01X20054Y18669D01*
G01X20139Y18784D01*
G01X19996Y18769D01*
G37*
G36*
G01X13898Y4167D02*
G01X13840Y4037D01*
G01X13699Y4052D01*
G01X13783Y3936D01*
G01X13730Y3864D01*
G01X13772D01*
G01X13810Y3917D01*
G01X13825Y3936D01*
G01X13810Y3957D01*
G01X13772Y4010D01*
G01X13836Y4003D01*
G01X13861Y4000D01*
G01X13871Y4022D01*
G01X13898Y4082D01*
G01X13924Y4022D01*
G01X13934Y3999D01*
G01X13959Y4003D01*
G01X14024Y4010D01*
G01X13985Y3957D01*
G01X13971Y3936D01*
G01X13985Y3917D01*
G01X14024Y3864D01*
G01X13959Y3871D01*
G01X13934Y3874D01*
G01X13898Y3791D01*
G01X13861Y3874D01*
G01X13836Y3871D01*
G01X13772Y3864D01*
G01X13730D01*
G01X13699Y3822D01*
G01X13840Y3837D01*
G01X13898Y3706D01*
G01X13955Y3837D01*
G01X14098Y3822D01*
G01X14013Y3936D01*
G01X14098Y4052D01*
G01X13955Y4037D01*
G37*
G36*
G01X32639Y19788D02*
G01X32582Y19658D01*
G01X32440Y19673D01*
G01X32524Y19558D01*
G01X32471Y19485D01*
G01X32513D01*
G01X32552Y19538D01*
G01X32566Y19558D01*
G01X32552Y19578D01*
G01X32513Y19631D01*
G01X32578Y19624D01*
G01X32602Y19621D01*
G01X32613Y19644D01*
G01X32639Y19704D01*
G01X32665Y19644D01*
G01X32676Y19621D01*
G01X32700Y19624D01*
G01X32765Y19631D01*
G01X32726Y19578D01*
G01X32712Y19558D01*
G01X32726Y19538D01*
G01X32765Y19485D01*
G01X32700Y19492D01*
G01X32676Y19495D01*
G01X32665Y19472D01*
G01X32639Y19412D01*
G01X32613Y19472D01*
G01X32602Y19495D01*
G01X32578Y19492D01*
G01X32513Y19485D01*
G01X32471D01*
G01X32440Y19443D01*
G01X32582Y19458D01*
G01X32639Y19328D01*
G01X32696Y19458D01*
G01X32839Y19443D01*
G01X32754Y19558D01*
G01X32839Y19673D01*
G01X32696Y19658D01*
G37*
G36*
G01X33147Y21820D02*
G01X33090Y21690D01*
G01X32948Y21705D01*
G01X33032Y21590D01*
G01X32979Y21517D01*
G01X33021D01*
G01X33060Y21570D01*
G01X33074Y21590D01*
G01X33060Y21610D01*
G01X33021Y21663D01*
G01X33086Y21656D01*
G01X33110Y21653D01*
G01X33121Y21676D01*
G01X33147Y21736D01*
G01X33173Y21676D01*
G01X33184Y21653D01*
G01X33208Y21656D01*
G01X33273Y21663D01*
G01X33234Y21610D01*
G01X33220Y21590D01*
G01X33234Y21570D01*
G01X33273Y21517D01*
G01X33208Y21524D01*
G01X33184Y21527D01*
G01X33173Y21504D01*
G01X33147Y21444D01*
G01X33121Y21504D01*
G01X33110Y21527D01*
G01X33086Y21524D01*
G01X33021Y21517D01*
G01X32979D01*
G01X32948Y21475D01*
G01X33090Y21490D01*
G01X33147Y21360D01*
G01X33204Y21490D01*
G01X33347Y21475D01*
G01X33262Y21590D01*
G01X33347Y21705D01*
G01X33204Y21690D01*
G37*
G36*
G01X20910Y19815D02*
G01X20853Y19684D01*
G01X20711Y19700D01*
G01X20795Y19585D01*
G01X20742Y19512D01*
G01X20784D01*
G01X20823Y19565D01*
G01X20838Y19585D01*
G01X20823Y19605D01*
G01X20784Y19658D01*
G01X20849Y19651D01*
G01X20874Y19648D01*
G01X20884Y19671D01*
G01X20910Y19731D01*
G01X20937Y19671D01*
G01X20947Y19648D01*
G01X20972Y19651D01*
G01X21037Y19658D01*
G01X20998Y19605D01*
G01X20983Y19585D01*
G01X20998Y19565D01*
G01X21037Y19512D01*
G01X20972Y19519D01*
G01X20947Y19522D01*
G01X20937Y19499D01*
G01X20910Y19439D01*
G01X20884Y19499D01*
G01X20874Y19522D01*
G01X20849Y19519D01*
G01X20784Y19512D01*
G01X20742D01*
G01X20711Y19470D01*
G01X20853Y19485D01*
G01X20910Y19355D01*
G01X20968Y19485D01*
G01X21110Y19470D01*
G01X21026Y19585D01*
G01X21110Y19700D01*
G01X20968Y19684D01*
G37*
G36*
G01X22987Y26011D02*
G01X22930Y25881D01*
G01X22788Y25896D01*
G01X22872Y25781D01*
G01X22819Y25708D01*
G01X22861D01*
G01X22900Y25761D01*
G01X22914Y25781D01*
G01X22900Y25801D01*
G01X22861Y25854D01*
G01X22926Y25847D01*
G01X22950Y25844D01*
G01X22961Y25867D01*
G01X22987Y25927D01*
G01X23013Y25867D01*
G01X23024Y25844D01*
G01X23048Y25847D01*
G01X23113Y25854D01*
G01X23074Y25801D01*
G01X23060Y25781D01*
G01X23074Y25761D01*
G01X23113Y25708D01*
G01X23048Y25715D01*
G01X23024Y25718D01*
G01X23013Y25695D01*
G01X22987Y25635D01*
G01X22961Y25695D01*
G01X22950Y25718D01*
G01X22926Y25715D01*
G01X22861Y25708D01*
G01X22819D01*
G01X22788Y25666D01*
G01X22930Y25681D01*
G01X22987Y25551D01*
G01X23044Y25681D01*
G01X23187Y25666D01*
G01X23102Y25781D01*
G01X23187Y25896D01*
G01X23044Y25881D01*
G37*
G36*
G01X6223Y2389D02*
G01X6166Y2259D01*
G01X6024Y2274D01*
G01X6108Y2159D01*
G01X6055Y2086D01*
G01X6097D01*
G01X6136Y2139D01*
G01X6150Y2159D01*
G01X6136Y2179D01*
G01X6097Y2232D01*
G01X6162Y2225D01*
G01X6186Y2222D01*
G01X6197Y2245D01*
G01X6223Y2305D01*
G01X6249Y2245D01*
G01X6260Y2222D01*
G01X6284Y2225D01*
G01X6349Y2232D01*
G01X6310Y2179D01*
G01X6296Y2159D01*
G01X6310Y2139D01*
G01X6349Y2086D01*
G01X6284Y2093D01*
G01X6260Y2096D01*
G01X6249Y2073D01*
G01X6223Y2013D01*
G01X6197Y2073D01*
G01X6186Y2096D01*
G01X6162Y2093D01*
G01X6097Y2086D01*
G01X6055D01*
G01X6024Y2044D01*
G01X6166Y2059D01*
G01X6223Y1929D01*
G01X6280Y2059D01*
G01X6422Y2044D01*
G01X6338Y2159D01*
G01X6422Y2274D01*
G01X6280Y2259D01*
G37*
G36*
G01X31654Y6952D02*
G01X31597Y6821D01*
G01X31455Y6837D01*
G01X31539Y6722D01*
G01X31486Y6649D01*
G01X31528D01*
G01X31567Y6702D01*
G01X31581Y6722D01*
G01X31567Y6742D01*
G01X31528Y6795D01*
G01X31593Y6787D01*
G01X31617Y6785D01*
G01X31654Y6867D01*
G01X31691Y6785D01*
G01X31715Y6787D01*
G01X31780Y6795D01*
G01X31741Y6742D01*
G01X31727Y6722D01*
G01X31742Y6702D01*
G01X31780Y6649D01*
G01X31715Y6656D01*
G01X31691Y6658D01*
G01X31654Y6576D01*
G01X31628Y6636D01*
G01X31617Y6658D01*
G01X31593Y6656D01*
G01X31528Y6649D01*
G01X31486D01*
G01X31455Y6607D01*
G01X31597Y6622D01*
G01X31654Y6491D01*
G01X31711Y6622D01*
G01X31854Y6607D01*
G01X31769Y6722D01*
G01X31854Y6837D01*
G01X31711Y6821D01*
G37*
G36*
G01X3175Y5945D02*
G01X3118Y5815D01*
G01X2976Y5830D01*
G01X3060Y5715D01*
G01X3007Y5642D01*
G01X3049D01*
G01X3088Y5695D01*
G01X3102Y5715D01*
G01X3088Y5735D01*
G01X3049Y5788D01*
G01X3114Y5781D01*
G01X3138Y5778D01*
G01X3149Y5801D01*
G01X3175Y5861D01*
G01X3201Y5801D01*
G01X3212Y5778D01*
G01X3236Y5781D01*
G01X3301Y5788D01*
G01X3262Y5735D01*
G01X3248Y5715D01*
G01X3262Y5695D01*
G01X3301Y5642D01*
G01X3236Y5649D01*
G01X3212Y5652D01*
G01X3201Y5629D01*
G01X3175Y5569D01*
G01X3149Y5629D01*
G01X3138Y5652D01*
G01X3114Y5649D01*
G01X3049Y5642D01*
G01X3007D01*
G01X2976Y5600D01*
G01X3118Y5615D01*
G01X3175Y5485D01*
G01X3232Y5615D01*
G01X3374Y5600D01*
G01X3290Y5715D01*
G01X3374Y5830D01*
G01X3232Y5815D01*
G37*
G36*
G01X25307Y17627D02*
G01X25249Y17497D01*
G01X25107Y17512D01*
G01X25192Y17397D01*
G01X25138Y17324D01*
G01X25181D01*
G01X25219Y17377D01*
G01X25234Y17397D01*
G01X25219Y17417D01*
G01X25181Y17470D01*
G01X25246Y17463D01*
G01X25270Y17460D01*
G01X25281Y17483D01*
G01X25307Y17543D01*
G01X25333Y17483D01*
G01X25343Y17460D01*
G01X25368Y17463D01*
G01X25433Y17470D01*
G01X25394Y17417D01*
G01X25380Y17397D01*
G01X25394Y17377D01*
G01X25433Y17324D01*
G01X25368Y17331D01*
G01X25343Y17334D01*
G01X25333Y17311D01*
G01X25307Y17251D01*
G01X25281Y17311D01*
G01X25270Y17334D01*
G01X25246Y17331D01*
G01X25181Y17324D01*
G01X25138D01*
G01X25107Y17282D01*
G01X25249Y17297D01*
G01X25307Y17167D01*
G01X25364Y17297D01*
G01X25506Y17282D01*
G01X25422Y17397D01*
G01X25506Y17512D01*
G01X25364Y17497D01*
G37*
G36*
G01X24499Y17627D02*
G01X24441Y17497D01*
G01X24300Y17512D01*
G01X24384Y17397D01*
G01X24331Y17324D01*
G01X24373D01*
G01X24411Y17377D01*
G01X24426Y17397D01*
G01X24411Y17417D01*
G01X24373Y17470D01*
G01X24438Y17463D01*
G01X24463Y17460D01*
G01X24473Y17483D01*
G01X24499Y17543D01*
G01X24526Y17483D01*
G01X24535Y17460D01*
G01X24560Y17463D01*
G01X24625Y17470D01*
G01X24587Y17417D01*
G01X24572Y17397D01*
G01X24587Y17377D01*
G01X24625Y17324D01*
G01X24560Y17331D01*
G01X24535Y17334D01*
G01X24526Y17311D01*
G01X24499Y17251D01*
G01X24473Y17311D01*
G01X24463Y17334D01*
G01X24438Y17331D01*
G01X24373Y17324D01*
G01X24331D01*
G01X24300Y17282D01*
G01X24441Y17297D01*
G01X24499Y17167D01*
G01X24557Y17297D01*
G01X24698Y17282D01*
G01X24614Y17397D01*
G01X24698Y17512D01*
G01X24557Y17497D01*
G37*
G36*
G01X5461Y23598D02*
G01X5404Y23468D01*
G01X5262Y23483D01*
G01X5346Y23368D01*
G01X5293Y23295D01*
G01X5335D01*
G01X5374Y23348D01*
G01X5388Y23368D01*
G01X5374Y23388D01*
G01X5335Y23441D01*
G01X5400Y23434D01*
G01X5424Y23431D01*
G01X5435Y23454D01*
G01X5461Y23514D01*
G01X5487Y23454D01*
G01X5498Y23431D01*
G01X5522Y23434D01*
G01X5587Y23441D01*
G01X5548Y23388D01*
G01X5534Y23368D01*
G01X5548Y23348D01*
G01X5587Y23295D01*
G01X5522Y23302D01*
G01X5498Y23305D01*
G01X5487Y23282D01*
G01X5461Y23222D01*
G01X5435Y23282D01*
G01X5424Y23305D01*
G01X5400Y23302D01*
G01X5335Y23295D01*
G01X5293D01*
G01X5262Y23253D01*
G01X5404Y23268D01*
G01X5461Y23138D01*
G01X5518Y23268D01*
G01X5660Y23253D01*
G01X5576Y23368D01*
G01X5660Y23483D01*
G01X5518Y23468D01*
G37*
G36*
G01X3951Y22081D02*
G01X3894Y21950D01*
G01X3752Y21965D01*
G01X3836Y21851D01*
G01X3783Y21777D01*
G01X3825D01*
G01X3864Y21830D01*
G01X3879Y21851D01*
G01X3864Y21870D01*
G01X3825Y21923D01*
G01X3890Y21916D01*
G01X3915Y21914D01*
G01X3951Y21996D01*
G01X3988Y21914D01*
G01X4013Y21916D01*
G01X4077Y21923D01*
G01X4039Y21870D01*
G01X4024Y21851D01*
G01X4039Y21830D01*
G01X4078Y21777D01*
G01X4013Y21785D01*
G01X3988Y21787D01*
G01X3951Y21705D01*
G01X3915Y21787D01*
G01X3890Y21785D01*
G01X3825Y21777D01*
G01X3783D01*
G01X3752Y21735D01*
G01X3894Y21751D01*
G01X3951Y21620D01*
G01X4009Y21751D01*
G01X4151Y21735D01*
G01X4067Y21851D01*
G01X4151Y21965D01*
G01X4009Y21950D01*
G37*
G36*
G01X12065Y15343D02*
G01X12008Y15213D01*
G01X11866Y15228D01*
G01X11950Y15113D01*
G01X11897Y15040D01*
G01X11939D01*
G01X11978Y15093D01*
G01X11992Y15113D01*
G01X11978Y15133D01*
G01X11939Y15186D01*
G01X12004Y15179D01*
G01X12028Y15176D01*
G01X12039Y15199D01*
G01X12065Y15259D01*
G01X12091Y15199D01*
G01X12102Y15176D01*
G01X12126Y15179D01*
G01X12191Y15186D01*
G01X12152Y15133D01*
G01X12138Y15113D01*
G01X12152Y15093D01*
G01X12191Y15040D01*
G01X12126Y15047D01*
G01X12102Y15050D01*
G01X12091Y15027D01*
G01X12065Y14967D01*
G01X12039Y15027D01*
G01X12028Y15050D01*
G01X12004Y15047D01*
G01X11939Y15040D01*
G01X11897D01*
G01X11866Y14998D01*
G01X12008Y15013D01*
G01X12065Y14883D01*
G01X12122Y15013D01*
G01X12265Y14998D01*
G01X12180Y15113D01*
G01X12265Y15228D01*
G01X12122Y15213D01*
G37*
G36*
G01X19237Y17199D02*
G01X19180Y17068D01*
G01X19038Y17084D01*
G01X19122Y16969D01*
G01X19069Y16896D01*
G01X19111D01*
G01X19150Y16948D01*
G01X19164Y16969D01*
G01X19150Y16989D01*
G01X19111Y17041D01*
G01X19176Y17034D01*
G01X19201Y17032D01*
G01X19237Y17114D01*
G01X19264Y17055D01*
G01X19274Y17032D01*
G01X19298Y17034D01*
G01X19363Y17041D01*
G01X19325Y16989D01*
G01X19310Y16969D01*
G01X19325Y16948D01*
G01X19363Y16896D01*
G01X19298Y16903D01*
G01X19274Y16905D01*
G01X19264Y16882D01*
G01X19237Y16823D01*
G01X19201Y16905D01*
G01X19176Y16903D01*
G01X19111Y16896D01*
G01X19069D01*
G01X19038Y16853D01*
G01X19180Y16869D01*
G01X19237Y16738D01*
G01X19295Y16869D01*
G01X19437Y16853D01*
G01X19352Y16969D01*
G01X19437Y17084D01*
G01X19295Y17068D01*
G37*
G36*
G01X16129Y19407D02*
G01X16072Y19277D01*
G01X15930Y19292D01*
G01X16014Y19177D01*
G01X15961Y19104D01*
G01X16003D01*
G01X16042Y19157D01*
G01X16056Y19177D01*
G01X16042Y19197D01*
G01X16003Y19250D01*
G01X16068Y19243D01*
G01X16092Y19240D01*
G01X16103Y19263D01*
G01X16129Y19323D01*
G01X16155Y19263D01*
G01X16166Y19240D01*
G01X16190Y19243D01*
G01X16255Y19250D01*
G01X16216Y19197D01*
G01X16202Y19177D01*
G01X16216Y19157D01*
G01X16255Y19104D01*
G01X16190Y19111D01*
G01X16166Y19114D01*
G01X16155Y19091D01*
G01X16129Y19031D01*
G01X16103Y19091D01*
G01X16092Y19114D01*
G01X16068Y19111D01*
G01X16003Y19104D01*
G01X15961D01*
G01X15930Y19062D01*
G01X16072Y19077D01*
G01X16129Y18947D01*
G01X16186Y19077D01*
G01X16329Y19062D01*
G01X16244Y19177D01*
G01X16329Y19292D01*
G01X16186Y19277D01*
G37*
G36*
G01X20537Y3529D02*
G01X20480Y3398D01*
G01X20338Y3413D01*
G01X20422Y3298D01*
G01X20369Y3225D01*
G01X20411D01*
G01X20450Y3278D01*
G01X20464Y3298D01*
G01X20450Y3318D01*
G01X20411Y3371D01*
G01X20476Y3364D01*
G01X20501Y3361D01*
G01X20511Y3384D01*
G01X20537Y3444D01*
G01X20563Y3384D01*
G01X20573Y3361D01*
G01X20598Y3364D01*
G01X20663Y3371D01*
G01X20625Y3318D01*
G01X20610Y3298D01*
G01X20625Y3278D01*
G01X20663Y3225D01*
G01X20598Y3232D01*
G01X20573Y3235D01*
G01X20564Y3213D01*
G01X20537Y3153D01*
G01X20511Y3213D01*
G01X20501Y3235D01*
G01X20476Y3232D01*
G01X20411Y3225D01*
G01X20369D01*
G01X20338Y3183D01*
G01X20480Y3199D01*
G01X20537Y3068D01*
G01X20595Y3199D01*
G01X20737Y3183D01*
G01X20652Y3298D01*
G01X20737Y3413D01*
G01X20595Y3398D01*
G37*
G36*
G01X21172Y3529D02*
G01X21115Y3398D01*
G01X20973Y3413D01*
G01X21057Y3298D01*
G01X21004Y3225D01*
G01X21046D01*
G01X21085Y3278D01*
G01X21099Y3298D01*
G01X21085Y3318D01*
G01X21046Y3371D01*
G01X21111Y3364D01*
G01X21136Y3361D01*
G01X21146Y3384D01*
G01X21172Y3444D01*
G01X21198Y3384D01*
G01X21208Y3361D01*
G01X21233Y3364D01*
G01X21298Y3371D01*
G01X21260Y3318D01*
G01X21245Y3298D01*
G01X21260Y3278D01*
G01X21298Y3225D01*
G01X21233Y3232D01*
G01X21208Y3235D01*
G01X21199Y3213D01*
G01X21172Y3153D01*
G01X21146Y3213D01*
G01X21136Y3235D01*
G01X21111Y3232D01*
G01X21046Y3225D01*
G01X21004D01*
G01X20973Y3183D01*
G01X21115Y3199D01*
G01X21172Y3068D01*
G01X21230Y3199D01*
G01X21372Y3183D01*
G01X21287Y3298D01*
G01X21372Y3413D01*
G01X21230Y3398D01*
G37*
G36*
G01X21172Y2894D02*
G01X21115Y2763D01*
G01X20973Y2778D01*
G01X21057Y2663D01*
G01X21004Y2590D01*
G01X21046D01*
G01X21085Y2643D01*
G01X21099Y2663D01*
G01X21085Y2683D01*
G01X21046Y2736D01*
G01X21111Y2729D01*
G01X21136Y2726D01*
G01X21146Y2749D01*
G01X21172Y2809D01*
G01X21198Y2749D01*
G01X21208Y2726D01*
G01X21233Y2729D01*
G01X21298Y2736D01*
G01X21260Y2683D01*
G01X21245Y2663D01*
G01X21260Y2643D01*
G01X21298Y2590D01*
G01X21233Y2597D01*
G01X21208Y2600D01*
G01X21199Y2578D01*
G01X21172Y2518D01*
G01X21146Y2578D01*
G01X21136Y2600D01*
G01X21111Y2597D01*
G01X21046Y2590D01*
G01X21004D01*
G01X20973Y2548D01*
G01X21115Y2564D01*
G01X21172Y2433D01*
G01X21230Y2564D01*
G01X21372Y2548D01*
G01X21287Y2663D01*
G01X21372Y2778D01*
G01X21230Y2763D01*
G37*
G36*
G01X21172Y2259D02*
G01X21115Y2128D01*
G01X20973Y2143D01*
G01X21057Y2028D01*
G01X21004Y1955D01*
G01X21046D01*
G01X21085Y2008D01*
G01X21099Y2028D01*
G01X21085Y2048D01*
G01X21046Y2101D01*
G01X21111Y2094D01*
G01X21136Y2091D01*
G01X21146Y2114D01*
G01X21172Y2174D01*
G01X21198Y2114D01*
G01X21208Y2091D01*
G01X21233Y2094D01*
G01X21298Y2101D01*
G01X21260Y2048D01*
G01X21245Y2028D01*
G01X21260Y2008D01*
G01X21298Y1955D01*
G01X21233Y1962D01*
G01X21208Y1965D01*
G01X21199Y1943D01*
G01X21172Y1883D01*
G01X21146Y1943D01*
G01X21136Y1965D01*
G01X21111Y1962D01*
G01X21046Y1955D01*
G01X21004D01*
G01X20973Y1913D01*
G01X21115Y1929D01*
G01X21172Y1798D01*
G01X21230Y1929D01*
G01X21372Y1913D01*
G01X21287Y2028D01*
G01X21372Y2143D01*
G01X21230Y2128D01*
G37*
G36*
G01X21642Y5489D02*
G01X21584Y5359D01*
G01X21443Y5374D01*
G01X21527Y5259D01*
G01X21474Y5186D01*
G01X21516D01*
G01X21554Y5239D01*
G01X21569Y5259D01*
G01X21554Y5279D01*
G01X21516Y5332D01*
G01X21581Y5325D01*
G01X21606Y5322D01*
G01X21642Y5405D01*
G01X21668Y5345D01*
G01X21678Y5322D01*
G01X21703Y5325D01*
G01X21768Y5332D01*
G01X21730Y5279D01*
G01X21715Y5259D01*
G01X21730Y5239D01*
G01X21768Y5186D01*
G01X21703Y5193D01*
G01X21678Y5196D01*
G01X21668Y5173D01*
G01X21642Y5114D01*
G01X21606Y5196D01*
G01X21581Y5193D01*
G01X21516Y5186D01*
G01X21474D01*
G01X21443Y5144D01*
G01X21584Y5159D01*
G01X21642Y5029D01*
G01X21700Y5159D01*
G01X21841Y5144D01*
G01X21757Y5259D01*
G01X21841Y5374D01*
G01X21700Y5359D01*
G37*
G36*
G01X21138Y10332D02*
G01X21080Y10201D01*
G01X20938Y10216D01*
G01X21023Y10102D01*
G01X20969Y10028D01*
G01X21011D01*
G01X21050Y10081D01*
G01X21065Y10102D01*
G01X21050Y10121D01*
G01X21011Y10174D01*
G01X21076Y10167D01*
G01X21101Y10165D01*
G01X21138Y10247D01*
G01X21164Y10187D01*
G01X21174Y10165D01*
G01X21199Y10167D01*
G01X21264Y10174D01*
G01X21225Y10121D01*
G01X21211Y10102D01*
G01X21225Y10081D01*
G01X21264Y10028D01*
G01X21199Y10036D01*
G01X21174Y10038D01*
G01X21164Y10015D01*
G01X21138Y9956D01*
G01X21101Y10038D01*
G01X21076Y10036D01*
G01X21011Y10028D01*
G01X20969D01*
G01X20938Y9986D01*
G01X21080Y10002D01*
G01X21138Y9871D01*
G01X21195Y10002D01*
G01X21337Y9986D01*
G01X21253Y10102D01*
G01X21337Y10216D01*
G01X21195Y10201D01*
G37*
G36*
G01X18852Y10332D02*
G01X18794Y10201D01*
G01X18652Y10216D01*
G01X18737Y10102D01*
G01X18683Y10028D01*
G01X18725D01*
G01X18764Y10081D01*
G01X18779Y10102D01*
G01X18764Y10121D01*
G01X18725Y10174D01*
G01X18790Y10167D01*
G01X18815Y10165D01*
G01X18852Y10247D01*
G01X18878Y10187D01*
G01X18888Y10165D01*
G01X18913Y10167D01*
G01X18978Y10174D01*
G01X18939Y10121D01*
G01X18925Y10102D01*
G01X18939Y10081D01*
G01X18978Y10028D01*
G01X18913Y10036D01*
G01X18888Y10038D01*
G01X18878Y10015D01*
G01X18852Y9956D01*
G01X18815Y10038D01*
G01X18790Y10036D01*
G01X18725Y10028D01*
G01X18683D01*
G01X18652Y9986D01*
G01X18794Y10002D01*
G01X18852Y9871D01*
G01X18909Y10002D01*
G01X19051Y9986D01*
G01X18967Y10102D01*
G01X19051Y10216D01*
G01X18909Y10201D01*
G37*
G36*
G01X19939Y11533D02*
G01X19882Y11403D01*
G01X19740Y11418D01*
G01X19824Y11303D01*
G01X19771Y11230D01*
G01X19813D01*
G01X19852Y11283D01*
G01X19866Y11303D01*
G01X19852Y11323D01*
G01X19813Y11376D01*
G01X19878Y11369D01*
G01X19902Y11366D01*
G01X19913Y11389D01*
G01X19939Y11449D01*
G01X19965Y11389D01*
G01X19976Y11366D01*
G01X20000Y11369D01*
G01X20065Y11376D01*
G01X20026Y11323D01*
G01X20012Y11303D01*
G01X20026Y11283D01*
G01X20065Y11230D01*
G01X20000Y11237D01*
G01X19976Y11240D01*
G01X19965Y11217D01*
G01X19939Y11157D01*
G01X19913Y11217D01*
G01X19902Y11240D01*
G01X19878Y11237D01*
G01X19813Y11230D01*
G01X19771D01*
G01X19740Y11188D01*
G01X19882Y11203D01*
G01X19939Y11073D01*
G01X19996Y11203D01*
G01X20139Y11188D01*
G01X20054Y11303D01*
G01X20139Y11418D01*
G01X19996Y11403D01*
G37*
G36*
G01X11430Y20207D02*
G01X11373Y20076D01*
G01X11231Y20091D01*
G01X11315Y19977D01*
G01X11261Y19903D01*
G01X11304D01*
G01X11343Y19956D01*
G01X11357Y19977D01*
G01X11343Y19996D01*
G01X11304Y20049D01*
G01X11369Y20042D01*
G01X11393Y20040D01*
G01X11404Y20062D01*
G01X11430Y20122D01*
G01X11456Y20062D01*
G01X11467Y20040D01*
G01X11491Y20042D01*
G01X11556Y20049D01*
G01X11517Y19996D01*
G01X11503Y19977D01*
G01X11517Y19956D01*
G01X11556Y19903D01*
G01X11491Y19911D01*
G01X11467Y19914D01*
G01X11456Y19891D01*
G01X11430Y19831D01*
G01X11404Y19891D01*
G01X11393Y19914D01*
G01X11369Y19911D01*
G01X11304Y19903D01*
G01X11261D01*
G01X11231Y19861D01*
G01X11373Y19877D01*
G01X11430Y19746D01*
G01X11487Y19877D01*
G01X11630Y19861D01*
G01X11545Y19977D01*
G01X11630Y20091D01*
G01X11487Y20076D01*
G37*
G36*
G01X29972Y9501D02*
G01X29915Y9371D01*
G01X29773Y9386D01*
G01X29857Y9271D01*
G01X29804Y9198D01*
G01X29846D01*
G01X29885Y9251D01*
G01X29899Y9271D01*
G01X29885Y9291D01*
G01X29846Y9344D01*
G01X29911Y9337D01*
G01X29935Y9334D01*
G01X29946Y9357D01*
G01X29972Y9417D01*
G01X29998Y9357D01*
G01X30009Y9334D01*
G01X30033Y9337D01*
G01X30098Y9344D01*
G01X30059Y9291D01*
G01X30045Y9271D01*
G01X30059Y9251D01*
G01X30098Y9198D01*
G01X30033Y9205D01*
G01X30009Y9208D01*
G01X29998Y9185D01*
G01X29972Y9125D01*
G01X29946Y9185D01*
G01X29935Y9208D01*
G01X29911Y9205D01*
G01X29846Y9198D01*
G01X29804D01*
G01X29773Y9156D01*
G01X29915Y9171D01*
G01X29972Y9041D01*
G01X30029Y9171D01*
G01X30172Y9156D01*
G01X30087Y9271D01*
G01X30172Y9386D01*
G01X30029Y9371D01*
G37*
G36*
G01X29748Y22582D02*
G01X29691Y22452D01*
G01X29549Y22467D01*
G01X29633Y22352D01*
G01X29580Y22279D01*
G01X29622D01*
G01X29661Y22332D01*
G01X29675Y22352D01*
G01X29661Y22372D01*
G01X29622Y22425D01*
G01X29687Y22418D01*
G01X29712Y22415D01*
G01X29722Y22438D01*
G01X29748Y22498D01*
G01X29775Y22438D01*
G01X29785Y22415D01*
G01X29809Y22418D01*
G01X29874Y22425D01*
G01X29836Y22372D01*
G01X29821Y22352D01*
G01X29836Y22332D01*
G01X29874Y22279D01*
G01X29809Y22286D01*
G01X29785Y22289D01*
G01X29775Y22266D01*
G01X29748Y22206D01*
G01X29722Y22266D01*
G01X29712Y22289D01*
G01X29687Y22286D01*
G01X29622Y22279D01*
G01X29580D01*
G01X29549Y22237D01*
G01X29691Y22252D01*
G01X29748Y22122D01*
G01X29806Y22252D01*
G01X29948Y22237D01*
G01X29863Y22352D01*
G01X29948Y22467D01*
G01X29806Y22452D01*
G37*
G36*
G01X30383Y22582D02*
G01X30326Y22452D01*
G01X30184Y22467D01*
G01X30268Y22352D01*
G01X30215Y22279D01*
G01X30257D01*
G01X30296Y22332D01*
G01X30310Y22352D01*
G01X30296Y22372D01*
G01X30257Y22425D01*
G01X30322Y22418D01*
G01X30347Y22415D01*
G01X30357Y22438D01*
G01X30383Y22498D01*
G01X30410Y22438D01*
G01X30420Y22415D01*
G01X30444Y22418D01*
G01X30509Y22425D01*
G01X30471Y22372D01*
G01X30456Y22352D01*
G01X30471Y22332D01*
G01X30509Y22279D01*
G01X30444Y22286D01*
G01X30420Y22289D01*
G01X30410Y22266D01*
G01X30383Y22206D01*
G01X30357Y22266D01*
G01X30347Y22289D01*
G01X30322Y22286D01*
G01X30257Y22279D01*
G01X30215D01*
G01X30184Y22237D01*
G01X30326Y22252D01*
G01X30383Y22122D01*
G01X30441Y22252D01*
G01X30583Y22237D01*
G01X30498Y22352D01*
G01X30583Y22467D01*
G01X30441Y22452D01*
G37*
G36*
G01X30075Y22068D02*
G01X30018Y21937D01*
G01X29876Y21952D01*
G01X29960Y21837D01*
G01X29907Y21764D01*
G01X29949D01*
G01X29988Y21817D01*
G01X30002Y21837D01*
G01X29988Y21857D01*
G01X29949Y21910D01*
G01X30014Y21903D01*
G01X30039Y21900D01*
G01X30049Y21923D01*
G01X30075Y21983D01*
G01X30112Y21900D01*
G01X30137Y21903D01*
G01X30202Y21910D01*
G01X30163Y21857D01*
G01X30148Y21837D01*
G01X30163Y21817D01*
G01X30202Y21764D01*
G01X30137Y21771D01*
G01X30112Y21774D01*
G01X30102Y21752D01*
G01X30075Y21692D01*
G01X30049Y21752D01*
G01X30039Y21774D01*
G01X30014Y21771D01*
G01X29949Y21764D01*
G01X29907D01*
G01X29876Y21722D01*
G01X30018Y21737D01*
G01X30075Y21607D01*
G01X30133Y21737D01*
G01X30275Y21722D01*
G01X30190Y21837D01*
G01X30275Y21952D01*
G01X30133Y21937D01*
G37*
G36*
G01X28321Y22582D02*
G01X28264Y22452D01*
G01X28122Y22467D01*
G01X28206Y22352D01*
G01X28153Y22279D01*
G01X28195D01*
G01X28234Y22332D01*
G01X28248Y22352D01*
G01X28234Y22372D01*
G01X28195Y22425D01*
G01X28260Y22418D01*
G01X28284Y22415D01*
G01X28295Y22438D01*
G01X28321Y22498D01*
G01X28347Y22438D01*
G01X28358Y22415D01*
G01X28382Y22418D01*
G01X28447Y22425D01*
G01X28408Y22372D01*
G01X28394Y22352D01*
G01X28408Y22332D01*
G01X28447Y22279D01*
G01X28382Y22286D01*
G01X28358Y22289D01*
G01X28347Y22266D01*
G01X28321Y22206D01*
G01X28295Y22266D01*
G01X28284Y22289D01*
G01X28260Y22286D01*
G01X28195Y22279D01*
G01X28153D01*
G01X28122Y22237D01*
G01X28264Y22252D01*
G01X28321Y22122D01*
G01X28378Y22252D01*
G01X28521Y22237D01*
G01X28436Y22352D01*
G01X28521Y22467D01*
G01X28378Y22452D01*
G37*
G36*
G01X27940Y22074D02*
G01X27883Y21944D01*
G01X27741Y21959D01*
G01X27825Y21844D01*
G01X27772Y21771D01*
G01X27814D01*
G01X27853Y21824D01*
G01X27867Y21844D01*
G01X27853Y21864D01*
G01X27814Y21917D01*
G01X27879Y21910D01*
G01X27903Y21907D01*
G01X27914Y21930D01*
G01X27940Y21990D01*
G01X27966Y21930D01*
G01X27977Y21907D01*
G01X28001Y21910D01*
G01X28066Y21917D01*
G01X28027Y21864D01*
G01X28013Y21844D01*
G01X28027Y21824D01*
G01X28066Y21771D01*
G01X28001Y21778D01*
G01X27977Y21781D01*
G01X27966Y21758D01*
G01X27940Y21698D01*
G01X27914Y21758D01*
G01X27903Y21781D01*
G01X27879Y21778D01*
G01X27814Y21771D01*
G01X27772D01*
G01X27741Y21729D01*
G01X27883Y21744D01*
G01X27940Y21614D01*
G01X27997Y21744D01*
G01X28140Y21729D01*
G01X28055Y21844D01*
G01X28140Y21959D01*
G01X27997Y21944D01*
G37*
G36*
G01X26543Y27535D02*
G01X26486Y27405D01*
G01X26344Y27420D01*
G01X26428Y27305D01*
G01X26375Y27232D01*
G01X26417D01*
G01X26456Y27285D01*
G01X26470Y27305D01*
G01X26456Y27325D01*
G01X26417Y27378D01*
G01X26482Y27371D01*
G01X26506Y27368D01*
G01X26517Y27391D01*
G01X26543Y27451D01*
G01X26569Y27391D01*
G01X26580Y27368D01*
G01X26604Y27371D01*
G01X26669Y27378D01*
G01X26630Y27325D01*
G01X26616Y27305D01*
G01X26630Y27285D01*
G01X26669Y27232D01*
G01X26604Y27239D01*
G01X26580Y27242D01*
G01X26569Y27219D01*
G01X26543Y27159D01*
G01X26517Y27219D01*
G01X26506Y27242D01*
G01X26482Y27239D01*
G01X26417Y27232D01*
G01X26375D01*
G01X26344Y27190D01*
G01X26486Y27205D01*
G01X26543Y27075D01*
G01X26600Y27205D01*
G01X26743Y27190D01*
G01X26658Y27305D01*
G01X26743Y27420D01*
G01X26600Y27405D01*
G37*
G36*
G01X13290Y13184D02*
G01X13232Y13054D01*
G01X13090Y13069D01*
G01X13174Y12954D01*
G01X13121Y12881D01*
G01X13164D01*
G01X13202Y12934D01*
G01X13217Y12954D01*
G01X13202Y12974D01*
G01X13164Y13027D01*
G01X13228Y13020D01*
G01X13253Y13017D01*
G01X13263Y13040D01*
G01X13290Y13100D01*
G01X13316Y13040D01*
G01X13326Y13017D01*
G01X13351Y13020D01*
G01X13416Y13027D01*
G01X13377Y12974D01*
G01X13362Y12954D01*
G01X13377Y12934D01*
G01X13416Y12881D01*
G01X13351Y12888D01*
G01X13326Y12891D01*
G01X13316Y12868D01*
G01X13290Y12808D01*
G01X13263Y12868D01*
G01X13253Y12891D01*
G01X13228Y12888D01*
G01X13164Y12881D01*
G01X13121D01*
G01X13090Y12839D01*
G01X13232Y12854D01*
G01X13290Y12724D01*
G01X13347Y12854D01*
G01X13489Y12839D01*
G01X13405Y12954D01*
G01X13489Y13069D01*
G01X13347Y13054D01*
G37*
G36*
G01X11420Y11965D02*
G01X11362Y11834D01*
G01X11221Y11850D01*
G01X11305Y11735D01*
G01X11251Y11662D01*
G01X11294D01*
G01X11332Y11714D01*
G01X11347Y11735D01*
G01X11332Y11755D01*
G01X11294Y11807D01*
G01X11358Y11800D01*
G01X11383Y11798D01*
G01X11420Y11880D01*
G01X11456Y11798D01*
G01X11481Y11800D01*
G01X11546Y11807D01*
G01X11507Y11755D01*
G01X11492Y11735D01*
G01X11507Y11714D01*
G01X11546Y11662D01*
G01X11481Y11669D01*
G01X11456Y11671D01*
G01X11420Y11589D01*
G01X11393Y11649D01*
G01X11383Y11671D01*
G01X11358Y11669D01*
G01X11294Y11662D01*
G01X11251D01*
G01X11221Y11619D01*
G01X11362Y11635D01*
G01X11420Y11504D01*
G01X11477Y11635D01*
G01X11619Y11619D01*
G01X11535Y11735D01*
G01X11619Y11850D01*
G01X11477Y11834D01*
G37*
G36*
G01X10287Y12676D02*
G01X10230Y12546D01*
G01X10088Y12561D01*
G01X10172Y12446D01*
G01X10119Y12373D01*
G01X10161D01*
G01X10200Y12426D01*
G01X10214Y12446D01*
G01X10200Y12466D01*
G01X10161Y12519D01*
G01X10226Y12512D01*
G01X10250Y12509D01*
G01X10261Y12532D01*
G01X10287Y12592D01*
G01X10313Y12532D01*
G01X10324Y12509D01*
G01X10348Y12512D01*
G01X10413Y12519D01*
G01X10374Y12466D01*
G01X10360Y12446D01*
G01X10374Y12426D01*
G01X10413Y12373D01*
G01X10348Y12380D01*
G01X10324Y12383D01*
G01X10313Y12360D01*
G01X10287Y12300D01*
G01X10261Y12360D01*
G01X10250Y12383D01*
G01X10226Y12380D01*
G01X10161Y12373D01*
G01X10119D01*
G01X10088Y12331D01*
G01X10230Y12346D01*
G01X10287Y12216D01*
G01X10344Y12346D01*
G01X10487Y12331D01*
G01X10402Y12446D01*
G01X10487Y12561D01*
G01X10344Y12546D01*
G37*
G36*
G01X17911Y21641D02*
G01X17854Y21511D01*
G01X17712Y21527D01*
G01X17796Y21411D01*
G01X17743Y21339D01*
G01X17785D01*
G01X17824Y21391D01*
G01X17838Y21411D01*
G01X17824Y21432D01*
G01X17785Y21484D01*
G01X17850Y21477D01*
G01X17874Y21474D01*
G01X17885Y21497D01*
G01X17911Y21557D01*
G01X17937Y21497D01*
G01X17948Y21474D01*
G01X17973Y21477D01*
G01X18037Y21484D01*
G01X17999Y21432D01*
G01X17984Y21411D01*
G01X17999Y21391D01*
G01X18038Y21339D01*
G01X17973Y21346D01*
G01X17948Y21348D01*
G01X17937Y21325D01*
G01X17911Y21265D01*
G01X17885Y21325D01*
G01X17874Y21348D01*
G01X17850Y21346D01*
G01X17785Y21339D01*
G01X17743D01*
G01X17712Y21296D01*
G01X17854Y21312D01*
G01X17911Y21181D01*
G01X17969Y21312D01*
G01X18111Y21296D01*
G01X18026Y21411D01*
G01X18111Y21527D01*
G01X17969Y21511D01*
G37*
G36*
G01X20701Y22963D02*
G01X20644Y22833D01*
G01X20502Y22848D01*
G01X20586Y22733D01*
G01X20533Y22660D01*
G01X20575D01*
G01X20614Y22713D01*
G01X20628Y22733D01*
G01X20614Y22753D01*
G01X20575Y22806D01*
G01X20640Y22799D01*
G01X20664Y22796D01*
G01X20675Y22819D01*
G01X20701Y22879D01*
G01X20727Y22819D01*
G01X20738Y22796D01*
G01X20762Y22799D01*
G01X20827Y22806D01*
G01X20788Y22753D01*
G01X20774Y22733D01*
G01X20788Y22713D01*
G01X20827Y22660D01*
G01X20762Y22667D01*
G01X20738Y22670D01*
G01X20727Y22647D01*
G01X20701Y22587D01*
G01X20675Y22647D01*
G01X20664Y22670D01*
G01X20640Y22667D01*
G01X20575Y22660D01*
G01X20533D01*
G01X20502Y22618D01*
G01X20644Y22633D01*
G01X20701Y22503D01*
G01X20758Y22633D01*
G01X20901Y22618D01*
G01X20816Y22733D01*
G01X20901Y22848D01*
G01X20758Y22833D01*
G37*
G36*
G01X18669Y22963D02*
G01X18612Y22833D01*
G01X18470Y22848D01*
G01X18554Y22733D01*
G01X18501Y22660D01*
G01X18543D01*
G01X18582Y22713D01*
G01X18596Y22733D01*
G01X18582Y22753D01*
G01X18543Y22806D01*
G01X18608Y22799D01*
G01X18632Y22796D01*
G01X18643Y22819D01*
G01X18669Y22879D01*
G01X18695Y22819D01*
G01X18706Y22796D01*
G01X18730Y22799D01*
G01X18795Y22806D01*
G01X18756Y22753D01*
G01X18742Y22733D01*
G01X18756Y22713D01*
G01X18795Y22660D01*
G01X18730Y22667D01*
G01X18706Y22670D01*
G01X18695Y22647D01*
G01X18669Y22587D01*
G01X18643Y22647D01*
G01X18632Y22670D01*
G01X18608Y22667D01*
G01X18543Y22660D01*
G01X18501D01*
G01X18470Y22618D01*
G01X18612Y22633D01*
G01X18669Y22503D01*
G01X18726Y22633D01*
G01X18869Y22618D01*
G01X18784Y22733D01*
G01X18869Y22848D01*
G01X18726Y22833D01*
G37*
G36*
G01X1270Y4040D02*
G01X1213Y3910D01*
G01X1071Y3925D01*
G01X1155Y3810D01*
G01X1102Y3737D01*
G01X1144D01*
G01X1183Y3790D01*
G01X1197Y3810D01*
G01X1183Y3830D01*
G01X1144Y3883D01*
G01X1209Y3876D01*
G01X1233Y3873D01*
G01X1244Y3896D01*
G01X1270Y3956D01*
G01X1296Y3896D01*
G01X1307Y3873D01*
G01X1331Y3876D01*
G01X1396Y3883D01*
G01X1357Y3830D01*
G01X1343Y3810D01*
G01X1357Y3790D01*
G01X1396Y3737D01*
G01X1331Y3744D01*
G01X1307Y3747D01*
G01X1296Y3724D01*
G01X1270Y3664D01*
G01X1244Y3724D01*
G01X1233Y3747D01*
G01X1209Y3744D01*
G01X1144Y3737D01*
G01X1102D01*
G01X1071Y3695D01*
G01X1213Y3710D01*
G01X1270Y3580D01*
G01X1327Y3710D01*
G01X1469Y3695D01*
G01X1385Y3810D01*
G01X1469Y3925D01*
G01X1327Y3910D01*
G37*
G36*
G01X24130Y26011D02*
G01X24073Y25881D01*
G01X23931Y25896D01*
G01X24015Y25781D01*
G01X23962Y25708D01*
G01X24004D01*
G01X24043Y25761D01*
G01X24057Y25781D01*
G01X24043Y25801D01*
G01X24004Y25854D01*
G01X24069Y25847D01*
G01X24093Y25844D01*
G01X24104Y25867D01*
G01X24130Y25927D01*
G01X24156Y25867D01*
G01X24167Y25844D01*
G01X24191Y25847D01*
G01X24256Y25854D01*
G01X24217Y25801D01*
G01X24203Y25781D01*
G01X24217Y25761D01*
G01X24256Y25708D01*
G01X24191Y25715D01*
G01X24167Y25718D01*
G01X24156Y25695D01*
G01X24130Y25635D01*
G01X24104Y25695D01*
G01X24093Y25718D01*
G01X24069Y25715D01*
G01X24004Y25708D01*
G01X23962D01*
G01X23931Y25666D01*
G01X24073Y25681D01*
G01X24130Y25551D01*
G01X24187Y25681D01*
G01X24330Y25666D01*
G01X24245Y25781D01*
G01X24330Y25896D01*
G01X24187Y25881D01*
G37*
G36*
G01X21971Y25884D02*
G01X21914Y25754D01*
G01X21772Y25769D01*
G01X21856Y25654D01*
G01X21803Y25581D01*
G01X21845D01*
G01X21884Y25634D01*
G01X21898Y25654D01*
G01X21884Y25674D01*
G01X21845Y25727D01*
G01X21910Y25720D01*
G01X21934Y25717D01*
G01X21945Y25740D01*
G01X21971Y25800D01*
G01X21997Y25740D01*
G01X22008Y25717D01*
G01X22032Y25720D01*
G01X22097Y25727D01*
G01X22058Y25674D01*
G01X22044Y25654D01*
G01X22058Y25634D01*
G01X22097Y25581D01*
G01X22032Y25588D01*
G01X22008Y25591D01*
G01X21997Y25568D01*
G01X21971Y25508D01*
G01X21945Y25568D01*
G01X21934Y25591D01*
G01X21910Y25588D01*
G01X21845Y25581D01*
G01X21803D01*
G01X21772Y25539D01*
G01X21914Y25554D01*
G01X21971Y25424D01*
G01X22028Y25554D01*
G01X22171Y25539D01*
G01X22086Y25654D01*
G01X22171Y25769D01*
G01X22028Y25754D01*
G37*
G36*
G01X22606Y8104D02*
G01X22549Y7974D01*
G01X22407Y7989D01*
G01X22491Y7874D01*
G01X22438Y7801D01*
G01X22480D01*
G01X22519Y7854D01*
G01X22533Y7874D01*
G01X22519Y7894D01*
G01X22480Y7947D01*
G01X22545Y7940D01*
G01X22569Y7937D01*
G01X22580Y7960D01*
G01X22606Y8020D01*
G01X22632Y7960D01*
G01X22643Y7937D01*
G01X22667Y7940D01*
G01X22732Y7947D01*
G01X22693Y7894D01*
G01X22679Y7874D01*
G01X22693Y7854D01*
G01X22732Y7801D01*
G01X22667Y7808D01*
G01X22643Y7811D01*
G01X22632Y7788D01*
G01X22606Y7728D01*
G01X22580Y7788D01*
G01X22569Y7811D01*
G01X22545Y7808D01*
G01X22480Y7801D01*
G01X22438D01*
G01X22407Y7759D01*
G01X22549Y7774D01*
G01X22606Y7644D01*
G01X22663Y7774D01*
G01X22806Y7759D01*
G01X22721Y7874D01*
G01X22806Y7989D01*
G01X22663Y7974D01*
G37*
G36*
G01X34163Y12041D02*
G01X34106Y11911D01*
G01X33964Y11926D01*
G01X34048Y11811D01*
G01X33995Y11738D01*
G01X34037D01*
G01X34076Y11791D01*
G01X34090Y11811D01*
G01X34076Y11831D01*
G01X34037Y11884D01*
G01X34102Y11877D01*
G01X34126Y11874D01*
G01X34137Y11897D01*
G01X34163Y11957D01*
G01X34189Y11897D01*
G01X34200Y11874D01*
G01X34224Y11877D01*
G01X34289Y11884D01*
G01X34250Y11831D01*
G01X34236Y11811D01*
G01X34250Y11791D01*
G01X34289Y11738D01*
G01X34224Y11745D01*
G01X34200Y11748D01*
G01X34189Y11725D01*
G01X34163Y11665D01*
G01X34137Y11725D01*
G01X34126Y11748D01*
G01X34102Y11745D01*
G01X34037Y11738D01*
G01X33995D01*
G01X33964Y11696D01*
G01X34106Y11711D01*
G01X34163Y11581D01*
G01X34220Y11711D01*
G01X34363Y11696D01*
G01X34278Y11811D01*
G01X34363Y11926D01*
G01X34220Y11911D01*
G37*
G36*
G01X34163Y11152D02*
G01X34106Y11022D01*
G01X33964Y11037D01*
G01X34048Y10922D01*
G01X33995Y10849D01*
G01X34037D01*
G01X34076Y10902D01*
G01X34090Y10922D01*
G01X34076Y10942D01*
G01X34037Y10995D01*
G01X34102Y10988D01*
G01X34126Y10985D01*
G01X34137Y11008D01*
G01X34163Y11068D01*
G01X34189Y11008D01*
G01X34200Y10985D01*
G01X34224Y10988D01*
G01X34289Y10995D01*
G01X34250Y10942D01*
G01X34236Y10922D01*
G01X34250Y10902D01*
G01X34289Y10849D01*
G01X34224Y10856D01*
G01X34200Y10859D01*
G01X34189Y10836D01*
G01X34163Y10776D01*
G01X34137Y10836D01*
G01X34126Y10859D01*
G01X34102Y10856D01*
G01X34037Y10849D01*
G01X33995D01*
G01X33964Y10807D01*
G01X34106Y10822D01*
G01X34163Y10692D01*
G01X34220Y10822D01*
G01X34363Y10807D01*
G01X34278Y10922D01*
G01X34363Y11037D01*
G01X34220Y11022D01*
G37*
G36*
G01X33655Y18518D02*
G01X33598Y18388D01*
G01X33456Y18403D01*
G01X33540Y18288D01*
G01X33487Y18215D01*
G01X33529D01*
G01X33568Y18268D01*
G01X33582Y18288D01*
G01X33568Y18308D01*
G01X33529Y18361D01*
G01X33594Y18354D01*
G01X33618Y18351D01*
G01X33629Y18374D01*
G01X33655Y18434D01*
G01X33681Y18374D01*
G01X33692Y18351D01*
G01X33716Y18354D01*
G01X33781Y18361D01*
G01X33742Y18308D01*
G01X33728Y18288D01*
G01X33742Y18268D01*
G01X33781Y18215D01*
G01X33716Y18222D01*
G01X33692Y18225D01*
G01X33681Y18202D01*
G01X33655Y18142D01*
G01X33629Y18202D01*
G01X33618Y18225D01*
G01X33594Y18222D01*
G01X33529Y18215D01*
G01X33487D01*
G01X33456Y18173D01*
G01X33598Y18188D01*
G01X33655Y18058D01*
G01X33712Y18188D01*
G01X33855Y18173D01*
G01X33770Y18288D01*
G01X33855Y18403D01*
G01X33712Y18388D01*
G37*
G36*
G01X15875Y3532D02*
G01X15818Y3402D01*
G01X15676Y3417D01*
G01X15760Y3302D01*
G01X15707Y3229D01*
G01X15749D01*
G01X15788Y3282D01*
G01X15802Y3302D01*
G01X15788Y3322D01*
G01X15749Y3375D01*
G01X15814Y3368D01*
G01X15838Y3365D01*
G01X15849Y3388D01*
G01X15875Y3448D01*
G01X15901Y3388D01*
G01X15912Y3365D01*
G01X15936Y3368D01*
G01X16001Y3375D01*
G01X15962Y3322D01*
G01X15948Y3302D01*
G01X15962Y3282D01*
G01X16001Y3229D01*
G01X15936Y3236D01*
G01X15912Y3239D01*
G01X15901Y3216D01*
G01X15875Y3156D01*
G01X15849Y3216D01*
G01X15838Y3239D01*
G01X15814Y3236D01*
G01X15749Y3229D01*
G01X15707D01*
G01X15676Y3187D01*
G01X15818Y3202D01*
G01X15875Y3072D01*
G01X15932Y3202D01*
G01X16075Y3187D01*
G01X15990Y3302D01*
G01X16075Y3417D01*
G01X15932Y3402D01*
G37*
G36*
G01X16510Y3532D02*
G01X16453Y3402D01*
G01X16311Y3417D01*
G01X16395Y3302D01*
G01X16342Y3229D01*
G01X16384D01*
G01X16423Y3282D01*
G01X16437Y3302D01*
G01X16423Y3322D01*
G01X16384Y3375D01*
G01X16449Y3368D01*
G01X16473Y3365D01*
G01X16484Y3388D01*
G01X16510Y3448D01*
G01X16536Y3388D01*
G01X16547Y3365D01*
G01X16571Y3368D01*
G01X16636Y3375D01*
G01X16597Y3322D01*
G01X16583Y3302D01*
G01X16597Y3282D01*
G01X16636Y3229D01*
G01X16571Y3236D01*
G01X16547Y3239D01*
G01X16536Y3216D01*
G01X16510Y3156D01*
G01X16484Y3216D01*
G01X16473Y3239D01*
G01X16449Y3236D01*
G01X16384Y3229D01*
G01X16342D01*
G01X16311Y3187D01*
G01X16453Y3202D01*
G01X16510Y3072D01*
G01X16567Y3202D01*
G01X16710Y3187D01*
G01X16625Y3302D01*
G01X16710Y3417D01*
G01X16567Y3402D01*
G37*
G36*
G01X16510Y2897D02*
G01X16453Y2767D01*
G01X16311Y2782D01*
G01X16395Y2667D01*
G01X16342Y2594D01*
G01X16384D01*
G01X16423Y2647D01*
G01X16437Y2667D01*
G01X16423Y2687D01*
G01X16384Y2740D01*
G01X16449Y2733D01*
G01X16473Y2730D01*
G01X16484Y2753D01*
G01X16510Y2813D01*
G01X16536Y2753D01*
G01X16547Y2730D01*
G01X16571Y2733D01*
G01X16636Y2740D01*
G01X16597Y2687D01*
G01X16583Y2667D01*
G01X16597Y2647D01*
G01X16636Y2594D01*
G01X16571Y2601D01*
G01X16547Y2604D01*
G01X16536Y2581D01*
G01X16510Y2521D01*
G01X16484Y2581D01*
G01X16473Y2604D01*
G01X16449Y2601D01*
G01X16384Y2594D01*
G01X16342D01*
G01X16311Y2552D01*
G01X16453Y2567D01*
G01X16510Y2437D01*
G01X16567Y2567D01*
G01X16710Y2552D01*
G01X16625Y2667D01*
G01X16710Y2782D01*
G01X16567Y2767D01*
G37*
G36*
G01X15875Y2897D02*
G01X15818Y2767D01*
G01X15676Y2782D01*
G01X15760Y2667D01*
G01X15707Y2594D01*
G01X15749D01*
G01X15788Y2647D01*
G01X15802Y2667D01*
G01X15788Y2687D01*
G01X15749Y2740D01*
G01X15814Y2733D01*
G01X15838Y2730D01*
G01X15849Y2753D01*
G01X15875Y2813D01*
G01X15901Y2753D01*
G01X15912Y2730D01*
G01X15936Y2733D01*
G01X16001Y2740D01*
G01X15962Y2687D01*
G01X15948Y2667D01*
G01X15962Y2647D01*
G01X16001Y2594D01*
G01X15936Y2601D01*
G01X15912Y2604D01*
G01X15901Y2581D01*
G01X15875Y2521D01*
G01X15849Y2581D01*
G01X15838Y2604D01*
G01X15814Y2601D01*
G01X15749Y2594D01*
G01X15707D01*
G01X15676Y2552D01*
G01X15818Y2567D01*
G01X15875Y2437D01*
G01X15932Y2567D01*
G01X16075Y2552D01*
G01X15990Y2667D01*
G01X16075Y2782D01*
G01X15932Y2767D01*
G37*
G36*
G01X15875Y2262D02*
G01X15818Y2132D01*
G01X15676Y2147D01*
G01X15760Y2032D01*
G01X15707Y1959D01*
G01X15749D01*
G01X15788Y2012D01*
G01X15802Y2032D01*
G01X15788Y2052D01*
G01X15749Y2105D01*
G01X15814Y2098D01*
G01X15838Y2095D01*
G01X15849Y2118D01*
G01X15875Y2178D01*
G01X15901Y2118D01*
G01X15912Y2095D01*
G01X15936Y2098D01*
G01X16001Y2105D01*
G01X15962Y2052D01*
G01X15948Y2032D01*
G01X15962Y2012D01*
G01X16001Y1959D01*
G01X15936Y1966D01*
G01X15912Y1969D01*
G01X15901Y1946D01*
G01X15875Y1886D01*
G01X15849Y1946D01*
G01X15838Y1969D01*
G01X15814Y1966D01*
G01X15749Y1959D01*
G01X15707D01*
G01X15676Y1917D01*
G01X15818Y1932D01*
G01X15875Y1802D01*
G01X15932Y1932D01*
G01X16075Y1917D01*
G01X15990Y2032D01*
G01X16075Y2147D01*
G01X15932Y2132D01*
G37*
G36*
G01X12446Y7850D02*
G01X12389Y7720D01*
G01X12247Y7735D01*
G01X12331Y7620D01*
G01X12278Y7547D01*
G01X12320D01*
G01X12359Y7600D01*
G01X12373Y7620D01*
G01X12359Y7640D01*
G01X12320Y7693D01*
G01X12385Y7686D01*
G01X12409Y7683D01*
G01X12420Y7706D01*
G01X12446Y7766D01*
G01X12472Y7706D01*
G01X12483Y7683D01*
G01X12507Y7686D01*
G01X12572Y7693D01*
G01X12533Y7640D01*
G01X12519Y7620D01*
G01X12533Y7600D01*
G01X12572Y7547D01*
G01X12507Y7554D01*
G01X12483Y7557D01*
G01X12472Y7534D01*
G01X12446Y7474D01*
G01X12420Y7534D01*
G01X12409Y7557D01*
G01X12385Y7554D01*
G01X12320Y7547D01*
G01X12278D01*
G01X12247Y7505D01*
G01X12389Y7520D01*
G01X12446Y7390D01*
G01X12503Y7520D01*
G01X12646Y7505D01*
G01X12561Y7620D01*
G01X12646Y7735D01*
G01X12503Y7720D01*
G37*
G36*
G01X11811Y7850D02*
G01X11754Y7720D01*
G01X11612Y7735D01*
G01X11696Y7620D01*
G01X11643Y7547D01*
G01X11685D01*
G01X11724Y7600D01*
G01X11738Y7620D01*
G01X11724Y7640D01*
G01X11685Y7693D01*
G01X11750Y7686D01*
G01X11774Y7683D01*
G01X11785Y7706D01*
G01X11811Y7766D01*
G01X11837Y7706D01*
G01X11848Y7683D01*
G01X11872Y7686D01*
G01X11937Y7693D01*
G01X11898Y7640D01*
G01X11884Y7620D01*
G01X11898Y7600D01*
G01X11937Y7547D01*
G01X11872Y7554D01*
G01X11848Y7557D01*
G01X11837Y7534D01*
G01X11811Y7474D01*
G01X11785Y7534D01*
G01X11774Y7557D01*
G01X11750Y7554D01*
G01X11685Y7547D01*
G01X11643D01*
G01X11612Y7505D01*
G01X11754Y7520D01*
G01X11811Y7390D01*
G01X11868Y7520D01*
G01X12011Y7505D01*
G01X11926Y7620D01*
G01X12011Y7735D01*
G01X11868Y7720D01*
G37*
G36*
G01X32766Y14200D02*
G01X32709Y14070D01*
G01X32567Y14085D01*
G01X32651Y13970D01*
G01X32598Y13897D01*
G01X32640D01*
G01X32679Y13950D01*
G01X32693Y13970D01*
G01X32679Y13990D01*
G01X32640Y14043D01*
G01X32705Y14036D01*
G01X32729Y14033D01*
G01X32740Y14056D01*
G01X32766Y14116D01*
G01X32792Y14056D01*
G01X32803Y14033D01*
G01X32827Y14036D01*
G01X32892Y14043D01*
G01X32853Y13990D01*
G01X32839Y13970D01*
G01X32853Y13950D01*
G01X32892Y13897D01*
G01X32827Y13904D01*
G01X32803Y13907D01*
G01X32792Y13884D01*
G01X32766Y13824D01*
G01X32740Y13884D01*
G01X32729Y13907D01*
G01X32705Y13904D01*
G01X32640Y13897D01*
G01X32598D01*
G01X32567Y13855D01*
G01X32709Y13870D01*
G01X32766Y13740D01*
G01X32823Y13870D01*
G01X32966Y13855D01*
G01X32881Y13970D01*
G01X32966Y14085D01*
G01X32823Y14070D01*
G37*
G36*
G01X30607Y15851D02*
G01X30550Y15721D01*
G01X30408Y15736D01*
G01X30492Y15621D01*
G01X30439Y15548D01*
G01X30481D01*
G01X30520Y15601D01*
G01X30534Y15621D01*
G01X30520Y15641D01*
G01X30481Y15694D01*
G01X30546Y15687D01*
G01X30570Y15684D01*
G01X30581Y15707D01*
G01X30607Y15767D01*
G01X30633Y15707D01*
G01X30644Y15684D01*
G01X30668Y15687D01*
G01X30733Y15694D01*
G01X30694Y15641D01*
G01X30680Y15621D01*
G01X30694Y15601D01*
G01X30733Y15548D01*
G01X30668Y15555D01*
G01X30644Y15558D01*
G01X30633Y15535D01*
G01X30607Y15475D01*
G01X30581Y15535D01*
G01X30570Y15558D01*
G01X30546Y15555D01*
G01X30481Y15548D01*
G01X30439D01*
G01X30408Y15506D01*
G01X30550Y15521D01*
G01X30607Y15391D01*
G01X30664Y15521D01*
G01X30807Y15506D01*
G01X30722Y15621D01*
G01X30807Y15736D01*
G01X30664Y15721D01*
G37*
G36*
G01X17272Y12930D02*
G01X17215Y12800D01*
G01X17073Y12815D01*
G01X17157Y12700D01*
G01X17104Y12627D01*
G01X17146D01*
G01X17185Y12680D01*
G01X17199Y12700D01*
G01X17185Y12720D01*
G01X17146Y12773D01*
G01X17211Y12766D01*
G01X17235Y12763D01*
G01X17246Y12786D01*
G01X17272Y12846D01*
G01X17298Y12786D01*
G01X17309Y12763D01*
G01X17333Y12766D01*
G01X17398Y12773D01*
G01X17359Y12720D01*
G01X17345Y12700D01*
G01X17359Y12680D01*
G01X17398Y12627D01*
G01X17333Y12634D01*
G01X17309Y12637D01*
G01X17298Y12614D01*
G01X17272Y12554D01*
G01X17246Y12614D01*
G01X17235Y12637D01*
G01X17211Y12634D01*
G01X17146Y12627D01*
G01X17104D01*
G01X17073Y12585D01*
G01X17215Y12600D01*
G01X17272Y12470D01*
G01X17329Y12600D01*
G01X17472Y12585D01*
G01X17387Y12700D01*
G01X17472Y12815D01*
G01X17329Y12800D01*
G37*
G36*
G01X18415Y12930D02*
G01X18358Y12800D01*
G01X18216Y12815D01*
G01X18300Y12700D01*
G01X18247Y12627D01*
G01X18289D01*
G01X18328Y12680D01*
G01X18342Y12700D01*
G01X18328Y12720D01*
G01X18289Y12773D01*
G01X18354Y12766D01*
G01X18378Y12763D01*
G01X18389Y12786D01*
G01X18415Y12846D01*
G01X18441Y12786D01*
G01X18452Y12763D01*
G01X18476Y12766D01*
G01X18541Y12773D01*
G01X18502Y12720D01*
G01X18488Y12700D01*
G01X18502Y12680D01*
G01X18541Y12627D01*
G01X18476Y12634D01*
G01X18452Y12637D01*
G01X18441Y12614D01*
G01X18415Y12554D01*
G01X18389Y12614D01*
G01X18378Y12637D01*
G01X18354Y12634D01*
G01X18289Y12627D01*
G01X18247D01*
G01X18216Y12585D01*
G01X18358Y12600D01*
G01X18415Y12470D01*
G01X18472Y12600D01*
G01X18615Y12585D01*
G01X18530Y12700D01*
G01X18615Y12815D01*
G01X18472Y12800D01*
G37*
G36*
G01X19050Y12930D02*
G01X18993Y12800D01*
G01X18851Y12815D01*
G01X18935Y12700D01*
G01X18882Y12627D01*
G01X18924D01*
G01X18963Y12680D01*
G01X18977Y12700D01*
G01X18963Y12720D01*
G01X18924Y12773D01*
G01X18989Y12766D01*
G01X19013Y12763D01*
G01X19024Y12786D01*
G01X19050Y12846D01*
G01X19076Y12786D01*
G01X19087Y12763D01*
G01X19111Y12766D01*
G01X19176Y12773D01*
G01X19137Y12720D01*
G01X19123Y12700D01*
G01X19137Y12680D01*
G01X19176Y12627D01*
G01X19111Y12634D01*
G01X19087Y12637D01*
G01X19076Y12614D01*
G01X19050Y12554D01*
G01X19024Y12614D01*
G01X19013Y12637D01*
G01X18989Y12634D01*
G01X18924Y12627D01*
G01X18882D01*
G01X18851Y12585D01*
G01X18993Y12600D01*
G01X19050Y12470D01*
G01X19107Y12600D01*
G01X19250Y12585D01*
G01X19165Y12700D01*
G01X19250Y12815D01*
G01X19107Y12800D01*
G37*
G36*
G01X18669Y12422D02*
G01X18612Y12292D01*
G01X18470Y12307D01*
G01X18554Y12192D01*
G01X18501Y12119D01*
G01X18543D01*
G01X18582Y12172D01*
G01X18596Y12192D01*
G01X18582Y12212D01*
G01X18543Y12265D01*
G01X18608Y12258D01*
G01X18632Y12255D01*
G01X18643Y12278D01*
G01X18669Y12338D01*
G01X18695Y12278D01*
G01X18706Y12255D01*
G01X18730Y12258D01*
G01X18795Y12265D01*
G01X18756Y12212D01*
G01X18742Y12192D01*
G01X18756Y12172D01*
G01X18795Y12119D01*
G01X18730Y12126D01*
G01X18706Y12129D01*
G01X18695Y12106D01*
G01X18669Y12046D01*
G01X18643Y12106D01*
G01X18632Y12129D01*
G01X18608Y12126D01*
G01X18543Y12119D01*
G01X18501D01*
G01X18470Y12077D01*
G01X18612Y12092D01*
G01X18669Y11962D01*
G01X18726Y12092D01*
G01X18869Y12077D01*
G01X18784Y12192D01*
G01X18869Y12307D01*
G01X18726Y12292D01*
G37*
G36*
G01X19431Y13438D02*
G01X19374Y13308D01*
G01X19232Y13323D01*
G01X19316Y13208D01*
G01X19263Y13135D01*
G01X19305D01*
G01X19344Y13188D01*
G01X19358Y13208D01*
G01X19344Y13228D01*
G01X19305Y13281D01*
G01X19370Y13274D01*
G01X19394Y13271D01*
G01X19405Y13294D01*
G01X19431Y13354D01*
G01X19457Y13294D01*
G01X19468Y13271D01*
G01X19492Y13274D01*
G01X19557Y13281D01*
G01X19518Y13228D01*
G01X19504Y13208D01*
G01X19518Y13188D01*
G01X19557Y13135D01*
G01X19492Y13142D01*
G01X19468Y13145D01*
G01X19457Y13122D01*
G01X19431Y13062D01*
G01X19405Y13122D01*
G01X19394Y13145D01*
G01X19370Y13142D01*
G01X19305Y13135D01*
G01X19263D01*
G01X19232Y13093D01*
G01X19374Y13108D01*
G01X19431Y12978D01*
G01X19488Y13108D01*
G01X19631Y13093D01*
G01X19546Y13208D01*
G01X19631Y13323D01*
G01X19488Y13308D01*
G37*
G36*
G01X18796Y13438D02*
G01X18739Y13308D01*
G01X18597Y13323D01*
G01X18681Y13208D01*
G01X18628Y13135D01*
G01X18670D01*
G01X18709Y13188D01*
G01X18723Y13208D01*
G01X18709Y13228D01*
G01X18670Y13281D01*
G01X18735Y13274D01*
G01X18759Y13271D01*
G01X18770Y13294D01*
G01X18796Y13354D01*
G01X18822Y13294D01*
G01X18833Y13271D01*
G01X18857Y13274D01*
G01X18922Y13281D01*
G01X18883Y13228D01*
G01X18869Y13208D01*
G01X18883Y13188D01*
G01X18922Y13135D01*
G01X18857Y13142D01*
G01X18833Y13145D01*
G01X18822Y13122D01*
G01X18796Y13062D01*
G01X18770Y13122D01*
G01X18759Y13145D01*
G01X18735Y13142D01*
G01X18670Y13135D01*
G01X18628D01*
G01X18597Y13093D01*
G01X18739Y13108D01*
G01X18796Y12978D01*
G01X18853Y13108D01*
G01X18996Y13093D01*
G01X18911Y13208D01*
G01X18996Y13323D01*
G01X18853Y13308D01*
G37*
G36*
G01X18161Y13438D02*
G01X18104Y13308D01*
G01X17962Y13323D01*
G01X18046Y13208D01*
G01X17993Y13135D01*
G01X18035D01*
G01X18074Y13188D01*
G01X18088Y13208D01*
G01X18074Y13228D01*
G01X18035Y13281D01*
G01X18100Y13274D01*
G01X18124Y13271D01*
G01X18135Y13294D01*
G01X18161Y13354D01*
G01X18187Y13294D01*
G01X18198Y13271D01*
G01X18222Y13274D01*
G01X18287Y13281D01*
G01X18248Y13228D01*
G01X18234Y13208D01*
G01X18248Y13188D01*
G01X18287Y13135D01*
G01X18222Y13142D01*
G01X18198Y13145D01*
G01X18187Y13122D01*
G01X18161Y13062D01*
G01X18135Y13122D01*
G01X18124Y13145D01*
G01X18100Y13142D01*
G01X18035Y13135D01*
G01X17993D01*
G01X17962Y13093D01*
G01X18104Y13108D01*
G01X18161Y12978D01*
G01X18218Y13108D01*
G01X18361Y13093D01*
G01X18276Y13208D01*
G01X18361Y13323D01*
G01X18218Y13308D01*
G37*
G36*
G01X24638Y20550D02*
G01X24581Y20420D01*
G01X24439Y20435D01*
G01X24523Y20320D01*
G01X24470Y20247D01*
G01X24512D01*
G01X24551Y20300D01*
G01X24565Y20320D01*
G01X24551Y20340D01*
G01X24512Y20393D01*
G01X24577Y20386D01*
G01X24601Y20383D01*
G01X24612Y20406D01*
G01X24638Y20466D01*
G01X24664Y20406D01*
G01X24675Y20383D01*
G01X24699Y20386D01*
G01X24764Y20393D01*
G01X24725Y20340D01*
G01X24711Y20320D01*
G01X24725Y20300D01*
G01X24764Y20247D01*
G01X24699Y20254D01*
G01X24675Y20257D01*
G01X24664Y20234D01*
G01X24638Y20174D01*
G01X24612Y20234D01*
G01X24601Y20257D01*
G01X24577Y20254D01*
G01X24512Y20247D01*
G01X24470D01*
G01X24439Y20205D01*
G01X24581Y20220D01*
G01X24638Y20090D01*
G01X24695Y20220D01*
G01X24838Y20205D01*
G01X24753Y20320D01*
G01X24838Y20435D01*
G01X24695Y20420D01*
G37*
G36*
G01X25273Y20550D02*
G01X25216Y20420D01*
G01X25074Y20435D01*
G01X25158Y20320D01*
G01X25105Y20247D01*
G01X25147D01*
G01X25186Y20300D01*
G01X25200Y20320D01*
G01X25186Y20340D01*
G01X25147Y20393D01*
G01X25212Y20386D01*
G01X25236Y20383D01*
G01X25247Y20406D01*
G01X25273Y20466D01*
G01X25299Y20406D01*
G01X25310Y20383D01*
G01X25334Y20386D01*
G01X25399Y20393D01*
G01X25360Y20340D01*
G01X25346Y20320D01*
G01X25360Y20300D01*
G01X25399Y20247D01*
G01X25334Y20254D01*
G01X25310Y20257D01*
G01X25299Y20234D01*
G01X25273Y20174D01*
G01X25247Y20234D01*
G01X25236Y20257D01*
G01X25212Y20254D01*
G01X25147Y20247D01*
G01X25105D01*
G01X25074Y20205D01*
G01X25216Y20220D01*
G01X25273Y20090D01*
G01X25330Y20220D01*
G01X25473Y20205D01*
G01X25388Y20320D01*
G01X25473Y20435D01*
G01X25330Y20420D01*
G37*
G36*
G01X23241Y19788D02*
G01X23184Y19658D01*
G01X23042Y19673D01*
G01X23126Y19558D01*
G01X23073Y19485D01*
G01X23115D01*
G01X23154Y19538D01*
G01X23168Y19558D01*
G01X23154Y19578D01*
G01X23115Y19631D01*
G01X23180Y19624D01*
G01X23204Y19621D01*
G01X23215Y19644D01*
G01X23241Y19704D01*
G01X23267Y19644D01*
G01X23278Y19621D01*
G01X23302Y19624D01*
G01X23367Y19631D01*
G01X23328Y19578D01*
G01X23314Y19558D01*
G01X23328Y19538D01*
G01X23367Y19485D01*
G01X23302Y19492D01*
G01X23278Y19495D01*
G01X23267Y19472D01*
G01X23241Y19412D01*
G01X23215Y19472D01*
G01X23204Y19495D01*
G01X23180Y19492D01*
G01X23115Y19485D01*
G01X23073D01*
G01X23042Y19443D01*
G01X23184Y19458D01*
G01X23241Y19328D01*
G01X23298Y19458D01*
G01X23441Y19443D01*
G01X23356Y19558D01*
G01X23441Y19673D01*
G01X23298Y19658D01*
G37*
G36*
G01X9144Y27535D02*
G01X9087Y27405D01*
G01X8945Y27420D01*
G01X9029Y27305D01*
G01X8976Y27232D01*
G01X9018D01*
G01X9057Y27285D01*
G01X9071Y27305D01*
G01X9057Y27325D01*
G01X9018Y27378D01*
G01X9083Y27371D01*
G01X9107Y27368D01*
G01X9118Y27391D01*
G01X9144Y27451D01*
G01X9170Y27391D01*
G01X9181Y27368D01*
G01X9205Y27371D01*
G01X9270Y27378D01*
G01X9231Y27325D01*
G01X9217Y27305D01*
G01X9231Y27285D01*
G01X9270Y27232D01*
G01X9205Y27239D01*
G01X9181Y27242D01*
G01X9170Y27219D01*
G01X9144Y27159D01*
G01X9118Y27219D01*
G01X9107Y27242D01*
G01X9083Y27239D01*
G01X9018Y27232D01*
G01X8976D01*
G01X8945Y27190D01*
G01X9087Y27205D01*
G01X9144Y27075D01*
G01X9201Y27205D01*
G01X9344Y27190D01*
G01X9259Y27305D01*
G01X9344Y27420D01*
G01X9201Y27405D01*
G37*
G36*
G01X9779Y27535D02*
G01X9722Y27405D01*
G01X9580Y27420D01*
G01X9664Y27305D01*
G01X9611Y27232D01*
G01X9653D01*
G01X9692Y27285D01*
G01X9706Y27305D01*
G01X9692Y27325D01*
G01X9653Y27378D01*
G01X9718Y27371D01*
G01X9742Y27368D01*
G01X9753Y27391D01*
G01X9779Y27451D01*
G01X9805Y27391D01*
G01X9816Y27368D01*
G01X9840Y27371D01*
G01X9905Y27378D01*
G01X9866Y27325D01*
G01X9852Y27305D01*
G01X9866Y27285D01*
G01X9905Y27232D01*
G01X9840Y27239D01*
G01X9816Y27242D01*
G01X9805Y27219D01*
G01X9779Y27159D01*
G01X9753Y27219D01*
G01X9742Y27242D01*
G01X9718Y27239D01*
G01X9653Y27232D01*
G01X9611D01*
G01X9580Y27190D01*
G01X9722Y27205D01*
G01X9779Y27075D01*
G01X9836Y27205D01*
G01X9979Y27190D01*
G01X9894Y27305D01*
G01X9979Y27420D01*
G01X9836Y27405D01*
G37*
G36*
G01X10414Y27535D02*
G01X10357Y27405D01*
G01X10215Y27420D01*
G01X10299Y27305D01*
G01X10246Y27232D01*
G01X10288D01*
G01X10327Y27285D01*
G01X10341Y27305D01*
G01X10327Y27325D01*
G01X10288Y27378D01*
G01X10353Y27371D01*
G01X10377Y27368D01*
G01X10388Y27391D01*
G01X10414Y27451D01*
G01X10440Y27391D01*
G01X10451Y27368D01*
G01X10475Y27371D01*
G01X10540Y27378D01*
G01X10501Y27325D01*
G01X10487Y27305D01*
G01X10501Y27285D01*
G01X10540Y27232D01*
G01X10475Y27239D01*
G01X10451Y27242D01*
G01X10440Y27219D01*
G01X10414Y27159D01*
G01X10388Y27219D01*
G01X10377Y27242D01*
G01X10353Y27239D01*
G01X10288Y27232D01*
G01X10246D01*
G01X10215Y27190D01*
G01X10357Y27205D01*
G01X10414Y27075D01*
G01X10471Y27205D01*
G01X10614Y27190D01*
G01X10529Y27305D01*
G01X10614Y27420D01*
G01X10471Y27405D01*
G37*
G36*
G01X11049Y27535D02*
G01X10992Y27405D01*
G01X10850Y27420D01*
G01X10934Y27305D01*
G01X10881Y27232D01*
G01X10923D01*
G01X10962Y27285D01*
G01X10976Y27305D01*
G01X10962Y27325D01*
G01X10923Y27378D01*
G01X10988Y27371D01*
G01X11012Y27368D01*
G01X11023Y27391D01*
G01X11049Y27451D01*
G01X11075Y27391D01*
G01X11086Y27368D01*
G01X11110Y27371D01*
G01X11175Y27378D01*
G01X11136Y27325D01*
G01X11122Y27305D01*
G01X11136Y27285D01*
G01X11175Y27232D01*
G01X11110Y27239D01*
G01X11086Y27242D01*
G01X11075Y27219D01*
G01X11049Y27159D01*
G01X11023Y27219D01*
G01X11012Y27242D01*
G01X10988Y27239D01*
G01X10923Y27232D01*
G01X10881D01*
G01X10850Y27190D01*
G01X10992Y27205D01*
G01X11049Y27075D01*
G01X11106Y27205D01*
G01X11249Y27190D01*
G01X11164Y27305D01*
G01X11249Y27420D01*
G01X11106Y27405D01*
G37*
G36*
G01X4826Y4548D02*
G01X4769Y4418D01*
G01X4627Y4433D01*
G01X4711Y4318D01*
G01X4658Y4245D01*
G01X4700D01*
G01X4739Y4298D01*
G01X4753Y4318D01*
G01X4739Y4338D01*
G01X4700Y4391D01*
G01X4765Y4384D01*
G01X4789Y4381D01*
G01X4800Y4404D01*
G01X4826Y4464D01*
G01X4852Y4404D01*
G01X4863Y4381D01*
G01X4887Y4384D01*
G01X4952Y4391D01*
G01X4913Y4338D01*
G01X4899Y4318D01*
G01X4913Y4298D01*
G01X4952Y4245D01*
G01X4887Y4252D01*
G01X4863Y4255D01*
G01X4852Y4232D01*
G01X4826Y4172D01*
G01X4800Y4232D01*
G01X4789Y4255D01*
G01X4765Y4252D01*
G01X4700Y4245D01*
G01X4658D01*
G01X4627Y4203D01*
G01X4769Y4218D01*
G01X4826Y4088D01*
G01X4883Y4218D01*
G01X5025Y4203D01*
G01X4941Y4318D01*
G01X5025Y4433D01*
G01X4883Y4418D01*
G37*
G36*
G01X5461Y4548D02*
G01X5404Y4418D01*
G01X5262Y4433D01*
G01X5346Y4318D01*
G01X5293Y4245D01*
G01X5335D01*
G01X5374Y4298D01*
G01X5388Y4318D01*
G01X5374Y4338D01*
G01X5335Y4391D01*
G01X5400Y4384D01*
G01X5424Y4381D01*
G01X5435Y4404D01*
G01X5461Y4464D01*
G01X5487Y4404D01*
G01X5498Y4381D01*
G01X5522Y4384D01*
G01X5587Y4391D01*
G01X5548Y4338D01*
G01X5534Y4318D01*
G01X5548Y4298D01*
G01X5587Y4245D01*
G01X5522Y4252D01*
G01X5498Y4255D01*
G01X5487Y4232D01*
G01X5461Y4172D01*
G01X5435Y4232D01*
G01X5424Y4255D01*
G01X5400Y4252D01*
G01X5335Y4245D01*
G01X5293D01*
G01X5262Y4203D01*
G01X5404Y4218D01*
G01X5461Y4088D01*
G01X5518Y4218D01*
G01X5660Y4203D01*
G01X5576Y4318D01*
G01X5660Y4433D01*
G01X5518Y4418D01*
G37*
G36*
G01X6096Y4548D02*
G01X6039Y4418D01*
G01X5897Y4433D01*
G01X5981Y4318D01*
G01X5928Y4245D01*
G01X5970D01*
G01X6009Y4298D01*
G01X6023Y4318D01*
G01X6009Y4338D01*
G01X5970Y4391D01*
G01X6035Y4384D01*
G01X6059Y4381D01*
G01X6070Y4404D01*
G01X6096Y4464D01*
G01X6122Y4404D01*
G01X6133Y4381D01*
G01X6157Y4384D01*
G01X6222Y4391D01*
G01X6183Y4338D01*
G01X6169Y4318D01*
G01X6183Y4298D01*
G01X6222Y4245D01*
G01X6157Y4252D01*
G01X6133Y4255D01*
G01X6122Y4232D01*
G01X6096Y4172D01*
G01X6070Y4232D01*
G01X6059Y4255D01*
G01X6035Y4252D01*
G01X5970Y4245D01*
G01X5928D01*
G01X5897Y4203D01*
G01X6039Y4218D01*
G01X6096Y4088D01*
G01X6153Y4218D01*
G01X6295Y4203D01*
G01X6211Y4318D01*
G01X6295Y4433D01*
G01X6153Y4418D01*
G37*
G36*
G01X14605Y25884D02*
G01X14548Y25754D01*
G01X14406Y25769D01*
G01X14490Y25654D01*
G01X14437Y25581D01*
G01X14479D01*
G01X14518Y25634D01*
G01X14532Y25654D01*
G01X14518Y25674D01*
G01X14479Y25727D01*
G01X14544Y25720D01*
G01X14568Y25717D01*
G01X14579Y25740D01*
G01X14605Y25800D01*
G01X14631Y25740D01*
G01X14642Y25717D01*
G01X14666Y25720D01*
G01X14731Y25727D01*
G01X14692Y25674D01*
G01X14678Y25654D01*
G01X14692Y25634D01*
G01X14731Y25581D01*
G01X14666Y25588D01*
G01X14642Y25591D01*
G01X14631Y25568D01*
G01X14605Y25508D01*
G01X14579Y25568D01*
G01X14568Y25591D01*
G01X14544Y25588D01*
G01X14479Y25581D01*
G01X14437D01*
G01X14406Y25539D01*
G01X14548Y25554D01*
G01X14605Y25424D01*
G01X14662Y25554D01*
G01X14805Y25539D01*
G01X14720Y25654D01*
G01X14805Y25769D01*
G01X14662Y25754D01*
G37*
G36*
G01X15240Y25884D02*
G01X15183Y25754D01*
G01X15041Y25769D01*
G01X15125Y25654D01*
G01X15072Y25581D01*
G01X15114D01*
G01X15153Y25634D01*
G01X15167Y25654D01*
G01X15153Y25674D01*
G01X15114Y25727D01*
G01X15179Y25720D01*
G01X15203Y25717D01*
G01X15214Y25740D01*
G01X15240Y25800D01*
G01X15266Y25740D01*
G01X15277Y25717D01*
G01X15301Y25720D01*
G01X15366Y25727D01*
G01X15327Y25674D01*
G01X15313Y25654D01*
G01X15327Y25634D01*
G01X15366Y25581D01*
G01X15301Y25588D01*
G01X15277Y25591D01*
G01X15266Y25568D01*
G01X15240Y25508D01*
G01X15214Y25568D01*
G01X15203Y25591D01*
G01X15179Y25588D01*
G01X15114Y25581D01*
G01X15072D01*
G01X15041Y25539D01*
G01X15183Y25554D01*
G01X15240Y25424D01*
G01X15297Y25554D01*
G01X15440Y25539D01*
G01X15355Y25654D01*
G01X15440Y25769D01*
G01X15297Y25754D01*
G37*
G36*
G01X15875Y26011D02*
G01X15818Y25881D01*
G01X15676Y25896D01*
G01X15760Y25781D01*
G01X15707Y25708D01*
G01X15749D01*
G01X15788Y25761D01*
G01X15802Y25781D01*
G01X15788Y25801D01*
G01X15749Y25854D01*
G01X15814Y25847D01*
G01X15838Y25844D01*
G01X15849Y25867D01*
G01X15875Y25927D01*
G01X15901Y25867D01*
G01X15912Y25844D01*
G01X15936Y25847D01*
G01X16001Y25854D01*
G01X15962Y25801D01*
G01X15948Y25781D01*
G01X15962Y25761D01*
G01X16001Y25708D01*
G01X15936Y25715D01*
G01X15912Y25718D01*
G01X15901Y25695D01*
G01X15875Y25635D01*
G01X15849Y25695D01*
G01X15838Y25718D01*
G01X15814Y25715D01*
G01X15749Y25708D01*
G01X15707D01*
G01X15676Y25666D01*
G01X15818Y25681D01*
G01X15875Y25551D01*
G01X15932Y25681D01*
G01X16075Y25666D01*
G01X15990Y25781D01*
G01X16075Y25896D01*
G01X15932Y25881D01*
G37*
G36*
G01X16510Y26011D02*
G01X16453Y25881D01*
G01X16311Y25896D01*
G01X16395Y25781D01*
G01X16342Y25708D01*
G01X16384D01*
G01X16423Y25761D01*
G01X16437Y25781D01*
G01X16423Y25801D01*
G01X16384Y25854D01*
G01X16449Y25847D01*
G01X16473Y25844D01*
G01X16484Y25867D01*
G01X16510Y25927D01*
G01X16536Y25867D01*
G01X16547Y25844D01*
G01X16571Y25847D01*
G01X16636Y25854D01*
G01X16597Y25801D01*
G01X16583Y25781D01*
G01X16597Y25761D01*
G01X16636Y25708D01*
G01X16571Y25715D01*
G01X16547Y25718D01*
G01X16536Y25695D01*
G01X16510Y25635D01*
G01X16484Y25695D01*
G01X16473Y25718D01*
G01X16449Y25715D01*
G01X16384Y25708D01*
G01X16342D01*
G01X16311Y25666D01*
G01X16453Y25681D01*
G01X16510Y25551D01*
G01X16567Y25681D01*
G01X16710Y25666D01*
G01X16625Y25781D01*
G01X16710Y25896D01*
G01X16567Y25881D01*
G37*
G36*
G01X17145Y26011D02*
G01X17088Y25881D01*
G01X16946Y25896D01*
G01X17030Y25781D01*
G01X16977Y25708D01*
G01X17019D01*
G01X17058Y25761D01*
G01X17072Y25781D01*
G01X17058Y25801D01*
G01X17019Y25854D01*
G01X17084Y25847D01*
G01X17108Y25844D01*
G01X17119Y25867D01*
G01X17145Y25927D01*
G01X17171Y25867D01*
G01X17182Y25844D01*
G01X17206Y25847D01*
G01X17271Y25854D01*
G01X17232Y25801D01*
G01X17218Y25781D01*
G01X17232Y25761D01*
G01X17271Y25708D01*
G01X17206Y25715D01*
G01X17182Y25718D01*
G01X17171Y25695D01*
G01X17145Y25635D01*
G01X17119Y25695D01*
G01X17108Y25718D01*
G01X17084Y25715D01*
G01X17019Y25708D01*
G01X16977D01*
G01X16946Y25666D01*
G01X17088Y25681D01*
G01X17145Y25551D01*
G01X17202Y25681D01*
G01X17345Y25666D01*
G01X17260Y25781D01*
G01X17345Y25896D01*
G01X17202Y25881D01*
G37*
G36*
G01X13970Y25884D02*
G01X13913Y25754D01*
G01X13771Y25769D01*
G01X13855Y25654D01*
G01X13802Y25581D01*
G01X13844D01*
G01X13883Y25634D01*
G01X13897Y25654D01*
G01X13883Y25674D01*
G01X13844Y25727D01*
G01X13909Y25720D01*
G01X13933Y25717D01*
G01X13944Y25740D01*
G01X13970Y25800D01*
G01X13996Y25740D01*
G01X14007Y25717D01*
G01X14031Y25720D01*
G01X14096Y25727D01*
G01X14057Y25674D01*
G01X14043Y25654D01*
G01X14057Y25634D01*
G01X14096Y25581D01*
G01X14031Y25588D01*
G01X14007Y25591D01*
G01X13996Y25568D01*
G01X13970Y25508D01*
G01X13944Y25568D01*
G01X13933Y25591D01*
G01X13909Y25588D01*
G01X13844Y25581D01*
G01X13802D01*
G01X13771Y25539D01*
G01X13913Y25554D01*
G01X13970Y25424D01*
G01X14027Y25554D01*
G01X14170Y25539D01*
G01X14085Y25654D01*
G01X14170Y25769D01*
G01X14027Y25754D01*
G37*
G36*
G01X11176Y7850D02*
G01X11119Y7720D01*
G01X10977Y7735D01*
G01X11061Y7620D01*
G01X11008Y7547D01*
G01X11050D01*
G01X11089Y7600D01*
G01X11103Y7620D01*
G01X11089Y7640D01*
G01X11050Y7693D01*
G01X11115Y7686D01*
G01X11139Y7683D01*
G01X11150Y7706D01*
G01X11176Y7766D01*
G01X11202Y7706D01*
G01X11213Y7683D01*
G01X11237Y7686D01*
G01X11302Y7693D01*
G01X11263Y7640D01*
G01X11249Y7620D01*
G01X11263Y7600D01*
G01X11302Y7547D01*
G01X11237Y7554D01*
G01X11213Y7557D01*
G01X11202Y7534D01*
G01X11176Y7474D01*
G01X11150Y7534D01*
G01X11139Y7557D01*
G01X11115Y7554D01*
G01X11050Y7547D01*
G01X11008D01*
G01X10977Y7505D01*
G01X11119Y7520D01*
G01X11176Y7390D01*
G01X11233Y7520D01*
G01X11376Y7505D01*
G01X11291Y7620D01*
G01X11376Y7735D01*
G01X11233Y7720D01*
G37*
G36*
G01X16256Y9120D02*
G01X16199Y8990D01*
G01X16057Y9005D01*
G01X16141Y8890D01*
G01X16088Y8817D01*
G01X16130D01*
G01X16169Y8870D01*
G01X16183Y8890D01*
G01X16169Y8910D01*
G01X16130Y8963D01*
G01X16195Y8956D01*
G01X16219Y8953D01*
G01X16230Y8976D01*
G01X16256Y9036D01*
G01X16282Y8976D01*
G01X16293Y8953D01*
G01X16317Y8956D01*
G01X16382Y8963D01*
G01X16343Y8910D01*
G01X16329Y8890D01*
G01X16343Y8870D01*
G01X16382Y8817D01*
G01X16317Y8824D01*
G01X16293Y8827D01*
G01X16282Y8804D01*
G01X16256Y8744D01*
G01X16230Y8804D01*
G01X16219Y8827D01*
G01X16195Y8824D01*
G01X16130Y8817D01*
G01X16088D01*
G01X16057Y8775D01*
G01X16199Y8790D01*
G01X16256Y8660D01*
G01X16313Y8790D01*
G01X16456Y8775D01*
G01X16371Y8890D01*
G01X16456Y9005D01*
G01X16313Y8990D01*
G37*
G36*
G01X13462Y10009D02*
G01X13405Y9879D01*
G01X13263Y9894D01*
G01X13347Y9779D01*
G01X13294Y9706D01*
G01X13336D01*
G01X13375Y9759D01*
G01X13389Y9779D01*
G01X13375Y9799D01*
G01X13336Y9852D01*
G01X13401Y9845D01*
G01X13425Y9842D01*
G01X13436Y9865D01*
G01X13462Y9925D01*
G01X13488Y9865D01*
G01X13499Y9842D01*
G01X13523Y9845D01*
G01X13588Y9852D01*
G01X13549Y9799D01*
G01X13535Y9779D01*
G01X13549Y9759D01*
G01X13588Y9706D01*
G01X13523Y9713D01*
G01X13499Y9716D01*
G01X13488Y9693D01*
G01X13462Y9633D01*
G01X13436Y9693D01*
G01X13425Y9716D01*
G01X13401Y9713D01*
G01X13336Y9706D01*
G01X13294D01*
G01X13263Y9664D01*
G01X13405Y9679D01*
G01X13462Y9549D01*
G01X13519Y9679D01*
G01X13662Y9664D01*
G01X13577Y9779D01*
G01X13662Y9894D01*
G01X13519Y9879D01*
G37*
G36*
G01X10668Y10009D02*
G01X10611Y9879D01*
G01X10469Y9894D01*
G01X10553Y9779D01*
G01X10500Y9706D01*
G01X10542D01*
G01X10581Y9759D01*
G01X10595Y9779D01*
G01X10581Y9799D01*
G01X10542Y9852D01*
G01X10607Y9845D01*
G01X10631Y9842D01*
G01X10642Y9865D01*
G01X10668Y9925D01*
G01X10694Y9865D01*
G01X10705Y9842D01*
G01X10729Y9845D01*
G01X10794Y9852D01*
G01X10755Y9799D01*
G01X10741Y9779D01*
G01X10755Y9759D01*
G01X10794Y9706D01*
G01X10729Y9713D01*
G01X10705Y9716D01*
G01X10694Y9693D01*
G01X10668Y9633D01*
G01X10642Y9693D01*
G01X10631Y9716D01*
G01X10607Y9713D01*
G01X10542Y9706D01*
G01X10500D01*
G01X10469Y9664D01*
G01X10611Y9679D01*
G01X10668Y9549D01*
G01X10725Y9679D01*
G01X10868Y9664D01*
G01X10783Y9779D01*
G01X10868Y9894D01*
G01X10725Y9879D01*
G37*
G36*
G01X6985Y1591D02*
G01X6928Y1460D01*
G01X6786Y1475D01*
G01X6870Y1360D01*
G01X6817Y1287D01*
G01X6859D01*
G01X6898Y1340D01*
G01X6912Y1360D01*
G01X6898Y1380D01*
G01X6859Y1433D01*
G01X6924Y1426D01*
G01X6948Y1423D01*
G01X6985Y1506D01*
G01X7011Y1446D01*
G01X7022Y1423D01*
G01X7046Y1426D01*
G01X7111Y1433D01*
G01X7072Y1380D01*
G01X7058Y1360D01*
G01X7072Y1340D01*
G01X7111Y1287D01*
G01X7046Y1294D01*
G01X7022Y1297D01*
G01X6985Y1215D01*
G01X6948Y1297D01*
G01X6924Y1294D01*
G01X6859Y1287D01*
G01X6817D01*
G01X6786Y1245D01*
G01X6928Y1260D01*
G01X6985Y1130D01*
G01X7042Y1260D01*
G01X7184Y1245D01*
G01X7100Y1360D01*
G01X7184Y1475D01*
G01X7042Y1460D01*
G37*
G36*
G01X30734Y22074D02*
G01X30677Y21944D01*
G01X30535Y21959D01*
G01X30619Y21844D01*
G01X30566Y21771D01*
G01X30608D01*
G01X30647Y21824D01*
G01X30661Y21844D01*
G01X30647Y21864D01*
G01X30608Y21917D01*
G01X30673Y21910D01*
G01X30697Y21907D01*
G01X30708Y21930D01*
G01X30734Y21990D01*
G01X30760Y21930D01*
G01X30771Y21907D01*
G01X30795Y21910D01*
G01X30860Y21917D01*
G01X30821Y21864D01*
G01X30807Y21844D01*
G01X30821Y21824D01*
G01X30860Y21771D01*
G01X30795Y21778D01*
G01X30771Y21781D01*
G01X30760Y21758D01*
G01X30734Y21698D01*
G01X30708Y21758D01*
G01X30697Y21781D01*
G01X30673Y21778D01*
G01X30608Y21771D01*
G01X30566D01*
G01X30535Y21729D01*
G01X30677Y21744D01*
G01X30734Y21614D01*
G01X30791Y21744D01*
G01X30934Y21729D01*
G01X30849Y21844D01*
G01X30934Y21959D01*
G01X30791Y21944D01*
G37*
G36*
G01X17348Y19144D02*
G01X17290Y19013D01*
G01X17149Y19029D01*
G01X17233Y18914D01*
G01X17180Y18841D01*
G01X17222D01*
G01X17260Y18894D01*
G01X17275Y18914D01*
G01X17260Y18934D01*
G01X17222Y18987D01*
G01X17287Y18979D01*
G01X17311Y18977D01*
G01X17348Y19059D01*
G01X17384Y18977D01*
G01X17409Y18979D01*
G01X17474Y18987D01*
G01X17436Y18934D01*
G01X17421Y18914D01*
G01X17436Y18894D01*
G01X17474Y18841D01*
G01X17409Y18848D01*
G01X17384Y18850D01*
G01X17348Y18768D01*
G01X17321Y18828D01*
G01X17311Y18850D01*
G01X17287Y18848D01*
G01X17222Y18841D01*
G01X17180D01*
G01X17149Y18799D01*
G01X17290Y18814D01*
G01X17348Y18683D01*
G01X17405Y18814D01*
G01X17547Y18799D01*
G01X17463Y18914D01*
G01X17547Y19029D01*
G01X17405Y19013D01*
G37*
G36*
G01X31747Y18613D02*
G01X31690Y18483D01*
G01X31547Y18498D01*
G01X31632Y18382D01*
G01X31578Y18310D01*
G01X31621D01*
G01X31660Y18363D01*
G01X31674Y18382D01*
G01X31660Y18403D01*
G01X31621Y18456D01*
G01X31685Y18449D01*
G01X31710Y18446D01*
G01X31747Y18528D01*
G01X31773Y18468D01*
G01X31784Y18446D01*
G01X31808Y18449D01*
G01X31873Y18456D01*
G01X31834Y18403D01*
G01X31820Y18382D01*
G01X31834Y18363D01*
G01X31873Y18310D01*
G01X31808Y18317D01*
G01X31784Y18319D01*
G01X31747Y18237D01*
G01X31710Y18319D01*
G01X31685Y18317D01*
G01X31621Y18310D01*
G01X31578D01*
G01X31547Y18268D01*
G01X31690Y18283D01*
G01X31747Y18152D01*
G01X31804Y18283D01*
G01X31946Y18268D01*
G01X31862Y18382D01*
G01X31946Y18498D01*
G01X31804Y18483D01*
G37*
G36*
G01X32288Y22588D02*
G01X32231Y22458D01*
G01X32089Y22473D01*
G01X32173Y22358D01*
G01X32120Y22285D01*
G01X32162D01*
G01X32201Y22338D01*
G01X32215Y22358D01*
G01X32201Y22378D01*
G01X32162Y22431D01*
G01X32227Y22424D01*
G01X32251Y22421D01*
G01X32288Y22503D01*
G01X32325Y22421D01*
G01X32349Y22424D01*
G01X32414Y22431D01*
G01X32375Y22378D01*
G01X32361Y22358D01*
G01X32375Y22338D01*
G01X32414Y22285D01*
G01X32349Y22292D01*
G01X32325Y22295D01*
G01X32288Y22212D01*
G01X32251Y22295D01*
G01X32227Y22292D01*
G01X32162Y22285D01*
G01X32120D01*
G01X32089Y22243D01*
G01X32231Y22258D01*
G01X32288Y22127D01*
G01X32345Y22258D01*
G01X32488Y22243D01*
G01X32403Y22358D01*
G01X32488Y22473D01*
G01X32345Y22458D01*
G37*
G36*
G01X25903Y27632D02*
G01X25846Y27501D01*
G01X25703Y27516D01*
G01X25788Y27402D01*
G01X25734Y27328D01*
G01X25777D01*
G01X25816Y27381D01*
G01X25830Y27402D01*
G01X25816Y27421D01*
G01X25777Y27474D01*
G01X25841Y27467D01*
G01X25866Y27465D01*
G01X25903Y27547D01*
G01X25939Y27465D01*
G01X25964Y27467D01*
G01X26029Y27474D01*
G01X25990Y27421D01*
G01X25976Y27402D01*
G01X25990Y27381D01*
G01X26029Y27328D01*
G01X25964Y27335D01*
G01X25939Y27338D01*
G01X25903Y27256D01*
G01X25877Y27316D01*
G01X25866Y27338D01*
G01X25841Y27335D01*
G01X25777Y27328D01*
G01X25734D01*
G01X25703Y27286D01*
G01X25846Y27301D01*
G01X25903Y27171D01*
G01X25960Y27301D01*
G01X26102Y27286D01*
G01X26018Y27402D01*
G01X26102Y27516D01*
G01X25960Y27501D01*
G37*
G36*
G01X31368Y22077D02*
G01X31311Y21946D01*
G01X31168Y21961D01*
G01X31253Y21847D01*
G01X31199Y21773D01*
G01X31242D01*
G01X31281Y21826D01*
G01X31295Y21847D01*
G01X31281Y21866D01*
G01X31242Y21919D01*
G01X31307Y21912D01*
G01X31331Y21910D01*
G01X31368Y21992D01*
G01X31405Y21910D01*
G01X31429Y21912D01*
G01X31494Y21919D01*
G01X31455Y21866D01*
G01X31441Y21847D01*
G01X31455Y21826D01*
G01X31494Y21773D01*
G01X31429Y21781D01*
G01X31405Y21783D01*
G01X31394Y21761D01*
G01X31368Y21701D01*
G01X31342Y21761D01*
G01X31331Y21783D01*
G01X31307Y21781D01*
G01X31242Y21773D01*
G01X31199D01*
G01X31168Y21731D01*
G01X31311Y21746D01*
G01X31368Y21616D01*
G01X31425Y21746D01*
G01X31567Y21731D01*
G01X31483Y21847D01*
G01X31567Y21961D01*
G01X31425Y21946D01*
G37*
G36*
G01X31017Y22585D02*
G01X30960Y22454D01*
G01X30818Y22469D01*
G01X30902Y22355D01*
G01X30849Y22281D01*
G01X30891D01*
G01X30930Y22334D01*
G01X30944Y22355D01*
G01X30930Y22374D01*
G01X30891Y22427D01*
G01X30956Y22420D01*
G01X30981Y22418D01*
G01X31017Y22500D01*
G01X31044Y22440D01*
G01X31054Y22418D01*
G01X31078Y22420D01*
G01X31143Y22427D01*
G01X31105Y22374D01*
G01X31090Y22355D01*
G01X31105Y22334D01*
G01X31143Y22281D01*
G01X31078Y22289D01*
G01X31054Y22291D01*
G01X31044Y22269D01*
G01X31017Y22209D01*
G01X30991Y22269D01*
G01X30981Y22291D01*
G01X30956Y22289D01*
G01X30891Y22281D01*
G01X30849D01*
G01X30818Y22239D01*
G01X30960Y22254D01*
G01X31017Y22124D01*
G01X31075Y22254D01*
G01X31217Y22239D01*
G01X31132Y22355D01*
G01X31217Y22469D01*
G01X31075Y22454D01*
G37*
G36*
G01X31651Y22586D02*
G01X31594Y22455D01*
G01X31452Y22470D01*
G01X31536Y22355D01*
G01X31483Y22282D01*
G01X31525D01*
G01X31564Y22335D01*
G01X31578Y22355D01*
G01X31564Y22375D01*
G01X31525Y22428D01*
G01X31590Y22421D01*
G01X31615Y22419D01*
G01X31651Y22501D01*
G01X31678Y22441D01*
G01X31688Y22419D01*
G01X31712Y22421D01*
G01X31777Y22428D01*
G01X31739Y22375D01*
G01X31724Y22355D01*
G01X31739Y22335D01*
G01X31777Y22282D01*
G01X31712Y22290D01*
G01X31688Y22292D01*
G01X31651Y22210D01*
G01X31615Y22292D01*
G01X31590Y22290D01*
G01X31525Y22282D01*
G01X31483D01*
G01X31452Y22240D01*
G01X31594Y22255D01*
G01X31651Y22125D01*
G01X31709Y22255D01*
G01X31851Y22240D01*
G01X31766Y22355D01*
G01X31851Y22470D01*
G01X31709Y22455D01*
G37*
G36*
G01X31947Y22067D02*
G01X31889Y21936D01*
G01X31747Y21952D01*
G01X31831Y21837D01*
G01X31778Y21764D01*
G01X31821D01*
G01X31859Y21817D01*
G01X31874Y21837D01*
G01X31859Y21857D01*
G01X31821Y21910D01*
G01X31885Y21903D01*
G01X31910Y21900D01*
G01X31920Y21923D01*
G01X31947Y21983D01*
G01X31973Y21923D01*
G01X31983Y21900D01*
G01X32008Y21903D01*
G01X32073Y21910D01*
G01X32034Y21857D01*
G01X32019Y21837D01*
G01X32034Y21817D01*
G01X32073Y21764D01*
G01X32008Y21771D01*
G01X31983Y21774D01*
G01X31973Y21751D01*
G01X31947Y21691D01*
G01X31920Y21751D01*
G01X31910Y21774D01*
G01X31885Y21771D01*
G01X31821Y21764D01*
G01X31778D01*
G01X31747Y21722D01*
G01X31889Y21737D01*
G01X31947Y21607D01*
G01X32004Y21737D01*
G01X32146Y21722D01*
G01X32062Y21837D01*
G01X32146Y21952D01*
G01X32004Y21936D01*
G37*
G36*
G01X32923Y22587D02*
G01X32866Y22457D01*
G01X32723Y22472D01*
G01X32808Y22357D01*
G01X32754Y22284D01*
G01X32797D01*
G01X32836Y22337D01*
G01X32850Y22357D01*
G01X32836Y22377D01*
G01X32797Y22430D01*
G01X32862Y22423D01*
G01X32886Y22420D01*
G01X32897Y22442D01*
G01X32923Y22502D01*
G01X32949Y22442D01*
G01X32960Y22420D01*
G01X32984Y22423D01*
G01X33049Y22430D01*
G01X33010Y22377D01*
G01X32996Y22357D01*
G01X33010Y22337D01*
G01X33049Y22284D01*
G01X32984Y22291D01*
G01X32960Y22294D01*
G01X32923Y22211D01*
G01X32886Y22294D01*
G01X32862Y22291D01*
G01X32797Y22284D01*
G01X32754D01*
G01X32723Y22242D01*
G01X32866Y22257D01*
G01X32923Y22126D01*
G01X32980Y22257D01*
G01X33122Y22242D01*
G01X33038Y22357D01*
G01X33122Y22472D01*
G01X32980Y22457D01*
G37*
G36*
G01X33559Y22590D02*
G01X33502Y22459D01*
G01X33360Y22474D01*
G01X33445Y22359D01*
G01X33391Y22286D01*
G01X33434D01*
G01X33472Y22339D01*
G01X33487Y22359D01*
G01X33472Y22379D01*
G01X33434Y22432D01*
G01X33499Y22425D01*
G01X33523Y22423D01*
G01X33533Y22445D01*
G01X33559Y22505D01*
G01X33586Y22445D01*
G01X33596Y22422D01*
G01X33621Y22425D01*
G01X33686Y22432D01*
G01X33647Y22379D01*
G01X33633Y22359D01*
G01X33647Y22339D01*
G01X33686Y22286D01*
G01X33621Y22294D01*
G01X33596Y22296D01*
G01X33559Y22214D01*
G01X33533Y22273D01*
G01X33523Y22296D01*
G01X33499Y22294D01*
G01X33434Y22286D01*
G01X33391D01*
G01X33360Y22244D01*
G01X33502Y22260D01*
G01X33559Y22129D01*
G01X33617Y22260D01*
G01X33759Y22244D01*
G01X33675Y22359D01*
G01X33759Y22474D01*
G01X33617Y22459D01*
G37*
G36*
G01X34197Y22593D02*
G01X34139Y22463D01*
G01X33997Y22478D01*
G01X34082Y22363D01*
G01X34028Y22290D01*
G01X34071D01*
G01X34109Y22343D01*
G01X34124Y22363D01*
G01X34109Y22383D01*
G01X34071Y22436D01*
G01X34136Y22429D01*
G01X34160Y22426D01*
G01X34171Y22449D01*
G01X34197Y22509D01*
G01X34223Y22449D01*
G01X34233Y22426D01*
G01X34258Y22429D01*
G01X34323Y22436D01*
G01X34284Y22383D01*
G01X34270Y22363D01*
G01X34284Y22343D01*
G01X34323Y22290D01*
G01X34258Y22297D01*
G01X34233Y22300D01*
G01X34223Y22277D01*
G01X34197Y22217D01*
G01X34171Y22277D01*
G01X34160Y22300D01*
G01X34136Y22297D01*
G01X34071Y22290D01*
G01X34028D01*
G01X33997Y22248D01*
G01X34139Y22264D01*
G01X34197Y22133D01*
G01X34254Y22264D01*
G01X34396Y22248D01*
G01X34312Y22363D01*
G01X34396Y22478D01*
G01X34254Y22463D01*
G37*
G36*
G01X32109Y20308D02*
G01X32052Y20178D01*
G01X31910Y20193D01*
G01X31994Y20078D01*
G01X31941Y20005D01*
G01X31983D01*
G01X32021Y20058D01*
G01X32036Y20078D01*
G01X32021Y20098D01*
G01X31983Y20151D01*
G01X32048Y20144D01*
G01X32073Y20141D01*
G01X32109Y20223D01*
G01X32146Y20141D01*
G01X32170Y20144D01*
G01X32235Y20151D01*
G01X32197Y20098D01*
G01X32182Y20078D01*
G01X32197Y20058D01*
G01X32235Y20005D01*
G01X32170Y20012D01*
G01X32146Y20015D01*
G01X32109Y19932D01*
G01X32083Y19992D01*
G01X32073Y20015D01*
G01X32048Y20012D01*
G01X31983Y20005D01*
G01X31941D01*
G01X31910Y19963D01*
G01X32052Y19978D01*
G01X32109Y19848D01*
G01X32167Y19978D01*
G01X32308Y19963D01*
G01X32224Y20078D01*
G01X32308Y20193D01*
G01X32167Y20178D01*
G37*
G36*
G01X22277Y5489D02*
G01X22219Y5359D01*
G01X22078Y5374D01*
G01X22162Y5259D01*
G01X22109Y5186D01*
G01X22151D01*
G01X22189Y5239D01*
G01X22204Y5259D01*
G01X22189Y5279D01*
G01X22151Y5332D01*
G01X22216Y5325D01*
G01X22241Y5322D01*
G01X22277Y5405D01*
G01X22303Y5345D01*
G01X22313Y5322D01*
G01X22338Y5325D01*
G01X22403Y5332D01*
G01X22365Y5279D01*
G01X22350Y5259D01*
G01X22365Y5239D01*
G01X22403Y5186D01*
G01X22338Y5193D01*
G01X22313Y5196D01*
G01X22303Y5173D01*
G01X22277Y5114D01*
G01X22241Y5196D01*
G01X22216Y5193D01*
G01X22151Y5186D01*
G01X22109D01*
G01X22078Y5144D01*
G01X22219Y5159D01*
G01X22277Y5029D01*
G01X22335Y5159D01*
G01X22476Y5144D01*
G01X22392Y5259D01*
G01X22476Y5374D01*
G01X22335Y5359D01*
G37*
G36*
G01X21971Y8104D02*
G01X21914Y7974D01*
G01X21772Y7989D01*
G01X21856Y7874D01*
G01X21803Y7801D01*
G01X21845D01*
G01X21884Y7854D01*
G01X21898Y7874D01*
G01X21884Y7894D01*
G01X21845Y7947D01*
G01X21910Y7940D01*
G01X21934Y7937D01*
G01X21945Y7960D01*
G01X21971Y8020D01*
G01X21997Y7960D01*
G01X22008Y7937D01*
G01X22032Y7940D01*
G01X22097Y7947D01*
G01X22058Y7894D01*
G01X22044Y7874D01*
G01X22058Y7854D01*
G01X22097Y7801D01*
G01X22032Y7808D01*
G01X22008Y7811D01*
G01X21997Y7788D01*
G01X21971Y7728D01*
G01X21945Y7788D01*
G01X21934Y7811D01*
G01X21910Y7808D01*
G01X21845Y7801D01*
G01X21803D01*
G01X21772Y7759D01*
G01X21914Y7774D01*
G01X21971Y7644D01*
G01X22028Y7774D01*
G01X22171Y7759D01*
G01X22086Y7874D01*
G01X22171Y7989D01*
G01X22028Y7974D01*
G37*
G36*
G01X23599Y5492D02*
G01X23542Y5361D01*
G01X23400Y5377D01*
G01X23484Y5262D01*
G01X23431Y5189D01*
G01X23473D01*
G01X23512Y5242D01*
G01X23526Y5262D01*
G01X23512Y5282D01*
G01X23473Y5335D01*
G01X23538Y5327D01*
G01X23563Y5325D01*
G01X23573Y5348D01*
G01X23599Y5407D01*
G01X23636Y5325D01*
G01X23661Y5327D01*
G01X23726Y5335D01*
G01X23687Y5282D01*
G01X23672Y5262D01*
G01X23687Y5242D01*
G01X23726Y5189D01*
G01X23661Y5196D01*
G01X23636Y5198D01*
G01X23599Y5116D01*
G01X23573Y5176D01*
G01X23563Y5198D01*
G01X23538Y5196D01*
G01X23473Y5189D01*
G01X23431D01*
G01X23400Y5147D01*
G01X23542Y5162D01*
G01X23599Y5031D01*
G01X23657Y5162D01*
G01X23799Y5147D01*
G01X23714Y5262D01*
G01X23799Y5377D01*
G01X23657Y5361D01*
G37*
G36*
G01X25423Y5492D02*
G01X25365Y5361D01*
G01X25223Y5377D01*
G01X25308Y5262D01*
G01X25254Y5189D01*
G01X25296D01*
G01X25335Y5242D01*
G01X25350Y5262D01*
G01X25335Y5282D01*
G01X25296Y5335D01*
G01X25361Y5327D01*
G01X25386Y5325D01*
G01X25423Y5407D01*
G01X25449Y5348D01*
G01X25459Y5325D01*
G01X25484Y5327D01*
G01X25549Y5335D01*
G01X25510Y5282D01*
G01X25496Y5262D01*
G01X25510Y5242D01*
G01X25549Y5189D01*
G01X25484Y5196D01*
G01X25459Y5198D01*
G01X25449Y5176D01*
G01X25423Y5116D01*
G01X25396Y5176D01*
G01X25386Y5198D01*
G01X25361Y5196D01*
G01X25296Y5189D01*
G01X25254D01*
G01X25223Y5147D01*
G01X25365Y5162D01*
G01X25423Y5031D01*
G01X25480Y5162D01*
G01X25622Y5147D01*
G01X25538Y5262D01*
G01X25622Y5377D01*
G01X25480Y5361D01*
G37*
G36*
G01X23599Y4857D02*
G01X23542Y4726D01*
G01X23400Y4742D01*
G01X23484Y4627D01*
G01X23431Y4554D01*
G01X23473D01*
G01X23512Y4607D01*
G01X23526Y4627D01*
G01X23512Y4647D01*
G01X23473Y4700D01*
G01X23538Y4692D01*
G01X23563Y4690D01*
G01X23573Y4713D01*
G01X23599Y4772D01*
G01X23636Y4690D01*
G01X23661Y4692D01*
G01X23726Y4700D01*
G01X23687Y4647D01*
G01X23672Y4627D01*
G01X23687Y4607D01*
G01X23726Y4554D01*
G01X23661Y4561D01*
G01X23636Y4563D01*
G01X23599Y4481D01*
G01X23573Y4541D01*
G01X23563Y4563D01*
G01X23538Y4561D01*
G01X23473Y4554D01*
G01X23431D01*
G01X23400Y4512D01*
G01X23542Y4527D01*
G01X23599Y4396D01*
G01X23657Y4527D01*
G01X23799Y4512D01*
G01X23714Y4627D01*
G01X23799Y4742D01*
G01X23657Y4726D01*
G37*
G36*
G01X25423Y4857D02*
G01X25365Y4726D01*
G01X25223Y4742D01*
G01X25308Y4627D01*
G01X25254Y4554D01*
G01X25296D01*
G01X25335Y4607D01*
G01X25350Y4627D01*
G01X25335Y4647D01*
G01X25296Y4700D01*
G01X25361Y4692D01*
G01X25386Y4690D01*
G01X25423Y4772D01*
G01X25449Y4713D01*
G01X25459Y4690D01*
G01X25484Y4692D01*
G01X25549Y4700D01*
G01X25510Y4647D01*
G01X25496Y4627D01*
G01X25510Y4607D01*
G01X25549Y4554D01*
G01X25484Y4561D01*
G01X25459Y4563D01*
G01X25449Y4541D01*
G01X25423Y4481D01*
G01X25396Y4541D01*
G01X25386Y4563D01*
G01X25361Y4561D01*
G01X25296Y4554D01*
G01X25254D01*
G01X25223Y4512D01*
G01X25365Y4527D01*
G01X25423Y4396D01*
G01X25480Y4527D01*
G01X25622Y4512D01*
G01X25538Y4627D01*
G01X25622Y4742D01*
G01X25480Y4726D01*
G37*
G36*
G01X25423Y4222D02*
G01X25365Y4091D01*
G01X25223Y4107D01*
G01X25308Y3992D01*
G01X25254Y3919D01*
G01X25296D01*
G01X25335Y3972D01*
G01X25350Y3992D01*
G01X25335Y4012D01*
G01X25296Y4065D01*
G01X25361Y4057D01*
G01X25386Y4055D01*
G01X25423Y4137D01*
G01X25449Y4078D01*
G01X25459Y4055D01*
G01X25484Y4057D01*
G01X25549Y4065D01*
G01X25510Y4012D01*
G01X25496Y3992D01*
G01X25510Y3972D01*
G01X25549Y3919D01*
G01X25484Y3926D01*
G01X25459Y3928D01*
G01X25449Y3906D01*
G01X25423Y3846D01*
G01X25396Y3906D01*
G01X25386Y3928D01*
G01X25361Y3926D01*
G01X25296Y3919D01*
G01X25254D01*
G01X25223Y3877D01*
G01X25365Y3892D01*
G01X25423Y3761D01*
G01X25480Y3892D01*
G01X25622Y3877D01*
G01X25538Y3992D01*
G01X25622Y4107D01*
G01X25480Y4091D01*
G37*
G36*
G01X23599Y4222D02*
G01X23542Y4091D01*
G01X23400Y4107D01*
G01X23484Y3992D01*
G01X23431Y3919D01*
G01X23473D01*
G01X23512Y3972D01*
G01X23526Y3992D01*
G01X23512Y4012D01*
G01X23473Y4065D01*
G01X23538Y4057D01*
G01X23563Y4055D01*
G01X23573Y4078D01*
G01X23599Y4137D01*
G01X23636Y4055D01*
G01X23661Y4057D01*
G01X23726Y4065D01*
G01X23687Y4012D01*
G01X23672Y3992D01*
G01X23687Y3972D01*
G01X23726Y3919D01*
G01X23661Y3926D01*
G01X23636Y3928D01*
G01X23599Y3846D01*
G01X23573Y3906D01*
G01X23563Y3928D01*
G01X23538Y3926D01*
G01X23473Y3919D01*
G01X23431D01*
G01X23400Y3877D01*
G01X23542Y3892D01*
G01X23599Y3761D01*
G01X23657Y3892D01*
G01X23799Y3877D01*
G01X23714Y3992D01*
G01X23799Y4107D01*
G01X23657Y4091D01*
G37*
G36*
G01X25527Y6834D02*
G01X25470Y6704D01*
G01X25328Y6719D01*
G01X25412Y6604D01*
G01X25359Y6531D01*
G01X25401D01*
G01X25440Y6584D01*
G01X25454Y6604D01*
G01X25440Y6624D01*
G01X25401Y6677D01*
G01X25466Y6670D01*
G01X25490Y6667D01*
G01X25501Y6690D01*
G01X25527Y6750D01*
G01X25553Y6690D01*
G01X25564Y6667D01*
G01X25588Y6670D01*
G01X25653Y6677D01*
G01X25614Y6624D01*
G01X25600Y6604D01*
G01X25614Y6584D01*
G01X25653Y6531D01*
G01X25588Y6538D01*
G01X25564Y6541D01*
G01X25553Y6518D01*
G01X25527Y6458D01*
G01X25501Y6518D01*
G01X25490Y6541D01*
G01X25466Y6538D01*
G01X25401Y6531D01*
G01X25359D01*
G01X25328Y6489D01*
G01X25470Y6504D01*
G01X25527Y6374D01*
G01X25584Y6504D01*
G01X25727Y6489D01*
G01X25642Y6604D01*
G01X25727Y6719D01*
G01X25584Y6704D01*
G37*
G36*
G01X25908Y6199D02*
G01X25851Y6069D01*
G01X25709Y6084D01*
G01X25793Y5969D01*
G01X25740Y5896D01*
G01X25782D01*
G01X25821Y5949D01*
G01X25835Y5969D01*
G01X25821Y5989D01*
G01X25782Y6042D01*
G01X25847Y6035D01*
G01X25871Y6032D01*
G01X25882Y6055D01*
G01X25908Y6115D01*
G01X25934Y6055D01*
G01X25945Y6032D01*
G01X25969Y6035D01*
G01X26034Y6042D01*
G01X25995Y5989D01*
G01X25981Y5969D01*
G01X25995Y5949D01*
G01X26034Y5896D01*
G01X25969Y5903D01*
G01X25945Y5906D01*
G01X25934Y5883D01*
G01X25908Y5823D01*
G01X25882Y5883D01*
G01X25871Y5906D01*
G01X25847Y5903D01*
G01X25782Y5896D01*
G01X25740D01*
G01X25709Y5854D01*
G01X25851Y5869D01*
G01X25908Y5739D01*
G01X25965Y5869D01*
G01X26108Y5854D01*
G01X26023Y5969D01*
G01X26108Y6084D01*
G01X25965Y6069D01*
G37*
G36*
G01X32893Y6072D02*
G01X32836Y5942D01*
G01X32694Y5957D01*
G01X32778Y5842D01*
G01X32725Y5769D01*
G01X32767D01*
G01X32806Y5822D01*
G01X32820Y5842D01*
G01X32806Y5862D01*
G01X32767Y5915D01*
G01X32832Y5908D01*
G01X32856Y5905D01*
G01X32867Y5928D01*
G01X32893Y5988D01*
G01X32919Y5928D01*
G01X32930Y5905D01*
G01X32954Y5908D01*
G01X33019Y5915D01*
G01X32980Y5862D01*
G01X32966Y5842D01*
G01X32980Y5822D01*
G01X33019Y5769D01*
G01X32954Y5776D01*
G01X32930Y5779D01*
G01X32919Y5756D01*
G01X32893Y5696D01*
G01X32867Y5756D01*
G01X32856Y5779D01*
G01X32832Y5776D01*
G01X32767Y5769D01*
G01X32725D01*
G01X32694Y5727D01*
G01X32836Y5742D01*
G01X32893Y5612D01*
G01X32950Y5742D01*
G01X33093Y5727D01*
G01X33008Y5842D01*
G01X33093Y5957D01*
G01X32950Y5942D01*
G37*
G36*
G01X33528Y6072D02*
G01X33471Y5942D01*
G01X33329Y5957D01*
G01X33413Y5842D01*
G01X33360Y5769D01*
G01X33402D01*
G01X33441Y5822D01*
G01X33455Y5842D01*
G01X33441Y5862D01*
G01X33402Y5915D01*
G01X33467Y5908D01*
G01X33491Y5905D01*
G01X33502Y5928D01*
G01X33528Y5988D01*
G01X33554Y5928D01*
G01X33565Y5905D01*
G01X33589Y5908D01*
G01X33654Y5915D01*
G01X33615Y5862D01*
G01X33601Y5842D01*
G01X33615Y5822D01*
G01X33654Y5769D01*
G01X33589Y5776D01*
G01X33565Y5779D01*
G01X33554Y5756D01*
G01X33528Y5696D01*
G01X33502Y5756D01*
G01X33491Y5779D01*
G01X33467Y5776D01*
G01X33402Y5769D01*
G01X33360D01*
G01X33329Y5727D01*
G01X33471Y5742D01*
G01X33528Y5612D01*
G01X33585Y5742D01*
G01X33728Y5727D01*
G01X33643Y5842D01*
G01X33728Y5957D01*
G01X33585Y5942D01*
G37*
G36*
G01X34163Y6072D02*
G01X34106Y5942D01*
G01X33964Y5957D01*
G01X34048Y5842D01*
G01X33995Y5769D01*
G01X34037D01*
G01X34076Y5822D01*
G01X34090Y5842D01*
G01X34076Y5862D01*
G01X34037Y5915D01*
G01X34102Y5908D01*
G01X34126Y5905D01*
G01X34137Y5928D01*
G01X34163Y5988D01*
G01X34189Y5928D01*
G01X34200Y5905D01*
G01X34224Y5908D01*
G01X34289Y5915D01*
G01X34250Y5862D01*
G01X34236Y5842D01*
G01X34250Y5822D01*
G01X34289Y5769D01*
G01X34224Y5776D01*
G01X34200Y5779D01*
G01X34189Y5756D01*
G01X34163Y5696D01*
G01X34137Y5756D01*
G01X34126Y5779D01*
G01X34102Y5776D01*
G01X34037Y5769D01*
G01X33995D01*
G01X33964Y5727D01*
G01X34106Y5742D01*
G01X34163Y5612D01*
G01X34220Y5742D01*
G01X34363Y5727D01*
G01X34278Y5842D01*
G01X34363Y5957D01*
G01X34220Y5942D01*
G37*
G36*
G01X32893Y5437D02*
G01X32836Y5307D01*
G01X32694Y5322D01*
G01X32778Y5207D01*
G01X32725Y5134D01*
G01X32767D01*
G01X32806Y5187D01*
G01X32820Y5207D01*
G01X32806Y5227D01*
G01X32767Y5280D01*
G01X32832Y5273D01*
G01X32856Y5270D01*
G01X32867Y5293D01*
G01X32893Y5353D01*
G01X32919Y5293D01*
G01X32930Y5270D01*
G01X32954Y5273D01*
G01X33019Y5280D01*
G01X32980Y5227D01*
G01X32966Y5207D01*
G01X32980Y5187D01*
G01X33019Y5134D01*
G01X32954Y5141D01*
G01X32930Y5144D01*
G01X32919Y5121D01*
G01X32893Y5061D01*
G01X32867Y5121D01*
G01X32856Y5144D01*
G01X32832Y5141D01*
G01X32767Y5134D01*
G01X32725D01*
G01X32694Y5092D01*
G01X32836Y5107D01*
G01X32893Y4977D01*
G01X32950Y5107D01*
G01X33093Y5092D01*
G01X33008Y5207D01*
G01X33093Y5322D01*
G01X32950Y5307D01*
G37*
G36*
G01X33528Y5437D02*
G01X33471Y5307D01*
G01X33329Y5322D01*
G01X33413Y5207D01*
G01X33360Y5134D01*
G01X33402D01*
G01X33441Y5187D01*
G01X33455Y5207D01*
G01X33441Y5227D01*
G01X33402Y5280D01*
G01X33467Y5273D01*
G01X33491Y5270D01*
G01X33502Y5293D01*
G01X33528Y5353D01*
G01X33554Y5293D01*
G01X33565Y5270D01*
G01X33589Y5273D01*
G01X33654Y5280D01*
G01X33615Y5227D01*
G01X33601Y5207D01*
G01X33615Y5187D01*
G01X33654Y5134D01*
G01X33589Y5141D01*
G01X33565Y5144D01*
G01X33554Y5121D01*
G01X33528Y5061D01*
G01X33502Y5121D01*
G01X33491Y5144D01*
G01X33467Y5141D01*
G01X33402Y5134D01*
G01X33360D01*
G01X33329Y5092D01*
G01X33471Y5107D01*
G01X33528Y4977D01*
G01X33585Y5107D01*
G01X33728Y5092D01*
G01X33643Y5207D01*
G01X33728Y5322D01*
G01X33585Y5307D01*
G37*
G36*
G01X34163Y5437D02*
G01X34106Y5307D01*
G01X33964Y5322D01*
G01X34048Y5207D01*
G01X33995Y5134D01*
G01X34037D01*
G01X34076Y5187D01*
G01X34090Y5207D01*
G01X34076Y5227D01*
G01X34037Y5280D01*
G01X34102Y5273D01*
G01X34126Y5270D01*
G01X34137Y5293D01*
G01X34163Y5353D01*
G01X34189Y5293D01*
G01X34200Y5270D01*
G01X34224Y5273D01*
G01X34289Y5280D01*
G01X34250Y5227D01*
G01X34236Y5207D01*
G01X34250Y5187D01*
G01X34289Y5134D01*
G01X34224Y5141D01*
G01X34200Y5144D01*
G01X34189Y5121D01*
G01X34163Y5061D01*
G01X34137Y5121D01*
G01X34126Y5144D01*
G01X34102Y5141D01*
G01X34037Y5134D01*
G01X33995D01*
G01X33964Y5092D01*
G01X34106Y5107D01*
G01X34163Y4977D01*
G01X34220Y5107D01*
G01X34363Y5092D01*
G01X34278Y5207D01*
G01X34363Y5322D01*
G01X34220Y5307D01*
G37*
G36*
G01X32896Y4169D02*
G01X32838Y4038D01*
G01X32696Y4054D01*
G01X32781Y3939D01*
G01X32727Y3866D01*
G01X32770D01*
G01X32808Y3919D01*
G01X32823Y3939D01*
G01X32808Y3959D01*
G01X32770Y4012D01*
G01X32835Y4005D01*
G01X32859Y4002D01*
G01X32869Y4024D01*
G01X32896Y4084D01*
G01X32922Y4024D01*
G01X32932Y4002D01*
G01X32957Y4005D01*
G01X33022Y4012D01*
G01X32983Y3959D01*
G01X32969Y3939D01*
G01X32983Y3919D01*
G01X33022Y3866D01*
G01X32957Y3873D01*
G01X32932Y3876D01*
G01X32922Y3853D01*
G01X32896Y3793D01*
G01X32869Y3853D01*
G01X32859Y3876D01*
G01X32835Y3873D01*
G01X32770Y3866D01*
G01X32727D01*
G01X32696Y3824D01*
G01X32838Y3839D01*
G01X32896Y3708D01*
G01X32953Y3839D01*
G01X33095Y3824D01*
G01X33011Y3939D01*
G01X33095Y4054D01*
G01X32953Y4038D01*
G37*
G36*
G01X33531Y4169D02*
G01X33473Y4038D01*
G01X33331Y4054D01*
G01X33416Y3939D01*
G01X33362Y3866D01*
G01X33405D01*
G01X33443Y3919D01*
G01X33458Y3939D01*
G01X33443Y3959D01*
G01X33405Y4012D01*
G01X33470Y4005D01*
G01X33494Y4002D01*
G01X33504Y4024D01*
G01X33531Y4084D01*
G01X33557Y4024D01*
G01X33567Y4002D01*
G01X33592Y4005D01*
G01X33657Y4012D01*
G01X33618Y3959D01*
G01X33604Y3939D01*
G01X33618Y3919D01*
G01X33657Y3866D01*
G01X33592Y3873D01*
G01X33567Y3876D01*
G01X33557Y3853D01*
G01X33531Y3793D01*
G01X33504Y3853D01*
G01X33494Y3876D01*
G01X33470Y3873D01*
G01X33405Y3866D01*
G01X33362D01*
G01X33331Y3824D01*
G01X33473Y3839D01*
G01X33531Y3708D01*
G01X33588Y3839D01*
G01X33730Y3824D01*
G01X33646Y3939D01*
G01X33730Y4054D01*
G01X33588Y4038D01*
G37*
G36*
G01X34166Y4169D02*
G01X34108Y4038D01*
G01X33966Y4054D01*
G01X34051Y3939D01*
G01X33997Y3866D01*
G01X34040D01*
G01X34078Y3919D01*
G01X34093Y3939D01*
G01X34078Y3959D01*
G01X34040Y4012D01*
G01X34105Y4005D01*
G01X34129Y4002D01*
G01X34139Y4024D01*
G01X34166Y4084D01*
G01X34192Y4024D01*
G01X34202Y4002D01*
G01X34227Y4005D01*
G01X34292Y4012D01*
G01X34253Y3959D01*
G01X34239Y3939D01*
G01X34253Y3919D01*
G01X34292Y3866D01*
G01X34227Y3873D01*
G01X34202Y3876D01*
G01X34192Y3853D01*
G01X34166Y3793D01*
G01X34139Y3853D01*
G01X34129Y3876D01*
G01X34105Y3873D01*
G01X34040Y3866D01*
G01X33997D01*
G01X33966Y3824D01*
G01X34108Y3839D01*
G01X34166Y3708D01*
G01X34223Y3839D01*
G01X34365Y3824D01*
G01X34281Y3939D01*
G01X34365Y4054D01*
G01X34223Y4038D01*
G37*
G36*
G01X32896Y4804D02*
G01X32838Y4673D01*
G01X32696Y4689D01*
G01X32781Y4574D01*
G01X32727Y4501D01*
G01X32770D01*
G01X32808Y4554D01*
G01X32823Y4574D01*
G01X32808Y4594D01*
G01X32770Y4647D01*
G01X32835Y4640D01*
G01X32859Y4637D01*
G01X32869Y4659D01*
G01X32896Y4719D01*
G01X32922Y4659D01*
G01X32932Y4637D01*
G01X32957Y4640D01*
G01X33022Y4647D01*
G01X32983Y4594D01*
G01X32969Y4574D01*
G01X32983Y4554D01*
G01X33022Y4501D01*
G01X32957Y4508D01*
G01X32932Y4511D01*
G01X32922Y4488D01*
G01X32896Y4428D01*
G01X32869Y4488D01*
G01X32859Y4511D01*
G01X32835Y4508D01*
G01X32770Y4501D01*
G01X32727D01*
G01X32696Y4459D01*
G01X32838Y4474D01*
G01X32896Y4343D01*
G01X32953Y4474D01*
G01X33095Y4459D01*
G01X33011Y4574D01*
G01X33095Y4689D01*
G01X32953Y4673D01*
G37*
G36*
G01X33531Y4804D02*
G01X33473Y4673D01*
G01X33331Y4689D01*
G01X33416Y4574D01*
G01X33362Y4501D01*
G01X33405D01*
G01X33443Y4554D01*
G01X33458Y4574D01*
G01X33443Y4594D01*
G01X33405Y4647D01*
G01X33470Y4640D01*
G01X33494Y4637D01*
G01X33504Y4659D01*
G01X33531Y4719D01*
G01X33557Y4659D01*
G01X33567Y4637D01*
G01X33592Y4640D01*
G01X33657Y4647D01*
G01X33618Y4594D01*
G01X33604Y4574D01*
G01X33618Y4554D01*
G01X33657Y4501D01*
G01X33592Y4508D01*
G01X33567Y4511D01*
G01X33557Y4488D01*
G01X33531Y4428D01*
G01X33504Y4488D01*
G01X33494Y4511D01*
G01X33470Y4508D01*
G01X33405Y4501D01*
G01X33362D01*
G01X33331Y4459D01*
G01X33473Y4474D01*
G01X33531Y4343D01*
G01X33588Y4474D01*
G01X33730Y4459D01*
G01X33646Y4574D01*
G01X33730Y4689D01*
G01X33588Y4673D01*
G37*
G36*
G01X34166Y4804D02*
G01X34108Y4673D01*
G01X33966Y4689D01*
G01X34051Y4574D01*
G01X33997Y4501D01*
G01X34040D01*
G01X34078Y4554D01*
G01X34093Y4574D01*
G01X34078Y4594D01*
G01X34040Y4647D01*
G01X34105Y4640D01*
G01X34129Y4637D01*
G01X34139Y4659D01*
G01X34166Y4719D01*
G01X34192Y4659D01*
G01X34202Y4637D01*
G01X34227Y4640D01*
G01X34292Y4647D01*
G01X34253Y4594D01*
G01X34239Y4574D01*
G01X34253Y4554D01*
G01X34292Y4501D01*
G01X34227Y4508D01*
G01X34202Y4511D01*
G01X34192Y4488D01*
G01X34166Y4428D01*
G01X34139Y4488D01*
G01X34129Y4511D01*
G01X34105Y4508D01*
G01X34040Y4501D01*
G01X33997D01*
G01X33966Y4459D01*
G01X34108Y4474D01*
G01X34166Y4343D01*
G01X34223Y4474D01*
G01X34365Y4459D01*
G01X34281Y4574D01*
G01X34365Y4689D01*
G01X34223Y4673D01*
G37*
G36*
G01X32896Y3534D02*
G01X32838Y3403D01*
G01X32696Y3419D01*
G01X32781Y3304D01*
G01X32727Y3231D01*
G01X32770D01*
G01X32808Y3284D01*
G01X32823Y3304D01*
G01X32808Y3324D01*
G01X32770Y3377D01*
G01X32835Y3370D01*
G01X32859Y3367D01*
G01X32869Y3389D01*
G01X32896Y3449D01*
G01X32922Y3389D01*
G01X32932Y3367D01*
G01X32957Y3370D01*
G01X33022Y3377D01*
G01X32983Y3324D01*
G01X32969Y3304D01*
G01X32983Y3284D01*
G01X33022Y3231D01*
G01X32957Y3238D01*
G01X32932Y3241D01*
G01X32922Y3218D01*
G01X32896Y3158D01*
G01X32869Y3218D01*
G01X32859Y3241D01*
G01X32835Y3238D01*
G01X32770Y3231D01*
G01X32727D01*
G01X32696Y3189D01*
G01X32838Y3204D01*
G01X32896Y3073D01*
G01X32953Y3204D01*
G01X33095Y3189D01*
G01X33011Y3304D01*
G01X33095Y3419D01*
G01X32953Y3403D01*
G37*
G36*
G01X33531Y3534D02*
G01X33473Y3403D01*
G01X33331Y3419D01*
G01X33416Y3304D01*
G01X33362Y3231D01*
G01X33405D01*
G01X33443Y3284D01*
G01X33458Y3304D01*
G01X33443Y3324D01*
G01X33405Y3377D01*
G01X33470Y3370D01*
G01X33494Y3367D01*
G01X33504Y3389D01*
G01X33531Y3449D01*
G01X33557Y3389D01*
G01X33567Y3367D01*
G01X33592Y3370D01*
G01X33657Y3377D01*
G01X33618Y3324D01*
G01X33604Y3304D01*
G01X33618Y3284D01*
G01X33657Y3231D01*
G01X33592Y3238D01*
G01X33567Y3241D01*
G01X33557Y3218D01*
G01X33531Y3158D01*
G01X33504Y3218D01*
G01X33494Y3241D01*
G01X33470Y3238D01*
G01X33405Y3231D01*
G01X33362D01*
G01X33331Y3189D01*
G01X33473Y3204D01*
G01X33531Y3073D01*
G01X33588Y3204D01*
G01X33730Y3189D01*
G01X33646Y3304D01*
G01X33730Y3419D01*
G01X33588Y3403D01*
G37*
G36*
G01X34166Y3534D02*
G01X34108Y3403D01*
G01X33966Y3419D01*
G01X34051Y3304D01*
G01X33997Y3231D01*
G01X34040D01*
G01X34078Y3284D01*
G01X34093Y3304D01*
G01X34078Y3324D01*
G01X34040Y3377D01*
G01X34105Y3370D01*
G01X34129Y3367D01*
G01X34139Y3389D01*
G01X34166Y3449D01*
G01X34192Y3389D01*
G01X34202Y3367D01*
G01X34227Y3370D01*
G01X34292Y3377D01*
G01X34253Y3324D01*
G01X34239Y3304D01*
G01X34253Y3284D01*
G01X34292Y3231D01*
G01X34227Y3238D01*
G01X34202Y3241D01*
G01X34192Y3218D01*
G01X34166Y3158D01*
G01X34139Y3218D01*
G01X34129Y3241D01*
G01X34105Y3238D01*
G01X34040Y3231D01*
G01X33997D01*
G01X33966Y3189D01*
G01X34108Y3204D01*
G01X34166Y3073D01*
G01X34223Y3204D01*
G01X34365Y3189D01*
G01X34281Y3304D01*
G01X34365Y3419D01*
G01X34223Y3403D01*
G37*
G36*
G01X25795Y3662D02*
G01X25738Y3532D01*
G01X25596Y3547D01*
G01X25680Y3432D01*
G01X25627Y3359D01*
G01X25669D01*
G01X25708Y3412D01*
G01X25723Y3432D01*
G01X25708Y3452D01*
G01X25669Y3505D01*
G01X25734Y3498D01*
G01X25759Y3495D01*
G01X25769Y3518D01*
G01X25795Y3577D01*
G01X25832Y3495D01*
G01X25857Y3498D01*
G01X25922Y3505D01*
G01X25883Y3452D01*
G01X25868Y3432D01*
G01X25883Y3412D01*
G01X25922Y3359D01*
G01X25857Y3366D01*
G01X25832Y3369D01*
G01X25795Y3286D01*
G01X25769Y3346D01*
G01X25759Y3369D01*
G01X25734Y3366D01*
G01X25669Y3359D01*
G01X25627D01*
G01X25596Y3317D01*
G01X25738Y3332D01*
G01X25795Y3201D01*
G01X25853Y3332D01*
G01X25995Y3317D01*
G01X25911Y3432D01*
G01X25995Y3547D01*
G01X25853Y3532D01*
G37*
G36*
G01X23255Y3662D02*
G01X23198Y3532D01*
G01X23056Y3547D01*
G01X23140Y3432D01*
G01X23087Y3359D01*
G01X23129D01*
G01X23168Y3412D01*
G01X23183Y3432D01*
G01X23168Y3452D01*
G01X23129Y3505D01*
G01X23194Y3498D01*
G01X23219Y3495D01*
G01X23229Y3518D01*
G01X23255Y3577D01*
G01X23292Y3495D01*
G01X23317Y3498D01*
G01X23382Y3505D01*
G01X23343Y3452D01*
G01X23328Y3432D01*
G01X23343Y3412D01*
G01X23382Y3359D01*
G01X23317Y3366D01*
G01X23292Y3369D01*
G01X23255Y3286D01*
G01X23229Y3346D01*
G01X23219Y3369D01*
G01X23194Y3366D01*
G01X23129Y3359D01*
G01X23087D01*
G01X23056Y3317D01*
G01X23198Y3332D01*
G01X23255Y3201D01*
G01X23313Y3332D01*
G01X23455Y3317D01*
G01X23371Y3432D01*
G01X23455Y3547D01*
G01X23313Y3532D01*
G37*
G36*
G01X24511Y2348D02*
G01X24454Y2218D01*
G01X24312Y2234D01*
G01X24396Y2118D01*
G01X24343Y2046D01*
G01X24385D01*
G01X24424Y2098D01*
G01X24438Y2118D01*
G01X24424Y2139D01*
G01X24385Y2191D01*
G01X24450Y2184D01*
G01X24474Y2181D01*
G01X24485Y2204D01*
G01X24511Y2264D01*
G01X24537Y2204D01*
G01X24548Y2181D01*
G01X24572Y2184D01*
G01X24637Y2191D01*
G01X24598Y2139D01*
G01X24584Y2118D01*
G01X24598Y2098D01*
G01X24637Y2046D01*
G01X24572Y2052D01*
G01X24548Y2055D01*
G01X24537Y2033D01*
G01X24511Y1973D01*
G01X24485Y2033D01*
G01X24474Y2055D01*
G01X24450Y2052D01*
G01X24385Y2046D01*
G01X24343D01*
G01X24312Y2003D01*
G01X24454Y2019D01*
G01X24511Y1888D01*
G01X24568Y2019D01*
G01X24711Y2003D01*
G01X24626Y2118D01*
G01X24711Y2234D01*
G01X24568Y2218D01*
G37*
G36*
G01X23876Y2348D02*
G01X23819Y2218D01*
G01X23677Y2234D01*
G01X23761Y2118D01*
G01X23708Y2046D01*
G01X23750D01*
G01X23789Y2098D01*
G01X23803Y2118D01*
G01X23789Y2139D01*
G01X23750Y2191D01*
G01X23815Y2184D01*
G01X23839Y2181D01*
G01X23850Y2204D01*
G01X23876Y2264D01*
G01X23902Y2204D01*
G01X23913Y2181D01*
G01X23937Y2184D01*
G01X24002Y2191D01*
G01X23963Y2139D01*
G01X23949Y2118D01*
G01X23963Y2098D01*
G01X24002Y2046D01*
G01X23937Y2052D01*
G01X23913Y2055D01*
G01X23902Y2033D01*
G01X23876Y1973D01*
G01X23850Y2033D01*
G01X23839Y2055D01*
G01X23815Y2052D01*
G01X23750Y2046D01*
G01X23708D01*
G01X23677Y2003D01*
G01X23819Y2019D01*
G01X23876Y1888D01*
G01X23933Y2019D01*
G01X24076Y2003D01*
G01X23991Y2118D01*
G01X24076Y2234D01*
G01X23933Y2218D01*
G37*
G36*
G01X25146Y2348D02*
G01X25089Y2218D01*
G01X24947Y2234D01*
G01X25031Y2118D01*
G01X24978Y2046D01*
G01X25020D01*
G01X25059Y2098D01*
G01X25073Y2118D01*
G01X25059Y2139D01*
G01X25020Y2191D01*
G01X25085Y2184D01*
G01X25109Y2181D01*
G01X25120Y2204D01*
G01X25146Y2264D01*
G01X25172Y2204D01*
G01X25183Y2181D01*
G01X25207Y2184D01*
G01X25272Y2191D01*
G01X25233Y2139D01*
G01X25219Y2118D01*
G01X25233Y2098D01*
G01X25272Y2046D01*
G01X25207Y2052D01*
G01X25183Y2055D01*
G01X25172Y2033D01*
G01X25146Y1973D01*
G01X25120Y2033D01*
G01X25109Y2055D01*
G01X25085Y2052D01*
G01X25020Y2046D01*
G01X24978D01*
G01X24947Y2003D01*
G01X25089Y2019D01*
G01X25146Y1888D01*
G01X25203Y2019D01*
G01X25346Y2003D01*
G01X25261Y2118D01*
G01X25346Y2234D01*
G01X25203Y2218D01*
G37*
G36*
G01X22912Y5489D02*
G01X22854Y5359D01*
G01X22713Y5374D01*
G01X22797Y5259D01*
G01X22744Y5186D01*
G01X22786D01*
G01X22824Y5239D01*
G01X22839Y5259D01*
G01X22824Y5279D01*
G01X22786Y5332D01*
G01X22851Y5325D01*
G01X22876Y5322D01*
G01X22912Y5405D01*
G01X22938Y5345D01*
G01X22948Y5322D01*
G01X22973Y5325D01*
G01X23038Y5332D01*
G01X23000Y5279D01*
G01X22985Y5259D01*
G01X23000Y5239D01*
G01X23038Y5186D01*
G01X22973Y5193D01*
G01X22948Y5196D01*
G01X22938Y5173D01*
G01X22912Y5114D01*
G01X22876Y5196D01*
G01X22851Y5193D01*
G01X22786Y5186D01*
G01X22744D01*
G01X22713Y5144D01*
G01X22854Y5159D01*
G01X22912Y5029D01*
G01X22970Y5159D01*
G01X23111Y5144D01*
G01X23027Y5259D01*
G01X23111Y5374D01*
G01X22970Y5359D01*
G37*
G36*
G01X22165Y6595D02*
G01X22107Y6465D01*
G01X21965Y6480D01*
G01X22050Y6365D01*
G01X21996Y6292D01*
G01X22039D01*
G01X22077Y6345D01*
G01X22092Y6365D01*
G01X22077Y6385D01*
G01X22039Y6438D01*
G01X22104Y6431D01*
G01X22128Y6428D01*
G01X22165Y6511D01*
G01X22191Y6451D01*
G01X22201Y6428D01*
G01X22226Y6431D01*
G01X22291Y6438D01*
G01X22252Y6385D01*
G01X22238Y6365D01*
G01X22252Y6345D01*
G01X22291Y6292D01*
G01X22226Y6299D01*
G01X22201Y6302D01*
G01X22191Y6279D01*
G01X22165Y6219D01*
G01X22128Y6302D01*
G01X22104Y6299D01*
G01X22039Y6292D01*
G01X21996D01*
G01X21965Y6250D01*
G01X22107Y6265D01*
G01X22165Y6135D01*
G01X22222Y6265D01*
G01X22364Y6250D01*
G01X22280Y6365D01*
G01X22364Y6480D01*
G01X22222Y6465D01*
G37*
G36*
G01X21642Y6124D02*
G01X21584Y5994D01*
G01X21443Y6009D01*
G01X21527Y5894D01*
G01X21474Y5821D01*
G01X21516D01*
G01X21554Y5874D01*
G01X21569Y5894D01*
G01X21554Y5914D01*
G01X21516Y5967D01*
G01X21581Y5960D01*
G01X21606Y5957D01*
G01X21642Y6040D01*
G01X21668Y5980D01*
G01X21678Y5957D01*
G01X21703Y5960D01*
G01X21768Y5967D01*
G01X21730Y5914D01*
G01X21715Y5894D01*
G01X21730Y5874D01*
G01X21768Y5821D01*
G01X21703Y5828D01*
G01X21678Y5831D01*
G01X21668Y5808D01*
G01X21642Y5749D01*
G01X21606Y5831D01*
G01X21581Y5828D01*
G01X21516Y5821D01*
G01X21474D01*
G01X21443Y5779D01*
G01X21584Y5794D01*
G01X21642Y5664D01*
G01X21700Y5794D01*
G01X21841Y5779D01*
G01X21757Y5894D01*
G01X21841Y6009D01*
G01X21700Y5994D01*
G37*
G36*
G01X19304Y6453D02*
G01X19247Y6323D01*
G01X19105Y6338D01*
G01X19189Y6223D01*
G01X19136Y6150D01*
G01X19178D01*
G01X19217Y6203D01*
G01X19231Y6223D01*
G01X19217Y6243D01*
G01X19178Y6296D01*
G01X19243Y6289D01*
G01X19267Y6286D01*
G01X19278Y6309D01*
G01X19304Y6369D01*
G01X19330Y6309D01*
G01X19341Y6286D01*
G01X19365Y6289D01*
G01X19430Y6296D01*
G01X19391Y6243D01*
G01X19377Y6223D01*
G01X19391Y6203D01*
G01X19430Y6150D01*
G01X19365Y6157D01*
G01X19341Y6160D01*
G01X19330Y6137D01*
G01X19304Y6077D01*
G01X19278Y6137D01*
G01X19267Y6160D01*
G01X19243Y6157D01*
G01X19178Y6150D01*
G01X19136D01*
G01X19105Y6108D01*
G01X19247Y6123D01*
G01X19304Y5993D01*
G01X19361Y6123D01*
G01X19504Y6108D01*
G01X19419Y6223D01*
G01X19504Y6338D01*
G01X19361Y6323D01*
G37*
G36*
G01X19304Y5818D02*
G01X19247Y5688D01*
G01X19105Y5703D01*
G01X19189Y5588D01*
G01X19136Y5515D01*
G01X19178D01*
G01X19217Y5568D01*
G01X19231Y5588D01*
G01X19217Y5608D01*
G01X19178Y5661D01*
G01X19243Y5654D01*
G01X19267Y5651D01*
G01X19278Y5674D01*
G01X19304Y5734D01*
G01X19330Y5674D01*
G01X19341Y5651D01*
G01X19365Y5654D01*
G01X19430Y5661D01*
G01X19391Y5608D01*
G01X19377Y5588D01*
G01X19391Y5568D01*
G01X19430Y5515D01*
G01X19365Y5522D01*
G01X19341Y5525D01*
G01X19330Y5502D01*
G01X19304Y5442D01*
G01X19278Y5502D01*
G01X19267Y5525D01*
G01X19243Y5522D01*
G01X19178Y5515D01*
G01X19136D01*
G01X19105Y5473D01*
G01X19247Y5488D01*
G01X19304Y5358D01*
G01X19361Y5488D01*
G01X19504Y5473D01*
G01X19419Y5588D01*
G01X19504Y5703D01*
G01X19361Y5688D01*
G37*
G36*
G01X28321Y20042D02*
G01X28264Y19912D01*
G01X28122Y19927D01*
G01X28206Y19812D01*
G01X28153Y19739D01*
G01X28195D01*
G01X28234Y19792D01*
G01X28248Y19812D01*
G01X28234Y19832D01*
G01X28195Y19885D01*
G01X28260Y19878D01*
G01X28284Y19875D01*
G01X28295Y19898D01*
G01X28321Y19958D01*
G01X28347Y19898D01*
G01X28358Y19875D01*
G01X28382Y19878D01*
G01X28447Y19885D01*
G01X28408Y19832D01*
G01X28394Y19812D01*
G01X28408Y19792D01*
G01X28447Y19739D01*
G01X28382Y19746D01*
G01X28358Y19749D01*
G01X28347Y19726D01*
G01X28321Y19666D01*
G01X28295Y19726D01*
G01X28284Y19749D01*
G01X28260Y19746D01*
G01X28195Y19739D01*
G01X28153D01*
G01X28122Y19697D01*
G01X28264Y19712D01*
G01X28321Y19582D01*
G01X28378Y19712D01*
G01X28521Y19697D01*
G01X28436Y19812D01*
G01X28521Y19927D01*
G01X28378Y19912D01*
G37*
G36*
G01X30041Y20098D02*
G01X29983Y19967D01*
G01X29841Y19983D01*
G01X29926Y19868D01*
G01X29872Y19795D01*
G01X29915D01*
G01X29953Y19848D01*
G01X29968Y19868D01*
G01X29953Y19888D01*
G01X29915Y19941D01*
G01X29980Y19933D01*
G01X30004Y19931D01*
G01X30041Y20013D01*
G01X30077Y19931D01*
G01X30102Y19933D01*
G01X30167Y19941D01*
G01X30128Y19888D01*
G01X30114Y19868D01*
G01X30128Y19848D01*
G01X30167Y19795D01*
G01X30102Y19802D01*
G01X30077Y19804D01*
G01X30041Y19722D01*
G01X30004Y19804D01*
G01X29980Y19802D01*
G01X29915Y19795D01*
G01X29872D01*
G01X29841Y19753D01*
G01X29983Y19768D01*
G01X30041Y19637D01*
G01X30098Y19768D01*
G01X30240Y19753D01*
G01X30156Y19868D01*
G01X30240Y19983D01*
G01X30098Y19967D01*
G37*
G36*
G01X10668Y16359D02*
G01X10611Y16229D01*
G01X10469Y16244D01*
G01X10553Y16129D01*
G01X10500Y16056D01*
G01X10542D01*
G01X10581Y16109D01*
G01X10595Y16129D01*
G01X10581Y16149D01*
G01X10542Y16202D01*
G01X10607Y16195D01*
G01X10631Y16192D01*
G01X10642Y16215D01*
G01X10668Y16275D01*
G01X10694Y16215D01*
G01X10705Y16192D01*
G01X10729Y16195D01*
G01X10794Y16202D01*
G01X10755Y16149D01*
G01X10741Y16129D01*
G01X10755Y16109D01*
G01X10794Y16056D01*
G01X10729Y16063D01*
G01X10705Y16066D01*
G01X10694Y16043D01*
G01X10668Y15983D01*
G01X10642Y16043D01*
G01X10631Y16066D01*
G01X10607Y16063D01*
G01X10542Y16056D01*
G01X10500D01*
G01X10469Y16014D01*
G01X10611Y16029D01*
G01X10668Y15899D01*
G01X10725Y16029D01*
G01X10868Y16014D01*
G01X10783Y16129D01*
G01X10868Y16244D01*
G01X10725Y16229D01*
G37*
G04 Image End*
G54D10*

M02*
